g Arrow 1
v -0.6054031 -0.03485521 0.1172173
v -0.6054031 0.03485521 -0.4327385
v -0.6054031 0.03485521 0.1172173
v -0.6054031 -0.03485521 -0.4327385
v 0 0.03485521 -0.8173475
v 0 -0.03485521 -0.8173475
v 0 -0.03485521 -0.8173475
v 0.6054031 0.03485521 -0.4327385
v 0 0.03485521 -0.8173475
v 0.6054031 -0.03485521 -0.4327385
v 0.6054031 0.03485521 0.1172173
v 0.6054031 -0.03485521 0.1172173
v 0 -0.03485521 -0.2673916
v -0.6054031 -0.03485521 0.1172173
v -0.6054031 0.03485521 0.1172173
v 0 0.03485521 -0.2673916
v 0 -0.03485521 -0.8173475
v 0.6054031 -0.03485521 0.1172173
v 0.6054031 -0.03485521 -0.4327385
v 0 -0.03485521 -0.2673916
v -0.6054031 -0.03485521 -0.4327385
v -0.6054031 -0.03485521 0.1172173
v 0 0.03485521 -0.8173475
v -0.6054031 0.03485521 0.1172173
v -0.6054031 0.03485521 -0.4327385
v 0 0.03485521 -0.2673916
v 0.6054031 0.03485521 -0.4327385
v 0.6054031 0.03485521 0.1172173
v 0.6054031 -0.03485521 0.1172173
v 0 -0.03485521 -0.2673916
v 0 0.03485521 -0.2673916
v 0.6054031 0.03485521 0.1172173
vt 0.375 0
vt 0.625 0.25
vt 0.625 0
vt 0.375 0.25
vt 0.625 0.375
vt 0.375 0.375
vt 0.375 0.375
vt 0.625 0.5
vt 0.625 0.375
vt 0.375 0.5
vt 0.625 0.75
vt 0.375 0.75
vt 0.375 0.875
vt 0.375 1
vt 0.625 1
vt 0.625 0.875
vt 0.25 0.5
vt 0.375 0.75
vt 0.375 0.5
vt 0.25 0.75
vt 0.125 0.5
vt 0.125 0.75
vt 0.75 0.5
vt 0.875 0.75
vt 0.875 0.5
vt 0.75 0.75
vt 0.625 0.5
vt 0.625 0.75
vt 0.375 0.75
vt 0.375 0.875
vt 0.625 0.875
vt 0.625 0.75
vn -1 0 0
vn -0.8393555 0 -0.543457
vn -1 0 0
vn -0.8393555 0 -0.543457
vn -0.5361328 0 -0.8442383
vn -0.5361328 0 -0.8442383
vn 0.5361328 0 -0.8442383
vn 0.8393555 0 -0.543457
vn 0.5361328 0 -0.8442383
vn 0.8393555 0 -0.543457
vn 1 0 0
vn 1 0 0
vn 0.5361328 0 0.8442383
vn 0.5361328 0 0.8442383
vn 0.5361328 0 0.8442383
vn 0.5361328 0 0.8442383
vn 0 -1 0
vn 0 -1 0
vn 0 -1 0
vn 0 -1 0
vn 0 -1 0
vn 0 -1 0
vn 0 1 0
vn 0 1 0
vn 0 1 0
vn 0 1 0
vn 0 1 0
vn 0 1 0
vn -0.5361328 0 0.8442383
vn -0.5361328 0 0.8442383
vn -0.5361328 0 0.8442383
vn -0.5361328 0 0.8442383
g Arrow 1_0
f 3/3/3 2/2/2 1/1/1
f 2/2/2 4/4/4 1/1/1
f 2/2/2 5/5/5 4/4/4
f 5/5/5 6/6/6 4/4/4
f 9/9/9 8/8/8 7/7/7
f 8/8/8 10/10/10 7/7/7
f 8/8/8 11/11/11 10/10/10
f 11/11/11 12/12/12 10/10/10
f 15/15/15 14/14/14 13/13/13
f 16/16/16 15/15/15 13/13/13
f 19/19/19 18/18/18 17/17/17
f 18/18/18 20/20/20 17/17/17
f 17/17/17 20/20/20 21/21/21
f 20/20/20 22/22/22 21/21/21
f 25/25/25 24/24/24 23/23/23
f 24/24/24 26/26/26 23/23/23
f 23/23/23 26/26/26 27/27/27
f 26/26/26 28/28/28 27/27/27
f 31/31/31 30/30/30 29/29/29
f 32/32/32 31/31/31 29/29/29
