g Bone
v -0.5045598 0.2696252 -0.07842068
v -0.5128378 0.2871548 -4.678346E-08
v -0.585306 0.3171227 -5.166585E-08
v -0.5969375 0.2733142 -0.112788
v -0.6933131 0.2540259 -4.138607E-08
v -0.6621702 0.2301494 -0.1093603
v -0.3910594 0.2189323 -0.1067915
v -0.4920404 0.146478 -0.1708813
v -0.3036178 0.2353944 -3.835062E-08
v -0.5128378 0.2871548 -4.678346E-08
v -0.2867403 0.1123097 -1.829757E-08
v -0.337088 0.1139869 -0.09550729
v -0.6288223 0.1130748 -0.1357432
v -0.6933131 0.2540259 -4.138607E-08
v -0.6784266 0.100994 -1.6454E-08
v -0.4568583 0.01569171 -0.1271319
v -0.2867403 0.1123097 -1.829757E-08
v -0.5744848 0.009397251 -0.1112132
v -0.6027372 -0.01473236 2.400206E-09
v -0.4684381 -0.03172165 5.168113E-09
v -0.337088 0.1139869 0.09550726
v -0.2867403 0.1123097 -1.829757E-08
v -0.4568583 0.01569175 0.1271319
v -0.3910594 0.2189323 0.1067914
v -0.5045598 0.2696252 0.07842059
v -0.4920404 0.1464781 0.1708812
v -0.5744848 0.009397286 0.1112132
v -0.6288223 0.1130748 0.1357432
v -0.6784266 0.100994 -1.6454E-08
v -0.5969375 0.2733143 0.1127879
v -0.5128378 0.2871548 -4.678346E-08
v -0.585306 0.3171227 -5.166585E-08
v -0.6621702 0.2301494 0.1093603
v -0.6933131 0.2540259 -4.138607E-08
v -0.6933131 0.2540259 -4.138607E-08
v 0.3798634 0.4040139 -0.0830522
v 0.4583291 0.4764485 -7.762331E-08
v 0.3555155 0.4261526 -6.942907E-08
v 0.471423 0.4253223 -0.1019227
v 0.3599936 0.3162657 -0.1011229
v 0.3094544 0.3229145 -5.260944E-08
v 0.3555155 0.4261526 -6.942907E-08
v 0.3413328 0.220195 -3.587433E-08
v 0.367804 0.2324329 -0.07493439
v 0.4620169 0.195779 -0.08247307
v 0.456855 0.1579171 -2.572797E-08
v 0.4745677 0.3052506 -0.1375573
v 0.5664967 0.4085163 -0.08350769
v 0.5880013 0.3003758 -0.09854492
v 0.5854112 0.4351871 -7.090099E-08
v 0.5570543 0.2036656 -0.06914127
v 0.6337695 0.3018862 -4.91835E-08
v 0.5664967 0.4085163 0.08350755
v 0.5718193 0.1859417 -3.029376E-08
v 0.471423 0.4253223 0.1019226
v 0.3555155 0.4261526 -6.942907E-08
v 0.3798634 0.4040139 0.08305207
v 0.5880013 0.3003758 0.09854481
v 0.4745677 0.3052507 0.1375572
v 0.5570543 0.2036657 0.0691412
v 0.4620169 0.195779 0.08247301
v 0.3599936 0.3162657 0.1011228
v 0.3555155 0.4261526 -6.942907E-08
v 0.3094544 0.3229145 -5.260944E-08
v 0.367804 0.2324329 0.07493431
v 0.3413328 0.220195 -3.587433E-08
v -0.6174314 0.3177214 0.07825563
v -0.642979 0.4031335 -6.567879E-08
v -0.6314772 0.3925391 0.06734415
v -0.6205491 0.3121803 -5.086063E-08
v -0.590166 0.2364564 0.05819159
v -0.6314772 0.3925391 -0.06734429
v -0.6004639 0.2118159 -3.450919E-08
v -0.6174314 0.3177214 -0.07825574
v -0.590166 0.2364563 -0.05819166
v -0.4891836 0.2187876 -3.564503E-08
v -0.6004639 0.2118159 -3.450919E-08
v -0.590166 0.2364564 0.05819159
v -0.5097147 0.2482433 0.06914481
v -0.6174314 0.3177214 0.07825563
v -0.3813837 0.256346 -4.176407E-08
v -0.525351 0.3412203 0.11371
v -0.6314772 0.3925391 0.06734415
v -0.4186703 0.266793 0.09004097
v -0.4052112 0.3403703 0.09134299
v -0.3624666 0.3428618 -5.585929E-08
v -0.5379024 0.4215906 0.08406521
v -0.642979 0.4031335 -6.567879E-08
v -0.4341548 0.4109225 0.06535009
v -0.4148707 0.4242414 -6.91177E-08
v -0.5439856 0.4550832 -7.414246E-08
v -0.6314772 0.3925391 -0.06734429
v -0.4148707 0.4242414 -6.91177E-08
v -0.5379024 0.4215906 -0.08406534
v -0.6174314 0.3177214 -0.07825574
v -0.4341548 0.4109225 -0.06535022
v -0.525351 0.3412202 -0.1137101
v -0.590166 0.2364563 -0.05819166
v -0.4052112 0.3403703 -0.0913431
v -0.4148707 0.4242414 -6.91177E-08
v -0.3624666 0.3428618 -5.585929E-08
v -0.5097147 0.2482433 -0.06914488
v -0.6004639 0.2118159 -3.450919E-08
v -0.4891836 0.2187876 -3.564503E-08
v -0.4186703 0.266793 -0.09004107
v -0.3813837 0.256346 -4.176407E-08
v 0.4469892 0.2308146 -0.07290068
v 0.4329518 0.2600692 -0.002836562
v -0.0243226 0.2792653 -0.01101611
v -0.014927 0.2507533 -0.08081829
v -0.555902 0.3170995 -0.001103585
v 0.4572 0.1599237 -0.1021595
v -0.5628763 0.2862737 -0.07039966
v -0.01183924 0.1841364 -0.1110837
v 0.4568584 0.08915895 -0.07343297
v -0.5363339 0.206204 -0.09876154
v -0.01920927 0.1187599 -0.08426783
v 0.446616 0.0603472 -0.003548561
v -0.4957535 0.1254485 -0.06964201
v -0.03408787 0.09269491 -0.01610011
v 0.432907 0.09001014 0.06652576
v -0.466529 0.09144562 -8.922075E-05
v -0.04458851 0.1207159 0.05372693
v 0.423536 0.1604949 0.09573525
v -0.04355663 0.1866521 0.08428696
v 0.4235533 0.2308546 0.06699847
v -0.4619192 0.1224666 0.06922062
v -0.4833907 0.2003019 0.09767482
v -0.4833907 0.2003019 0.09767482
v -0.03450939 0.2523646 0.0574581
v 0.4329518 0.2600692 -0.002836562
v -0.521641 0.2808732 0.0685411
v -0.0243226 0.2792653 -0.01101611
v -0.555902 0.3170995 -0.001103585
v -0.5351379 0.2083747 -0.000642253
v -0.4957535 0.1254485 -0.06964201
v -0.521641 0.2808732 0.0685411
v -0.5363339 0.206204 -0.09876154
v -0.555902 0.3170995 -0.001103585
v -0.5628763 0.2862737 -0.07039966
v 0.423536 0.1604949 0.09573525
v 0.4235533 0.2308546 0.06699847
v 0.4329518 0.2600692 -0.002836562
v 0.4500269 0.1599616 -0.003596433
v 0.432907 0.09001014 0.06652576
v 0.4469892 0.2308146 -0.07290068
v 0.446616 0.0603472 -0.003548561
v 0.4572 0.1599237 -0.1021595
v 0.4568584 0.08915895 -0.07343297
v 0.6366643 -0.001679854 -0.1013107
v 0.6678442 -0.02355897 3.838244E-09
v 0.7343742 0.1131454 -1.843373E-08
v 0.490719 -0.05490067 8.944456E-09
v 0.6696222 0.1107851 -0.125846
v 0.6937584 0.2595556 -4.228698E-08
v 0.4968995 -0.01135148 -0.1150143
v 0.6622664 0.2259092 -0.106653
v 0.5199487 0.1130729 -0.1637851
v 0.5680859 0.241134 -0.124733
v 0.5997945 0.2980377 -4.855652E-08
v 0.3690132 0.03175092 -0.09397698
v 0.3749387 0.1314559 -0.1146552
v 0.3371176 0.01801443 -2.934923E-09
v 0.4517715 0.220531 -0.09507456
v 0.3170633 0.1479807 -2.410911E-08
v 0.3690132 0.03175094 0.09397696
v 0.4451568 0.2441154 -3.977145E-08
v 0.4968995 -0.01135145 0.1150143
v 0.6678442 -0.02355897 3.838244E-09
v 0.3749387 0.1314559 0.1146551
v 0.5680859 0.241134 0.1247329
v 0.4517715 0.220531 0.09507448
v 0.5199487 0.113073 0.163785
v 0.6366643 -0.001679821 0.1013107
v 0.6696222 0.1107852 0.125846
v 0.7343742 0.1131454 -1.843373E-08
v 0.6622664 0.2259092 0.1066529
v 0.6937584 0.2595556 -4.228698E-08
vt 0.4899242 0.9810049
vt 0.4908324 0.981379
vt 0.4915053 0.9807946
vt 0.4907142 0.9803075
vt 0.4919524 0.9791894
vt 0.4910055 0.9794706
vt 0.489458 0.9805244
vt 0.4899568 0.9794858
vt 0.4885412 0.9807177
vt 0.4885412 0.9815258
vt 0.4885412 0.9799168
vt 0.4891002 0.9797838
vt 0.4903564 0.9785087
vt 0.4919524 0.9791894
vt 0.4907745 0.9774396
vt 0.4892948 0.9786794
vt 0.4885412 0.9799168
vt 0.4894475 0.9779331
vt 0.4885412 0.9771783
vt 0.4885412 0.9782418
vt 0.4879835 0.9798526
vt 0.4885412 0.9799168
vt 0.4877619 0.9787986
vt 0.4875238 0.9805681
vt 0.4871371 0.9810143
vt 0.4870982 0.9795865
vt 0.4876603 0.9781163
vt 0.486743 0.9784738
vt 0.4864236 0.9774289
vt 0.4863388 0.980127
vt 0.4862951 0.9813564
vt 0.485519 0.9806971
vt 0.4860605 0.9793212
vt 0.4851683 0.9790985
vt 0.4851683 0.9790985
vt 0.4944111 0.9764526
vt 0.4925293 0.977325
vt 0.4940408 0.9774196
vt 0.4936184 0.9765195
vt 0.4945258 0.9753998
vt 0.4953428 0.9750095
vt 0.4953789 0.9762634
vt 0.4945485 0.9738103
vt 0.4942199 0.9744583
vt 0.4933552 0.9742327
vt 0.4925293 0.9736071
vt 0.4937823 0.9753341
vt 0.4931074 0.976154
vt 0.493138 0.9753578
vt 0.4925293 0.9764428
vt 0.4929619 0.9745578
vt 0.4925293 0.9754321
vt 0.491935 0.9762933
vt 0.4925293 0.9744641
vt 0.4914256 0.9765206
vt 0.4909774 0.9774485
vt 0.4905908 0.9764327
vt 0.4919233 0.9754529
vt 0.4912528 0.97543
vt 0.4920621 0.9746962
vt 0.4916995 0.9742929
vt 0.4905624 0.9753454
vt 0.4896765 0.9763345
vt 0.4896797 0.9749411
vt 0.4908696 0.9744278
vt 0.4905781 0.973842
vt 0.4875318 0.9749467
vt 0.4870139 0.9755202
vt 0.4874143 0.9754785
vt 0.4870139 0.9747876
vt 0.4875411 0.9743061
vt 0.4866457 0.975541
vt 0.4870139 0.973877
vt 0.4864956 0.9750394
vt 0.4864878 0.9743901
vt 0.4887088 0.9740752
vt 0.4870139 0.973877
vt 0.4875411 0.9743061
vt 0.4883222 0.9746155
vt 0.4875318 0.9749467
vt 0.489657 0.9751847
vt 0.4880672 0.9754996
vt 0.4874143 0.9754785
vt 0.4888404 0.9753859
vt 0.4886854 0.9761301
vt 0.4894966 0.9763083
vt 0.4876825 0.9761296
vt 0.4870139 0.9755202
vt 0.488092 0.9767953
vt 0.4887851 0.9771317
vt 0.4870139 0.9763333
vt 0.4866457 0.975541
vt 0.4870139 0.9771966
vt 0.486284 0.9761472
vt 0.4864956 0.9750394
vt 0.486004 0.9767717
vt 0.4859472 0.9755462
vt 0.4864878 0.9743901
vt 0.4853967 0.9760776
vt 0.4854054 0.9771806
vt 0.4845563 0.9763305
vt 0.4857365 0.9746467
vt 0.4870139 0.973877
vt 0.4853593 0.9740939
vt 0.4852064 0.9753625
vt 0.484437 0.9752303
vt 0.4928736 0.9776442
vt 0.4921311 0.9777355
vt 0.4916709 0.982667
vt 0.4923599 0.9824796
vt 0.4934705 0.987757
vt 0.4931903 0.9779615
vt 0.4938301 0.9872983
vt 0.4930556 0.9823607
vt 0.4934959 0.9783146
vt 0.4943531 0.9868491
vt 0.4937677 0.9823379
vt 0.4939197 0.9784231
vt 0.4948255 0.986359
vt 0.4945338 0.982374
vt 0.4943301 0.9784485
vt 0.4953297 0.9861689
vt 0.4953165 0.9823533
vt 0.4946836 0.9782495
vt 0.4960367 0.9822158
vt 0.4950029 0.9779024
vt 0.4958628 0.9862359
vt 0.4964055 0.9867678
vt 0.4964055 0.9867678
vt 0.4966902 0.981982
vt 0.4951083 0.977282
vt 0.4972727 0.9870299
vt 0.4973327 0.981681
vt 0.4980652 0.9872709
vt 0.4949372 0.9872338
vt 0.4948255 0.986359
vt 0.4950598 0.9878964
vt 0.4943531 0.9868491
vt 0.4934705 0.987757
vt 0.4938301 0.9872983
vt 0.4946836 0.9782495
vt 0.4950029 0.9779024
vt 0.4951083 0.977282
vt 0.4940546 0.9777091
vt 0.4943301 0.9784485
vt 0.4928736 0.9776442
vt 0.4939197 0.9784231
vt 0.4931903 0.9779615
vt 0.4934959 0.9783146
vt 0.4871348 0.9845276
vt 0.4865471 0.9840027
vt 0.4860338 0.9861562
vt 0.4892896 0.9832709
vt 0.4870046 0.9857671
vt 0.4875738 0.987833
vt 0.4882394 0.9842272
vt 0.487644 0.9868242
vt 0.4879301 0.985529
vt 0.488274 0.986797
vt 0.4892896 0.9877513
vt 0.4887246 0.9847155
vt 0.4886624 0.9854446
vt 0.4892896 0.9843881
vt 0.4887061 0.9863297
vt 0.4892896 0.9853534
vt 0.4898221 0.9845023
vt 0.4892896 0.9864994
vt 0.4903082 0.9841252
vt 0.4920845 0.983921
vt 0.4899358 0.9853062
vt 0.4904063 0.9867075
vt 0.4899138 0.9861435
vt 0.4906605 0.9853924
vt 0.4914297 0.9845837
vt 0.4915472 0.9858229
vt 0.4925881 0.9861223
vt 0.4909703 0.986926
vt 0.4910518 0.9877738
vn 0.2367488 0.8150023 -0.5288869
vn 0.2726238 0.9621207 0
vn -0.1815706 0.9833779 0
vn -0.1844786 0.6469986 -0.7398381
vn -0.5272378 0.8497178 0
vn -0.7326273 0.2423183 -0.6360338
vn 0.4657394 0.5264461 -0.7112955
vn 0.1168184 0.08337665 -0.9896473
vn 0.7473666 0.6644118 0
vn 0.2726238 0.9621207 0
vn 0.7986008 0.2204105 -0.5600501
vn 0.7073098 -0.3300313 -0.6251336
vn -0.6240508 -0.2234015 -0.7487673
vn -0.989355 -0.1455227 0
vn -0.9405214 -0.3397344 0
vn 0.3289131 -0.6485971 -0.6863949
vn 0.64424 -0.7648234 0
vn -0.3817398 -0.6865757 -0.6187798
vn -0.5465843 -0.8374041 0
vn 0.3405569 -0.9402239 0
vn 0.7073098 -0.3300312 0.6251337
vn 0.7986008 0.2204107 0.56005
vn 0.328913 -0.6485967 0.6863952
vn 0.4657393 0.5264463 0.7112954
vn 0.2367489 0.8150023 0.5288867
vn 0.1168184 0.08337694 0.9896472
vn -0.3817398 -0.6865754 0.6187801
vn -0.6240508 -0.2234012 0.7487673
vn -0.9405214 -0.3397344 0
vn -0.1844785 0.646999 0.7398379
vn 0.2726238 0.9621207 0
vn -0.1815706 0.9833779 0
vn -0.7326273 0.2423185 0.6360338
vn -0.989355 -0.1455227 0
vn -0.5272378 0.8497178 0
vn -0.5322843 0.5298775 -0.6602297
vn -0.05143553 0.9986762 0
vn -0.7131379 0.7010238 0
vn 0.009524559 0.6359643 -0.7716597
vn -0.6168282 -0.0003181013 -0.7870977
vn -0.9972841 0.07365073 0
vn -0.7131379 0.7010238 0
vn -0.7759373 -0.63081 0
vn -0.5604119 -0.5315765 -0.6351101
vn -0.07662333 -0.6926875 -0.7171561
vn -0.1504351 -0.9886199 0
vn 0.01659674 -0.07278188 -0.9972097
vn 0.5550017 0.5241268 -0.6459599
vn 0.6579551 -0.06931148 -0.7498607
vn 0.6998228 0.7143164 0
vn 0.4823762 -0.618198 -0.6206002
vn 0.9993883 -0.0349724 0
vn 0.5550017 0.524127 0.6459597
vn 0.6472062 -0.7623149 0
vn 0.009524591 0.6359645 0.7716595
vn -0.7131379 0.7010238 0
vn -0.5322843 0.5298776 0.6602296
vn 0.6579551 -0.06931117 0.7498607
vn 0.01659677 -0.07278158 0.9972098
vn 0.4823762 -0.6181976 0.6206003
vn -0.07662334 -0.6926872 0.7171565
vn -0.6168283 -0.0003178307 0.7870976
vn -0.7131379 0.7010238 0
vn -0.9972841 0.07365073 0
vn -0.5604119 -0.5315763 0.6351103
vn -0.7759373 -0.63081 0
vn -0.9645544 -0.2351972 0.1196544
vn -0.9778762 -0.2091844 0
vn -0.9738588 -0.208325 0.0905534
vn -0.9707247 -0.2401948 0
vn -0.952143 -0.2650404 0.152241
vn -0.9738588 -0.208325 -0.09055341
vn -0.9633726 -0.2681663 0
vn -0.9645544 -0.2351972 -0.1196543
vn -0.952143 -0.2650405 -0.152241
vn 0.1795332 -0.9837519 0
vn 0.07303688 -0.9973292 0
vn -0.06388143 -0.681365 0.7291509
vn 0.04272991 -0.6819582 0.7301419
vn -0.2491392 -0.1111127 0.9620726
vn 0.7396747 -0.6729645 0
vn -0.05627048 0.01157829 0.9983484
vn -0.4020067 0.6230934 0.6709287
vn 0.4153916 -0.5589599 0.7176445
vn 0.5766867 0.09280083 0.8116775
vn 0.9894757 0.1446986 0
vn -0.08015931 0.7044617 0.7052009
vn -0.4107155 0.9117636 0
vn 0.4037506 0.6889212 0.6019742
vn 0.5558236 0.8313003 0
vn -0.09737858 0.9952474 0
vn -0.4020066 0.6230931 -0.6709288
vn 0.5558236 0.8313003 0
vn -0.08015928 0.7044615 -0.7052011
vn -0.2491391 -0.111113 -0.9620726
vn 0.4037506 0.688921 -0.6019744
vn -0.05627047 0.01157794 -0.9983484
vn -0.06388146 -0.6813651 -0.7291507
vn 0.5766868 0.09280067 -0.8116776
vn 0.5558236 0.8313003 0
vn 0.9894757 0.1446986 0
vn 0.04272994 -0.6819584 -0.7301418
vn 0.07303688 -0.9973292 0
vn 0.1795332 -0.9837519 0
vn 0.4153916 -0.55896 -0.7176445
vn 0.7396747 -0.6729645 0
vn 0.04334261 0.6835529 -0.7286129
vn 0.04362807 0.998454 -0.03444324
vn 0.05524186 0.9984221 -0.01007311
vn 0.03507626 0.6992351 -0.7140307
vn 0.06532963 0.9948459 -0.07754858
vn 0.01658485 -0.01951541 -0.9996719
vn 0.0330695 0.7294038 -0.6832836
vn -0.0006446961 0.01565017 -0.9998773
vn -0.02878487 -0.708172 -0.7054529
vn -0.01301091 0.1234293 -0.9922681
vn -0.03082161 -0.6864118 -0.7265597
vn -0.06454035 -0.9972601 -0.03614907
vn -0.03193511 -0.5987626 -0.8002896
vn -0.03706277 -0.9991817 -0.01619643
vn -0.06547379 -0.7530664 0.6546788
vn -0.1601494 -0.9869708 -0.01552101
vn -0.02161405 -0.7102325 0.7036352
vn -0.02885126 -0.04926033 0.9983692
vn 0.005539482 -0.001677656 0.9999833
vn 0.01774278 0.7102776 0.703698
vn -0.1378223 -0.681274 0.7189373
vn -0.8615292 -0.3527861 0.3651158
vn 0.03744252 0.0973077 0.9945497
vn 0.03969876 0.7060412 0.7070571
vn 0.04362807 0.998454 -0.03444324
vn 0.0628684 0.7771047 0.6262235
vn 0.05524186 0.9984221 -0.01007311
vn 0.06532963 0.9948459 -0.07754858
vn -0.9079318 -0.3492404 0.2317133
vn -0.8776104 -0.4743584 0.06916782
vn -0.8910816 -0.2153422 0.3995012
vn -0.922497 -0.3770692 0.08257158
vn -0.9388936 -0.238784 0.247913
vn -0.9619264 -0.2554084 0.09728401
vn 0.9709269 0.06603041 0.2300886
vn 0.9645783 0.1338296 0.2273287
vn 0.9765067 0.1369383 0.1663815
vn 0.9839161 0.06616546 0.1659255
vn 0.9727377 -0.005663067 0.2318391
vn 0.9851658 0.1397078 0.09964901
vn 0.9857264 -0.00518741 0.1682757
vn 0.992565 0.06775544 0.1011133
vn 0.9947684 -0.004674533 0.1020494
vn 0.4269887 -0.6467338 -0.6319938
vn 0.6081318 -0.7938361 0
vn 0.9959823 -0.08954988 0
vn -0.1237467 -0.9923139 0
vn 0.6240306 -0.100445 -0.7749172
vn 0.7932761 0.608862 0
vn -0.09833479 -0.7019864 -0.705369
vn 0.5891323 0.4422046 -0.6762973
vn -0.05228221 -0.01761414 -0.998477
vn -0.02128428 0.6571371 -0.7534704
vn 0.0001232616 1 0
vn -0.5849417 -0.506654 -0.63336
vn -0.6181667 0.2198501 -0.754676
vn -0.778506 -0.6276371 0
vn -0.4085349 0.7059253 -0.5785921
vn -0.9161198 0.4009046 0
vn -0.5849416 -0.5066538 0.6333602
vn -0.4712971 0.8819745 0
vn -0.0983348 -0.7019861 0.7053692
vn 0.6081318 -0.7938361 0
vn -0.6181667 0.2198504 0.7546759
vn -0.02128436 0.6571375 0.7534702
vn -0.408535 0.7059255 0.5785917
vn -0.05228224 -0.01761388 0.998477
vn 0.4269887 -0.6467336 0.6319939
vn 0.6240305 -0.1004448 0.7749172
vn 0.9959823 -0.08954988 0
vn 0.5891324 0.4422048 0.6762972
vn 0.7932761 0.608862 0
g Bone_0
f 3/3/3 2/2/2 1/1/1
f 4/4/4 3/3/3 1/1/1
f 5/5/5 3/3/3 4/4/4
f 6/6/6 5/5/5 4/4/4
f 4/4/4 1/1/1 7/7/7
f 6/6/6 4/4/4 8/8/8
f 8/8/8 4/4/4 7/7/7
f 7/7/7 1/1/1 9/9/9
f 1/1/1 10/10/10 9/9/9
f 7/7/7 9/9/9 11/11/11
f 12/12/12 7/7/7 11/11/11
f 8/8/8 7/7/7 12/12/12
f 13/13/13 6/6/6 8/8/8
f 14/14/14 6/6/6 13/13/13
f 15/15/15 14/14/14 13/13/13
f 16/16/16 8/8/8 12/12/12
f 13/13/13 8/8/8 16/16/16
f 16/16/16 12/12/12 17/17/17
f 15/15/15 13/13/13 18/18/18
f 18/18/18 13/13/13 16/16/16
f 19/19/19 15/15/15 18/18/18
f 20/20/20 16/16/16 17/17/17
f 18/18/18 16/16/16 20/20/20
f 19/19/19 18/18/18 20/20/20
f 20/20/20 17/17/17 21/21/21
f 22/22/22 9/9/9 21/21/21
f 23/23/23 20/20/20 21/21/21
f 19/19/19 20/20/20 23/23/23
f 9/9/9 24/24/24 21/21/21
f 21/21/21 24/24/24 23/23/23
f 9/9/9 10/10/10 24/24/24
f 10/10/10 25/25/25 24/24/24
f 24/24/24 26/26/26 23/23/23
f 24/24/24 25/25/25 26/26/26
f 27/27/27 19/19/19 23/23/23
f 23/23/23 26/26/26 27/27/27
f 27/27/27 28/28/28 19/19/19
f 26/26/26 28/28/28 27/27/27
f 28/28/28 29/29/29 19/19/19
f 25/25/25 30/30/30 26/26/26
f 26/26/26 30/30/30 28/28/28
f 30/30/30 25/25/25 31/31/31
f 32/32/32 30/30/30 31/31/31
f 28/28/28 33/33/33 29/29/29
f 30/30/30 33/33/33 28/28/28
f 33/33/33 30/30/30 32/32/32
f 33/33/33 34/34/34 29/29/29
f 35/35/35 33/33/33 32/32/32
f 38/38/38 37/37/37 36/36/36
f 37/37/37 39/39/39 36/36/36
f 36/36/36 39/39/39 40/40/40
f 36/36/36 40/40/40 41/41/41
f 42/42/42 36/36/36 41/41/41
f 41/41/41 40/40/40 43/43/43
f 40/40/40 44/44/44 43/43/43
f 44/44/44 45/45/45 43/43/43
f 45/45/45 46/46/46 43/43/43
f 40/40/40 47/47/47 44/44/44
f 39/39/39 47/47/47 40/40/40
f 47/47/47 45/45/45 44/44/44
f 39/39/39 48/48/48 47/47/47
f 47/47/47 49/49/49 45/45/45
f 48/48/48 49/49/49 47/47/47
f 50/50/50 48/48/48 39/39/39
f 37/37/37 50/50/50 39/39/39
f 48/48/48 50/50/50 49/49/49
f 49/49/49 51/51/51 45/45/45
f 45/45/45 51/51/51 46/46/46
f 50/50/50 52/52/52 49/49/49
f 49/49/49 52/52/52 51/51/51
f 53/53/53 50/50/50 37/37/37
f 50/50/50 53/53/53 52/52/52
f 52/52/52 54/54/54 51/51/51
f 51/51/51 54/54/54 46/46/46
f 55/55/55 53/53/53 37/37/37
f 55/55/55 37/37/37 56/56/56
f 57/57/57 55/55/55 56/56/56
f 53/53/53 58/58/58 52/52/52
f 58/58/58 53/53/53 55/55/55
f 52/52/52 58/58/58 54/54/54
f 59/59/59 55/55/55 57/57/57
f 59/59/59 58/58/58 55/55/55
f 58/58/58 60/60/60 54/54/54
f 60/60/60 58/58/58 59/59/59
f 54/54/54 60/60/60 61/61/61
f 46/46/46 54/54/54 61/61/61
f 61/61/61 60/60/60 59/59/59
f 62/62/62 59/59/59 57/57/57
f 61/61/61 59/59/59 62/62/62
f 57/57/57 63/63/63 62/62/62
f 63/63/63 64/64/64 62/62/62
f 46/46/46 61/61/61 65/65/65
f 65/65/65 61/61/61 62/62/62
f 62/62/62 64/64/64 65/65/65
f 66/66/66 46/46/46 65/65/65
f 64/64/64 66/66/66 65/65/65
f 69/69/69 68/68/68 67/67/67
f 68/68/68 70/70/70 67/67/67
f 67/67/67 70/70/70 71/71/71
f 68/68/68 72/72/72 70/70/70
f 70/70/70 73/73/73 71/71/71
f 72/72/72 74/74/74 70/70/70
f 70/70/70 74/74/74 73/73/73
f 74/74/74 75/75/75 73/73/73
f 78/78/78 77/77/77 76/76/76
f 79/79/79 78/78/78 76/76/76
f 80/80/80 78/78/78 79/79/79
f 79/79/79 76/76/76 81/81/81
f 82/82/82 80/80/80 79/79/79
f 83/83/83 80/80/80 82/82/82
f 84/84/84 79/79/79 81/81/81
f 82/82/82 79/79/79 84/84/84
f 85/85/85 84/84/84 81/81/81
f 85/85/85 82/82/82 84/84/84
f 86/86/86 85/85/85 81/81/81
f 87/87/87 83/83/83 82/82/82
f 87/87/87 82/82/82 85/85/85
f 88/88/88 83/83/83 87/87/87
f 89/89/89 85/85/85 86/86/86
f 89/89/89 87/87/87 85/85/85
f 90/90/90 89/89/89 86/86/86
f 91/91/91 88/88/88 87/87/87
f 91/91/91 87/87/87 89/89/89
f 92/92/92 88/88/88 91/91/91
f 93/93/93 91/91/91 89/89/89
f 94/94/94 92/92/92 91/91/91
f 94/94/94 91/91/91 93/93/93
f 95/95/95 92/92/92 94/94/94
f 96/96/96 94/94/94 93/93/93
f 97/97/97 95/95/95 94/94/94
f 97/97/97 94/94/94 96/96/96
f 98/98/98 95/95/95 97/97/97
f 99/99/99 97/97/97 96/96/96
f 96/96/96 100/100/100 99/99/99
f 100/100/100 101/101/101 99/99/99
f 102/102/102 98/98/98 97/97/97
f 102/102/102 97/97/97 99/99/99
f 103/103/103 98/98/98 102/102/102
f 104/104/104 103/103/103 102/102/102
f 99/99/99 101/101/101 105/105/105
f 105/105/105 102/102/102 99/99/99
f 104/104/104 102/102/102 105/105/105
f 101/101/101 106/106/106 105/105/105
f 106/106/106 104/104/104 105/105/105
f 109/109/109 108/108/108 107/107/107
f 110/110/110 109/109/109 107/107/107
f 111/111/111 109/109/109 110/110/110
f 110/110/110 107/107/107 112/112/112
f 113/113/113 111/111/111 110/110/110
f 114/114/114 110/110/110 112/112/112
f 113/113/113 110/110/110 114/114/114
f 114/114/114 112/112/112 115/115/115
f 116/116/116 113/113/113 114/114/114
f 117/117/117 114/114/114 115/115/115
f 116/116/116 114/114/114 117/117/117
f 117/117/117 115/115/115 118/118/118
f 119/119/119 116/116/116 117/117/117
f 120/120/120 117/117/117 118/118/118
f 119/119/119 117/117/117 120/120/120
f 120/120/120 118/118/118 121/121/121
f 122/122/122 119/119/119 120/120/120
f 123/123/123 120/120/120 121/121/121
f 122/122/122 120/120/120 123/123/123
f 121/121/121 124/124/124 123/123/123
f 124/124/124 125/125/125 123/123/123
f 124/124/124 126/126/126 125/125/125
f 127/127/127 122/122/122 123/123/123
f 123/123/123 125/125/125 127/127/127
f 127/127/127 128/128/128 122/122/122
f 125/125/125 129/129/129 127/127/127
f 126/126/126 130/130/130 125/125/125
f 125/125/125 130/130/130 129/129/129
f 130/130/130 126/126/126 131/131/131
f 130/130/130 132/132/132 129/129/129
f 133/133/133 130/130/130 131/131/131
f 132/132/132 130/130/130 133/133/133
f 134/134/134 132/132/132 133/133/133
f 128/128/128 135/135/135 122/122/122
f 122/122/122 135/135/135 136/136/136
f 128/128/128 137/137/137 135/135/135
f 135/135/135 138/138/138 136/136/136
f 137/137/137 139/139/139 135/135/135
f 135/135/135 139/139/139 138/138/138
f 139/139/139 140/140/140 138/138/138
f 143/143/143 142/142/142 141/141/141
f 144/144/144 143/143/143 141/141/141
f 144/144/144 141/141/141 145/145/145
f 146/146/146 143/143/143 144/144/144
f 147/147/147 144/144/144 145/145/145
f 148/148/148 146/146/146 144/144/144
f 148/148/148 144/144/144 147/147/147
f 149/149/149 148/148/148 147/147/147
f 152/152/152 151/151/151 150/150/150
f 150/150/150 151/151/151 153/153/153
f 154/154/154 152/152/152 150/150/150
f 155/155/155 152/152/152 154/154/154
f 156/156/156 150/150/150 153/153/153
f 154/154/154 150/150/150 156/156/156
f 157/157/157 155/155/155 154/154/154
f 157/157/157 154/154/154 158/158/158
f 158/158/158 154/154/154 156/156/156
f 155/155/155 157/157/157 159/159/159
f 159/159/159 157/157/157 158/158/158
f 160/160/160 155/155/155 159/159/159
f 158/158/158 156/156/156 161/161/161
f 159/159/159 158/158/158 162/162/162
f 162/162/162 158/158/158 161/161/161
f 161/161/161 156/156/156 163/163/163
f 156/156/156 153/153/153 163/163/163
f 162/162/162 161/161/161 163/163/163
f 164/164/164 159/159/159 162/162/162
f 160/160/160 159/159/159 164/164/164
f 165/165/165 162/162/162 163/163/163
f 164/164/164 162/162/162 165/165/165
f 163/163/163 153/153/153 166/166/166
f 165/165/165 163/163/163 166/166/166
f 167/167/167 164/164/164 165/165/165
f 167/167/167 160/160/160 164/164/164
f 153/153/153 168/168/168 166/166/166
f 153/153/153 169/169/169 168/168/168
f 170/170/170 165/165/165 166/166/166
f 167/167/167 165/165/165 170/170/170
f 170/170/170 166/166/166 168/168/168
f 171/171/171 160/160/160 167/167/167
f 172/172/172 167/167/167 170/170/170
f 172/172/172 171/171/171 167/167/167
f 172/172/172 170/170/170 173/173/173
f 173/173/173 170/170/170 168/168/168
f 171/171/171 172/172/172 173/173/173
f 169/169/169 174/174/174 168/168/168
f 173/173/173 168/168/168 174/174/174
f 175/175/175 174/174/174 169/169/169
f 175/175/175 173/173/173 174/174/174
f 171/171/171 173/173/173 175/175/175
f 176/176/176 175/175/175 169/169/169
f 171/171/171 177/177/177 160/160/160
f 177/177/177 171/171/171 175/175/175
f 177/177/177 175/175/175 176/176/176
f 177/177/177 178/178/178 160/160/160
f 178/178/178 177/177/177 176/176/176
