g Building 04 Door
v 1.546834 -0.1438953 1.624378
v 1.546834 0.1438953 -1.624378
v 1.546834 -0.1438953 -1.624378
v 1.546834 0.1438953 1.624378
v 0.0008381081 -0.1438953 1.624378
v 1.546834 0.1438953 1.624378
v 1.546834 -0.1438953 1.624378
v 0.0008381653 0.1438953 1.624378
v 0.0008381081 -0.1438953 -1.624378
v 0.0008381653 0.1438953 1.624378
v 0.0008381081 -0.1438953 1.624378
v 0.0008381653 0.1438953 -1.624378
v 1.546834 -0.1438953 -1.624378
v 0.0008381653 0.1438953 -1.624378
v 0.0008381081 -0.1438953 -1.624378
v 1.546834 0.1438953 -1.624378
v 0.0008381653 0.1438953 -1.624378
v 1.546834 0.1438953 1.624378
v 0.0008381653 0.1438953 1.624378
v 1.546834 0.1438953 -1.624378
v 1.381732 -0.1438948 -1.442897
v 1.381732 -0.2038728 1.442898
v 1.381732 -0.1438948 1.442898
v 1.381732 -0.2038728 -1.442897
v 1.381732 -0.1438948 1.442898
v 0.16594 -0.2038728 1.442898
v 0.1659399 -0.1438948 1.442898
v 1.381732 -0.2038728 1.442898
v 0.1659399 -0.1438948 1.442898
v 0.16594 -0.2038728 -1.442897
v 0.1659399 -0.1438948 -1.442897
v 0.16594 -0.2038728 1.442898
v 0.1659399 -0.1438948 -1.442897
v 1.381732 -0.2038728 -1.442897
v 1.381732 -0.1438948 -1.442897
v 0.16594 -0.2038728 -1.442897
v 0.16594 -0.2038728 1.442898
v 1.381732 -0.2038728 -1.442897
v 0.16594 -0.2038728 -1.442897
v 1.381732 -0.2038728 1.442898
v 0.205809 -0.2370662 0.7534128
v 1.341863 -0.2370662 0.2868857
v 0.205809 -0.2370662 0.2868857
v 1.341863 -0.2370662 0.7534128
v 0.205809 -0.2370662 0.7534128
v 1.341863 -0.1802891 0.7534131
v 1.341863 -0.2370662 0.7534128
v 0.2058091 -0.1802891 0.7534131
v 0.205809 -0.2370662 0.2868857
v 0.2058091 -0.1802891 0.7534131
v 0.205809 -0.2370662 0.7534128
v 0.2058091 -0.1802891 0.286886
v 1.341863 -0.2370662 0.2868857
v 0.2058091 -0.1802891 0.286886
v 0.205809 -0.2370662 0.2868857
v 1.341863 -0.1802891 0.286886
v 1.341863 -0.2370662 0.7534128
v 1.341863 -0.1802891 0.286886
v 1.341863 -0.2370662 0.2868857
v 1.341863 -0.1802891 0.7534131
v 1.010968 -0.24071 0.6704999
v 1.258032 -0.24071 0.369801
v 1.010968 -0.24071 0.369801
v 1.258032 -0.24071 0.6704999
v 0.3322142 -0.2407095 0.6713154
v 0.9584486 -0.2407095 0.6476989
v 0.3322142 -0.2407095 0.6476989
v 0.9584486 -0.2407095 0.6713154
v 0.3322142 -0.2407095 0.3937697
v 0.9584486 -0.2407095 0.370153
v 0.3322142 -0.2407095 0.370153
v 0.9584486 -0.2407095 0.3937697
v 0.3322143 -0.2407095 0.5345684
v 0.9584486 -0.2407095 0.5109515
v 0.3322143 -0.2407095 0.5109515
v 0.9584486 -0.2407095 0.5345684
v 0.3322143 -0.2407095 0.6000803
v 0.9584486 -0.2407095 0.5764632
v 0.3322143 -0.2407095 0.5764632
v 0.9584486 -0.2407095 0.6000803
v 0.3322143 -0.2407095 0.4643811
v 0.9584486 -0.2407095 0.4407637
v 0.3322143 -0.2407095 0.4407637
v 0.9584486 -0.2407095 0.4643811
v 1.381732 -0.1438948 1.442898
v 1.546834 -0.1438953 -1.624378
v 1.381732 -0.1438948 -1.442897
v 1.546834 -0.1438953 1.624378
v 0.0008381081 -0.1438953 -1.624378
v 0.1659399 -0.1438948 1.442898
v 0.1659399 -0.1438948 -1.442897
v 0.0008381081 -0.1438953 1.624378
vt 0.7513167 0.5764377
vt 0.7513167 0.5764377
vt 0.7513167 0.5764377
vt 0.7513167 0.5764377
vt 0.7444958 0.5764377
vt 0.7513167 0.5764377
vt 0.7513167 0.5764377
vt 0.7444958 0.5764377
vt 0.7444958 0.5764377
vt 0.7444958 0.5764377
vt 0.7444958 0.5764377
vt 0.7444958 0.5764377
vt 0.7513167 0.5764377
vt 0.7444958 0.5764377
vt 0.7444958 0.5764377
vt 0.7513167 0.5764377
vt 0.7444958 0.5764377
vt 0.7513167 0.5764377
vt 0.7444958 0.5764377
vt 0.7513167 0.5764377
vt 0.7895548 0.5758835
vt 0.7895548 0.5758835
vt 0.7895548 0.5758835
vt 0.7895548 0.5758835
vt 0.7895548 0.5758835
vt 0.7827339 0.5758835
vt 0.7827339 0.5758835
vt 0.7895548 0.5758835
vt 0.7827339 0.5758835
vt 0.7827339 0.5758835
vt 0.7827339 0.5758835
vt 0.7827339 0.5758835
vt 0.7827339 0.5758835
vt 0.7895548 0.5758835
vt 0.7895548 0.5758835
vt 0.7827339 0.5758835
vt 0.7827339 0.5758835
vt 0.7895548 0.5758835
vt 0.7827339 0.5758835
vt 0.7895548 0.5758835
vt 0.8148761 0.5481748
vt 0.821697 0.5481748
vt 0.8148761 0.5481748
vt 0.821697 0.5481748
vt 0.8148761 0.5481748
vt 0.821697 0.5481748
vt 0.821697 0.5481748
vt 0.8148761 0.5481748
vt 0.8148761 0.5481748
vt 0.8148761 0.5481748
vt 0.8148761 0.5481748
vt 0.8148761 0.5481748
vt 0.821697 0.5481748
vt 0.8148761 0.5481748
vt 0.8148761 0.5481748
vt 0.821697 0.5481748
vt 0.821697 0.5481748
vt 0.821697 0.5481748
vt 0.821697 0.5481748
vt 0.821697 0.5481748
vt 0.2155436 0.9730998
vt 0.2223645 0.9730998
vt 0.2155436 0.9730998
vt 0.2223645 0.9730998
vt 0.1415557 0.976846
vt 0.1483766 0.976846
vt 0.1415557 0.976846
vt 0.1483766 0.976846
vt 0.1415557 0.976846
vt 0.1483766 0.976846
vt 0.1415557 0.976846
vt 0.1483766 0.976846
vt 0.1415557 0.976846
vt 0.1483766 0.976846
vt 0.1415557 0.976846
vt 0.1483766 0.976846
vt 0.1415557 0.976846
vt 0.1483766 0.976846
vt 0.1415557 0.976846
vt 0.1483766 0.976846
vt 0.1415557 0.976846
vt 0.1483766 0.976846
vt 0.1415557 0.976846
vt 0.1483766 0.976846
vt 0.7513167 0.5764377
vt 0.7513167 0.5764377
vt 0.7513167 0.5764377
vt 0.7513167 0.5764377
vt 0.7444958 0.5764377
vt 0.7444958 0.5764377
vt 0.7444958 0.5764377
vt 0.7444958 0.5764377
vn 1 3.976535E-07 0
vn 1 3.976535E-07 0
vn 1 3.976535E-07 0
vn 1 3.976535E-07 0
vn 0 0 1
vn 0 0 1
vn 0 0 1
vn 0 0 1
vn -1 1.988268E-07 0
vn -1 1.988268E-07 0
vn -1 1.988267E-07 0
vn -1 1.988267E-07 0
vn 0 0 -1
vn 0 0 -1
vn 0 0 -1
vn 0 0 -1
vn 0 1 0
vn 0 1 0
vn 0 1 0
vn 0 1 0
vn 1 0 0
vn 1 0 0
vn 1 0 0
vn 1 0 0
vn 0 3.816095E-06 1
vn 0 3.816095E-06 1
vn 0 3.816095E-06 1
vn 0 3.816095E-06 1
vn -1 -9.540237E-07 0
vn -1 -9.540238E-07 0
vn -1 -9.540237E-07 0
vn -1 -9.540238E-07 0
vn 0 0 -1
vn 0 0 -1
vn 0 0 -1
vn 0 0 -1
vn 0 -1 0
vn 0 -1 0
vn 0 -1 0
vn 0 -1 0
vn 0 -1 0
vn 0 -1 0
vn 0 -1 0
vn 0 -1 0
vn 0 -4.031234E-06 1
vn 0 -4.031234E-06 1
vn 0 -4.031234E-06 1
vn 0 -4.031235E-06 1
vn -1 1.007809E-06 0
vn -1 1.007809E-06 0
vn -1 1.007808E-06 0
vn -1 1.007808E-06 0
vn 0 4.031234E-06 -1
vn 0 4.031234E-06 -1
vn 0 4.031234E-06 -1
vn 0 4.031234E-06 -1
vn 1 0 0
vn 1 0 0
vn 1 0 0
vn 1 0 0
vn 0 -1 0
vn 0 -1 0
vn 0 -1 0
vn 0 -1 0
vn 0 -1 0
vn 0 -1 0
vn 0 -1 0
vn 0 -1 0
vn 0 -1 0
vn 0 -1 0
vn 0 -1 0
vn 0 -1 0
vn 0 -1 0
vn 0 -1 0
vn 0 -1 0
vn 0 -1 0
vn 0 -1 0
vn 0 -1 0
vn 0 -1 0
vn 0 -1 0
vn 0 -1 0
vn 0 -1 0
vn 0 -1 0
vn 0 -1 0
vn -2.772614E-06 -1 0
vn -2.772614E-06 -1 0
vn -2.772614E-06 -1 0
vn -2.772614E-06 -1 0
vn 2.772615E-06 -1 0
vn 0 -1 -2.522392E-06
vn 2.772615E-06 -1 0
vn 0 -1 -2.522392E-06
g Building 04 Door_0
f 3/3/3 2/2/2 1/1/1
f 4/4/4 1/1/1 2/2/2
f 7/7/7 6/6/6 5/5/5
f 8/8/8 5/5/5 6/6/6
f 11/11/11 10/10/10 9/9/9
f 12/12/12 9/9/9 10/10/10
f 15/15/15 14/14/14 13/13/13
f 16/16/16 13/13/13 14/14/14
f 19/19/19 18/18/18 17/17/17
f 20/20/20 17/17/17 18/18/18
f 23/23/23 22/22/22 21/21/21
f 24/24/24 21/21/21 22/22/22
f 27/27/27 26/26/26 25/25/25
f 28/28/28 25/25/25 26/26/26
f 31/31/31 30/30/30 29/29/29
f 32/32/32 29/29/29 30/30/30
f 35/35/35 34/34/34 33/33/33
f 36/36/36 33/33/33 34/34/34
f 39/39/39 38/38/38 37/37/37
f 40/40/40 37/37/37 38/38/38
f 43/43/43 42/42/42 41/41/41
f 44/44/44 41/41/41 42/42/42
f 47/47/47 46/46/46 45/45/45
f 48/48/48 45/45/45 46/46/46
f 51/51/51 50/50/50 49/49/49
f 52/52/52 49/49/49 50/50/50
f 55/55/55 54/54/54 53/53/53
f 56/56/56 53/53/53 54/54/54
f 59/59/59 58/58/58 57/57/57
f 60/60/60 57/57/57 58/58/58
f 63/63/63 62/62/62 61/61/61
f 64/64/64 61/61/61 62/62/62
f 67/67/67 66/66/66 65/65/65
f 68/68/68 65/65/65 66/66/66
f 71/71/71 70/70/70 69/69/69
f 72/72/72 69/69/69 70/70/70
f 75/75/75 74/74/74 73/73/73
f 76/76/76 73/73/73 74/74/74
f 79/79/79 78/78/78 77/77/77
f 80/80/80 77/77/77 78/78/78
f 83/83/83 82/82/82 81/81/81
f 84/84/84 81/81/81 82/82/82
f 87/87/87 86/86/86 85/85/85
f 88/88/88 85/85/85 86/86/86
f 86/86/86 87/87/87 89/89/89
f 85/85/85 88/88/88 90/90/90
f 91/91/91 89/89/89 87/87/87
f 92/92/92 90/90/90 88/88/88
f 89/89/89 91/91/91 92/92/92
f 90/90/90 92/92/92 91/91/91
