g Bullet_Bottom
v -0.1293333 0.06043987 -0.1674696
v -0.1293333 0.0604398 0.03828096
v -0.0914524 -0.03101263 0.03828096
v -0.0914524 -0.03101257 -0.1674696
v 7.450581E-09 -0.06889345 0.03828096
v 7.450581E-09 -0.0688934 -0.1674696
v 0.09145243 -0.03101263 0.03828096
v 0.09145243 -0.03101257 -0.1674696
v 0.1293333 0.06043981 0.03828096
v 0.1293333 0.06043987 -0.1674696
v 0.1056093 -0.04516937 -0.2321002
v 0.1493541 0.0604399 -0.2321002
v -0.149354 0.06043988 -0.2321002
v 7.450581E-09 -0.08891416 -0.2321002
v -0.1056092 -0.04516937 -0.2321002
v -0.0914524 -0.03101257 -0.1674696
v -0.149354 0.06043987 -0.1795878
v -0.1293333 0.06043987 -0.1674696
v -0.1056092 -0.04516939 -0.1795878
v -0.149354 0.06043988 -0.2321002
v 7.450581E-09 -0.0688934 -0.1674696
v -0.1056092 -0.04516937 -0.2321002
v 7.450581E-09 -0.08891417 -0.1795878
v 0.09145243 -0.03101257 -0.1674696
v 7.450581E-09 -0.08891416 -0.2321002
v 0.1056093 -0.04516939 -0.1795878
v 0.1293333 0.06043987 -0.1674696
v 0.1056093 -0.04516937 -0.2321002
v 0.1493541 0.06043987 -0.1795878
v 0.1493541 0.0604399 -0.2321002
v 0.09145243 -0.03101263 0.03828096
v 0.1293333 0.06043981 0.04097378
v 0.1293333 0.06043981 0.03828096
v 0.09145243 -0.03101263 0.04097378
v 0.1148838 0.06043981 0.053092
v 7.450581E-09 -0.06889345 0.03828096
v 0.0812351 -0.0207953 0.053092
v 7.450581E-09 -0.06889345 0.04097378
v -0.0914524 -0.03101263 0.03828096
v 7.450581E-09 -0.05444396 0.053092
v -0.0914524 -0.03101263 0.04097378
v -0.1293333 0.0604398 0.03828096
v -0.08123507 -0.0207953 0.053092
v -0.1293333 0.0604398 0.04097378
v -0.1148837 0.0604398 0.053092
v 0.0812351 -0.0207953 0.053092
v 0.1282218 0.06043981 0.0625174
v 0.1148838 0.06043981 0.053092
v 0.09066648 -0.03022669 0.0625174
v 7.450581E-09 -0.05444396 0.053092
v 0.1246051 0.06043978 0.1163762
v 7.450581E-09 -0.06778196 0.0625174
v -0.08123507 -0.0207953 0.053092
v 0.08810912 -0.02766935 0.1163762
v 0.0971911 0.06043973 0.2092826
v -0.09066645 -0.03022669 0.0625174
v -0.1148837 0.0604398 0.053092
v -0.1282218 0.0604398 0.0625174
v 7.450581E-09 -0.06416532 0.1163762
v 0.06872448 -0.008284736 0.2092826
v 1.490116E-08 0.06043972 0.293161
v -0.08810909 -0.02766935 0.1163762
v -0.1246051 0.06043977 0.1163762
v 7.450581E-09 -0.03675134 0.2092826
v -0.06872445 -0.008284736 0.2092826
v -0.09719107 0.06043973 0.2092826
v -0.149354 0.06043987 -0.1795878
v -0.149354 0.06043988 -0.2321002
v 0.1493541 0.0604399 -0.2321002
v 0.1493541 0.06043987 -0.1795878
v -0.1293333 0.06043987 -0.1674696
v 0.1293333 0.06043987 -0.1674696
v 0.1293333 0.06043987 -0.1674696
v -0.1293333 0.0604398 0.03828096
v -0.1293333 0.06043987 -0.1674696
v 0.1293333 0.06043981 0.03828096
v -0.1293333 0.0604398 0.04097378
v 0.1293333 0.06043981 0.04097378
v -0.1148837 0.0604398 0.053092
v 0.1148838 0.06043981 0.053092
v -0.1282218 0.0604398 0.0625174
v 0.1282218 0.06043981 0.0625174
v -0.1246051 0.06043977 0.1163762
v 0.1246051 0.06043978 0.1163762
v -0.09719107 0.06043973 0.2092826
v 0.0971911 0.06043973 0.2092826
v 1.490116E-08 0.06043972 0.293161
vt 0.25 0
vt 0.25 1
vt 0.3750001 1
vt 0.3750001 0
vt 0.5 1
vt 0.5 0
vt 0.625 1
vt 0.625 0
vt 0.75 1
vt 0.75 0
vt 0.8535534 0.8535534
vt 0.5 1
vt 0.5000001 0
vt 1 0.5
vt 0.8535535 0.1464467
vt 0.8535535 0.1464467
vt 0.5000001 0
vt 0.5000001 0
vt 0.8535535 0.1464467
vt 0.5000001 0
vt 1 0.5
vt 0.8535535 0.1464467
vt 1 0.5
vt 0.8535534 0.8535534
vt 1 0.5
vt 0.8535534 0.8535534
vt 0.5 1
vt 0.8535534 0.8535534
vt 0.5 1
vt 0.5 1
vt 0.8535534 0.8535534
vt 0.5 1
vt 0.5 1
vt 0.8535534 0.8535534
vt 0.5 1
vt 1 0.5
vt 0.8535534 0.8535534
vt 1 0.5
vt 0.8535535 0.1464467
vt 1 0.5
vt 0.8535535 0.1464467
vt 0.5000001 0
vt 0.8535535 0.1464467
vt 0.5000001 0
vt 0.5000001 0
vt 0.8535534 0.8535534
vt 0.5 1
vt 0.5 1
vt 0.8535534 0.8535534
vt 1 0.5
vt 0.5 1
vt 1 0.5
vt 0.8535535 0.1464467
vt 0.8535534 0.8535534
vt 0.5 1
vt 0.8535535 0.1464467
vt 0.5000001 0
vt 0.5000001 0
vt 1 0.5
vt 0.8535534 0.8535534
vt 0.5 0.5
vt 0.8535535 0.1464467
vt 0.5000001 0
vt 1 0.5
vt 0.8535535 0.1464467
vt 0.5000001 0
vt 0.5000001 0
vt 0.5000001 0
vt 0.5 1
vt 0.5 1
vt 0.25 0
vt 0.5 1
vt 0.5 1
vt 0.5000001 0
vt 0.25 0
vt 0.5 1
vt 0.5000001 0
vt 0.5 1
vt 0.5000001 0
vt 0.5 1
vt 0.5000001 0
vt 0.5 1
vt 0.5000001 0
vt 0.5 1
vt 0.5000001 0
vt 0.5 1
vt 0.5 0.5
vn -0.9184361 -0.3804288 0.1083926
vn -0.9238794 -0.3826835 0
vn -0.7071068 -0.7071068 0
vn -0.7022333 -0.7022332 0.1172052
vn 0 -1 0
vn 0 -0.9931077 0.1172051
vn 0.7071066 -0.7071069 0
vn 0.7022333 -0.7022332 0.1172052
vn 0.9238795 -0.3826835 0
vn 0.9184361 -0.3804287 0.1083927
vn 0 0 -1
vn 0 0 -1
vn 0 0 -1
vn 0 0 -1
vn 0 0 -1
vn -0.7022333 -0.7022332 0.1172052
vn -0.9020518 -0.3736423 0.216088
vn -0.9184361 -0.3804288 0.1083926
vn -0.6876515 -0.6876517 0.2329606
vn -0.9238794 -0.3826836 0
vn 0 -0.9931077 0.1172051
vn -0.7071068 -0.7071068 0
vn 0 -0.9724861 0.2329605
vn 0.7022333 -0.7022332 0.1172052
vn 0 -1 0
vn 0.6876515 -0.6876516 0.2329606
vn 0.9184361 -0.3804287 0.1083927
vn 0.7071068 -0.7071066 0
vn 0.9020519 -0.3736421 0.2160879
vn 0.9238795 -0.3826834 0
vn 0.7071066 -0.7071069 0
vn 0.7026491 -0.2910468 0.6492889
vn 0.9238795 -0.3826835 0
vn 0.5193304 -0.5193304 0.6786692
vn 0.6209696 -0.257214 0.7404308
vn 0 -1 0
vn 0.4543797 -0.4543798 0.7662103
vn 0 -0.7344441 0.6786692
vn -0.7071068 -0.7071068 0
vn 0 -0.64259 0.7662102
vn -0.5193304 -0.5193304 0.6786692
vn -0.9238794 -0.3826835 0
vn -0.4543797 -0.4543798 0.7662103
vn -0.7026491 -0.2910469 0.6492888
vn -0.6209696 -0.2572141 0.7404307
vn 0.4080754 -0.4080754 -0.8166695
vn 0.9190749 -0.3806933 -0.1018527
vn 0.5612917 -0.2324947 -0.7942908
vn 0.7028043 -0.7028041 -0.1101466
vn 0 -0.5771058 -0.8166695
vn 0.9085677 -0.3763411 0.181306
vn 0 -0.9939154 -0.1101467
vn -0.4080753 -0.4080752 -0.8166696
vn 0.6934351 -0.6934351 0.1956931
vn 0.8402511 -0.3480434 0.4157451
vn -0.7028043 -0.7028043 -0.1101466
vn -0.5612914 -0.2324946 -0.794291
vn -0.9190748 -0.3806935 -0.1018527
vn 0 -0.9806652 0.1956931
vn 0.6337716 -0.6337717 0.4434717
vn 0 -0.5209156 0.8536083
vn -0.693435 -0.6934351 0.1956932
vn -0.9085677 -0.3763413 0.1813061
vn 0 -0.8962884 0.4434716
vn -0.6337715 -0.6337717 0.4434717
vn -0.840251 -0.3480435 0.4157452
vn 0 1 0
vn 0 1 0
vn 0 1 0
vn 0 1 0
vn 0 1 0
vn 0 1 0
vn 0 1 0
vn 0 1 0
vn 0 1 0
vn 0 1 0
vn 0 1 0
vn 0 1 0
vn 0 1 0
vn 0 1 0
vn 0 1 0
vn 0 1 0
vn 0 1 0
vn 0 1 0
vn 0 1 0
vn 0 1 0
vn 0 1 0
g Bullet_Bottom_0
f 3/3/3 2/2/2 1/1/1
f 4/4/4 3/3/3 1/1/1
f 5/5/5 3/3/3 4/4/4
f 6/6/6 5/5/5 4/4/4
f 7/7/7 5/5/5 6/6/6
f 8/8/8 7/7/7 6/6/6
f 9/9/9 7/7/7 8/8/8
f 10/10/10 9/9/9 8/8/8
f 13/13/13 12/12/12 11/11/11
f 11/11/11 14/14/14 13/13/13
f 14/14/14 15/15/15 13/13/13
f 18/18/18 17/17/17 16/16/16
f 17/17/17 19/19/19 16/16/16
f 17/17/17 20/20/20 19/19/19
f 16/16/16 19/19/19 21/21/21
f 20/20/20 22/22/22 19/19/19
f 19/19/19 23/23/23 21/21/21
f 19/19/19 22/22/22 23/23/23
f 21/21/21 23/23/23 24/24/24
f 22/22/22 25/25/25 23/23/23
f 23/23/23 26/26/26 24/24/24
f 23/23/23 25/25/25 26/26/26
f 24/24/24 26/26/26 27/27/27
f 25/25/25 28/28/28 26/26/26
f 26/26/26 29/29/29 27/27/27
f 26/26/26 28/28/28 29/29/29
f 28/28/28 30/30/30 29/29/29
f 33/33/33 32/32/32 31/31/31
f 32/32/32 34/34/34 31/31/31
f 32/32/32 35/35/35 34/34/34
f 31/31/31 34/34/34 36/36/36
f 35/35/35 37/37/37 34/34/34
f 34/34/34 38/38/38 36/36/36
f 34/34/34 37/37/37 38/38/38
f 36/36/36 38/38/38 39/39/39
f 37/37/37 40/40/40 38/38/38
f 38/38/38 41/41/41 39/39/39
f 38/38/38 40/40/40 41/41/41
f 39/39/39 41/41/41 42/42/42
f 40/40/40 43/43/43 41/41/41
f 41/41/41 44/44/44 42/42/42
f 41/41/41 43/43/43 44/44/44
f 43/43/43 45/45/45 44/44/44
f 48/48/48 47/47/47 46/46/46
f 47/47/47 49/49/49 46/46/46
f 46/46/46 49/49/49 50/50/50
f 47/47/47 51/51/51 49/49/49
f 49/49/49 52/52/52 50/50/50
f 50/50/50 52/52/52 53/53/53
f 51/51/51 54/54/54 49/49/49
f 49/49/49 54/54/54 52/52/52
f 51/51/51 55/55/55 54/54/54
f 52/52/52 56/56/56 53/53/53
f 53/53/53 56/56/56 57/57/57
f 56/56/56 58/58/58 57/57/57
f 54/54/54 59/59/59 52/52/52
f 52/52/52 59/59/59 56/56/56
f 55/55/55 60/60/60 54/54/54
f 54/54/54 60/60/60 59/59/59
f 55/55/55 61/61/61 60/60/60
f 56/56/56 62/62/62 58/58/58
f 59/59/59 62/62/62 56/56/56
f 62/62/62 63/63/63 58/58/58
f 60/60/60 64/64/64 59/59/59
f 60/60/60 61/61/61 64/64/64
f 59/59/59 64/64/64 62/62/62
f 62/62/62 65/65/65 63/63/63
f 64/64/64 65/65/65 62/62/62
f 64/64/64 61/61/61 65/65/65
f 65/65/65 66/66/66 63/63/63
f 65/65/65 61/61/61 66/66/66
g Bullet_Bottom_1
f 69/69/69 68/68/68 67/67/67
f 67/67/67 70/70/70 69/69/69
f 67/67/67 71/71/71 70/70/70
f 71/71/71 72/72/72 70/70/70
f 75/75/75 74/74/74 73/73/73
f 74/74/74 76/76/76 73/73/73
f 74/74/74 77/77/77 76/76/76
f 77/77/77 78/78/78 76/76/76
f 77/77/77 79/79/79 78/78/78
f 79/79/79 80/80/80 78/78/78
f 79/79/79 81/81/81 80/80/80
f 81/81/81 82/82/82 80/80/80
f 81/81/81 83/83/83 82/82/82
f 83/83/83 84/84/84 82/82/82
f 83/83/83 85/85/85 84/84/84
f 85/85/85 86/86/86 84/84/84
f 85/85/85 87/87/87 86/86/86
