g Fence
v 0.5922937 2.862089 -0.128472
v 0.6413138 2.868245 0.3033429
v -0.1951444 2.888692 0.208195
v -0.2184507 2.872594 -0.1908531
v 0.4763357 0.01608667 -0.1980441
v 0.5922937 2.862089 -0.128472
v -0.2184507 2.872594 -0.1908531
v -0.2778058 0.01608667 -0.1980441
v -0.2778058 0.01608667 -0.1980441
v -0.2184507 2.872594 -0.1908531
v -0.1951444 2.888692 0.208195
v -0.2778058 0.01608673 0.1980446
v -0.2778058 0.01608673 0.1980446
v -0.1951444 2.888692 0.208195
v 0.6413138 2.868245 0.3033429
v 0.4763357 0.01608673 0.1980446
v 0.4763357 0.01608673 0.1980446
v 0.6413138 2.868245 0.3033429
v 0.5922937 2.862089 -0.128472
v 0.4763357 0.01608667 -0.1980441
v 0.4763357 0.01608673 0.1980446
v 0.4763357 0.01608667 -0.1980441
v -0.2778058 0.01608667 -0.1980441
v -0.2778058 0.01608673 0.1980446
v 0.7377833 2.628073 -0.09341244
v 1.400302 2.61845 -0.1220696
v 1.462303 2.629095 0.320238
v 0.7933519 2.628767 0.3700168
v 0.6080671 0.008371796 -0.2076916
v 1.299663 0.008371796 -0.2076916
v 1.400302 2.61845 -0.1220696
v 0.7377833 2.628073 -0.09341244
v 1.299663 0.008371796 -0.2076916
v 1.299663 0.008371864 0.2076921
v 1.462303 2.629095 0.320238
v 1.400302 2.61845 -0.1220696
v 1.299663 0.008371864 0.2076921
v 0.6080671 0.008371864 0.2076921
v 0.7933519 2.628767 0.3700168
v 1.462303 2.629095 0.320238
v 0.6080671 0.008371864 0.2076921
v 0.6080671 0.008371796 -0.2076916
v 0.7377833 2.628073 -0.09341244
v 0.7933519 2.628767 0.3700168
v 0.6080671 0.008371864 0.2076921
v 1.299663 0.008371864 0.2076921
v 1.299663 0.008371796 -0.2076916
v 0.6080671 0.008371796 -0.2076916
v -0.4224994 2.657445 -0.2120257
v -0.4020399 2.677422 0.2073806
v -1.165362 2.708146 0.3188565
v -1.154225 2.686655 -0.1211327
v -0.4431554 0.008371795 -0.2146233
v -0.4224994 2.657445 -0.2120257
v -1.154225 2.686655 -0.1211327
v -1.111009 0.008371797 -0.1994641
v -1.111009 0.008371797 -0.1994641
v -1.154225 2.686655 -0.1211327
v -1.165362 2.708146 0.3188565
v -1.101582 0.008371865 0.2158126
v -1.101582 0.008371865 0.2158126
v -1.165362 2.708146 0.3188565
v -0.4020399 2.677422 0.2073806
v -0.4337292 0.008371863 0.2006534
v -0.4337292 0.008371863 0.2006534
v -0.4020399 2.677422 0.2073806
v -0.4224994 2.657445 -0.2120257
v -0.4431554 0.008371795 -0.2146233
v -0.4337292 0.008371863 0.2006534
v -0.4431554 0.008371795 -0.2146233
v -1.111009 0.008371797 -0.1994641
v -1.101582 0.008371865 0.2158126
v -1.253792 2.603294 -0.1212165
v -1.324312 2.63056 0.371375
v -1.891667 2.595623 0.3171867
v -1.840372 2.578281 -0.170854
v -1.220208 0.01071235 -0.2189001
v -1.253792 2.603294 -0.1212165
v -1.840372 2.578281 -0.170854
v -1.873566 0.01071234 -0.296532
v -1.873566 0.01071234 -0.296532
v -1.840372 2.578281 -0.170854
v -1.891667 2.595623 0.3171867
v -1.926703 0.01071241 0.1506732
v -1.926703 0.01071241 0.1506732
v -1.891667 2.595623 0.3171867
v -1.324312 2.63056 0.371375
v -1.273345 0.01071242 0.2283051
v -1.273345 0.01071242 0.2283051
v -1.324312 2.63056 0.371375
v -1.253792 2.603294 -0.1212165
v -1.220208 0.01071235 -0.2189001
v -1.273345 0.01071242 0.2283051
v -1.220208 0.01071235 -0.2189001
v -1.873566 0.01071234 -0.296532
v -1.926703 0.01071241 0.1506732
v 1.606631 2.599017 -0.148212
v 2.235458 2.627139 -0.1143892
v 2.224462 2.650373 0.3097822
v 1.612107 2.608741 0.308431
v 1.496619 -0.05340054 -0.1899536
v 2.135526 -0.05340054 -0.1054935
v 2.235458 2.627139 -0.1143892
v 1.606631 2.599017 -0.148212
v 2.135526 -0.05340054 -0.1054935
v 2.078916 -0.05340046 0.3227381
v 2.224462 2.650373 0.3097822
v 2.235458 2.627139 -0.1143892
v 2.078916 -0.05340046 0.3227381
v 1.440009 -0.05340048 0.2382781
v 1.612107 2.608741 0.308431
v 2.224462 2.650373 0.3097822
v 1.440009 -0.05340048 0.2382781
v 1.496619 -0.05340054 -0.1899536
v 1.606631 2.599017 -0.148212
v 1.612107 2.608741 0.308431
v 1.440009 -0.05340048 0.2382781
v 2.078916 -0.05340046 0.3227381
v 2.135526 -0.05340054 -0.1054935
v 1.496619 -0.05340054 -0.1899536
v -2.13491 1.183333 -0.5020345
v -2.132635 1.828066 -0.4943796
v -2.140999 1.829485 -0.1126715
v -2.149523 1.179693 -0.138973
v 2.431359 1.168006 -0.3183908
v 2.436976 1.814328 -0.3121835
v -2.132635 1.828066 -0.4943796
v -2.13491 1.183333 -0.5020345
v 2.436976 1.814328 -0.3121835
v 2.4485 1.824 0.0485515
v -2.140999 1.829485 -0.1126715
v -2.132635 1.828066 -0.4943796
v 2.4485 1.824 0.0485515
v 2.416746 1.164366 0.04467065
v -2.149523 1.179693 -0.138973
v -2.140999 1.829485 -0.1126715
v 2.416746 1.164366 0.04467065
v 2.431359 1.168006 -0.3183908
v -2.13491 1.183333 -0.5020345
v -2.149523 1.179693 -0.138973
v 2.416746 1.164366 0.04467065
v 2.4485 1.824 0.0485515
v 2.436976 1.814328 -0.3121835
v 2.431359 1.168006 -0.3183908
vt 0.2888709 0.9779159
vt 0.2890315 0.9753568
vt 0.2882689 0.9764649
vt 0.2880128 0.9770033
vt 0.2815577 0.9783447
vt 0.2888709 0.9779159
vt 0.2880128 0.9770033
vt 0.2815394 0.9763912
vt 0.2815394 0.9763912
vt 0.2880128 0.9770033
vt 0.2882689 0.9764649
vt 0.2819929 0.9756325
vt 0.2819929 0.9756325
vt 0.2882689 0.9764649
vt 0.2890315 0.9753568
vt 0.2822956 0.974104
vt 0.2822956 0.974104
vt 0.2890315 0.9753568
vt 0.2891464 0.9742929
vt 0.2821093 0.9733498
vt 0.2822956 0.974104
vt 0.2821093 0.9733498
vt 0.2815394 0.9763912
vt 0.2819929 0.9756325
vt 0.2881937 0.99799
vt 0.2934404 0.9959466
vt 0.2919751 0.9960004
vt 0.289579 0.9967009
vt 0.2846451 0.9870317
vt 0.2827463 0.9862315
vt 0.2850594 0.9988368
vt 0.2881937 0.99799
vt 0.2889645 0.9841891
vt 0.2871668 0.984988
vt 0.2919751 0.9960004
vt 0.2934404 0.9959466
vt 0.2871668 0.984988
vt 0.2857096 0.9864208
vt 0.289579 0.9967009
vt 0.2919751 0.9960004
vt 0.2857096 0.9864208
vt 0.2846451 0.9870317
vt 0.2881937 0.99799
vt 0.289579 0.9967009
vt 0.2857096 0.9864208
vt 0.2871668 0.984988
vt 0.2827463 0.9862315
vt 0.2846451 0.9870317
vt 0.2999177 0.9978296
vt 0.3000219 0.9954603
vt 0.2992471 0.9934657
vt 0.2989593 0.9941629
vt 0.2938638 0.9795228
vt 0.2999177 0.9978296
vt 0.2989593 0.9941629
vt 0.2967976 0.9794269
vt 0.2967976 0.9794269
vt 0.2989593 0.9941629
vt 0.2992471 0.9934657
vt 0.2989013 0.9797148
vt 0.2989013 0.9797148
vt 0.2992471 0.9934657
vt 0.3000219 0.9954603
vt 0.3016459 0.978835
vt 0.3016459 0.978835
vt 0.3000219 0.9954603
vt 0.2999177 0.9978296
vt 0.3044139 0.9795276
vt 0.3016459 0.978835
vt 0.2938638 0.9795228
vt 0.2967976 0.9794269
vt 0.2989013 0.9797148
vt 0.2831184 0.9642466
vt 0.2833049 0.9641541
vt 0.2818371 0.9642171
vt 0.2827976 0.9644763
vt 0.289083 0.9654986
vt 0.2831184 0.9642466
vt 0.2827976 0.9644763
vt 0.2899083 0.9669888
vt 0.2899083 0.9669888
vt 0.2827976 0.9644763
vt 0.2818371 0.9642171
vt 0.2894011 0.9685171
vt 0.2889983 0.9633245
vt 0.2818371 0.9642171
vt 0.2833049 0.9641541
vt 0.2891189 0.964417
vt 0.2891189 0.964417
vt 0.2833049 0.9641541
vt 0.2831184 0.9642466
vt 0.289083 0.9654986
vt 0.2891189 0.964417
vt 0.289083 0.9654986
vt 0.2899083 0.9669888
vt 0.2889983 0.9633245
vt 0.3042008 0.9730185
vt 0.3058425 0.9740716
vt 0.3067943 0.9732533
vt 0.3053152 0.9728231
vt 0.3091511 0.9658177
vt 0.3074944 0.9659606
vt 0.3078983 0.9730936
vt 0.3095257 0.9728125
vt 0.3074944 0.9659606
vt 0.3066271 0.9663871
vt 0.3067943 0.9732533
vt 0.3078983 0.9730936
vt 0.3066271 0.9663871
vt 0.3052275 0.9662151
vt 0.3053152 0.9728231
vt 0.3067943 0.9732533
vt 0.3052275 0.9662151
vt 0.3044299 0.96588
vt 0.3042008 0.9730185
vt 0.3053152 0.9728231
vt 0.3052275 0.9662151
vt 0.3066271 0.9663871
vt 0.3074944 0.9659606
vt 0.3044299 0.96588
vt 0.2421553 0.9990509
vt 0.2410276 0.9983083
vt 0.2402338 0.9982836
vt 0.2389142 0.9984729
vt 0.2450407 0.9855012
vt 0.2431094 0.9851403
vt 0.2410276 0.9983083
vt 0.2421553 0.9990509
vt 0.2431094 0.9851403
vt 0.2421404 0.9852214
vt 0.2402338 0.9982836
vt 0.2410276 0.9983083
vt 0.2421404 0.9852214
vt 0.240383 0.9850562
vt 0.2389142 0.9984729
vt 0.2402338 0.9982836
vt 0.240383 0.9850562
vt 0.239505 0.9847491
vt 0.2378347 0.9983472
vt 0.2389142 0.9984729
vt 0.240383 0.9850562
vt 0.2421404 0.9852214
vt 0.2431094 0.9851403
vt 0.239505 0.9847491
vn 0.02151758 0.9993582 -0.02863941
vn 0.02151758 0.9993582 -0.02863941
vn 0.02151758 0.9993582 -0.02863941
vn 0.02151758 0.9993582 -0.02863941
vn 0.03991035 0.01222259 -0.9991285
vn 0.03991035 0.01222259 -0.9991285
vn 0.03991035 0.01222259 -0.9991285
vn 0.03991035 0.01222259 -0.9991285
vn -0.9992806 0.02468359 0.02879021
vn -0.9992808 0.02468359 0.02879021
vn -0.9992806 0.02468359 0.02879021
vn -0.9992806 0.02468359 0.02879021
vn -0.05992756 -0.01753489 0.9980488
vn -0.05992756 -0.01753489 0.9980488
vn -0.05992756 -0.01753489 0.9980488
vn -0.05992756 -0.01753489 0.9980488
vn 0.9971522 -0.04736143 -0.05868908
vn 0.9971522 -0.04736144 -0.05868908
vn 0.9971522 -0.04736144 -0.05868908
vn 0.9971522 -0.04736144 -0.05868908
vn 0 -1 0
vn 0 -1 0
vn 0 -1 0
vn 0 -1 0
vn 0.006196233 0.9998921 -0.01332115
vn 0.006196233 0.9998921 -0.01332115
vn 0.006196233 0.9998921 -0.01332115
vn 0.006196233 0.9998921 -0.01332115
vn -0.02086433 0.03910508 -0.9990172
vn -0.02086433 0.03910508 -0.9990172
vn -0.02086433 0.03910508 -0.9990172
vn -0.02086433 0.03910508 -0.9990172
vn 0.9963166 -0.04744073 -0.0714329
vn 0.9963166 -0.04744074 -0.07143291
vn 0.9963166 -0.04744074 -0.07143291
vn 0.9963166 -0.04744073 -0.07143291
vn 0.03652124 -0.05475572 0.9978316
vn 0.03652125 -0.05475572 0.9978316
vn 0.03652125 -0.05475572 0.9978316
vn 0.03652125 -0.05475573 0.9978316
vn -0.9964113 0.05657445 0.06295994
vn -0.9964113 0.05657445 0.06295995
vn -0.9964113 0.05657445 0.06295994
vn -0.9964113 0.05657445 0.06295994
vn 0 -1 0
vn 0 -1 0
vn 0 -1 0
vn 0 -1 0
vn 0.03344962 0.9982615 -0.04853069
vn 0.03344962 0.9982615 -0.04853068
vn 0.03344962 0.9982615 -0.04853069
vn 0.03344962 0.9982615 -0.04853068
vn -0.07524174 0.01482785 -0.9970551
vn -0.07524174 0.01482785 -0.9970551
vn -0.07524174 0.01482784 -0.9970551
vn -0.07524174 0.01482785 -0.9970551
vn -0.9998021 -0.01984035 -0.001500963
vn -0.9998021 -0.01984035 -0.001500964
vn -0.9998021 -0.01984035 -0.001500964
vn -0.9998021 -0.01984035 -0.001500964
vn 0.08769902 -0.01983901 0.9959494
vn 0.08769901 -0.01983901 0.9959494
vn 0.08769902 -0.01983901 0.9959494
vn 0.08769902 -0.01983901 0.9959494
vn 0.9993203 -0.009773785 -0.03554657
vn 0.9993203 -0.009773786 -0.03554657
vn 0.9993203 -0.009773786 -0.03554657
vn 0.9993203 -0.009773786 -0.03554657
vn 0 -1 0
vn 0 -1 0
vn 0 -1 0
vn 0 -1 0
vn -0.04721513 0.9975694 -0.05124374
vn -0.04721514 0.9975694 -0.05124374
vn -0.04721514 0.9975694 -0.05124373
vn -0.04721514 0.9975694 -0.05124374
vn 0.1011517 0.04303119 -0.99394
vn 0.1011517 0.04303119 -0.99394
vn 0.1011517 0.04303119 -0.99394
vn 0.1011517 0.04303119 -0.99394
vn -0.9935953 0.01946951 -0.1113077
vn -0.9935953 0.01946951 -0.1113077
vn -0.9935953 0.01946951 -0.1113077
vn -0.9935953 0.01946952 -0.1113077
vn -0.1054932 -0.05936632 0.9926463
vn -0.1054932 -0.05936632 0.9926463
vn -0.1054932 -0.05936632 0.9926463
vn -0.1054932 -0.05936632 0.9926463
vn 0.9914418 0.01007018 0.1301608
vn 0.9914418 0.01007018 0.1301608
vn 0.9914418 0.01007018 0.1301609
vn 0.9914418 0.01007019 0.1301609
vn 0 -1 0
vn 0 -1 0
vn 0 -1 0
vn 0 -1 0
vn -0.05500686 0.9977748 -0.03767814
vn -0.05500685 0.9977748 -0.03767814
vn -0.05500686 0.9977748 -0.03767814
vn -0.05500685 0.9977748 -0.03767814
vn 0.09284438 0.002477396 -0.9956775
vn 0.09284437 0.002477396 -0.9956775
vn 0.09284438 0.002477396 -0.9956775
vn 0.09284438 0.002477395 -0.9956775
vn 0.9957588 -0.04507248 0.08020451
vn 0.9957588 -0.04507248 0.08020451
vn 0.9957588 -0.04507248 0.08020451
vn 0.9957588 -0.04507248 0.08020451
vn -0.06819913 -0.006597109 0.99765
vn -0.06819913 -0.006597109 0.99765
vn -0.06819913 -0.006597108 0.99765
vn -0.06819913 -0.006597108 0.99765
vn -0.9968359 0.05413974 -0.05819881
vn -0.9968359 0.05413974 -0.05819881
vn -0.9968359 0.05413974 -0.05819881
vn -0.9968359 0.05413974 -0.05819881
vn 0 -1 0
vn 0 -1 0
vn 0 -1 0
vn 0 -1 0
vn -0.9994835 0.009146173 -0.03080771
vn -0.9994835 0.009146173 -0.03080771
vn -0.9994835 0.009146173 -0.03080771
vn -0.9994835 0.009146173 -0.03080771
vn 0.04004333 0.01048311 -0.999143
vn 0.04004333 0.01048311 -0.999143
vn 0.04004333 0.01048311 -0.999143
vn 0.04004333 0.01048311 -0.999143
vn 0.002658962 0.9998847 -0.01494874
vn 0.002658962 0.9998847 -0.01494874
vn 0.002658962 0.9998847 -0.01494874
vn 0.002658962 0.9998847 -0.01494874
vn -0.03768055 -0.02186901 0.9990504
vn -0.03768055 -0.02186901 0.9990504
vn -0.03768055 -0.02186901 0.9990504
vn -0.03768054 -0.02186901 0.9990504
vn -0.002948411 -0.9999442 -0.01014497
vn -0.00294841 -0.9999442 -0.01014497
vn -0.00294841 -0.9999442 -0.01014497
vn -0.00294841 -0.9999442 -0.01014497
vn 0.9995797 -0.02863862 0.004504844
vn 0.9995797 -0.02863862 0.004504844
vn 0.9995797 -0.02863863 0.004504844
vn 0.9995797 -0.02863862 0.004504844
g Fence_0
f 3/3/3 2/2/2 1/1/1
f 4/4/4 3/3/3 1/1/1
f 7/7/7 6/6/6 5/5/5
f 8/8/8 7/7/7 5/5/5
f 11/11/11 10/10/10 9/9/9
f 12/12/12 11/11/11 9/9/9
f 15/15/15 14/14/14 13/13/13
f 16/16/16 15/15/15 13/13/13
f 19/19/19 18/18/18 17/17/17
f 20/20/20 19/19/19 17/17/17
f 23/23/23 22/22/22 21/21/21
f 24/24/24 23/23/23 21/21/21
f 27/27/27 26/26/26 25/25/25
f 28/28/28 27/27/27 25/25/25
f 31/31/31 30/30/30 29/29/29
f 32/32/32 31/31/31 29/29/29
f 35/35/35 34/34/34 33/33/33
f 36/36/36 35/35/35 33/33/33
f 39/39/39 38/38/38 37/37/37
f 40/40/40 39/39/39 37/37/37
f 43/43/43 42/42/42 41/41/41
f 44/44/44 43/43/43 41/41/41
f 47/47/47 46/46/46 45/45/45
f 48/48/48 47/47/47 45/45/45
f 51/51/51 50/50/50 49/49/49
f 52/52/52 51/51/51 49/49/49
f 55/55/55 54/54/54 53/53/53
f 56/56/56 55/55/55 53/53/53
f 59/59/59 58/58/58 57/57/57
f 60/60/60 59/59/59 57/57/57
f 63/63/63 62/62/62 61/61/61
f 64/64/64 63/63/63 61/61/61
f 67/67/67 66/66/66 65/65/65
f 68/68/68 67/67/67 65/65/65
f 71/71/71 70/70/70 69/69/69
f 72/72/72 71/71/71 69/69/69
f 75/75/75 74/74/74 73/73/73
f 76/76/76 75/75/75 73/73/73
f 79/79/79 78/78/78 77/77/77
f 80/80/80 79/79/79 77/77/77
f 83/83/83 82/82/82 81/81/81
f 84/84/84 83/83/83 81/81/81
f 87/87/87 86/86/86 85/85/85
f 88/88/88 87/87/87 85/85/85
f 91/91/91 90/90/90 89/89/89
f 92/92/92 91/91/91 89/89/89
f 95/95/95 94/94/94 93/93/93
f 96/96/96 95/95/95 93/93/93
f 99/99/99 98/98/98 97/97/97
f 100/100/100 99/99/99 97/97/97
f 103/103/103 102/102/102 101/101/101
f 104/104/104 103/103/103 101/101/101
f 107/107/107 106/106/106 105/105/105
f 108/108/108 107/107/107 105/105/105
f 111/111/111 110/110/110 109/109/109
f 112/112/112 111/111/111 109/109/109
f 115/115/115 114/114/114 113/113/113
f 116/116/116 115/115/115 113/113/113
f 119/119/119 118/118/118 117/117/117
f 120/120/120 119/119/119 117/117/117
f 123/123/123 122/122/122 121/121/121
f 124/124/124 123/123/123 121/121/121
f 127/127/127 126/126/126 125/125/125
f 128/128/128 127/127/127 125/125/125
f 131/131/131 130/130/130 129/129/129
f 132/132/132 131/131/131 129/129/129
f 135/135/135 134/134/134 133/133/133
f 136/136/136 135/135/135 133/133/133
f 139/139/139 138/138/138 137/137/137
f 140/140/140 139/139/139 137/137/137
f 143/143/143 142/142/142 141/141/141
f 144/144/144 143/143/143 141/141/141
