g Fist Blade 01
v 0.07818544 -0.02189206 0.02467518
v 0.07818545 0.01338664 0.08636881
v 0.07818545 -0.01338666 0.0863688
v 0.07818545 0.01338664 0.08636881
v 0.07818544 -0.02189206 0.02467518
v 0.07818544 0.02189209 0.0246752
v 0.2063732 3.627315E-08 0.04001173
v 0.1902645 0.008116437 0.01211065
v 0.1902645 -0.008116397 0.01211064
v -0.2165528 1.224327E-08 0.04001174
v -0.2004441 -0.008116367 0.01211066
v -0.2004441 0.008116467 0.01211066
v -0.09139803 -0.02189206 0.02467519
v -0.09139802 0.01338664 0.08636881
v -0.09139802 -0.01338666 0.08636881
v -0.09139802 0.01338664 0.08636881
v -0.09139803 -0.02189206 0.02467519
v -0.09139803 0.02189209 0.02467521
v -0.06884339 0.02139402 -0.02304041
v 0.0807378 0.02139399 0.02304043
v -0.06884339 0.021394 0.02304043
v 0.0807378 0.02139401 -0.02304042
v -0.06884341 -0.02139398 -0.02304042
v 0.0807378 0.02139401 -0.02304042
v -0.06884339 0.02139402 -0.02304041
v 0.08073784 -0.021394 -0.02304043
v -0.06884341 -0.021394 0.02304042
v 0.08073784 -0.021394 -0.02304043
v -0.06884341 -0.02139398 -0.02304042
v 0.08073784 -0.02139401 0.02304041
v -0.06884339 0.021394 0.02304043
v 0.08073784 -0.02139401 0.02304041
v -0.06884341 -0.021394 0.02304042
v 0.0807378 0.02139399 0.02304043
v 0.2063732 3.627315E-08 0.04001173
v 0.1011282 0.01037161 0.07262871
v 0.1902645 0.008116437 0.01211065
v 0.1220394 9.937174E-09 0.1359463
v -0.005089797 0.01262679 0.09568178
v -0.005089792 -1.04413E-08 0.1955719
v 0.1220394 9.937174E-09 0.1359463
v -0.005089797 -0.01262675 0.09568177
v 0.1011282 -0.01037157 0.07262871
v 0.2063732 3.627315E-08 0.04001173
v 0.1902645 -0.008116397 0.01211064
v -0.005089797 -0.01262675 0.09568177
v -0.1322189 -1.120562E-08 0.1359463
v -0.1113078 -0.01037157 0.07262873
v -0.2165528 1.224327E-08 0.04001174
v -0.2004441 -0.008116367 0.01211066
v -0.1322189 -1.120562E-08 0.1359463
v -0.005089797 0.01262679 0.09568178
v -0.1113078 0.01037162 0.07262873
v -0.2165528 1.224327E-08 0.04001174
v -0.2004441 0.008116467 0.01211066
v 0.1011282 0.01037161 0.07262871
v 0.1902645 -0.008116397 0.01211064
v 0.1902645 0.008116437 0.01211065
v 0.1011282 -0.01037157 0.07262871
v -0.005089797 -0.01262675 0.09568177
v -0.005089797 0.01262679 0.09568178
v 0.07818544 0.02189209 0.0246752
v 0.09540866 0.01338664 0.08636881
v 0.07818545 0.01338664 0.08636881
v 0.09540866 0.02189209 0.0246752
v 0.07818545 -0.01338666 0.0863688
v 0.09540865 -0.02189207 0.02467518
v 0.07818544 -0.02189206 0.02467518
v 0.09540866 -0.01338666 0.08636878
v 0.07818545 0.01338664 0.08636881
v 0.09540866 -0.01338666 0.08636878
v 0.07818545 -0.01338666 0.0863688
v 0.09540866 0.01338664 0.08636881
v 0.09540866 0.01338664 0.08636881
v 0.09540865 -0.02189207 0.02467518
v 0.09540866 -0.01338666 0.08636878
v 0.09540866 0.02189209 0.0246752
v 0.0704181 -0.02563821 -0.02949019
v 0.07041809 0.0256382 0.02949018
v 0.0704181 -0.02563823 0.02949017
v 0.07041809 0.02563822 -0.02949017
v 0.07041809 0.02563822 -0.02949017
v 0.1061933 0.0256382 0.02949018
v 0.07041809 0.0256382 0.02949018
v 0.1061933 0.02563822 -0.02949017
v 0.0704181 -0.02563821 -0.02949019
v 0.1061933 0.02563822 -0.02949017
v 0.07041809 0.02563822 -0.02949017
v 0.1061933 -0.02563822 -0.02949019
v 0.0704181 -0.02563823 0.02949017
v 0.1061933 -0.02563822 -0.02949019
v 0.0704181 -0.02563821 -0.02949019
v 0.1061933 -0.02563823 0.02949017
v 0.07041809 0.0256382 0.02949018
v 0.1061933 -0.02563823 0.02949017
v 0.0704181 -0.02563823 0.02949017
v 0.1061933 0.0256382 0.02949018
v 0.1061933 0.0256382 0.02949018
v 0.1061933 -0.02563822 -0.02949019
v 0.1061933 -0.02563823 0.02949017
v 0.1061933 0.02563822 -0.02949017
v -0.06671488 -0.02563823 0.02949017
v -0.06671488 0.02563822 -0.02949017
v -0.06671488 -0.02563821 -0.02949018
v -0.06671488 0.0256382 0.02949019
v -0.06671488 0.0256382 0.02949019
v -0.1024901 0.02563822 -0.02949017
v -0.06671488 0.02563822 -0.02949017
v -0.1024901 0.0256382 0.02949019
v -0.06671488 -0.02563823 0.02949017
v -0.1024901 0.0256382 0.02949019
v -0.06671488 0.0256382 0.02949019
v -0.1024901 -0.02563823 0.02949017
v -0.06671488 -0.02563821 -0.02949018
v -0.1024901 -0.02563823 0.02949017
v -0.06671488 -0.02563823 0.02949017
v -0.1024901 -0.02563821 -0.02949018
v -0.06671488 0.02563822 -0.02949017
v -0.1024901 -0.02563821 -0.02949018
v -0.06671488 -0.02563821 -0.02949018
v -0.1024901 0.02563822 -0.02949017
v -0.1024901 0.02563822 -0.02949017
v -0.1024901 -0.02563823 0.02949017
v -0.1024901 -0.02563821 -0.02949018
v -0.1024901 0.0256382 0.02949019
v -0.1113078 -0.01037157 0.07262873
v -0.2004441 0.008116467 0.01211066
v -0.2004441 -0.008116367 0.01211066
v -0.1113078 0.01037162 0.07262873
v -0.005089797 0.01262679 0.09568178
v -0.005089797 -0.01262675 0.09568177
v -0.09139803 0.02189209 0.02467521
v -0.07417478 0.01338664 0.08636881
v -0.09139802 0.01338664 0.08636881
v -0.07417479 0.02189209 0.02467521
v -0.09139802 -0.01338666 0.08636881
v -0.07417482 -0.02189207 0.02467519
v -0.09139803 -0.02189206 0.02467519
v -0.07417481 -0.01338666 0.0863688
v -0.09139802 0.01338664 0.08636881
v -0.07417481 -0.01338666 0.0863688
v -0.09139802 -0.01338666 0.08636881
v -0.07417478 0.01338664 0.08636881
v -0.07417478 0.01338664 0.08636881
v -0.07417482 -0.02189207 0.02467519
v -0.07417481 -0.01338666 0.0863688
v -0.07417479 0.02189209 0.02467521
vt 0.8683221 0.6601505
vt 0.8519913 0.5985575
vt 0.8519913 0.6601505
vt 0.8519913 0.5985575
vt 0.8683221 0.6601505
vt 0.8683221 0.5985575
vt 0.9135582 0.09705389
vt 0.9298891 0.06625736
vt 0.9298891 0.1278504
vt 0.9135582 0.09705389
vt 0.9298891 0.06625736
vt 0.9298891 0.1278504
vt 0.8683221 0.6601505
vt 0.8519913 0.5985575
vt 0.8519913 0.6601505
vt 0.8519913 0.5985575
vt 0.8683221 0.6601505
vt 0.8683221 0.5985575
vt 0.6810988 0.8445343
vt 0.664768 0.8445343
vt 0.664768 0.8445343
vt 0.6810988 0.8445343
vt 0.6810988 0.9061273
vt 0.6810988 0.8445343
vt 0.6810988 0.8445343
vt 0.6810988 0.9061273
vt 0.664768 0.9061273
vt 0.6810988 0.9061273
vt 0.6810988 0.9061273
vt 0.664768 0.9061273
vt 0.664768 0.8445343
vt 0.664768 0.9061273
vt 0.664768 0.9061273
vt 0.664768 0.8445343
vt 0.9135582 0.09705389
vt 0.9298891 0.06625736
vt 0.9298891 0.06625736
vt 0.9135582 0.09705389
vt 0.9298891 0.06625736
vt 0.9135582 0.09705389
vt 0.9135582 0.09705389
vt 0.9298891 0.1278504
vt 0.9298891 0.1278504
vt 0.9135582 0.09705389
vt 0.9298891 0.1278504
vt 0.9298891 0.06625736
vt 0.9135582 0.09705389
vt 0.9298891 0.06625736
vt 0.9135582 0.09705389
vt 0.9298891 0.06625736
vt 0.9135582 0.09705389
vt 0.9298891 0.1278504
vt 0.9298891 0.1278504
vt 0.9135582 0.09705389
vt 0.9298891 0.1278504
vt 0.9298891 0.06625736
vt 0.9298891 0.1278504
vt 0.9298891 0.06625736
vt 0.9298891 0.1278504
vt 0.9298891 0.1278504
vt 0.9298891 0.06625736
vt 0.8683221 0.5985575
vt 0.8519913 0.5985575
vt 0.8519913 0.5985575
vt 0.8683221 0.5985575
vt 0.8519913 0.6601505
vt 0.8683221 0.6601505
vt 0.8683221 0.6601505
vt 0.8519913 0.6601505
vt 0.8519913 0.5985575
vt 0.8519913 0.6601505
vt 0.8519913 0.6601505
vt 0.8519913 0.5985575
vt 0.8519913 0.5985575
vt 0.8683221 0.6601505
vt 0.8519913 0.6601505
vt 0.8683221 0.5985575
vt 0.8683221 0.6601505
vt 0.8519913 0.5985575
vt 0.8519913 0.6601505
vt 0.8683221 0.5985575
vt 0.8683221 0.5985575
vt 0.8519913 0.5985575
vt 0.8519913 0.5985575
vt 0.8683221 0.5985575
vt 0.8683221 0.6601505
vt 0.8683221 0.5985575
vt 0.8683221 0.5985575
vt 0.8683221 0.6601505
vt 0.8519913 0.6601505
vt 0.8683221 0.6601505
vt 0.8683221 0.6601505
vt 0.8519913 0.6601505
vt 0.8519913 0.5985575
vt 0.8519913 0.6601505
vt 0.8519913 0.6601505
vt 0.8519913 0.5985575
vt 0.8519913 0.5985575
vt 0.8683221 0.6601505
vt 0.8519913 0.6601505
vt 0.8683221 0.5985575
vt 0.8683221 0.6601505
vt 0.8519913 0.5985575
vt 0.8519913 0.6601505
vt 0.8683221 0.5985575
vt 0.8683221 0.5985575
vt 0.8519913 0.5985575
vt 0.8519913 0.5985575
vt 0.8683221 0.5985575
vt 0.8683221 0.6601505
vt 0.8683221 0.5985575
vt 0.8683221 0.5985575
vt 0.8683221 0.6601505
vt 0.8519913 0.6601505
vt 0.8683221 0.6601505
vt 0.8683221 0.6601505
vt 0.8519913 0.6601505
vt 0.8519913 0.5985575
vt 0.8519913 0.6601505
vt 0.8519913 0.6601505
vt 0.8519913 0.5985575
vt 0.8519913 0.5985575
vt 0.8683221 0.6601505
vt 0.8519913 0.6601505
vt 0.8683221 0.5985575
vt 0.9298891 0.06625736
vt 0.9298891 0.1278504
vt 0.9298891 0.06625736
vt 0.9298891 0.1278504
vt 0.9298891 0.1278504
vt 0.9298891 0.06625736
vt 0.8683221 0.5985575
vt 0.8519913 0.5985575
vt 0.8519913 0.5985575
vt 0.8683221 0.5985575
vt 0.8519913 0.6601505
vt 0.8683221 0.6601505
vt 0.8683221 0.6601505
vt 0.8519913 0.6601505
vt 0.8519913 0.5985575
vt 0.8519913 0.6601505
vt 0.8519913 0.6601505
vt 0.8519913 0.5985575
vt 0.8519913 0.5985575
vt 0.8683221 0.6601505
vt 0.8519913 0.6601505
vt 0.8683221 0.5985575
vn -1 0 2.819214E-07
vn -1 0 2.819214E-07
vn -1 0 2.819214E-07
vn -1 0 3.447807E-07
vn -1 0 3.447807E-07
vn -1 0 3.447807E-07
vn 0.8660254 2.226001E-07 -0.5
vn 0.8660254 2.226001E-07 -0.5
vn 0.8660254 2.226001E-07 -0.5
vn -0.8660251 -1.513534E-06 -0.5000006
vn -0.8660251 -1.513534E-06 -0.5000006
vn -0.8660251 -1.513534E-06 -0.5000006
vn -1 0 2.819214E-07
vn -1 0 2.819214E-07
vn -1 0 2.819214E-07
vn -1 0 0
vn -1 0 0
vn -1 0 0
vn 0 1 3.2337E-07
vn 0 1 3.2337E-07
vn 0 1 3.2337E-07
vn 0 1 3.2337E-07
vn 0 4.236336E-07 -1
vn 0 3.766866E-07 -1
vn 0 4.365384E-07 -1
vn 0 3.637817E-07 -1
vn -1.117729E-07 -1 -3.2337E-07
vn 0 -1 -3.2337E-07
vn -1.21734E-07 -1 -3.2337E-07
vn 0 -1 -3.2337E-07
vn 0 -1.971319E-07 1
vn 0 -3.849192E-07 1
vn 0 -1.455127E-07 1
vn 0 -4.365383E-07 1
vn 0.1487747 0.9740953 0.1703067
vn 0.09671305 0.9858544 0.136885
vn 0.1550987 0.9689955 0.1923338
vn 0.08514258 0.9879987 0.1288768
vn 0.05684455 0.9897636 0.1309074
vn 1.201034E-05 -1.998991E-05 1
vn 0.08514262 -0.9879987 0.1288764
vn 0.05684452 -0.9897636 0.1309069
vn 0.09671316 -0.9858546 0.1368849
vn 0.1487752 -0.9740952 0.1703072
vn 0.1550993 -0.9689952 0.1923346
vn -0.05684441 -0.9897637 0.1309068
vn -0.08514242 -0.9879988 0.1288762
vn -0.0967129 -0.9858546 0.1368845
vn -0.1487745 -0.9740955 0.170306
vn -0.1550985 -0.9689956 0.1923331
vn -0.08514279 0.9879987 0.1288772
vn -0.05684469 0.9897636 0.1309075
vn -0.09671333 0.9858544 0.1368856
vn -0.1487753 0.974095 0.1703079
vn -0.1550994 0.968995 0.1923353
vn -0.391734 0 -0.9200784
vn -0.5617095 2.343293E-07 -0.8273346
vn -0.5617095 2.662579E-07 -0.8273346
vn -0.3917339 0 -0.9200785
vn -1.352608E-07 6.943999E-07 -1
vn -1.008308E-07 6.102804E-07 -1
vn 2.481647E-07 0.9906299 0.136574
vn 2.481647E-07 0.9906299 0.136574
vn 2.481647E-07 0.9906299 0.136574
vn 0 0.9906299 0.1365742
vn -2.170687E-07 -0.99063 0.1365734
vn -2.170687E-07 -0.99063 0.1365734
vn -2.170687E-07 -0.99063 0.1365734
vn -1.859729E-07 -0.99063 0.1365735
vn 4.325895E-07 -6.423379E-07 1
vn 4.325895E-07 -3.675055E-07 1
vn 4.325897E-07 0 1
vn 4.325894E-07 -1.009843E-06 1
vn 1 -2.367248E-07 -1.427857E-07
vn 1 -1.990056E-07 -2.084101E-07
vn 1 -2.782839E-07 0
vn 1 -1.701661E-07 -2.585855E-07
vn -1 -1.453023E-07 0
vn -1 -1.453023E-07 0
vn -1 -1.453023E-07 -1.539731E-07
vn -1 -1.453023E-07 1.539731E-07
vn 1.103446E-07 1 3.158077E-07
vn 1.103446E-07 1 3.158077E-07
vn 1.103446E-07 1 3.158078E-07
vn 1.103446E-07 1 3.158077E-07
vn 0 3.030685E-07 -1
vn 0 3.315467E-07 -1
vn 0 3.807691E-07 -1
vn 0 2.538461E-07 -1
vn -2.206891E-07 -1 -3.158077E-07
vn -2.206891E-07 -1 -3.158077E-07
vn -2.206891E-07 -1 -3.158077E-07
vn -2.206891E-07 -1 -3.158077E-07
vn 0 -3.315467E-07 1
vn 0 -3.030685E-07 1
vn 0 -2.538461E-07 1
vn 0 -3.807691E-07 1
vn 1 2.906045E-07 0
vn 1 2.906045E-07 0
vn 1 2.906045E-07 0
vn 1 2.906045E-07 0
vn 1 0 0
vn 1 0 0
vn 1 0 0
vn 1 0 0
vn -1.823881E-07 1 3.158076E-07
vn -1.486456E-07 1 3.158077E-07
vn -1.103446E-07 1 3.158077E-07
vn -2.206891E-07 1 3.158076E-07
vn 0 -3.315464E-07 1
vn 0 -3.030684E-07 1
vn 0 -2.538462E-07 1
vn 0 -3.807687E-07 1
vn 1.82388E-07 -1 -3.158076E-07
vn 1.486455E-07 -1 -3.158077E-07
vn 1.103445E-07 -1 -3.158078E-07
vn 2.206891E-07 -1 -3.158075E-07
vn 0 3.030686E-07 -1
vn 0 3.315468E-07 -1
vn 0 3.807691E-07 -1
vn 0 2.538463E-07 -1
vn -1 3.568028E-07 -4.45519E-07
vn -1 3.697086E-07 -4.783195E-07
vn -1 2.906046E-07 -2.772738E-07
vn -1 4.359068E-07 -6.465647E-07
vn 0.3917339 1.71004E-07 -0.9200785
vn 0.5617095 1.277056E-06 -0.8273346
vn 0.5617094 1.451061E-06 -0.8273345
vn 0.391734 0 -0.9200785
vn -1.008308E-07 6.102804E-07 -1
vn -1.352608E-07 6.943999E-07 -1
vn 2.481645E-07 0.9906299 0.1365741
vn 2.481645E-07 0.9906299 0.1365741
vn 2.481645E-07 0.9906299 0.1365741
vn 0 0.9906299 0.136574
vn -2.170688E-07 -0.99063 0.1365734
vn -2.170688E-07 -0.99063 0.1365734
vn -2.170688E-07 -0.99063 0.1365734
vn -1.859729E-07 -0.99063 0.1365735
vn 4.325892E-07 -3.675053E-07 1
vn 4.325892E-07 -6.423372E-07 1
vn 4.325892E-07 -1.009843E-06 1
vn 4.325892E-07 0 1
vn 1 -9.468993E-07 0
vn 1 -7.960226E-07 0
vn 1 -1.113136E-06 0
vn 1 -6.806644E-07 -1.292928E-07
g Fist Blade 01_0
f 3/3/3 2/2/2 1/1/1
f 6/6/6 5/5/5 4/4/4
f 9/9/9 8/8/8 7/7/7
f 12/12/12 11/11/11 10/10/10
f 15/15/15 14/14/14 13/13/13
f 18/18/18 17/17/17 16/16/16
f 21/21/21 20/20/20 19/19/19
f 22/22/22 19/19/19 20/20/20
f 25/25/25 24/24/24 23/23/23
f 26/26/26 23/23/23 24/24/24
f 29/29/29 28/28/28 27/27/27
f 30/30/30 27/27/27 28/28/28
f 33/33/33 32/32/32 31/31/31
f 34/34/34 31/31/31 32/32/32
f 37/37/37 36/36/36 35/35/35
f 38/38/38 35/35/35 36/36/36
f 36/36/36 39/39/39 38/38/38
f 40/40/40 38/38/38 39/39/39
f 40/40/40 42/42/42 41/41/41
f 43/43/43 41/41/41 42/42/42
f 41/41/41 43/43/43 44/44/44
f 45/45/45 44/44/44 43/43/43
f 40/40/40 47/47/47 46/46/46
f 48/48/48 46/46/46 47/47/47
f 47/47/47 49/49/49 48/48/48
f 50/50/50 48/48/48 49/49/49
f 40/40/40 52/52/52 51/51/51
f 53/53/53 51/51/51 52/52/52
f 51/51/51 53/53/53 54/54/54
f 55/55/55 54/54/54 53/53/53
f 58/58/58 57/57/57 56/56/56
f 59/59/59 56/56/56 57/57/57
f 59/59/59 60/60/60 56/56/56
f 61/61/61 56/56/56 60/60/60
f 64/64/64 63/63/63 62/62/62
f 65/65/65 62/62/62 63/63/63
f 68/68/68 67/67/67 66/66/66
f 69/69/69 66/66/66 67/67/67
f 72/72/72 71/71/71 70/70/70
f 73/73/73 70/70/70 71/71/71
f 76/76/76 75/75/75 74/74/74
f 77/77/77 74/74/74 75/75/75
f 80/80/80 79/79/79 78/78/78
f 81/81/81 78/78/78 79/79/79
f 84/84/84 83/83/83 82/82/82
f 85/85/85 82/82/82 83/83/83
f 88/88/88 87/87/87 86/86/86
f 89/89/89 86/86/86 87/87/87
f 92/92/92 91/91/91 90/90/90
f 93/93/93 90/90/90 91/91/91
f 96/96/96 95/95/95 94/94/94
f 97/97/97 94/94/94 95/95/95
f 100/100/100 99/99/99 98/98/98
f 101/101/101 98/98/98 99/99/99
f 104/104/104 103/103/103 102/102/102
f 105/105/105 102/102/102 103/103/103
f 108/108/108 107/107/107 106/106/106
f 109/109/109 106/106/106 107/107/107
f 112/112/112 111/111/111 110/110/110
f 113/113/113 110/110/110 111/111/111
f 116/116/116 115/115/115 114/114/114
f 117/117/117 114/114/114 115/115/115
f 120/120/120 119/119/119 118/118/118
f 121/121/121 118/118/118 119/119/119
f 124/124/124 123/123/123 122/122/122
f 125/125/125 122/122/122 123/123/123
f 128/128/128 127/127/127 126/126/126
f 129/129/129 126/126/126 127/127/127
f 129/129/129 130/130/130 126/126/126
f 131/131/131 126/126/126 130/130/130
f 134/134/134 133/133/133 132/132/132
f 135/135/135 132/132/132 133/133/133
f 138/138/138 137/137/137 136/136/136
f 139/139/139 136/136/136 137/137/137
f 142/142/142 141/141/141 140/140/140
f 143/143/143 140/140/140 141/141/141
f 146/146/146 145/145/145 144/144/144
f 147/147/147 144/144/144 145/145/145
