g Fist Blade 01.002
v 0.07818544 3.095144E-06 0.06296436
v 0.07818544 -0.02189207 0.02467518
v 0.07818544 3.095421E-06 0.02467519
v -0.09139802 3.095144E-06 0.06296436
v -0.09139803 -0.02189207 0.02467519
v -0.09139803 3.095421E-06 0.0246752
v -0.07417482 -0.02189207 0.02467519
v -0.0741748 3.093952E-06 0.06296436
v -0.07417481 3.093037E-06 0.0246752
v 0.09540865 -0.02189207 0.02467518
v 0.09540866 3.093952E-06 0.06296435
v 0.09540866 3.093037E-06 0.02467519
v 0.2063732 2.975441E-08 0.04001173
v 0.1011282 -0.01037159 0.07262871
v 0.1220394 -1.221129E-08 0.1359463
v 0.1011282 -0.01037159 0.07262871
v 0.2063732 2.975441E-08 0.04001173
v 0.1902645 -0.008116399 0.01211064
v 0.2063732 2.975441E-08 0.04001173
v 0.1902645 -1.263458E-05 0.01211065
v 0.1902645 -0.008116399 0.01211064
v -0.2165528 5.724526E-09 0.04001174
v -0.1113078 -0.01037158 0.07262873
v -0.2004441 -0.008116369 0.01211066
v -0.1113078 -0.01037158 0.07262873
v -0.2165528 5.724526E-09 0.04001174
v -0.1322189 -3.335409E-08 0.1359463
v -0.2004441 -0.008116369 0.01211066
v -0.2004441 -1.263398E-05 0.01211066
v -0.2165528 5.724526E-09 0.04001174
v -0.005089797 -0.01262676 0.09568177
v 0.05316857 -1.264375E-05 0.08303765
v -0.005089797 -1.264581E-05 0.09568177
v -0.2165528 5.724526E-09 0.04001174
v -0.2004441 -1.263398E-05 0.01211066
v -0.1612513 -1.263772E-05 0.03872016
v 0.1511938 -1.26389E-05 0.03863725
v 0.1902645 -1.263458E-05 0.01211065
v 0.2063732 2.975441E-08 0.04001173
v 0.1220394 -1.221129E-08 0.1359463
v -0.005089797 -1.264581E-05 0.09568177
v 0.05316857 -1.264375E-05 0.08303765
v 0.08073781 3.096043E-06 -0.02304043
v -0.06884341 -0.02139398 -0.02304043
v 0.08073784 -0.021394 -0.02304044
v 0.00595797 3.093659E-06 -0.02304042
v -0.06884339 3.096043E-06 -0.02304041
v -0.06884341 -0.021394 0.02304042
v 0.08073784 -0.021394 -0.02304044
v -0.06884341 -0.02139398 -0.02304043
v 0.08073784 -0.02139402 0.0230404
v -0.06884339 3.095688E-06 0.02304043
v 0.08073784 -0.02139402 0.0230404
v -0.06884341 -0.021394 0.02304042
v 0.005936365 3.098072E-06 0.02304042
v 0.08073781 3.095688E-06 0.02304042
v 0.07818545 -0.01338667 0.0863688
v 0.09540865 -0.02189207 0.02467518
v 0.07818544 -0.02189207 0.02467518
v 0.09540866 -0.01338667 0.08636878
v 0.07818545 3.094907E-06 0.08636881
v 0.09540866 -0.01338667 0.08636878
v 0.07818545 -0.01338667 0.0863688
v 0.08679504 3.093715E-06 0.08636881
v 0.09540866 3.093715E-06 0.0863688
v 0.09540866 3.093715E-06 0.0863688
v 0.09540866 3.093952E-06 0.06296435
v 0.09540865 -0.02189207 0.02467518
v 0.09540866 -0.01338667 0.08636878
v 0.07041809 3.097056E-06 3.561974E-06
v 0.0704181 -0.0256382 -0.02949019
v 0.07041809 3.092325E-06 -0.02949018
v 0.07041809 3.094637E-06 0.02949017
v 0.0704181 -0.02563823 0.02949016
v 0.1061933 3.094709E-06 -0.02949018
v 0.0704181 -0.0256382 -0.02949019
v 0.1061933 -0.02563821 -0.02949019
v 0.08830784 3.094709E-06 -0.02949018
v 0.07041809 3.092325E-06 -0.02949018
v 0.0704181 -0.02563823 0.02949016
v 0.1061933 -0.02563821 -0.02949019
v 0.0704181 -0.0256382 -0.02949019
v 0.1061933 -0.02563824 0.02949016
v 0.07041809 3.094637E-06 0.02949017
v 0.1061933 -0.02563824 0.02949016
v 0.0704181 -0.02563823 0.02949016
v 0.08830351 3.097021E-06 0.02949017
v 0.1061933 3.097021E-06 0.02949017
v 0.1061933 3.097021E-06 0.02949017
v 0.1061933 -0.02563821 -0.02949019
v 0.1061933 -0.02563824 0.02949016
v 0.1061933 3.094672E-06 3.566742E-06
v 0.1061933 3.094709E-06 -0.02949018
v -0.06671488 3.094674E-06 -3.559589E-06
v -0.06671488 -0.02563823 0.02949017
v -0.06671488 3.097021E-06 0.02949018
v -0.06671488 3.094709E-06 -0.02949017
v -0.06671488 -0.0256382 -0.02949018
v -0.1024901 3.097021E-06 0.02949018
v -0.06671488 -0.02563823 0.02949017
v -0.1024901 -0.02563824 0.02949017
v -0.08460464 3.094637E-06 0.02949018
v -0.06671488 3.097021E-06 0.02949018
v -0.06671488 -0.0256382 -0.02949018
v -0.1024901 -0.02563824 0.02949017
v -0.06671488 -0.02563823 0.02949017
v -0.1024901 -0.02563821 -0.02949018
v -0.06671488 3.094709E-06 -0.02949017
v -0.1024901 -0.02563821 -0.02949018
v -0.06671488 -0.0256382 -0.02949018
v -0.08460032 3.092325E-06 -0.02949017
v -0.1024901 3.094709E-06 -0.02949017
v -0.1024901 3.094709E-06 -0.02949017
v -0.1024901 -0.02563824 0.02949017
v -0.1024901 -0.02563821 -0.02949018
v -0.1024901 3.094674E-06 -3.564357E-06
v -0.1024901 3.097021E-06 0.02949018
v -0.09139802 -0.01338667 0.08636881
v -0.07417482 -0.02189207 0.02467519
v -0.09139803 -0.02189207 0.02467519
v -0.07417481 -0.01338667 0.0863688
v -0.09139802 3.094907E-06 0.08636881
v -0.07417481 -0.01338667 0.0863688
v -0.09139802 -0.01338667 0.08636881
v -0.08278842 3.093715E-06 0.08636881
v -0.0741748 3.093715E-06 0.08636881
v -0.0741748 3.093715E-06 0.08636881
v -0.0741748 3.093952E-06 0.06296436
v -0.07417482 -0.02189207 0.02467519
v -0.07417481 -0.01338667 0.0863688
v -0.09139803 -0.02189207 0.02467519
v -0.09139802 3.095144E-06 0.06296436
v -0.09139802 3.094907E-06 0.08636881
v -0.09139802 -0.01338667 0.08636881
v 0.07818544 -0.02189207 0.02467518
v 0.07818544 3.095144E-06 0.06296436
v 0.07818545 3.094907E-06 0.08636881
v 0.07818545 -0.01338667 0.0863688
v 0.07818544 3.095144E-06 0.06296436
v 0.07818544 3.095421E-06 0.02467519
v 0.09540866 3.093037E-06 0.02467519
v 0.09540866 3.093952E-06 0.06296435
v 0.09540866 3.093715E-06 0.0863688
v 0.07818545 3.094907E-06 0.08636881
v 0.08679504 3.093715E-06 0.08636881
v 0.07041809 3.097056E-06 3.561974E-06
v 0.07041809 3.092325E-06 -0.02949018
v 0.08830784 3.094709E-06 -0.02949018
v 0.1061933 3.094709E-06 -0.02949018
v 0.1061933 3.094672E-06 3.566742E-06
v 0.07041809 3.094637E-06 0.02949017
v 0.1061933 3.097021E-06 0.02949017
v 0.08830351 3.097021E-06 0.02949017
v 0.00595797 3.093659E-06 -0.02304042
v 0.08073781 3.096043E-06 -0.02304043
v 0.08073781 3.095688E-06 0.02304042
v -0.06884339 3.096043E-06 -0.02304041
v -0.06884339 3.095688E-06 0.02304043
v 0.005936365 3.098072E-06 0.02304042
v -0.1024901 3.094674E-06 -3.564357E-06
v -0.1024901 3.094709E-06 -0.02949017
v -0.08460032 3.092325E-06 -0.02949017
v -0.06671488 3.094709E-06 -0.02949017
v -0.06671488 3.094674E-06 -3.559589E-06
v -0.1024901 3.097021E-06 0.02949018
v -0.06671488 3.097021E-06 0.02949018
v -0.08460464 3.094637E-06 0.02949018
v -0.09139802 3.094907E-06 0.08636881
v -0.09139802 3.095144E-06 0.06296436
v -0.08278842 3.093715E-06 0.08636881
v -0.0741748 3.093715E-06 0.08636881
v -0.0741748 3.093952E-06 0.06296436
v -0.07417481 3.093037E-06 0.0246752
v -0.09139803 3.095421E-06 0.0246752
v 0.1511938 -1.26389E-05 0.03863725
v 0.1902645 -0.008116399 0.01211064
v 0.1902645 -1.263458E-05 0.01211065
v 0.1011282 -1.264206E-05 0.07262871
v 0.1011282 -0.01037159 0.07262871
v 0.1011282 -1.264206E-05 0.07262871
v 0.05316857 -1.264375E-05 0.08303765
v -0.005089797 -0.01262676 0.09568177
v 0.1011282 -0.01037159 0.07262871
v -0.005089797 -0.01262676 0.09568177
v 0.1220394 -1.221129E-08 0.1359463
v 0.1011282 -0.01037159 0.07262871
v -0.005089792 -4.230401E-08 0.1955719
v -0.005089797 -0.01262676 0.09568177
v -0.1322189 -3.335409E-08 0.1359463
v -0.1113078 -0.01037158 0.07262873
v -0.1612513 -1.263772E-05 0.03872016
v -0.1113078 -0.01037158 0.07262873
v -0.1113078 -1.264206E-05 0.07262873
v -0.2004441 -1.263398E-05 0.01211066
v -0.2004441 -0.008116369 0.01211066
v -0.005089797 -1.264581E-05 0.09568177
v -0.1113078 -0.01037158 0.07262873
v -0.005089797 -0.01262676 0.09568177
v -0.06346502 -1.264375E-05 0.08301231
v -0.1113078 -1.264206E-05 0.07262873
v -0.1612513 -1.263772E-05 0.03872016
v -0.1113078 -1.264206E-05 0.07262873
v -0.2165528 5.724526E-09 0.04001174
v -0.1322189 -3.335409E-08 0.1359463
v -0.06346502 -1.264375E-05 0.08301231
v -0.06346502 -1.264375E-05 0.08301231
v -0.005089797 -1.264581E-05 0.09568177
v -0.1322189 -3.335409E-08 0.1359463
v 0.1220394 -1.221129E-08 0.1359463
v -0.005089792 -4.230401E-08 0.1955719
v 0.2063732 2.975441E-08 0.04001173
v 0.1011282 -1.264206E-05 0.07262871
v 0.1511938 -1.26389E-05 0.03863725
v 0.1220394 -1.221129E-08 0.1359463
v 0.05316857 -1.264375E-05 0.08303765
vt 0.8581867 0.6219238
vt 0.8683221 0.6601505
vt 0.8683221 0.6293496
vt 0.8581867 0.6219238
vt 0.8683221 0.6601505
vt 0.8683221 0.6293496
vt 0.8683221 0.6601505
vt 0.8581867 0.6219238
vt 0.8683221 0.6293496
vt 0.8683221 0.6601505
vt 0.8581867 0.6219238
vt 0.8683221 0.6293496
vt 0.9135582 0.09705389
vt 0.9298891 0.1278504
vt 0.9135582 0.09705389
vt 0.9298891 0.1278504
vt 0.9135582 0.09705389
vt 0.9298891 0.1278504
vt 0.9135582 0.09705389
vt 0.9298891 0.0971019
vt 0.9298891 0.1278504
vt 0.9135582 0.09705389
vt 0.9298891 0.06625736
vt 0.9298891 0.06625736
vt 0.9298891 0.06625736
vt 0.9135582 0.09705389
vt 0.9135582 0.09705389
vt 0.9298891 0.06625736
vt 0.9298891 0.09700577
vt 0.9135582 0.09705389
vt 0.9298891 0.1278504
vt 0.9298891 0.09406792
vt 0.9298891 0.09708475
vt 0.9135582 0.09705389
vt 0.9298891 0.09700577
vt 0.9298891 0.1007682
vt 0.9298891 0.1008526
vt 0.9298891 0.0971019
vt 0.9135582 0.09705389
vt 0.9135582 0.09705389
vt 0.9298891 0.09708475
vt 0.9298891 0.09406792
vt 0.6810988 0.8753264
vt 0.6810988 0.9061273
vt 0.6810988 0.9061273
vt 0.6810988 0.8753264
vt 0.6810988 0.8753264
vt 0.664768 0.9061273
vt 0.6810988 0.9061273
vt 0.6810988 0.9061273
vt 0.664768 0.9061273
vt 0.664768 0.8753263
vt 0.664768 0.9061273
vt 0.664768 0.9061273
vt 0.664768 0.8753263
vt 0.664768 0.8753263
vt 0.8519913 0.6601505
vt 0.8683221 0.6601505
vt 0.8683221 0.6601505
vt 0.8519913 0.6601505
vt 0.8519913 0.6293468
vt 0.8519913 0.6601505
vt 0.8519913 0.6601505
vt 0.8519913 0.6293468
vt 0.8519913 0.6293468
vt 0.8519913 0.6293468
vt 0.8581867 0.6219238
vt 0.8683221 0.6601505
vt 0.8519913 0.6601505
vt 0.8601557 0.6293503
vt 0.8683221 0.6601505
vt 0.8683221 0.6293503
vt 0.8519913 0.6293503
vt 0.8519913 0.6601505
vt 0.8683221 0.6293503
vt 0.8683221 0.6601505
vt 0.8683221 0.6601505
vt 0.8683221 0.6293503
vt 0.8683221 0.6293503
vt 0.8519913 0.6601505
vt 0.8683221 0.6601505
vt 0.8683221 0.6601505
vt 0.8519913 0.6601505
vt 0.8519913 0.6293503
vt 0.8519913 0.6601505
vt 0.8519913 0.6601505
vt 0.8519913 0.6293502
vt 0.8519913 0.6293502
vt 0.8519913 0.6293502
vt 0.8683221 0.6601505
vt 0.8519913 0.6601505
vt 0.8601557 0.6293503
vt 0.8683221 0.6293503
vt 0.8601558 0.6293503
vt 0.8683221 0.6601505
vt 0.8683221 0.6293503
vt 0.8519913 0.6293503
vt 0.8519913 0.6601505
vt 0.8683221 0.6293502
vt 0.8683221 0.6601505
vt 0.8683221 0.6601505
vt 0.8683221 0.6293503
vt 0.8683221 0.6293503
vt 0.8519913 0.6601505
vt 0.8683221 0.6601505
vt 0.8683221 0.6601505
vt 0.8519913 0.6601505
vt 0.8519913 0.6293503
vt 0.8519913 0.6601505
vt 0.8519913 0.6601505
vt 0.8519913 0.6293503
vt 0.8519913 0.6293503
vt 0.8519913 0.6293503
vt 0.8683221 0.6601505
vt 0.8519913 0.6601505
vt 0.8601557 0.6293503
vt 0.8683221 0.6293502
vt 0.8519913 0.6601505
vt 0.8683221 0.6601505
vt 0.8683221 0.6601505
vt 0.8519913 0.6601505
vt 0.8519913 0.6293468
vt 0.8519913 0.6601505
vt 0.8519913 0.6601505
vt 0.8519913 0.6293468
vt 0.8519913 0.6293468
vt 0.8519913 0.6293468
vt 0.8581867 0.6219238
vt 0.8683221 0.6601505
vt 0.8519913 0.6601505
vt 0.8683221 0.6601505
vt 0.8581867 0.6219238
vt 0.8519913 0.6293468
vt 0.8519913 0.6601505
vt 0.8683221 0.6601505
vt 0.8581867 0.6219238
vt 0.8519913 0.6293468
vt 0.8519913 0.6601505
vt 0.8581867 0.6219238
vt 0.8683221 0.6293496
vt 0.8683221 0.6293496
vt 0.8581867 0.6219238
vt 0.8519913 0.6293468
vt 0.8519913 0.6293468
vt 0.8519913 0.6293468
vt 0.8601557 0.6293503
vt 0.8683221 0.6293503
vt 0.8683221 0.6293503
vt 0.8683221 0.6293503
vt 0.8601557 0.6293503
vt 0.8519913 0.6293503
vt 0.8519913 0.6293502
vt 0.8519913 0.6293502
vt 0.6810988 0.8753264
vt 0.6810988 0.8753264
vt 0.664768 0.8753263
vt 0.6810988 0.8753264
vt 0.664768 0.8753263
vt 0.664768 0.8753263
vt 0.8601557 0.6293503
vt 0.8519913 0.6293503
vt 0.8519913 0.6293503
vt 0.8519913 0.6293503
vt 0.8601558 0.6293503
vt 0.8683221 0.6293502
vt 0.8683221 0.6293503
vt 0.8683221 0.6293503
vt 0.8519913 0.6293468
vt 0.8581867 0.6219238
vt 0.8519913 0.6293468
vt 0.8519913 0.6293468
vt 0.8581867 0.6219238
vt 0.8683221 0.6293496
vt 0.8683221 0.6293496
vt 0.9298891 0.1008526
vt 0.9298891 0.1278504
vt 0.9298891 0.0971019
vt 0.9298891 0.09709144
vt 0.9298891 0.1278504
vt 0.9298891 0.09709144
vt 0.9298891 0.09406792
vt 0.9298891 0.1278504
vt 0.9298891 0.1278504
vt 0.9298891 0.1278504
vt 0.9135582 0.09705389
vt 0.9298891 0.1278504
vt 0.9135582 0.09705389
vt 0.9298891 0.06625736
vt 0.9135582 0.09705389
vt 0.9298891 0.06625736
vt 0.9298891 0.1007682
vt 0.9298891 0.06625736
vt 0.9298891 0.0970163
vt 0.9298891 0.09700577
vt 0.9298891 0.06625736
vt 0.9298891 0.09702303
vt 0.9298891 0.06625736
vt 0.9298891 0.06625736
vt 0.9298891 0.09400015
vt 0.9298891 0.0970163
vt 0.9298891 0.1007682
vt 0.9298891 0.0970163
vt 0.9135582 0.09705389
vt 0.9135582 0.09705389
vt 0.9298891 0.09400015
vt 0.9298891 0.09400015
vt 0.9298891 0.09708475
vt 0.9135582 0.09705389
vt 0.9135582 0.09705389
vt 0.9135582 0.09705389
vt 0.9135582 0.09705389
vt 0.9298891 0.09709144
vt 0.9298891 0.1008526
vt 0.9135582 0.09705389
vt 0.9298891 0.09406792
vn -1 0 0
vn -1 0 0
vn -1 0 0
vn -1 0 0
vn -1 0 0
vn -1 0 0
vn 1 -6.805686E-07 -7.172762E-07
vn 1 -6.805686E-07 -7.172762E-07
vn 1 -6.805686E-07 -7.172762E-07
vn 1 -3.402844E-07 2.081498E-07
vn 1 -3.402844E-07 2.081498E-07
vn 1 -3.402844E-07 2.081498E-07
vn 0.1332984 -0.9841244 0.117179
vn 0.1332984 -0.9841244 0.117179
vn 0.1332984 -0.9841244 0.117179
vn 0.1550992 -0.9689952 0.1923344
vn 0.1550992 -0.9689952 0.1923344
vn 0.1550992 -0.9689952 0.1923344
vn 0.8660253 2.229477E-07 -0.5000002
vn 0.8660253 2.229477E-07 -0.5000002
vn 0.8660253 2.229477E-07 -0.5000002
vn -0.1550985 -0.9689956 0.1923329
vn -0.1550985 -0.9689956 0.1923329
vn -0.1550985 -0.9689956 0.1923329
vn -0.133298 -0.9841244 0.1171788
vn -0.133298 -0.9841244 0.1171788
vn -0.133298 -0.9841244 0.1171788
vn -0.8660255 4.458969E-07 -0.4999998
vn -0.8660255 4.458969E-07 -0.4999998
vn -0.8660255 4.458969E-07 -0.4999998
vn -0.2120974 0 -0.9772485
vn -0.2120974 0 -0.9772485
vn -0.2120974 0 -0.9772485
vn -1.031516E-07 1 -0.0001671425
vn -1.031516E-07 1 -0.0001671425
vn -1.031516E-07 1 -0.0001671425
vn -1.031516E-07 1 -0.0001671425
vn -1.031516E-07 1 -0.0001671425
vn -1.031516E-07 1 -0.0001671425
vn -1.031516E-07 1 -0.0001671425
vn -1.031516E-07 1 -0.0001671425
vn -1.031516E-07 1 -0.0001671425
vn 0 6.789941E-07 -1
vn 0 6.789941E-07 -1
vn 0 6.789941E-07 -1
vn 0 6.789941E-07 -1
vn 0 5.818837E-07 -1
vn -1.21734E-07 -1 -4.85055E-07
vn -1.21734E-07 -1 -4.85055E-07
vn -1.21734E-07 -1 -4.85055E-07
vn 0 -1 -4.85055E-07
vn 0 -4.849956E-07 1
vn 0 -4.849956E-07 1
vn 0 -4.849956E-07 1
vn 0 -4.849956E-07 1
vn 0 -7.273523E-07 1
vn -2.170687E-07 -0.99063 0.1365733
vn -2.170687E-07 -0.99063 0.1365733
vn -2.170687E-07 -0.99063 0.1365733
vn -1.548773E-07 -0.99063 0.1365733
vn 5.768308E-07 -1.009687E-06 1
vn 5.768308E-07 -1.009687E-06 1
vn 5.768308E-07 -1.009687E-06 1
vn 5.768308E-07 -1.009687E-06 1
vn 8.649772E-07 0 1
vn 1 -1.302769E-07 0
vn 1 -1.302769E-07 0
vn 1 -1.302769E-07 0
vn 1 -1.302769E-07 0
vn -1 -2.905696E-07 0
vn -1 -2.905696E-07 0
vn -1 -2.905696E-07 0
vn -1 -2.905693E-07 0
vn -1 -2.905693E-07 0
vn 0 4.230431E-07 -1
vn 0 4.230431E-07 -1
vn 0 4.230431E-07 -1
vn 0 4.230431E-07 -1
vn 0 5.075698E-07 -1
vn -2.206891E-07 -1 -5.052925E-07
vn -2.206891E-07 -1 -5.052925E-07
vn -2.206891E-07 -1 -5.052925E-07
vn -2.206891E-07 -1 -5.052922E-07
vn 0 -4.230425E-07 1
vn 0 -4.230425E-07 1
vn 0 -4.230425E-07 1
vn 0 -4.230425E-07 1
vn 0 -2.537842E-07 1
vn 1 2.905693E-07 -2.052809E-07
vn 1 2.905693E-07 -2.052809E-07
vn 1 2.905693E-07 -2.052809E-07
vn 1 2.905693E-07 -2.052809E-07
vn 1 2.905695E-07 0
vn 1 0 3.078717E-07
vn 1 0 3.078717E-07
vn 1 0 3.078717E-07
vn 1 0 0
vn 1 0 0
vn 0 -3.384338E-07 1
vn 0 -3.384338E-07 1
vn 0 -3.384338E-07 1
vn 0 -3.384338E-07 1
vn 0 -5.07569E-07 1
vn 1.103445E-07 -1 -5.052923E-07
vn 1.103445E-07 -1 -5.052923E-07
vn 1.103445E-07 -1 -5.052923E-07
vn 2.206891E-07 -1 -5.052922E-07
vn 0 5.076515E-07 -1
vn 0 5.076515E-07 -1
vn 0 5.076515E-07 -1
vn 0 5.076515E-07 -1
vn 0 2.537855E-07 -1
vn -1 2.905227E-07 -6.15843E-07
vn -1 2.905227E-07 -6.15843E-07
vn -1 2.905227E-07 -6.15843E-07
vn -1 2.905227E-07 -6.15843E-07
vn -1 8.717075E-07 -5.952955E-07
vn -2.170688E-07 -0.99063 0.1365733
vn -2.170688E-07 -0.99063 0.1365733
vn -2.170688E-07 -0.99063 0.1365733
vn -1.859731E-07 -0.99063 0.1365733
vn 5.768313E-07 -3.365626E-07 1
vn 5.768313E-07 -3.365626E-07 1
vn 5.768313E-07 -3.365626E-07 1
vn 5.768313E-07 -3.365626E-07 1
vn 0 -1.009373E-06 1
vn 1 -1.077645E-06 3.478959E-07
vn 1 -1.077645E-06 3.478959E-07
vn 1 -1.077645E-06 3.478959E-07
vn 1 -1.077645E-06 3.478959E-07
vn -1 2.605539E-07 3.155711E-07
vn -1 2.605539E-07 3.155711E-07
vn -1 2.605539E-07 3.155711E-07
vn -1 2.605539E-07 3.155711E-07
vn -1 -2.131304E-07 0
vn -1 -2.131304E-07 0
vn -1 -2.131304E-07 0
vn -1 -2.131304E-07 0
vn 0 1 0
vn 0 1 0
vn 0 1 0
vn 0 1 0
vn 0 1 0
vn 0 1 0
vn 0 1 0
vn 0 1 0
vn 0 1 0
vn 0 1 0
vn 0 1 0
vn 0 1 0
vn 0 1 0
vn 0 1 0
vn 0 1 0
vn 0 1 0
vn 0 1 0
vn 0 1 0
vn 0 1 0
vn 0 1 0
vn 0 1 0
vn 0 1 0
vn 0 1 0
vn 0 1 0
vn 0 1 0
vn 0 1 0
vn 0 1 0
vn 0 1 0
vn 0 1 0
vn 0 1 0
vn 0 1 0
vn 0 1 0
vn 0 1 0
vn 0 1 0
vn 0 1 0
vn 0 1 0
vn -0.5617092 0 -0.8273347
vn -0.5617092 0 -0.8273347
vn -0.5617092 0 -0.8273347
vn -0.5617095 2.898685E-07 -0.8273345
vn -0.5617095 2.898685E-07 -0.8273345
vn -0.2120974 5.337164E-07 -0.9772486
vn -0.2120974 5.337164E-07 -0.9772486
vn -0.2120974 5.337164E-07 -0.9772486
vn -0.2120974 5.337164E-07 -0.9772486
vn 0.05871712 -0.9903935 0.1251918
vn 0.05871712 -0.9903935 0.1251918
vn 0.05235466 -0.9881094 0.1445642
vn 1.234701E-05 1.935149E-05 1
vn -0.05871698 -0.9903936 0.1251918
vn -0.05871698 -0.9903936 0.1251918
vn -0.0523546 -0.9881095 0.1445637
vn 0.5617093 0 -0.8273347
vn 0.5617093 0 -0.8273347
vn 0.5617093 0 -0.8273347
vn 0.5617094 5.121598E-07 -0.8273346
vn 0.5617094 5.121598E-07 -0.8273346
vn 0.2120972 4.680429E-07 -0.9772486
vn 0.2120972 4.680429E-07 -0.9772486
vn 0.2120972 4.680429E-07 -0.9772486
vn 0.2120972 4.680429E-07 -0.9772486
vn 0.2120974 0 -0.9772485
vn -1.031516E-07 1 -0.0001671425
vn -1.031516E-07 1 -0.0001671425
vn -1.031516E-07 1 -0.0001671425
vn -1.031516E-07 1 -0.0001671425
vn -1.031516E-07 1 -0.0001671425
vn -1.031516E-07 1 -0.0001671425
vn -1.031516E-07 1 -0.0001671425
vn -1.031516E-07 1 -0.0001671425
vn -1.031516E-07 1 -0.0001671425
vn 0.4204824 0.1253886 0.8985946
vn -1.031516E-07 1 -0.0001671425
vn -1.031516E-07 1 -0.0001671425
vn -1.031516E-07 1 -0.0001671425
vn -1.031516E-07 1 -0.0001671425
vn -1.031516E-07 1 -0.0001671425
g Fist Blade 01.002_0
f 3/3/3 2/2/2 1/1/1
f 6/6/6 5/5/5 4/4/4
f 9/9/9 8/8/8 7/7/7
f 12/12/12 11/11/11 10/10/10
f 15/15/15 14/14/14 13/13/13
f 18/18/18 17/17/17 16/16/16
f 21/21/21 20/20/20 19/19/19
f 24/24/24 23/23/23 22/22/22
f 27/27/27 26/26/26 25/25/25
f 30/30/30 29/29/29 28/28/28
f 33/33/33 32/32/32 31/31/31
f 36/36/36 35/35/35 34/34/34
f 39/39/39 38/38/38 37/37/37
f 42/42/42 41/41/41 40/40/40
f 45/45/45 44/44/44 43/43/43
f 44/44/44 46/46/46 43/43/43
f 47/47/47 46/46/46 44/44/44
f 50/50/50 49/49/49 48/48/48
f 51/51/51 48/48/48 49/49/49
f 54/54/54 53/53/53 52/52/52
f 53/53/53 55/55/55 52/52/52
f 56/56/56 55/55/55 53/53/53
f 59/59/59 58/58/58 57/57/57
f 60/60/60 57/57/57 58/58/58
f 63/63/63 62/62/62 61/61/61
f 62/62/62 64/64/64 61/61/61
f 65/65/65 64/64/64 62/62/62
f 68/68/68 67/67/67 66/66/66
f 69/69/69 68/68/68 66/66/66
f 72/72/72 71/71/71 70/70/70
f 73/73/73 70/70/70 71/71/71
f 74/74/74 73/73/73 71/71/71
f 77/77/77 76/76/76 75/75/75
f 76/76/76 78/78/78 75/75/75
f 79/79/79 78/78/78 76/76/76
f 82/82/82 81/81/81 80/80/80
f 83/83/83 80/80/80 81/81/81
f 86/86/86 85/85/85 84/84/84
f 85/85/85 87/87/87 84/84/84
f 88/88/88 87/87/87 85/85/85
f 91/91/91 90/90/90 89/89/89
f 90/90/90 92/92/92 89/89/89
f 93/93/93 92/92/92 90/90/90
f 96/96/96 95/95/95 94/94/94
f 97/97/97 94/94/94 95/95/95
f 98/98/98 97/97/97 95/95/95
f 101/101/101 100/100/100 99/99/99
f 100/100/100 102/102/102 99/99/99
f 103/103/103 102/102/102 100/100/100
f 106/106/106 105/105/105 104/104/104
f 107/107/107 104/104/104 105/105/105
f 110/110/110 109/109/109 108/108/108
f 109/109/109 111/111/111 108/108/108
f 112/112/112 111/111/111 109/109/109
f 115/115/115 114/114/114 113/113/113
f 114/114/114 116/116/116 113/113/113
f 117/117/117 116/116/116 114/114/114
f 120/120/120 119/119/119 118/118/118
f 121/121/121 118/118/118 119/119/119
f 124/124/124 123/123/123 122/122/122
f 123/123/123 125/125/125 122/122/122
f 126/126/126 125/125/125 123/123/123
f 129/129/129 128/128/128 127/127/127
f 130/130/130 129/129/129 127/127/127
f 133/133/133 132/132/132 131/131/131
f 134/134/134 133/133/133 131/131/131
f 137/137/137 136/136/136 135/135/135
f 138/138/138 137/137/137 135/135/135
f 141/141/141 140/140/140 139/139/139
f 139/139/139 142/142/142 141/141/141
f 139/139/139 143/143/143 142/142/142
f 139/139/139 144/144/144 143/143/143
f 144/144/144 145/145/145 143/143/143
f 148/148/148 147/147/147 146/146/146
f 146/146/146 149/149/149 148/148/148
f 146/146/146 150/150/150 149/149/149
f 146/146/146 151/151/151 150/150/150
f 151/151/151 152/152/152 150/150/150
f 151/151/151 153/153/153 152/152/152
f 156/156/156 155/155/155 154/154/154
f 154/154/154 157/157/157 156/156/156
f 157/157/157 158/158/158 156/156/156
f 158/158/158 159/159/159 156/156/156
f 162/162/162 161/161/161 160/160/160
f 160/160/160 163/163/163 162/162/162
f 160/160/160 164/164/164 163/163/163
f 160/160/160 165/165/165 164/164/164
f 165/165/165 166/166/166 164/164/164
f 165/165/165 167/167/167 166/166/166
f 170/170/170 169/169/169 168/168/168
f 169/169/169 170/170/170 171/171/171
f 169/169/169 171/171/171 172/172/172
f 169/169/169 172/172/172 173/173/173
f 173/173/173 174/174/174 169/169/169
f 177/177/177 176/176/176 175/175/175
f 178/178/178 175/175/175 176/176/176
f 179/179/179 178/178/178 176/176/176
f 182/182/182 181/181/181 180/180/180
f 183/183/183 182/182/182 180/180/180
f 186/186/186 185/185/185 184/184/184
f 187/187/187 184/184/184 185/185/185
f 187/187/187 189/189/189 188/188/188
f 190/190/190 188/188/188 189/189/189
f 193/193/193 192/192/192 191/191/191
f 194/194/194 191/191/191 192/192/192
f 195/195/195 194/194/194 192/192/192
f 198/198/198 197/197/197 196/196/196
f 197/197/197 199/199/199 196/196/196
f 200/200/200 199/199/199 197/197/197
f 203/203/203 202/202/202 201/201/201
f 203/203/203 204/204/204 202/202/202
f 204/204/204 205/205/205 202/202/202
f 208/208/208 207/207/207 206/206/206
f 207/207/207 208/208/208 209/209/209
f 208/208/208 210/210/210 209/209/209
f 213/213/213 212/212/212 211/211/211
f 212/212/212 214/214/214 211/211/211
f 212/212/212 215/215/215 214/214/214
