g FX Exhaust
v -0.1337318 0.1337318 -0.7544239
v -0.2674635 0.2674636 -0.5652986
v -0.2674635 0.2674636 -0.7544239
v -0.1337318 0.1337318 -0.5652986
v -0.2674635 0.2674637 -0.3761733
v -3.560432E-08 -1.826142E-08 -0.7544239
v -0.1337317 0.1337318 -0.3761733
v -0.2674634 0.2674637 -0.187048
v -1.780216E-08 7.511765E-09 -0.5652986
v 0.1337317 -0.1337318 -0.7544239
v -0.1337317 0.1337319 -0.187048
v -0.2674634 0.2674637 0.002077255
v -0.1337317 0.1337319 0.002077255
v 0.1337317 -0.1337318 -0.5652986
v 0.2674634 -0.2674636 -0.7544239
v 0.2674634 -0.2674636 -0.5652986
v 0 3.328495E-08 -0.3761733
v 1.780216E-08 5.905813E-08 -0.187048
v 3.560432E-08 8.483131E-08 0.002077255
v 0.1337317 -0.1337318 -0.3761733
v 0.2674635 -0.2674636 -0.3761733
v 0.1337318 -0.1337317 -0.187048
v 0.1337318 -0.1337317 0.002077255
v 0.2674635 -0.2674635 -0.187048
v 0.2674635 -0.2674635 0.002077255
v 3.814697E-08 -0.1891253 -0.7544239
v -3.814697E-08 -0.3782505 -0.5652986
v 0 -0.3782505 -0.7544239
v 0 -0.1891253 -0.5652986
v -7.629394E-08 -0.3782505 -0.3761733
v 6.959588E-08 2.531391E-08 -0.7544239
v -3.814697E-08 -0.1891253 -0.3761733
v -1.144409E-07 -0.3782505 -0.187048
v 3.479794E-08 2.929943E-08 -0.5652986
v 9.536743E-08 0.1891253 -0.7544239
v -6.67572E-08 -0.1891253 -0.187048
v -1.335144E-07 -0.3782505 0.002077255
v -9.536743E-08 -0.1891253 0.002077255
v 6.67572E-08 0.1891253 -0.5652986
v 1.335144E-07 0.3782506 -0.7544239
v 1.144409E-07 0.3782506 -0.5652986
v 0 3.328495E-08 -0.3761733
v -3.479794E-08 3.727047E-08 -0.187048
v -6.959588E-08 4.125599E-08 0.002077255
v 3.814697E-08 0.1891253 -0.3761733
v 7.629394E-08 0.3782506 -0.3761733
v 0 0.1891253 -0.187048
v -3.814697E-08 0.1891253 0.002077255
v 3.814697E-08 0.3782506 -0.187048
v 0 0.3782506 0.002077255
v -0.1337317 -0.1337318 -0.7544239
v -0.2674635 -0.2674635 -0.5652986
v -0.2674635 -0.2674635 -0.7544239
v -0.1337317 -0.1337317 -0.5652986
v -0.2674636 -0.2674635 -0.3761733
v 5.154638E-08 -1.826143E-08 -0.7544239
v -0.1337318 -0.1337317 -0.3761733
v -0.2674636 -0.2674635 -0.187048
v 2.577319E-08 7.511757E-09 -0.5652986
v 0.1337318 0.1337317 -0.7544239
v -0.1337318 -0.1337317 -0.187048
v -0.2674636 -0.2674634 0.002077255
v -0.1337318 -0.1337317 0.002077255
v 0.1337318 0.1337318 -0.5652986
v 0.2674636 0.2674635 -0.7544239
v 0.2674636 0.2674635 -0.5652986
v 0 3.328495E-08 -0.3761733
v -2.577319E-08 5.905814E-08 -0.187048
v -5.154638E-08 8.483133E-08 0.002077255
v 0.1337318 0.1337318 -0.3761733
v 0.2674636 0.2674635 -0.3761733
v 0.1337317 0.1337318 -0.187048
v 0.1337317 0.1337318 0.002077255
v 0.2674635 0.2674636 -0.187048
v 0.2674635 0.2674636 0.002077255
v 0.1891253 8.096866E-08 -0.7544239
v 0.3782506 3.328495E-08 -0.5652986
v 0.3782506 5.235843E-08 -0.7544239
v 0.1891253 4.282169E-08 -0.5652986
v 0.3782506 1.421146E-08 -0.3761733
v 7.97103E-09 8.693875E-08 -0.7544239
v 0.1891253 2.374821E-08 -0.3761733
v 0.3782506 -2.393551E-08 -0.187048
v 3.985515E-09 6.011185E-08 -0.5652986
v -0.1891253 1.095789E-07 -0.7544239
v 0.1891253 -4.862025E-09 -0.187048
v 0.3782506 -4.3009E-08 0.002077255
v 0.1891253 -4.3009E-08 0.002077255
v -0.1891253 7.143192E-08 -0.5652986
v -0.3782506 1.095789E-07 -0.7544239
v -0.3782506 9.050541E-08 -0.5652986
v 0 3.328495E-08 -0.3761733
v -3.985515E-09 6.458047E-09 -0.187048
v -7.97103E-09 -2.036886E-08 0.002077255
v -0.1891253 4.282169E-08 -0.3761733
v -0.3782506 5.235843E-08 -0.3761733
v -0.1891253 2.374821E-08 -0.187048
v -0.1891253 -1.439877E-08 0.002077255
v -0.3782506 3.328495E-08 -0.187048
v -0.3782506 1.421146E-08 0.002077255
vt 0.75 0
vt 1 0.25
vt 1 0
vt 0.75 0.25
vt 1 0.5
vt 0.5 0
vt 0.75 0.5
vt 1 0.75
vt 0.5 0.25
vt 0.25 0
vt 0.75 0.75
vt 1 1
vt 0.75 1
vt 0.25 0.25
vt 0 0
vt 0 0.25
vt 0.5 0.5
vt 0.5 0.75
vt 0.5 1
vt 0.25 0.5
vt 0 0.5
vt 0.25 0.75
vt 0.25 1
vt 0 0.75
vt 0 1
vt 0.75 0
vt 1 0.25
vt 1 0
vt 0.75 0.25
vt 1 0.5
vt 0.5 0
vt 0.75 0.5
vt 1 0.75
vt 0.5 0.25
vt 0.25 0
vt 0.75 0.75
vt 1 1
vt 0.75 1
vt 0.25 0.25
vt 0 0
vt 0 0.25
vt 0.5 0.5
vt 0.5 0.75
vt 0.5 1
vt 0.25 0.5
vt 0 0.5
vt 0.25 0.75
vt 0.25 1
vt 0 0.75
vt 0 1
vt 0.75 0
vt 1 0.25
vt 1 0
vt 0.75 0.25
vt 1 0.5
vt 0.5 0
vt 0.75 0.5
vt 1 0.75
vt 0.5 0.25
vt 0.25 0
vt 0.75 0.75
vt 1 1
vt 0.75 1
vt 0.25 0.25
vt 0 0
vt 0 0.25
vt 0.5 0.5
vt 0.5 0.75
vt 0.5 1
vt 0.25 0.5
vt 0 0.5
vt 0.25 0.75
vt 0.25 1
vt 0 0.75
vt 0 1
vt 0.75 0
vt 1 0.25
vt 1 0
vt 0.75 0.25
vt 1 0.5
vt 0.5 0
vt 0.75 0.5
vt 1 0.75
vt 0.5 0.25
vt 0.25 0
vt 0.75 0.75
vt 1 1
vt 0.75 1
vt 0.25 0.25
vt 0 0
vt 0 0.25
vt 0.5 0.5
vt 0.5 0.75
vt 0.5 1
vt 0.25 0.5
vt 0 0.5
vt 0.25 0.75
vt 0.25 1
vt 0 0.75
vt 0 1
vn 0.7071069 0.7071066 -1.60453E-07
vn 0.707107 0.7071065 -1.60453E-07
vn 0.7071069 0.7071066 -2.139374E-07
vn 0.707107 0.7071065 -1.58533E-07
vn 0.707107 0.7071065 -1.51539E-07
vn 0.7071069 0.7071066 -1.578468E-07
vn 0.7071069 0.7071066 -1.719041E-07
vn 0.7071069 0.7071066 -1.871952E-07
vn 0.7071069 0.7071066 -1.623038E-07
vn 0.7071069 0.7071066 -1.476988E-07
vn 0.7071069 0.7071066 -1.67447E-07
vn 0.7071069 0.7071066 -1.782812E-07
vn 0.707107 0.7071065 -1.476989E-07
vn 0.7071069 0.7071066 -1.67447E-07
vn 0.7071069 0.7071066 -1.782812E-07
vn 0.7071069 0.7071066 -1.871952E-07
vn 0.7071069 0.7071066 -1.667608E-07
vn 0.7071069 0.7071066 -1.623038E-07
vn 0.7071069 0.7071066 -1.578468E-07
vn 0.7071069 0.7071066 -1.719041E-07
vn 0.7071069 0.7071066 -1.51539E-07
vn 0.7071069 0.7071066 -1.58533E-07
vn 0.7071069 0.7071066 -1.60453E-07
vn 0.7071069 0.7071066 -1.60453E-07
vn 0.7071069 0.7071066 -2.139374E-07
vn -1 1.839941E-07 -2.017021E-07
vn -1 2.017021E-07 -2.017021E-07
vn -1 2.017021E-07 -2.017021E-07
vn -1 1.906346E-07 -1.994886E-07
vn -1 2.017021E-07 -2.017021E-07
vn -1 1.557036E-07 -1.884211E-07
vn -1 2.057919E-07 -1.805791E-07
vn -1 2.395213E-07 -1.386702E-07
vn -1 1.746132E-07 -1.821179E-07
vn -1 1.77164E-07 -1.59456E-07
vn -1 2.083426E-07 -1.490631E-07
vn -1 2.269149E-07 -1.260638E-07
vn -1 1.77164E-07 -1.59456E-07
vn -1 2.083426E-07 -1.490631E-07
vn -1 2.269149E-07 -1.260638E-07
vn -1 2.395213E-07 -1.386702E-07
vn -1 1.935228E-07 -1.758147E-07
vn -1 1.746132E-07 -1.821179E-07
vn -1 1.557036E-07 -1.884211E-07
vn -1 2.057918E-07 -1.805791E-07
vn -1 2.017021E-07 -2.017021E-07
vn -1 1.906346E-07 -1.994887E-07
vn -1 1.839941E-07 -2.017021E-07
vn -1 2.017021E-07 -2.017021E-07
vn -1 2.017021E-07 -2.017021E-07
vn -0.7071068 0.7071068 -1.871952E-07
vn -0.7071066 0.7071068 -2.050233E-07
vn -0.7071068 0.7071068 -2.139374E-07
vn -0.7071068 0.7071068 -1.979145E-07
vn -0.7071068 0.7071068 -1.782812E-07
vn -0.7071068 0.7071068 -1.891126E-07
vn -0.7071068 0.7071068 -1.890005E-07
vn -0.7071066 0.7071068 -1.871953E-07
vn -0.7071068 0.7071068 -2.024836E-07
vn -0.7071068 0.7071068 -2.35376E-07
vn -0.7071068 0.7071068 -2.112856E-07
vn -0.7071068 0.7071068 -2.317655E-07
vn -0.7071068 0.7071068 -2.35376E-07
vn -0.7071068 0.7071068 -2.112856E-07
vn -0.7071068 0.7071068 -2.317655E-07
vn -0.7071068 0.7071068 -1.871953E-07
vn -0.7071068 0.7071068 -1.891126E-07
vn -0.7071068 0.7071068 -2.024836E-07
vn -0.7071066 0.7071069 -1.891126E-07
vn -0.7071068 0.7071068 -1.890005E-07
vn -0.7071068 0.7071068 -1.782812E-07
vn -0.7071068 0.7071068 -1.979145E-07
vn -0.7071068 0.7071068 -1.871952E-07
vn -0.7071066 0.7071068 -2.050234E-07
vn -0.7071068 0.7071068 -2.139374E-07
vn 0 -1 -1.764894E-07
vn 0 -1 -1.260638E-07
vn -1.512766E-07 -1 -1.008511E-07
vn 0 -1 -1.437947E-07
vn 0 -1 -1.512766E-07
vn 0 -1 -1.56811E-07
vn 0 -1 -1.374916E-07
vn 0 -1 -1.386702E-07
vn 0 -1 -1.442046E-07
vn 0 -1 -1.867384E-07
vn 0 -1 -1.627043E-07
vn 0 -1 -1.512766E-07
vn 0 -1 -1.867384E-07
vn 0 -1 -1.627043E-07
vn 0 -1 -1.512766E-07
vn 0 -1 -1.386702E-07
vn 0 -1 -1.442046E-07
vn 0 -1 -1.442046E-07
vn 0 -1 -1.56811E-07
vn 0 -1 -1.374916E-07
vn 0 -1 -1.512766E-07
vn 0 -1 -1.437948E-07
vn 0 -1 -1.764894E-07
vn 0 -1 -1.260638E-07
vn -1.512766E-07 -1 -1.008511E-07
g FX Exhaust_0
f 3/3/3 2/2/2 1/1/1
f 4/4/4 1/1/1 2/2/2
f 2/2/2 5/5/5 4/4/4
f 1/1/1 4/4/4 6/6/6
f 7/7/7 4/4/4 5/5/5
f 5/5/5 8/8/8 7/7/7
f 9/9/9 6/6/6 4/4/4
f 4/4/4 7/7/7 9/9/9
f 6/6/6 9/9/9 10/10/10
f 11/11/11 7/7/7 8/8/8
f 8/8/8 12/12/12 11/11/11
f 13/13/13 11/11/11 12/12/12
f 14/14/14 10/10/10 9/9/9
f 10/10/10 14/14/14 15/15/15
f 16/16/16 15/15/15 14/14/14
f 17/17/17 9/9/9 7/7/7
f 7/7/7 11/11/11 17/17/17
f 9/9/9 17/17/17 14/14/14
f 11/11/11 13/13/13 18/18/18
f 18/18/18 17/17/17 11/11/11
f 19/19/19 18/18/18 13/13/13
f 14/14/14 20/20/20 16/16/16
f 20/20/20 14/14/14 17/17/17
f 17/17/17 18/18/18 20/20/20
f 21/21/21 16/16/16 20/20/20
f 18/18/18 19/19/19 22/22/22
f 22/22/22 20/20/20 18/18/18
f 20/20/20 22/22/22 21/21/21
f 23/23/23 22/22/22 19/19/19
f 24/24/24 21/21/21 22/22/22
f 22/22/22 23/23/23 24/24/24
f 25/25/25 24/24/24 23/23/23
f 28/28/28 27/27/27 26/26/26
f 29/29/29 26/26/26 27/27/27
f 27/27/27 30/30/30 29/29/29
f 26/26/26 29/29/29 31/31/31
f 32/32/32 29/29/29 30/30/30
f 30/30/30 33/33/33 32/32/32
f 34/34/34 31/31/31 29/29/29
f 29/29/29 32/32/32 34/34/34
f 31/31/31 34/34/34 35/35/35
f 36/36/36 32/32/32 33/33/33
f 33/33/33 37/37/37 36/36/36
f 38/38/38 36/36/36 37/37/37
f 39/39/39 35/35/35 34/34/34
f 35/35/35 39/39/39 40/40/40
f 41/41/41 40/40/40 39/39/39
f 42/42/42 34/34/34 32/32/32
f 32/32/32 36/36/36 42/42/42
f 34/34/34 42/42/42 39/39/39
f 36/36/36 38/38/38 43/43/43
f 43/43/43 42/42/42 36/36/36
f 44/44/44 43/43/43 38/38/38
f 39/39/39 45/45/45 41/41/41
f 45/45/45 39/39/39 42/42/42
f 42/42/42 43/43/43 45/45/45
f 46/46/46 41/41/41 45/45/45
f 43/43/43 44/44/44 47/47/47
f 47/47/47 45/45/45 43/43/43
f 45/45/45 47/47/47 46/46/46
f 48/48/48 47/47/47 44/44/44
f 49/49/49 46/46/46 47/47/47
f 47/47/47 48/48/48 49/49/49
f 50/50/50 49/49/49 48/48/48
f 53/53/53 52/52/52 51/51/51
f 54/54/54 51/51/51 52/52/52
f 52/52/52 55/55/55 54/54/54
f 51/51/51 54/54/54 56/56/56
f 57/57/57 54/54/54 55/55/55
f 55/55/55 58/58/58 57/57/57
f 59/59/59 56/56/56 54/54/54
f 54/54/54 57/57/57 59/59/59
f 56/56/56 59/59/59 60/60/60
f 61/61/61 57/57/57 58/58/58
f 58/58/58 62/62/62 61/61/61
f 63/63/63 61/61/61 62/62/62
f 64/64/64 60/60/60 59/59/59
f 60/60/60 64/64/64 65/65/65
f 66/66/66 65/65/65 64/64/64
f 67/67/67 59/59/59 57/57/57
f 57/57/57 61/61/61 67/67/67
f 59/59/59 67/67/67 64/64/64
f 61/61/61 63/63/63 68/68/68
f 68/68/68 67/67/67 61/61/61
f 69/69/69 68/68/68 63/63/63
f 64/64/64 70/70/70 66/66/66
f 70/70/70 64/64/64 67/67/67
f 67/67/67 68/68/68 70/70/70
f 71/71/71 66/66/66 70/70/70
f 68/68/68 69/69/69 72/72/72
f 72/72/72 70/70/70 68/68/68
f 70/70/70 72/72/72 71/71/71
f 73/73/73 72/72/72 69/69/69
f 74/74/74 71/71/71 72/72/72
f 72/72/72 73/73/73 74/74/74
f 75/75/75 74/74/74 73/73/73
f 78/78/78 77/77/77 76/76/76
f 79/79/79 76/76/76 77/77/77
f 77/77/77 80/80/80 79/79/79
f 76/76/76 79/79/79 81/81/81
f 82/82/82 79/79/79 80/80/80
f 80/80/80 83/83/83 82/82/82
f 84/84/84 81/81/81 79/79/79
f 79/79/79 82/82/82 84/84/84
f 81/81/81 84/84/84 85/85/85
f 86/86/86 82/82/82 83/83/83
f 83/83/83 87/87/87 86/86/86
f 88/88/88 86/86/86 87/87/87
f 89/89/89 85/85/85 84/84/84
f 85/85/85 89/89/89 90/90/90
f 91/91/91 90/90/90 89/89/89
f 92/92/92 84/84/84 82/82/82
f 82/82/82 86/86/86 92/92/92
f 84/84/84 92/92/92 89/89/89
f 86/86/86 88/88/88 93/93/93
f 93/93/93 92/92/92 86/86/86
f 94/94/94 93/93/93 88/88/88
f 89/89/89 95/95/95 91/91/91
f 95/95/95 89/89/89 92/92/92
f 92/92/92 93/93/93 95/95/95
f 96/96/96 91/91/91 95/95/95
f 93/93/93 94/94/94 97/97/97
f 97/97/97 95/95/95 93/93/93
f 95/95/95 97/97/97 96/96/96
f 98/98/98 97/97/97 94/94/94
f 99/99/99 96/96/96 97/97/97
f 97/97/97 98/98/98 99/99/99
f 100/100/100 99/99/99 98/98/98
