g hair_girl_01
v 1.117588E-10 0.9214019 0.465181
v -0.332657 0.8718343 0.3651091
v -0.4218844 0.8718343 0.06592944
v 1.117588E-10 0.9215099 0.06592944
v 0.332657 0.8718343 0.3651091
v -0.4218844 0.9273746 -0.2036531
v 0.4218844 0.8718343 0.06592944
v 1.117588E-10 0.9770502 -0.2036531
v -0.3746041 0.9204065 -0.4927673
v 0.4218844 0.9273746 -0.2036531
v 1.117588E-10 0.9700821 -0.6028489
v 0.3746041 0.9204065 -0.4927673
v 0.5286359 -0.07313358 -0.1215511
v 0.5156251 -0.5653259 -0.4927673
v 0.4771953 -0.5653259 -0.1215511
v 0.5674196 -0.07313358 -0.4927673
v 0.5562766 0.3253108 -0.4927673
v 0.5286359 0.2613717 -0.02780108
v 0.4642627 -0.07313358 -0.6261078
v 0.4218844 -0.5653259 -0.5865085
v 1.117588E-10 -0.5653259 -0.6965901
v 0.4551455 0.3253108 -0.6261078
v -2.750915E-09 -0.07313358 -0.7361895
v -0.4218844 -0.5653259 -0.5865085
v 0.4578393 0.8266656 -0.4927673
v 0.5156251 0.8336337 -0.2036531
v 0.3746041 0.8266656 -0.5865085
v 0.5156251 0.4488532 0.1596794
v 1.117588E-10 0.8763413 -0.6965901
v 0.5156251 0.7780935 0.06592944
v -2.135043E-09 0.3253108 -0.7361895
v -0.3746041 0.8266656 -0.5865085
v 0.4682347 0.6643251 0.4001043
v 0.4865636 0.5082268 0.4074513
v 0.4271076 0.7780935 0.3651091
v 0.3981063 0.5082268 0.5011907
v 0.3831097 0.6643251 0.4938436
v 0.3494594 0.7780935 0.4588484
v 1.117588E-10 0.546233 0.6012627
v 1.117588E-10 0.6973408 0.6008379
v 1.117588E-10 0.8276611 0.5589204
v -0.3831097 0.6643251 0.4938436
v -0.3494594 0.7780935 0.4588484
v -0.3981063 0.5082268 0.5011907
v -0.4271075 0.7780935 0.3651091
v -0.4682347 0.6643251 0.4001043
v -0.4865635 0.5082268 0.4074513
v -0.515625 0.4488532 0.1596794
v -0.515625 0.7780935 0.06592944
v -0.5286359 0.2613717 -0.02780108
v -0.515625 0.8336337 -0.2036531
v -0.4578393 0.8266656 -0.4927673
v -0.5562765 0.3253108 -0.5323666
v -0.5286359 -0.07313358 -0.1215511
v -0.5674196 -0.07313358 -0.5323666
v -0.4771952 -0.5653259 -0.1215511
v -0.515625 -0.5653259 -0.4927673
v 0.5286359 -0.07313358 -0.1215511
v 0.4771953 -0.5653259 -0.1215511
v 0.3904411 -0.5653259 -0.02781173
v 0.4325298 -0.07313358 -0.02781173
v 0.5286359 0.2613717 -0.02780108
v 0.4325298 0.2613717 0.06593826
v 1.117588E-10 0.2856639 0.06593826
v 1.117588E-10 -0.07313358 -0.02781173
v 1.117588E-10 -0.5653259 -0.02781173
v -0.4325298 0.2613717 0.06593826
v -0.4325298 -0.07313358 -0.02781173
v -0.3904411 -0.5653259 -0.02781173
v -0.5286359 0.2613717 -0.02780108
v -0.4771952 -0.5653259 -0.1215511
v -0.5286359 -0.07313358 -0.1215511
v -0.5674196 -0.07313358 -0.5323666
v -0.515625 -0.5653259 -0.4927673
v -0.4642627 -0.07313358 -0.6261078
v -0.4551455 0.3253108 -0.6261078
v -0.5562765 0.3253108 -0.5323666
v -0.4578393 0.8266656 -0.4927673
v -0.4271075 0.7780935 0.3651091
v -0.515625 0.7780935 0.06592944
v -0.4218844 0.8718343 0.06592944
v -0.332657 0.8718343 0.3651091
v -0.3494594 0.7780935 0.4588484
v 1.117588E-10 0.8276611 0.5589204
v 1.117588E-10 0.9214019 0.465181
v 0.3494594 0.7780935 0.4588484
v 0.332657 0.8718343 0.3651091
v 0.4271076 0.7780935 0.3651091
v 0.4218844 0.8718343 0.06592944
v 0.5156251 0.7780935 0.06592944
v -0.4218844 0.8718343 0.06592944
v -0.515625 0.7780935 0.06592944
v -0.515625 0.8336337 -0.2036531
v -0.4218844 0.9273746 -0.2036531
v -0.3746041 0.9204065 -0.4927673
v -0.4578393 0.8266656 -0.4927673
v -0.3746041 0.8266656 -0.5865085
v 1.117588E-10 0.9700821 -0.6028489
v 1.117588E-10 0.8763413 -0.6965901
v 0.3746041 0.9204065 -0.4927673
v 0.3746041 0.8266656 -0.5865085
v 0.4578393 0.8266656 -0.4927673
v 0.4218844 0.9273746 -0.2036531
v 0.5156251 0.8336337 -0.2036531
v 0.4218844 0.8718343 0.06592944
v 0.5156251 0.7780935 0.06592944
v -0.3981063 0.5082268 0.5011907
v 1.117588E-10 0.546233 0.6012627
v 1.117588E-10 0.4524924 0.5075233
v 0.3981063 0.5082268 0.5011907
v -0.3981063 0.4144861 0.4074513
v -0.4865635 0.5082268 0.4074513
v -0.515625 0.4488532 0.1596794
v -0.4218844 0.3551126 0.1596794
v -0.5286359 0.2613717 -0.02780108
v -0.4325298 0.2613717 0.06593826
v 1.117588E-10 0.2856639 0.06593826
v 1.117588E-10 0.3794047 0.1596794
v 0.4325298 0.2613717 0.06593826
v 0.3981063 0.4144861 0.4074513
v 0.4865636 0.5082268 0.4074513
v 0.5156251 0.4488532 0.1596794
v 0.4218844 0.3551126 0.1596794
v 0.5286359 0.2613717 -0.02780108
v -0.3904411 -0.6590664 -0.1215511
v -0.515625 -0.5653259 -0.4927673
v -0.4771952 -0.5653259 -0.1215511
v -0.3904411 -0.5653259 -0.02781173
v -0.4218844 -0.6590664 -0.4927673
v -0.4218844 -0.5653259 -0.5865085
v 1.117588E-10 -0.5653259 -0.6965901
v 1.117588E-10 -0.6590664 -0.1215511
v 1.117588E-10 -0.5653259 -0.02781173
v 1.117588E-10 -0.6590664 -0.6028489
v 0.4218844 -0.5653259 -0.5865085
v 0.4218844 -0.6590664 -0.4927673
v 0.5156251 -0.5653259 -0.4927673
v 0.4771953 -0.5653259 -0.1215511
v 0.3904411 -0.6590664 -0.1215511
v 0.3904411 -0.5653259 -0.02781173
vt 0.5561948 0.3731321
vt 0.5229397 0.3731321
vt 0.5229397 0.373992
vt 0.5561948 0.373992
vt 0.5895983 0.3731321
vt 0.5229397 0.3743739
vt 0.5895983 0.373992
vt 0.5561948 0.3743739
vt 0.5229397 0.3754245
vt 0.5895983 0.3743739
vt 0.5561948 0.3754245
vt 0.5895983 0.3754245
vt 0.5782766 0.204364
vt 0.5910701 0.1313956
vt 0.5782768 0.1313956
vt 0.5910699 0.2043638
vt 0.59107 0.263434
vt 0.5782767 0.2634344
vt 0.5933957 0.2043638
vt 0.5933957 0.1313956
vt 0.6038861 0.1313956
vt 0.5933957 0.2634339
vt 0.6038861 0.2043636
vt 0.6143301 0.1313956
vt 0.5910699 0.3468234
vt 0.5782765 0.3468234
vt 0.5933958 0.3468234
vt 0.5736252 0.291229
vt 0.6038862 0.3468234
vt 0.5736253 0.3468234
vt 0.6038861 0.2634337
vt 0.6143302 0.3468234
vt 0.563158 0.321068
vt 0.563158 0.2912292
vt 0.563158 0.3468234
vt 0.5608321 0.2912292
vt 0.5608321 0.3210681
vt 0.5608321 0.3468234
vt 0.5503417 0.2912292
vt 0.5503417 0.321068
vt 0.5503417 0.3468233
vt 0.5398978 0.321068
vt 0.5398978 0.3468233
vt 0.5398978 0.2912292
vt 0.537572 0.3468234
vt 0.5375721 0.3210681
vt 0.5375721 0.2912292
vt 0.527105 0.2912282
vt 0.5271045 0.3468234
vt 0.5224534 0.2634333
vt 0.5224531 0.3468234
vt 0.5096596 0.3468234
vt 0.50966 0.2634322
vt 0.5224535 0.204363
vt 0.5096601 0.2043617
vt 0.5224535 0.1313956
vt 0.5096602 0.1313956
vt 0.5631579 0.2043641
vt 0.5631579 0.1313955
vt 0.5608321 0.1313957
vt 0.5608321 0.2043639
vt 0.563158 0.2773319
vt 0.5608321 0.2773319
vt 0.5503417 0.2773319
vt 0.5503416 0.2043639
vt 0.5503417 0.1313957
vt 0.5398979 0.2773319
vt 0.5398977 0.2043639
vt 0.5398978 0.1313957
vt 0.537572 0.2773319
vt 0.537572 0.1313955
vt 0.537572 0.204364
vt 0.6166557 0.2043633
vt 0.6166557 0.1313956
vt 0.6143301 0.2043633
vt 0.6143301 0.2634335
vt 0.6166558 0.2634335
vt 0.6166559 0.3468234
vt 0.5155313 0.4704034
vt 0.5155313 0.4141681
vt 0.5229369 0.4141681
vt 0.5229369 0.4704034
vt 0.522937 0.4744745
vt 0.5561922 0.4744745
vt 0.5561921 0.4704034
vt 0.5895956 0.4744745
vt 0.5895956 0.4704034
vt 0.5970012 0.4704034
vt 0.5895956 0.4141681
vt 0.5970012 0.4141681
vt 0.5229369 0.4141681
vt 0.5155313 0.4141681
vt 0.5155313 0.4223149
vt 0.5229369 0.4223149
vt 0.5229369 0.4705548
vt 0.5155313 0.4705548
vt 0.5229369 0.4746298
vt 0.5561921 0.4705548
vt 0.5561921 0.4746298
vt 0.5895956 0.4705548
vt 0.5895956 0.4746298
vt 0.5970012 0.4705548
vt 0.5895956 0.4223149
vt 0.5970012 0.4223149
vt 0.5895956 0.4141681
vt 0.5970012 0.4141681
vt 0.5916477 0.2253946
vt 0.5572166 0.2253946
vt 0.5572166 0.2258912
vt 0.522632 0.2253946
vt 0.5916477 0.2258912
vt 0.5993152 0.2258912
vt 0.5993152 0.2276295
vt 0.5916477 0.2276295
vt 0.5993152 0.2286226
vt 0.5916476 0.228126
vt 0.5572166 0.2281261
vt 0.5572166 0.2276295
vt 0.522632 0.2281261
vt 0.522632 0.2258912
vt 0.5149645 0.2258911
vt 0.5149645 0.2276295
vt 0.522632 0.2276295
vt 0.5149646 0.2286226
vt 0.5939688 0.08922909
vt 0.6019911 0.09074262
vt 0.6019912 0.08922909
vt 0.5939688 0.08895399
vt 0.5939688 0.09074262
vt 0.5939688 0.0910178
vt 0.5579442 0.09101777
vt 0.5579442 0.08922909
vt 0.5579442 0.08895399
vt 0.5579442 0.09074262
vt 0.5217589 0.09101777
vt 0.5217589 0.09074262
vt 0.5137365 0.09074262
vt 0.5137365 0.08922909
vt 0.5217589 0.08922909
vt 0.5217589 0.08895399
vn 0 0.9697001 0.2442985
vn -0.2596645 0.9492164 0.1776582
vn -0.2954215 0.9455742 0.1364393
vn 0 0.9944066 0.1056201
vn 0.2596645 0.9492164 0.1776582
vn -0.2706787 0.9605594 0.06370623
vn 0.2954215 0.9455742 0.1364393
vn 0 0.9970271 0.0770522
vn -0.262838 0.9469896 -0.1847348
vn 0.2706787 0.9605594 0.06370623
vn 0 0.9645154 -0.2640264
vn 0.262838 0.9469896 -0.1847348
vn 0.9702172 -0.06768698 0.2325878
vn 0.9704003 -0.2152904 -0.1094224
vn 0.9432259 -0.2153382 0.252892
vn 0.9907724 -0.05361287 -0.1244817
vn 0.9829206 0.07294959 -0.1689537
vn 0.9915245 -0.004281546 0.1298485
vn 0.3919798 -0.04690529 -0.9187773
vn 0.3573004 -0.2116597 -0.9096904
vn 0 -0.2107112 -0.9775483
vn 0.4043391 0.06409864 -0.9123603
vn 0 -0.04795876 -0.9988493
vn -0.3327957 -0.2164426 -0.9178234
vn 0.9552224 0.2051138 -0.2132569
vn 0.978784 0.2043859 -0.01443311
vn 0.3809581 0.2029432 -0.9020448
vn 0.9854137 -0.1199205 0.1207429
vn 0 0.2163187 -0.9763228
vn 0.9694235 0.2282157 0.09019739
vn 0 0.05302193 -0.9985933
vn -0.3586285 0.205027 -0.9106863
vn 0.9115115 0.1854407 0.3670945
vn 0.8866914 -0.2799524 0.3679741
vn 0.7509857 0.5815085 0.3128392
vn 0.3074023 -0.328421 0.8931088
vn 0.3930303 0.1742105 0.9028721
vn 0.3675253 0.4986902 0.7850052
vn 0 -0.294301 0.9557127
vn 0 0.1759562 0.9843981
vn 0 0.537815 0.8430629
vn -0.3930303 0.1742105 0.9028721
vn -0.3675254 0.4986902 0.7850052
vn -0.3074024 -0.328421 0.8931088
vn -0.7509859 0.5815083 0.3128392
vn -0.9115117 0.1854407 0.3670943
vn -0.8866916 -0.2799522 0.367974
vn -0.9854137 -0.1199204 0.1207428
vn -0.9694237 0.2282156 0.09019738
vn -0.9923919 -0.0009441478 0.1231163
vn -0.9793585 0.2016499 -0.01393772
vn -0.9572755 0.205963 -0.2029847
vn -0.9819817 0.07529433 -0.1733286
vn -0.9734274 -0.06396917 0.21988
vn -0.9896797 -0.05619712 -0.1318185
vn -0.9466245 -0.2094792 0.2449908
vn -0.9714018 -0.2165436 -0.09740394
vn 0.9702172 -0.06768698 0.2325878
vn 0.9432259 -0.2153382 0.252892
vn 0.1561127 -0.1434766 0.9772632
vn 0.1880918 -0.126725 0.9739416
vn 0.9915245 -0.004281546 0.1298485
vn 0.1601364 -0.394706 0.904745
vn 0 -0.3965442 0.9180156
vn 0 -0.1142914 0.9934472
vn 0 -0.1512917 0.9884892
vn -0.1601364 -0.394706 0.904745
vn -0.1880918 -0.126725 0.9739416
vn -0.1561127 -0.1434766 0.9772632
vn -0.9923919 -0.0009441478 0.1231163
vn -0.9466245 -0.2094792 0.2449908
vn -0.9734274 -0.06396917 0.21988
vn -0.9896797 -0.05619712 -0.1318185
vn -0.9714018 -0.2165436 -0.09740394
vn -0.3498711 -0.05065187 -0.9354274
vn -0.3622649 0.06498171 -0.9298072
vn -0.9819817 0.07529433 -0.1733286
vn -0.9572755 0.205963 -0.2029847
vn -0.7509859 0.5815083 0.3128392
vn -0.9694237 0.2282156 0.09019738
vn -0.2954215 0.9455742 0.1364393
vn -0.2596645 0.9492164 0.1776582
vn -0.3675254 0.4986902 0.7850052
vn 0 0.537815 0.8430629
vn 0 0.9697001 0.2442985
vn 0.3675253 0.4986902 0.7850052
vn 0.2596645 0.9492164 0.1776582
vn 0.7509857 0.5815085 0.3128392
vn 0.2954215 0.9455742 0.1364393
vn 0.9694235 0.2282157 0.09019739
vn -0.2954215 0.9455742 0.1364393
vn -0.9694237 0.2282156 0.09019738
vn -0.9793585 0.2016499 -0.01393772
vn -0.2706787 0.9605594 0.06370623
vn -0.262838 0.9469896 -0.1847348
vn -0.9572755 0.205963 -0.2029847
vn -0.3586285 0.205027 -0.9106863
vn 0 0.9645154 -0.2640264
vn 0 0.2163187 -0.9763228
vn 0.262838 0.9469896 -0.1847348
vn 0.3809581 0.2029432 -0.9020448
vn 0.9552224 0.2051138 -0.2132569
vn 0.2706787 0.9605594 0.06370623
vn 0.978784 0.2043859 -0.01443311
vn 0.2954215 0.9455742 0.1364393
vn 0.9694235 0.2282157 0.09019739
vn -0.3074024 -0.328421 0.8931088
vn 0 -0.294301 0.9557127
vn 0 -0.9110621 0.4122692
vn 0.3074023 -0.328421 0.8931088
vn -0.1138862 -0.9333817 0.3403357
vn -0.8866916 -0.2799522 0.367974
vn -0.9854137 -0.1199204 0.1207428
vn -0.1414921 -0.892203 0.4288982
vn -0.9923919 -0.0009441478 0.1231163
vn -0.1601364 -0.394706 0.904745
vn 0 -0.3965442 0.9180156
vn 0 -0.9258876 0.3777989
vn 0.1601364 -0.394706 0.904745
vn 0.1138862 -0.9333819 0.3403356
vn 0.8866914 -0.2799524 0.3679741
vn 0.9854137 -0.1199205 0.1207429
vn 0.1414921 -0.892203 0.4288982
vn 0.9915245 -0.004281546 0.1298485
vn -0.1394748 -0.9767972 0.1625242
vn -0.9714018 -0.2165436 -0.09740394
vn -0.9466245 -0.2094792 0.2449908
vn -0.1561127 -0.1434766 0.9772632
vn -0.1770527 -0.9759771 -0.1269691
vn -0.3327957 -0.2164426 -0.9178234
vn 0 -0.2107112 -0.9775483
vn 0 -0.9852315 0.1712275
vn 0 -0.1512917 0.9884892
vn 0 -0.9740879 -0.2261702
vn 0.3573004 -0.2116597 -0.9096904
vn 0.1770527 -0.9759771 -0.1269691
vn 0.9704003 -0.2152904 -0.1094224
vn 0.9432259 -0.2153382 0.252892
vn 0.1394748 -0.9767972 0.1625242
vn 0.1561127 -0.1434766 0.9772632
g hair_girl_01_0
f 3/3/3 2/2/2 1/1/1
f 4/4/4 3/3/3 1/1/1
f 4/4/4 1/1/1 5/5/5
f 3/3/3 4/4/4 6/6/6
f 7/7/7 4/4/4 5/5/5
f 4/4/4 8/8/8 6/6/6
f 4/4/4 7/7/7 8/8/8
f 9/9/9 6/6/6 8/8/8
f 7/7/7 10/10/10 8/8/8
f 11/11/11 9/9/9 8/8/8
f 11/11/11 8/8/8 10/10/10
f 12/12/12 11/11/11 10/10/10
f 15/15/15 14/14/14 13/13/13
f 14/14/14 16/16/16 13/13/13
f 16/16/16 17/17/17 13/13/13
f 17/17/17 18/18/18 13/13/13
f 16/16/16 14/14/14 19/19/19
f 14/14/14 20/20/20 19/19/19
f 20/20/20 21/21/21 19/19/19
f 16/16/16 19/19/19 22/22/22
f 17/17/17 16/16/16 22/22/22
f 21/21/21 23/23/23 19/19/19
f 22/22/22 19/19/19 23/23/23
f 21/21/21 24/24/24 23/23/23
f 17/17/17 25/25/25 18/18/18
f 25/25/25 26/26/26 18/18/18
f 27/27/27 25/25/25 17/17/17
f 22/22/22 27/27/27 17/17/17
f 18/18/18 26/26/26 28/28/28
f 29/29/29 27/27/27 22/22/22
f 26/26/26 30/30/30 28/28/28
f 31/31/31 29/29/29 22/22/22
f 31/31/31 22/22/22 23/23/23
f 32/32/32 29/29/29 31/31/31
f 28/28/28 30/30/30 33/33/33
f 33/33/33 34/34/34 28/28/28
f 30/30/30 35/35/35 33/33/33
f 34/34/34 33/33/33 36/36/36
f 33/33/33 35/35/35 37/37/37
f 33/33/33 37/37/37 36/36/36
f 35/35/35 38/38/38 37/37/37
f 36/36/36 37/37/37 39/39/39
f 37/37/37 38/38/38 40/40/40
f 37/37/37 40/40/40 39/39/39
f 38/38/38 41/41/41 40/40/40
f 40/40/40 42/42/42 39/39/39
f 40/40/40 41/41/41 42/42/42
f 41/41/41 43/43/43 42/42/42
f 42/42/42 44/44/44 39/39/39
f 42/42/42 43/43/43 45/45/45
f 44/44/44 42/42/42 46/46/46
f 46/46/46 42/42/42 45/45/45
f 47/47/47 44/44/44 46/46/46
f 48/48/48 47/47/47 46/46/46
f 46/46/46 45/45/45 49/49/49
f 46/46/46 49/49/49 48/48/48
f 48/48/48 49/49/49 50/50/50
f 49/49/49 51/51/51 50/50/50
f 50/50/50 51/51/51 52/52/52
f 53/53/53 50/50/50 52/52/52
f 54/54/54 50/50/50 53/53/53
f 55/55/55 54/54/54 53/53/53
f 56/56/56 54/54/54 55/55/55
f 57/57/57 56/56/56 55/55/55
f 60/60/60 59/59/59 58/58/58
f 61/61/61 60/60/60 58/58/58
f 58/58/58 62/62/62 61/61/61
f 62/62/62 63/63/63 61/61/61
f 61/61/61 63/63/63 64/64/64
f 60/60/60 61/61/61 65/65/65
f 65/65/65 61/61/61 64/64/64
f 66/66/66 60/60/60 65/65/65
f 65/65/65 64/64/64 67/67/67
f 66/66/66 65/65/65 68/68/68
f 68/68/68 65/65/65 67/67/67
f 69/69/69 66/66/66 68/68/68
f 67/67/67 70/70/70 68/68/68
f 71/71/71 69/69/69 68/68/68
f 70/70/70 72/72/72 68/68/68
f 72/72/72 71/71/71 68/68/68
f 24/24/24 74/74/74 73/73/73
f 75/75/75 24/24/24 73/73/73
f 24/24/24 75/75/75 23/23/23
f 31/31/31 23/23/23 75/75/75
f 76/76/76 75/75/75 73/73/73
f 76/76/76 31/31/31 75/75/75
f 77/77/77 76/76/76 73/73/73
f 76/76/76 32/32/32 31/31/31
f 77/77/77 78/78/78 76/76/76
f 78/78/78 32/32/32 76/76/76
f 81/81/81 80/80/80 79/79/79
f 82/82/82 81/81/81 79/79/79
f 79/79/79 83/83/83 82/82/82
f 83/83/83 84/84/84 82/82/82
f 84/84/84 85/85/85 82/82/82
f 84/84/84 86/86/86 85/85/85
f 86/86/86 87/87/87 85/85/85
f 87/87/87 86/86/86 88/88/88
f 87/87/87 88/88/88 89/89/89
f 88/88/88 90/90/90 89/89/89
f 93/93/93 92/92/92 91/91/91
f 94/94/94 93/93/93 91/91/91
f 94/94/94 95/95/95 93/93/93
f 95/95/95 96/96/96 93/93/93
f 96/96/96 95/95/95 97/97/97
f 95/95/95 98/98/98 97/97/97
f 98/98/98 99/99/99 97/97/97
f 98/98/98 100/100/100 99/99/99
f 100/100/100 101/101/101 99/99/99
f 101/101/101 100/100/100 102/102/102
f 100/100/100 103/103/103 102/102/102
f 103/103/103 104/104/104 102/102/102
f 104/104/104 103/103/103 105/105/105
f 106/106/106 104/104/104 105/105/105
f 109/109/109 108/108/108 107/107/107
f 108/108/108 109/109/109 110/110/110
f 111/111/111 109/109/109 107/107/107
f 111/111/111 107/107/107 112/112/112
f 111/111/111 112/112/112 113/113/113
f 114/114/114 111/111/111 113/113/113
f 111/111/111 114/114/114 109/109/109
f 113/113/113 115/115/115 114/114/114
f 115/115/115 116/116/116 114/114/114
f 114/114/114 116/116/116 117/117/117
f 118/118/118 114/114/114 117/117/117
f 114/114/114 118/118/118 109/109/109
f 118/118/118 117/117/117 119/119/119
f 109/109/109 120/120/120 110/110/110
f 109/109/109 118/118/118 120/120/120
f 121/121/121 110/110/110 120/120/120
f 121/121/121 120/120/120 122/122/122
f 123/123/123 118/118/118 119/119/119
f 118/118/118 123/123/123 120/120/120
f 120/120/120 123/123/123 122/122/122
f 119/119/119 124/124/124 123/123/123
f 124/124/124 122/122/122 123/123/123
f 127/127/127 126/126/126 125/125/125
f 125/125/125 128/128/128 127/127/127
f 126/126/126 129/129/129 125/125/125
f 129/129/129 126/126/126 130/130/130
f 130/130/130 131/131/131 129/129/129
f 125/125/125 132/132/132 128/128/128
f 132/132/132 125/125/125 129/129/129
f 132/132/132 133/133/133 128/128/128
f 131/131/131 134/134/134 129/129/129
f 134/134/134 132/132/132 129/129/129
f 131/131/131 135/135/135 134/134/134
f 135/135/135 136/136/136 134/134/134
f 134/134/134 136/136/136 132/132/132
f 136/136/136 135/135/135 137/137/137
f 136/136/136 137/137/137 138/138/138
f 132/132/132 139/139/139 133/133/133
f 136/136/136 139/139/139 132/132/132
f 139/139/139 136/136/136 138/138/138
f 139/139/139 140/140/140 133/133/133
f 138/138/138 140/140/140 139/139/139
