g Hammer 01
v -0.120444 0.4390982 0.07774067
v 0.1204442 0.4390981 -0.07774086
v 0.1204442 0.4390981 0.07774067
v -0.120444 0.4390982 -0.07774086
v -0.120444 0.4390982 -0.07774086
v 0.1204442 0.2536058 -0.0777408
v 0.1204442 0.4390981 -0.07774086
v -0.120444 0.2536058 -0.0777408
v -0.120444 0.4390982 0.07774067
v -0.120444 0.2536058 -0.0777408
v -0.120444 0.4390982 -0.07774086
v -0.120444 0.2536058 0.07774072
v 0.1204442 0.4390981 0.07774067
v -0.120444 0.2536058 0.07774072
v -0.120444 0.4390982 0.07774067
v 0.1204442 0.2536058 0.07774072
v 0.1204442 0.4390981 -0.07774086
v 0.1204442 0.2536058 0.07774072
v 0.1204442 0.4390981 0.07774067
v 0.1204442 0.2536058 -0.0777408
v 0.1204442 0.2536058 -0.0777408
v -0.120444 0.2536058 0.07774072
v 0.1204442 0.2536058 0.07774072
v -0.120444 0.2536058 -0.0777408
v -0.02304027 0.4422519 -0.02139408
v 0.02304039 -0.08073781 -0.02139398
v 0.02304057 0.4422519 -0.02139408
v -0.02304045 -0.08073779 -0.02139398
v -0.02304027 0.4422519 0.02139392
v -0.02304045 -0.08073779 -0.02139398
v -0.02304027 0.4422519 -0.02139408
v -0.02304045 -0.08073784 0.02139402
v 0.02304057 0.4422519 0.02139392
v -0.02304045 -0.08073784 0.02139402
v -0.02304027 0.4422519 0.02139392
v 0.02304039 -0.08073784 0.02139402
v 0.02304057 0.4422519 -0.02139408
v 0.02304039 -0.08073784 0.02139402
v 0.02304057 0.4422519 0.02139392
v 0.02304039 -0.08073781 -0.02139398
v -0.1706048 0.4165032 0.06901947
v 0.1706051 0.4165031 -0.06902019
v 0.1706051 0.4165031 0.06901947
v -0.1706048 0.4165032 -0.06902019
v -0.1706048 0.4165032 -0.06902019
v 0.1706051 0.2737952 -0.06901972
v 0.1706051 0.4165031 -0.06902019
v -0.1706048 0.2737953 -0.06901972
v -0.1706048 0.4165032 0.06901947
v -0.1706048 0.2737953 -0.06901972
v -0.1706048 0.4165032 -0.06902019
v -0.1706048 0.2737953 0.06901994
v 0.1706051 0.4165031 0.06901947
v -0.1706048 0.2737953 0.06901994
v -0.1706048 0.4165032 0.06901947
v 0.1706051 0.2737952 0.06901994
v 0.1706051 0.4165031 -0.06902019
v 0.1706051 0.2737952 0.06901994
v 0.1706051 0.4165031 0.06901947
v 0.1706051 0.2737952 -0.06901972
v -0.0294902 -0.07041808 0.02563823
v 0.02949016 -0.0704181 -0.0256382
v 0.02949016 -0.0704181 0.02563823
v -0.0294902 -0.07041809 -0.0256382
v -0.0294902 -0.07041809 -0.0256382
v 0.02949014 -0.1061933 -0.02563819
v 0.02949016 -0.0704181 -0.0256382
v -0.02949021 -0.1061933 -0.02563819
v -0.0294902 -0.07041808 0.02563823
v -0.02949021 -0.1061933 -0.02563819
v -0.0294902 -0.07041809 -0.0256382
v -0.02949021 -0.1061933 0.02563824
v 0.02949016 -0.0704181 0.02563823
v -0.02949021 -0.1061933 0.02563824
v -0.0294902 -0.07041808 0.02563823
v 0.02949014 -0.1061933 0.02563824
v 0.02949016 -0.0704181 -0.0256382
v 0.02949014 -0.1061933 0.02563824
v 0.02949016 -0.0704181 0.02563823
v 0.02949014 -0.1061933 -0.02563819
v 0.02949014 -0.1061933 -0.02563819
v -0.02949021 -0.1061933 0.02563824
v 0.02949014 -0.1061933 0.02563824
v -0.02949021 -0.1061933 -0.02563819
v 0.1706051 0.2737952 0.06901994
v -0.1706048 0.2737953 -0.06901972
v -0.1706048 0.2737953 0.06901994
v 0.1706051 0.2737952 -0.06901972
v -0.02304027 0.4422519 0.02139392
v 0.02304057 0.4422519 -0.02139408
v 0.02304057 0.4422519 0.02139392
v -0.02304027 0.4422519 -0.02139408
vt 0.6354525 0.6704545
vt 0.6191217 0.6088614
vt 0.6191217 0.6704545
vt 0.6354525 0.6088614
vt 0.6354525 0.6088614
vt 0.6191217 0.6088614
vt 0.6191217 0.6088614
vt 0.6354525 0.6088614
vt 0.6354525 0.6704545
vt 0.6354525 0.6088614
vt 0.6354525 0.6088614
vt 0.6354525 0.6704545
vt 0.6191217 0.6704545
vt 0.6354525 0.6704545
vt 0.6354525 0.6704545
vt 0.6191217 0.6704545
vt 0.6191217 0.6088614
vt 0.6191217 0.6704545
vt 0.6191217 0.6704545
vt 0.6191217 0.6088614
vt 0.6191217 0.6088614
vt 0.6354525 0.6704545
vt 0.6191217 0.6704545
vt 0.6354525 0.6088614
vt 0.8912997 0.5848743
vt 0.8749689 0.5848743
vt 0.8749689 0.5848743
vt 0.8912997 0.5848743
vt 0.8912997 0.6464674
vt 0.8912997 0.5848743
vt 0.8912997 0.5848743
vt 0.8912997 0.6464674
vt 0.8749689 0.6464674
vt 0.8912997 0.6464674
vt 0.8912997 0.6464674
vt 0.8749689 0.6464674
vt 0.8749689 0.5848743
vt 0.8749689 0.6464674
vt 0.8749689 0.6464674
vt 0.8749689 0.5848743
vt 0.960801 0.131972
vt 0.9444701 0.07037896
vt 0.9444701 0.131972
vt 0.960801 0.07037896
vt 0.960801 0.07037896
vt 0.9444701 0.07037896
vt 0.9444701 0.07037896
vt 0.960801 0.07037896
vt 0.960801 0.131972
vt 0.960801 0.07037896
vt 0.960801 0.07037896
vt 0.960801 0.131972
vt 0.9444701 0.131972
vt 0.960801 0.131972
vt 0.960801 0.131972
vt 0.9444701 0.131972
vt 0.9444701 0.07037896
vt 0.9444701 0.131972
vt 0.9444701 0.131972
vt 0.9444701 0.07037896
vt 0.6354525 0.6704545
vt 0.6191217 0.6088614
vt 0.6191217 0.6704545
vt 0.6354525 0.6088614
vt 0.6354525 0.6088614
vt 0.6191217 0.6088614
vt 0.6191217 0.6088614
vt 0.6354525 0.6088614
vt 0.6354525 0.6704545
vt 0.6354525 0.6088614
vt 0.6354525 0.6088614
vt 0.6354525 0.6704545
vt 0.6191217 0.6704545
vt 0.6354525 0.6704545
vt 0.6354525 0.6704545
vt 0.6191217 0.6704545
vt 0.6191217 0.6088614
vt 0.6191217 0.6704545
vt 0.6191217 0.6704545
vt 0.6191217 0.6088614
vt 0.6191217 0.6088614
vt 0.6354525 0.6704545
vt 0.6191217 0.6704545
vt 0.6354525 0.6088614
vt 0.9444701 0.131972
vt 0.960801 0.07037896
vt 0.960801 0.131972
vt 0.9444701 0.07037896
vt 0.8912997 0.6464674
vt 0.8749689 0.5848743
vt 0.8749689 0.6464674
vt 0.8912997 0.5848743
vn 1.451743E-07 1 0
vn 2.526815E-07 1 0
vn 3.978559E-07 1 0
vn 0 1 0
vn 0 -3.053468E-07 -1
vn 0 -2.782549E-07 -1
vn 0 -2.094541E-07 -1
vn 0 -3.741476E-07 -1
vn -1 3.213321E-07 0
vn -1 3.213321E-07 0
vn -1 3.213321E-07 0
vn -1 3.21332E-07 0
vn 0 2.916322E-07 1
vn 0 2.919695E-07 1
vn 0 2.928261E-07 1
vn 0 2.907756E-07 1
vn 1 -3.213321E-07 0
vn 1 -3.213321E-07 0
vn 1 -3.213321E-07 0
vn 1 -3.21332E-07 0
vn -1.989279E-07 -1 0
vn -1.989279E-07 -1 0
vn -1.989279E-07 -1 0
vn -1.989279E-07 -1 0
vn 0 -1.85708E-07 -1
vn 0 -1.94382E-07 -1
vn 0 -1.851616E-07 -1
vn 0 -1.949284E-07 -1
vn -1 3.347841E-07 0
vn -1 3.347841E-07 0
vn -1 3.347841E-07 0
vn -1 3.347841E-07 0
vn 0 2.001024E-07 1
vn 0 1.830345E-07 1
vn 0 2.011776E-07 1
vn 0 1.819593E-07 1
vn 1 -3.312226E-07 0
vn 1 -3.312226E-07 0
vn 1 -3.312226E-07 0
vn 1 -3.312226E-07 0
vn 4.358409E-07 1 0
vn 3.550831E-07 1 0
vn 3.163696E-07 1 0
vn 4.745544E-07 1 0
vn 0 -3.32764E-06 -1
vn 0 -3.251803E-06 -1
vn 0 -3.213216E-06 -1
vn 0 -3.366227E-06 -1
vn -1 0 0
vn -1 0 0
vn -1 0 0
vn -1 0 0
vn 0 3.32764E-06 1
vn 0 3.251803E-06 1
vn 0 3.213216E-06 1
vn 0 3.366227E-06 1
vn 1 0 0
vn 1 0 0
vn 1 0 0
vn 1 0 0
vn 2.805944E-07 1 -1.453023E-07
vn 3.352982E-07 1 -1.453023E-07
vn 6.158926E-07 1 -1.453023E-07
vn 0 1 -1.453023E-07
vn 0 -2.163525E-07 -1
vn 0 -2.250258E-07 -1
vn 0 -2.348709E-07 -1
vn 0 -2.065074E-07 -1
vn -1 3.64457E-07 0
vn -1 3.64457E-07 0
vn -1 3.644571E-07 0
vn -1 3.64457E-07 0
vn 0 3.604396E-07 1
vn 0 3.016277E-07 1
vn 0 2.348704E-07 1
vn 0 4.271969E-07 1
vn 1 -3.64457E-07 0
vn 1 -3.644571E-07 0
vn 1 -3.644572E-07 0
vn 1 -3.644569E-07 0
vn -3.079462E-07 -1 0
vn -3.079462E-07 -1 0
vn -3.079462E-07 -1 0
vn -3.079462E-07 -1 0
vn -3.163696E-07 -1 0
vn -3.163696E-07 -1 0
vn -3.163696E-07 -1 0
vn -3.163696E-07 -1 0
vn 0 1 0
vn 0 1 0
vn 0 1 0
vn 0 1 0
g Hammer 01_0
f 3/3/3 2/2/2 1/1/1
f 4/4/4 1/1/1 2/2/2
f 7/7/7 6/6/6 5/5/5
f 8/8/8 5/5/5 6/6/6
f 11/11/11 10/10/10 9/9/9
f 12/12/12 9/9/9 10/10/10
f 15/15/15 14/14/14 13/13/13
f 16/16/16 13/13/13 14/14/14
f 19/19/19 18/18/18 17/17/17
f 20/20/20 17/17/17 18/18/18
f 23/23/23 22/22/22 21/21/21
f 24/24/24 21/21/21 22/22/22
f 27/27/27 26/26/26 25/25/25
f 28/28/28 25/25/25 26/26/26
f 31/31/31 30/30/30 29/29/29
f 32/32/32 29/29/29 30/30/30
f 35/35/35 34/34/34 33/33/33
f 36/36/36 33/33/33 34/34/34
f 39/39/39 38/38/38 37/37/37
f 40/40/40 37/37/37 38/38/38
f 43/43/43 42/42/42 41/41/41
f 44/44/44 41/41/41 42/42/42
f 47/47/47 46/46/46 45/45/45
f 48/48/48 45/45/45 46/46/46
f 51/51/51 50/50/50 49/49/49
f 52/52/52 49/49/49 50/50/50
f 55/55/55 54/54/54 53/53/53
f 56/56/56 53/53/53 54/54/54
f 59/59/59 58/58/58 57/57/57
f 60/60/60 57/57/57 58/58/58
f 63/63/63 62/62/62 61/61/61
f 64/64/64 61/61/61 62/62/62
f 67/67/67 66/66/66 65/65/65
f 68/68/68 65/65/65 66/66/66
f 71/71/71 70/70/70 69/69/69
f 72/72/72 69/69/69 70/70/70
f 75/75/75 74/74/74 73/73/73
f 76/76/76 73/73/73 74/74/74
f 79/79/79 78/78/78 77/77/77
f 80/80/80 77/77/77 78/78/78
f 83/83/83 82/82/82 81/81/81
f 84/84/84 81/81/81 82/82/82
f 87/87/87 86/86/86 85/85/85
f 88/88/88 85/85/85 86/86/86
f 91/91/91 90/90/90 89/89/89
f 92/92/92 89/89/89 90/90/90
