g Mask 01 Red
v -0.1203334 -0.1550298 -0.1841289
v -0.1307489 -0.2045897 -0.01818497
v -0.1203334 -0.2045897 -0.184129
v -0.1307489 -0.2045897 -0.01818497
v -0.1203334 -0.1550298 -0.1841289
v -0.1307489 -0.1550298 -0.01818492
v -0.1203334 -0.2045897 -0.184129
v -0.06277058 -0.2045897 -0.07583264
v -0.06016671 -0.2045897 -0.1941245
v -0.1307489 -0.2045897 -0.01818497
v 0 -0.2045897 -0.01824429
v 0 -0.2045897 -0.0626172
v -0.1203334 -0.1550298 -0.1841289
v -0.1203334 -0.2045897 -0.184129
v -0.06016671 -0.2045897 -0.1941245
v 0 -0.1550298 -0.2041199
v 0 -0.2045897 -0.20412
v 0.06016671 -0.2045897 -0.1941245
v 0.1203334 -0.1550298 -0.1841289
v 0.1203334 -0.2045897 -0.184129
v -0.1450187 -0.2045897 0.1485691
v -0.1352818 -0.1550298 0.04430138
v -0.1450187 -0.1550298 0.1485691
v -0.1352818 -0.2045897 0.04430132
v -0.1352818 -0.2242724 0.04430133
v -0.1450187 -0.2242724 0.1485691
v 0 -0.2045896 0.1621498
v -0.1450187 -0.1550298 0.1485691
v 0 -0.1550298 0.1621498
v -0.1450187 -0.2045897 0.1485691
v 0 -0.2045896 0.1621498
v -0.1450187 -0.2242724 0.1485691
v 0 -0.2242724 0.1621498
v -0.1352818 -0.1550298 0.04430138
v 0 -0.1550298 0.1621498
v -0.1450187 -0.1550298 0.1485691
v 0 -0.1550298 0.04440993
v 0 -0.2242724 0.1621498
v -0.1352818 -0.2242724 0.04430133
v -0.1450187 -0.2242724 0.1485691
v 0 -0.2242724 0.0444099
v -0.1307489 -0.1550298 -0.01818492
v 0 -0.1550298 0.04440993
v -0.1352818 -0.1550298 0.04430138
v 0 -0.1550298 -0.01824426
v 0 -0.2045897 -0.01824429
v -0.1352818 -0.2045897 0.04430132
v 0 -0.2045897 0.04440989
v -0.1307489 -0.2045897 -0.01818497
v -0.1352818 -0.1550298 0.04430138
v -0.1307489 -0.2045897 -0.01818497
v -0.1307489 -0.1550298 -0.01818492
v -0.1352818 -0.2045897 0.04430132
v 0 -0.2242724 0.0444099
v -0.1352818 -0.2045897 0.04430132
v -0.1352818 -0.2242724 0.04430133
v 0 -0.2045897 0.04440989
v 0.1352818 -0.2045897 0.04430132
v 0.1352818 -0.2242724 0.04430133
v 0 -0.1550298 -0.01824426
v -0.1203334 -0.1550298 -0.1841289
v 0 -0.1550298 -0.2041199
v -0.1307489 -0.1550298 -0.01818492
v -0.06016671 -0.2241616 -0.1941245
v 0 -0.2241616 -0.0626172
v 0 -0.2241616 -0.20412
v -0.06277058 -0.2241616 -0.07583264
v 0 -0.2045897 -0.0626172
v -0.06277058 -0.2241616 -0.07583264
v -0.06277058 -0.2045897 -0.07583264
v 0 -0.2241616 -0.0626172
v -0.06277058 -0.2045897 -0.07583264
v -0.06016671 -0.2241616 -0.1941245
v -0.06016671 -0.2045897 -0.1941245
v -0.06277058 -0.2241616 -0.07583264
v -0.06016671 -0.2045897 -0.1941245
v 0 -0.2241616 -0.20412
v 0 -0.2045897 -0.20412
v -0.06016671 -0.2241616 -0.1941245
v 0.06277058 -0.2045897 -0.07583264
v 0.1203334 -0.2045897 -0.184129
v 0.06016671 -0.2045897 -0.1941245
v 0.1307489 -0.2045897 -0.01818497
v 0 -0.2045897 -0.01824429
v 0 -0.2045897 -0.0626172
v 0.1352818 -0.1550298 0.04430138
v 0.1450187 -0.2045897 0.1485691
v 0.1450187 -0.1550298 0.1485691
v 0.1352818 -0.2045897 0.04430132
v 0.1352818 -0.2242724 0.04430133
v 0.1450187 -0.2242724 0.1485691
v 0.1450187 -0.1550298 0.1485691
v 0 -0.2045896 0.1621498
v 0 -0.1550298 0.1621498
v 0.1450187 -0.2045897 0.1485691
v 0.1450187 -0.2242724 0.1485691
v 0 -0.2045896 0.1621498
v 0 -0.2242724 0.1621498
v 0.1352818 -0.1550298 0.04430138
v 0 -0.1550298 0.1621498
v 0 -0.1550298 0.04440993
v 0.1450187 -0.1550298 0.1485691
v 0 -0.2242724 0.1621498
v 0.1352818 -0.2242724 0.04430133
v 0 -0.2242724 0.0444099
v 0.1450187 -0.2242724 0.1485691
v 0.1307489 -0.1550298 -0.01818492
v 0 -0.1550298 0.04440993
v 0 -0.1550298 -0.01824426
v 0.1352818 -0.1550298 0.04430138
v 0 -0.2045897 -0.01824429
v 0.1352818 -0.2045897 0.04430132
v 0.1307489 -0.2045897 -0.01818497
v 0 -0.2045897 0.04440989
v 0.1352818 -0.1550298 0.04430138
v 0.1307489 -0.2045897 -0.01818497
v 0.1352818 -0.2045897 0.04430132
v 0.1307489 -0.1550298 -0.01818492
v 0.1203334 -0.1550298 -0.1841289
v 0.1307489 -0.2045897 -0.01818497
v 0.1307489 -0.1550298 -0.01818492
v 0.1203334 -0.2045897 -0.184129
v 0 -0.1550298 -0.01824426
v 0.1203334 -0.1550298 -0.1841289
v 0.1307489 -0.1550298 -0.01818492
v 0 -0.1550298 -0.2041199
v 0.06016671 -0.2241616 -0.1941245
v 0 -0.2241616 -0.0626172
v 0.06277058 -0.2241616 -0.07583264
v 0 -0.2241616 -0.20412
v 0 -0.2045897 -0.0626172
v 0.06277058 -0.2241616 -0.07583264
v 0 -0.2241616 -0.0626172
v 0.06277058 -0.2045897 -0.07583264
v 0.06277058 -0.2045897 -0.07583264
v 0.06016671 -0.2241616 -0.1941245
v 0.06277058 -0.2241616 -0.07583264
v 0.06016671 -0.2045897 -0.1941245
v 0.06016671 -0.2045897 -0.1941245
v 0 -0.2241616 -0.20412
v 0.06016671 -0.2241616 -0.1941245
v 0 -0.2045897 -0.20412
vt 0.7491113 0.5542443
vt 0.7455898 0.57621
vt 0.7455898 0.5542443
vt 0.7455898 0.57621
vt 0.7491113 0.5542443
vt 0.7455898 0.5652272
vt 0.7455898 0.5542443
vt 0.7491113 0.5652252
vt 0.7491113 0.5542443
vt 0.7455898 0.57621
vt 0.7526327 0.5762023
vt 0.7526327 0.5652233
vt 0.7491113 0.5542443
vt 0.7455898 0.5542443
vt 0.7491113 0.5542443
vt 0.7526327 0.5542443
vt 0.7526327 0.5542443
vt 0.7491113 0.5542443
vt 0.7455898 0.5542443
vt 0.7455898 0.5542443
vt 0.7455898 0.6063044
vt 0.7455898 0.5857697
vt 0.7455898 0.6063044
vt 0.7455898 0.5857697
vt 0.7455898 0.5857697
vt 0.7455898 0.6063044
vt 0.7526327 0.6063043
vt 0.7455898 0.6063044
vt 0.7526327 0.6063044
vt 0.7455898 0.6063044
vt 0.7526327 0.6063043
vt 0.7455898 0.6063044
vt 0.7526327 0.6063043
vt 0.7455898 0.5857697
vt 0.7526327 0.6063044
vt 0.7455898 0.6063044
vt 0.7526327 0.5857888
vt 0.7526327 0.6063043
vt 0.7455898 0.5857697
vt 0.7455898 0.6063044
vt 0.7526327 0.5857888
vt 0.01714726 0.9520585
vt 0.0241902 0.9726201
vt 0.01714726 0.972601
vt 0.0241902 0.9630336
vt 0.0241902 0.9630336
vt 0.01714726 0.972601
vt 0.0241902 0.9726201
vt 0.01714726 0.9630413
vt 0.01714726 0.972601
vt 0.01714726 0.9630413
vt 0.01714726 0.9520585
vt 0.01714726 0.972601
vt 0.7526327 0.5857888
vt 0.7455898 0.5857697
vt 0.7455898 0.5857697
vt 0.7526327 0.5857888
vt 0.7455898 0.5857697
vt 0.7455898 0.5857697
vt 0.7526327 0.5762023
vt 0.7491113 0.5542443
vt 0.7526327 0.5542443
vt 0.7455898 0.5652272
vt 0.8146702 0.5542443
vt 0.8181916 0.5652233
vt 0.8181916 0.5542443
vt 0.8146702 0.5652252
vt 0.8181916 0.5652233
vt 0.8146702 0.5652252
vt 0.8146702 0.5652252
vt 0.8181916 0.5652233
vt 0.8146702 0.5652252
vt 0.8146702 0.5542443
vt 0.8146702 0.5542443
vt 0.8146702 0.5652252
vt 0.8146702 0.5542443
vt 0.8181916 0.5542443
vt 0.8181916 0.5542443
vt 0.8146702 0.5542443
vt 0.7491113 0.5652252
vt 0.7455898 0.5542443
vt 0.7491113 0.5542443
vt 0.7455898 0.5652272
vt 0.7526327 0.5762023
vt 0.7526327 0.5652233
vt 0.7455898 0.5857697
vt 0.7455898 0.6063044
vt 0.7455898 0.6063044
vt 0.7455898 0.5857697
vt 0.7455898 0.5857697
vt 0.7455898 0.6063044
vt 0.7455898 0.6063044
vt 0.7526327 0.6063043
vt 0.7526327 0.6063044
vt 0.7455898 0.6063044
vt 0.7455898 0.6063044
vt 0.7526327 0.6063043
vt 0.7526327 0.6063043
vt 0.7455898 0.5857697
vt 0.7526327 0.6063044
vt 0.7526327 0.5857888
vt 0.7455898 0.6063044
vt 0.7526327 0.6063043
vt 0.7455898 0.5857697
vt 0.7526327 0.5857888
vt 0.7455898 0.6063044
vt 0.0206687 0.9520566
vt 0.0241902 0.9726201
vt 0.0241902 0.9630336
vt 0.01714726 0.972601
vt 0.0241902 0.9630336
vt 0.01714726 0.972601
vt 0.01714726 0.9520585
vt 0.0241902 0.9726201
vt 0.01714726 0.972601
vt 0.01714726 0.9520585
vt 0.01714726 0.972601
vt 0.0206687 0.9520566
vt 0.7455898 0.5542443
vt 0.7455898 0.5652272
vt 0.7491112 0.5652252
vt 0.7455898 0.5542443
vt 0.7526327 0.5762023
vt 0.7455898 0.5542443
vt 0.7491112 0.5652252
vt 0.7526327 0.5542443
vt 0.8146702 0.5542443
vt 0.8181916 0.5652233
vt 0.8146702 0.5652252
vt 0.8181916 0.5542443
vt 0.8181916 0.5652233
vt 0.8146702 0.5652252
vt 0.8181916 0.5652233
vt 0.8146702 0.5652252
vt 0.8146702 0.5652252
vt 0.8146702 0.5542443
vt 0.8146702 0.5652252
vt 0.8146702 0.5542443
vt 0.8146702 0.5542443
vt 0.8181916 0.5542443
vt 0.8146702 0.5542443
vt 0.8181916 0.5542443
vn -0.9980361 0 -0.06264169
vn -0.9977193 0 -0.06749775
vn -0.9980361 0 -0.06264168
vn -0.9977193 0 -0.06749775
vn -0.9980361 0 -0.06264169
vn -0.9977193 0 -0.06749777
vn 0 -1 0
vn 0 -1 1.728968E-07
vn 0 -1 0
vn 1.629678E-07 -1 0
vn 0 -1 2.332527E-07
vn 0 -1 6.447679E-07
vn -0.1638839 9.212395E-07 -0.9864796
vn -0.163884 8.518555E-07 -0.9864796
vn -0.1638838 9.427077E-07 -0.9864796
vn 0 9.352223E-07 -1
vn 0 8.659293E-07 -1
vn 0.1638838 9.432218E-07 -0.9864796
vn 0.1638839 9.225781E-07 -0.9864796
vn 0.163884 8.542221E-07 -0.9864796
vn -0.9956679 0 -0.09297954
vn -0.996577 0 -0.08267033
vn -0.9956679 0 -0.09297954
vn -0.996577 0 -0.08267031
vn -0.9956679 0 -0.09297951
vn -0.9956679 0 -0.09297951
vn 0 -2.886433E-07 1
vn -0.09323978 -2.873857E-07 0.9956437
vn 0 -2.886433E-07 1
vn -0.09323978 -2.873857E-07 0.9956437
vn -0.09323978 7.236193E-07 0.9956437
vn -0.09323978 7.236193E-07 0.9956437
vn -0.09323978 7.236193E-07 0.9956437
vn 0 1 0
vn 0 1 -2.552367E-07
vn 0 1 -2.720132E-07
vn 0 1 0
vn 0 -1 2.629413E-07
vn 1.87831E-07 -1 2.699259E-07
vn 1.701027E-07 -1 2.902767E-07
vn 0 -1 2.429952E-07
vn 0 1 0
vn 0 1 0
vn 0 1 0
vn 0 1 0
vn 0 -1 2.332527E-07
vn 2.167014E-07 -1 0
vn 0 -1 0
vn 1.629678E-07 -1 0
vn -0.996577 0 -0.08267033
vn -0.9977193 0 -0.06749775
vn -0.9977193 0 -0.06749777
vn -0.996577 0 -0.08267031
vn 0.0008025371 -3.633926E-07 -0.9999998
vn 0.0008025372 -3.633926E-07 -0.9999998
vn 0.0008025371 -3.633926E-07 -0.9999998
vn 0.0008025371 -3.633926E-07 -0.9999998
vn -0.0008025371 -3.633926E-07 -0.9999998
vn -0.0008025371 -3.633926E-07 -0.9999998
vn 0 1 0
vn 0 1 0
vn 0 1 0
vn 0 1 0
vn 0 -1 0
vn 0 -1 0
vn 0 -1 0
vn 0 -1 0
vn -0.2060192 0 0.9785479
vn -0.2060192 0 0.9785479
vn -0.2060192 0 0.9785479
vn -0.2060192 0 0.9785479
vn -0.9997578 0 -0.0220069
vn -0.9997578 0 -0.0220069
vn -0.9997578 0 -0.0220069
vn -0.9997578 0 -0.0220069
vn -0.1638837 0 -0.9864797
vn -0.1638837 0 -0.9864797
vn -0.1638837 0 -0.9864797
vn -0.1638837 0 -0.9864797
vn 0 -1 1.728968E-07
vn 0 -1 0
vn 0 -1 0
vn -1.629678E-07 -1 0
vn 0 -1 2.332527E-07
vn 0 -1 6.447679E-07
vn 0.996577 0 -0.08267032
vn 0.9956679 0 -0.09297954
vn 0.9956679 0 -0.09297954
vn 0.996577 0 -0.08267031
vn 0.9956679 0 -0.09297951
vn 0.9956679 0 -0.09297951
vn 0.09323978 -2.873857E-07 0.9956437
vn 0 -2.886433E-07 1
vn 0 -2.886433E-07 1
vn 0.09323978 -2.873857E-07 0.9956437
vn 0.09323978 7.236193E-07 0.9956437
vn 0.09323978 7.236193E-07 0.9956437
vn 0.09323978 7.236193E-07 0.9956437
vn 0 1 0
vn 0 1 -2.552367E-07
vn 0 1 0
vn 0 1 -2.720132E-07
vn 0 -1 2.629413E-07
vn -1.87831E-07 -1 2.699259E-07
vn 0 -1 2.429952E-07
vn -1.701027E-07 -1 2.902767E-07
vn 0 1 0
vn 0 1 0
vn 0 1 0
vn 0 1 0
vn 0 -1 2.332527E-07
vn -2.167014E-07 -1 0
vn -1.629678E-07 -1 0
vn 0 -1 0
vn 0.996577 0 -0.08267032
vn 0.9977193 0 -0.06749776
vn 0.996577 0 -0.08267031
vn 0.9977193 0 -0.06749777
vn 0.9980361 0 -0.06264169
vn 0.9977193 0 -0.06749776
vn 0.9977193 0 -0.06749777
vn 0.9980361 0 -0.06264168
vn 0 1 0
vn 0 1 0
vn 0 1 0
vn 0 1 0
vn 0 -1 0
vn 0 -1 0
vn 0 -1 0
vn 0 -1 0
vn 0.2060192 0 0.9785479
vn 0.2060192 0 0.9785479
vn 0.2060192 0 0.9785479
vn 0.2060192 0 0.9785479
vn 0.9997578 0 -0.0220069
vn 0.9997578 0 -0.0220069
vn 0.9997578 0 -0.0220069
vn 0.9997578 0 -0.0220069
vn 0.1638837 0 -0.9864797
vn 0.1638837 0 -0.9864797
vn 0.1638837 0 -0.9864797
vn 0.1638837 0 -0.9864797
g Mask 01 Red_0
f 3/3/3 2/2/2 1/1/1
f 6/6/6 5/5/5 4/4/4
f 9/9/9 8/8/8 7/7/7
f 10/10/10 7/7/7 8/8/8
f 10/10/10 8/8/8 11/11/11
f 12/12/12 11/11/11 8/8/8
f 15/15/15 14/14/14 13/13/13
f 13/13/13 16/16/16 15/15/15
f 17/17/17 15/15/15 16/16/16
f 17/17/17 16/16/16 18/18/18
f 19/19/19 18/18/18 16/16/16
f 20/20/20 18/18/18 19/19/19
f 23/23/23 22/22/22 21/21/21
f 24/24/24 21/21/21 22/22/22
f 24/24/24 25/25/25 21/21/21
f 26/26/26 21/21/21 25/25/25
f 29/29/29 28/28/28 27/27/27
f 30/30/30 27/27/27 28/28/28
f 30/30/30 32/32/32 31/31/31
f 33/33/33 31/31/31 32/32/32
f 36/36/36 35/35/35 34/34/34
f 37/37/37 34/34/34 35/35/35
f 40/40/40 39/39/39 38/38/38
f 41/41/41 38/38/38 39/39/39
f 44/44/44 43/43/43 42/42/42
f 45/45/45 42/42/42 43/43/43
f 48/48/48 47/47/47 46/46/46
f 49/49/49 46/46/46 47/47/47
f 52/52/52 51/51/51 50/50/50
f 53/53/53 50/50/50 51/51/51
f 56/56/56 55/55/55 54/54/54
f 57/57/57 54/54/54 55/55/55
f 57/57/57 58/58/58 54/54/54
f 59/59/59 54/54/54 58/58/58
f 62/62/62 61/61/61 60/60/60
f 63/63/63 60/60/60 61/61/61
f 66/66/66 65/65/65 64/64/64
f 67/67/67 64/64/64 65/65/65
f 70/70/70 69/69/69 68/68/68
f 71/71/71 68/68/68 69/69/69
f 74/74/74 73/73/73 72/72/72
f 75/75/75 72/72/72 73/73/73
f 78/78/78 77/77/77 76/76/76
f 79/79/79 76/76/76 77/77/77
f 82/82/82 81/81/81 80/80/80
f 83/83/83 80/80/80 81/81/81
f 83/83/83 84/84/84 80/80/80
f 85/85/85 80/80/80 84/84/84
f 88/88/88 87/87/87 86/86/86
f 89/89/89 86/86/86 87/87/87
f 89/89/89 87/87/87 90/90/90
f 91/91/91 90/90/90 87/87/87
f 94/94/94 93/93/93 92/92/92
f 95/95/95 92/92/92 93/93/93
f 95/95/95 97/97/97 96/96/96
f 98/98/98 96/96/96 97/97/97
f 101/101/101 100/100/100 99/99/99
f 102/102/102 99/99/99 100/100/100
f 105/105/105 104/104/104 103/103/103
f 106/106/106 103/103/103 104/104/104
f 109/109/109 108/108/108 107/107/107
f 110/110/110 107/107/107 108/108/108
f 113/113/113 112/112/112 111/111/111
f 114/114/114 111/111/111 112/112/112
f 117/117/117 116/116/116 115/115/115
f 118/118/118 115/115/115 116/116/116
f 121/121/121 120/120/120 119/119/119
f 122/122/122 119/119/119 120/120/120
f 125/125/125 124/124/124 123/123/123
f 126/126/126 123/123/123 124/124/124
f 129/129/129 128/128/128 127/127/127
f 130/130/130 127/127/127 128/128/128
f 133/133/133 132/132/132 131/131/131
f 134/134/134 131/131/131 132/132/132
f 137/137/137 136/136/136 135/135/135
f 138/138/138 135/135/135 136/136/136
f 141/141/141 140/140/140 139/139/139
f 142/142/142 139/139/139 140/140/140
