g Robot Tanker Broken 08
v -0.02360846 0.03355684 -0.2444704
v 0.04350504 -0.03355673 -0.2444704
v 0.04350504 0.03355684 -0.2444704
v -0.02360838 -0.03355673 -0.2444704
v -0.02855184 -0.03872236 -0.174966
v 0.04350504 -0.03355673 -0.2444704
v -0.02360838 -0.03355673 -0.2444704
v 0.04931362 -0.03877119 -0.1746004
v -0.03688284 -0.04713016 -0.06105621
v 0.0580772 -0.04721142 -0.06003372
v -0.04253538 -0.05287924 0.05288238
v 0.06416225 -0.05298834 0.05450394
v -0.02360846 0.03355684 -0.2444704
v -0.02855184 -0.03872236 -0.174966
v -0.02360838 -0.03355673 -0.2444704
v -0.02855184 0.03872256 -0.174966
v -0.03688284 0.04713029 -0.06105606
v -0.03688284 -0.04713016 -0.06105621
v -0.04253538 0.05287927 0.05288254
v -0.04253538 -0.05287924 0.05288238
v 0.04350504 0.03355684 -0.2444704
v -0.02855184 0.03872256 -0.174966
v -0.02360846 0.03355684 -0.2444704
v 0.04931355 0.03877138 -0.1746004
v -0.03688284 0.04713029 -0.06105606
v 0.05807712 0.04721154 -0.06003372
v -0.04253538 0.05287927 0.05288254
v 0.06416225 0.05298838 0.05450394
v 0.04350504 -0.03355673 -0.2444704
v 0.04931355 0.03877138 -0.1746004
v 0.04350504 0.03355684 -0.2444704
v 0.04931362 -0.03877119 -0.1746004
v 0.0580772 -0.04721142 -0.06003372
v 0.05807712 0.04721154 -0.06003372
v 0.06416225 -0.05298834 0.05450394
v 0.06416225 0.05298838 0.05450394
v 0.08058552 -0.08126577 0.2444704
v -0.04742491 -0.05821188 0.1020448
v -0.08058553 -0.08097496 0.2426112
v 0.06744091 -0.05879347 0.1057631
v -0.04742491 -0.05821188 0.1020448
v -0.08058553 0.08097513 0.2426112
v -0.08058553 -0.08097496 0.2426112
v -0.04742498 0.05821215 0.1020448
v -0.04742498 0.05821215 0.1020448
v 0.08058552 0.08126577 0.2444704
v -0.08058553 0.08097513 0.2426112
v 0.06744091 0.0587935 0.1057629
v 0.06744091 0.0587935 0.1057629
v 0.08058552 -0.08126577 0.2444704
v 0.08058552 0.08126577 0.2444704
v 0.06744091 -0.05879347 0.1057631
v 0.06416225 -0.05298834 0.05450394
v -0.02261412 -0.03311704 0.07800277
v 0.04343553 -0.03332289 0.07959442
v -0.04253538 -0.05287924 0.05288238
v -0.04253538 -0.05287924 0.05288238
v -0.02261412 0.03311701 0.07800277
v -0.02261412 -0.03311704 0.07800277
v -0.04253538 0.05287927 0.05288254
v -0.04253538 0.05287927 0.05288254
v 0.04343553 0.033323 0.07959442
v -0.02261412 0.03311701 0.07800277
v 0.06416225 0.05298838 0.05450394
v 0.06416225 0.05298838 0.05450394
v 0.04343553 -0.03332289 0.07959442
v 0.04343553 0.033323 0.07959442
v 0.06416225 -0.05298834 0.05450394
v 0.04343553 -0.03332289 0.07959442
v -0.04742491 -0.05821188 0.1020448
v 0.06744091 -0.05879347 0.1057631
v -0.02261412 -0.03311704 0.07800277
v -0.02261412 -0.03311704 0.07800277
v -0.04742498 0.05821215 0.1020448
v -0.04742491 -0.05821188 0.1020448
v -0.02261412 0.03311701 0.07800277
v -0.02261412 0.03311701 0.07800277
v 0.06744091 0.0587935 0.1057629
v -0.04742498 0.05821215 0.1020448
v 0.04343553 0.033323 0.07959442
v 0.04343553 0.033323 0.07959442
v 0.06744091 -0.05879347 0.1057631
v 0.06744091 0.0587935 0.1057629
v 0.04343553 -0.03332289 0.07959442
v 0.08058552 0.08126577 0.2444704
v -0.08058553 -0.08097496 0.2426112
v -0.08058553 0.08097513 0.2426112
v 0.08058552 -0.08126577 0.2444704
vt 0.9477774 0.5060627
vt 0.966478 0.4873621
vt 0.966478 0.5060627
vt 0.9477774 0.4873621
vt 0.9672843 0.530797
vt 0.9476067 0.5113792
vt 0.9663074 0.5113792
vt 0.9459882 0.530797
vt 0.9700062 0.5626286
vt 0.9435463 0.5626286
vt 0.9713053 0.5944601
vt 0.9418508 0.5944601
vt 0.9477475 0.5113792
vt 0.9672843 0.530797
vt 0.9664481 0.5113792
vt 0.9453044 0.530797
vt 0.9433631 0.5626286
vt 0.969628 0.5626286
vt 0.9415604 0.5944601
vt 0.9713053 0.5944601
vt 0.9476067 0.5113792
vt 0.9672843 0.530797
vt 0.9663075 0.5113792
vt 0.9459883 0.530797
vt 0.9700062 0.5626286
vt 0.9435463 0.5626286
vt 0.9713053 0.5944601
vt 0.9418508 0.5944601
vt 0.9664481 0.5113792
vt 0.9452907 0.530797
vt 0.9477475 0.5113792
vt 0.9672843 0.530797
vt 0.9696505 0.5626286
vt 0.9433404 0.5626286
vt 0.9713053 0.5944601
vt 0.94153 0.5944601
vt 0.9372746 0.6473598
vt 0.9729438 0.6084511
vt 0.9769075 0.6473598
vt 0.9405253 0.6084511
vt 0.9727159 0.6084511
vt 0.9369435 0.6473598
vt 0.9769075 0.6473598
vt 0.9405253 0.6084511
vt 0.9729438 0.6084511
vt 0.9372746 0.6473598
vt 0.9769075 0.6473598
vt 0.9405253 0.6084511
vt 0.9405253 0.6084511
vt 0.9769075 0.6473598
vt 0.9368626 0.6473598
vt 0.9728779 0.6084511
vt 0.9418508 0.5944601
vt 0.9670769 0.6014557
vt 0.9480491 0.6014557
vt 0.9713053 0.5944601
vt 0.9713053 0.5944601
vt 0.9480491 0.6014557
vt 0.9670769 0.6014557
vt 0.9415604 0.5944601
vt 0.9713053 0.5944601
vt 0.9480491 0.6014557
vt 0.9670769 0.6014557
vt 0.9418508 0.5944601
vt 0.94153 0.5944601
vt 0.9670769 0.6014557
vt 0.9480491 0.6014557
vt 0.9713053 0.5944601
vt 0.9480491 0.6014557
vt 0.9729438 0.6084511
vt 0.9405253 0.6084511
vt 0.9670769 0.6014557
vt 0.9670769 0.6014557
vt 0.9405253 0.6084511
vt 0.9727159 0.6084511
vt 0.9480491 0.6014557
vt 0.9670769 0.6014557
vt 0.9405253 0.6084511
vt 0.9729438 0.6084511
vt 0.9480491 0.6014557
vt 0.9480491 0.6014557
vt 0.9728779 0.6084511
vt 0.9405253 0.6084511
vt 0.9670769 0.6014557
vt 0.9368626 0.6473598
vt 0.9769075 0.6473598
vt 0.9769075 0.6473598
vt 0.9372746 0.6473598
vn 0 0 -1
vn 0 0 -1
vn 0 0 -1
vn 0 0 -1
vn 0 -0.9972495 -0.07411656
vn 0 -0.9972495 -0.07411657
vn 0 -0.9972495 -0.07411657
vn -0.0002760106 -0.9972283 -0.07440112
vn -6.232903E-05 -0.9972977 -0.07346708
vn -6.232903E-05 -0.9972977 -0.07346707
vn -0.0002558802 -0.9987311 -0.05035922
vn -0.0002558803 -0.9987311 -0.05035922
vn -0.9974803 0 -0.07094421
vn -0.9974803 0 -0.07094421
vn -0.9974802 -1.133924E-06 -0.07094538
vn -0.9974803 0 -0.07094421
vn -0.9973361 1.180777E-07 -0.07294195
vn -0.9973361 1.180777E-07 -0.07294194
vn -0.9987716 0 -0.04954948
vn -0.9987716 0 -0.04954948
vn -0.0002760057 0.9972282 -0.07440223
vn -0.0002760057 0.9972282 -0.07440223
vn 0 0.9972494 -0.07411767
vn -0.0002760057 0.9972282 -0.07440222
vn -6.245397E-05 0.9972977 -0.07346645
vn -6.245397E-05 0.9972977 -0.07346646
vn -0.0002559631 0.9987312 -0.05035852
vn -0.000255963 0.9987312 -0.05035852
vn 0.9965622 9.805152E-07 -0.08284828
vn 0.9965622 9.805153E-07 -0.08284829
vn 0.9965622 0 -0.08284726
vn 0.9965622 9.805151E-07 -0.08284828
vn 0.9970872 8.056485E-07 -0.07627055
vn 0.9970872 8.056485E-07 -0.07627056
vn 0.9985917 0 -0.05305294
vn 0.9985917 0 -0.05305294
vn 6.261466E-05 -0.9871428 -0.1598414
vn 6.261466E-05 -0.9871428 -0.1598414
vn 6.261466E-05 -0.9871428 -0.1598414
vn 0.0001794359 -0.9871262 -0.1599437
vn -0.9732839 0 -0.2296047
vn -0.9732839 0 -0.2296047
vn -0.9732839 0 -0.2296047
vn -0.9732841 -6.378037E-07 -0.2296041
vn 6.365587E-05 0.9871429 -0.1598405
vn 6.365587E-05 0.9871429 -0.1598405
vn 6.365587E-05 0.9871429 -0.1598405
vn 0.0001811821 0.9871262 -0.1599434
vn 0.9955398 0 -0.09434233
vn 0.9955398 0 -0.09434232
vn 0.9955398 0 -0.09434231
vn 0.9955398 -1.224244E-07 -0.09434244
vn -0.01712484 -0.793761 0.6079885
vn -0.01712485 -0.793761 0.6079886
vn -0.01712484 -0.793761 0.6079885
vn -0.01027201 -0.781926 0.6232866
vn -0.7835251 0 0.6213602
vn -0.7835251 0 0.6213602
vn -0.7835251 0 0.6213602
vn -0.7835236 -8.964981E-07 0.621362
vn -0.01753305 0.7790146 0.6267605
vn -0.01753305 0.7790146 0.6267606
vn -0.01753305 0.7790146 0.6267606
vn -0.01010383 0.7910534 0.6116637
vn 0.7709649 0 0.6368778
vn 0.7709649 0 0.6368777
vn 0.7709649 0 0.6368777
vn 0.7709649 0 0.6368778
vn 0.01928337 -0.7075681 -0.706382
vn 0.01928337 -0.7075681 -0.706382
vn 0.01928337 -0.707568 -0.706382
vn 0.01503902 -0.6994326 -0.7145404
vn -0.6958936 -4.560266E-07 -0.718145
vn -0.6958935 -4.560266E-07 -0.718145
vn -0.6958935 -4.560266E-07 -0.718145
vn -0.6958927 0 -0.7181458
vn 0.01950389 0.7016494 -0.7122554
vn 0.0195039 0.7016494 -0.7122554
vn 0.01950389 0.7016494 -0.7122554
vn 0.01475924 0.7097206 -0.7043287
vn 0.7369081 -8.772088E-07 -0.6759929
vn 0.7369081 -8.772089E-07 -0.6759929
vn 0.7369081 -8.772089E-07 -0.6759929
vn 0.7369096 0 -0.6759912
vn -0.01153437 0 0.9999335
vn -0.01153438 0 0.9999335
vn -0.01153437 0 0.9999335
vn -0.01153437 0 0.9999335
g Robot Tanker Broken 08_0
f 3/3/3 2/2/2 1/1/1
f 4/4/4 1/1/1 2/2/2
f 7/7/7 6/6/6 5/5/5
f 8/8/8 5/5/5 6/6/6
f 5/5/5 8/8/8 9/9/9
f 10/10/10 9/9/9 8/8/8
f 9/9/9 10/10/10 11/11/11
f 12/12/12 11/11/11 10/10/10
f 15/15/15 14/14/14 13/13/13
f 16/16/16 13/13/13 14/14/14
f 16/16/16 14/14/14 17/17/17
f 18/18/18 17/17/17 14/14/14
f 17/17/17 18/18/18 19/19/19
f 20/20/20 19/19/19 18/18/18
f 23/23/23 22/22/22 21/21/21
f 24/24/24 21/21/21 22/22/22
f 22/22/22 25/25/25 24/24/24
f 26/26/26 24/24/24 25/25/25
f 25/25/25 27/27/27 26/26/26
f 28/28/28 26/26/26 27/27/27
f 31/31/31 30/30/30 29/29/29
f 32/32/32 29/29/29 30/30/30
f 32/32/32 30/30/30 33/33/33
f 34/34/34 33/33/33 30/30/30
f 33/33/33 34/34/34 35/35/35
f 36/36/36 35/35/35 34/34/34
f 39/39/39 38/38/38 37/37/37
f 40/40/40 37/37/37 38/38/38
f 43/43/43 42/42/42 41/41/41
f 44/44/44 41/41/41 42/42/42
f 47/47/47 46/46/46 45/45/45
f 48/48/48 45/45/45 46/46/46
f 51/51/51 50/50/50 49/49/49
f 52/52/52 49/49/49 50/50/50
f 55/55/55 54/54/54 53/53/53
f 56/56/56 53/53/53 54/54/54
f 59/59/59 58/58/58 57/57/57
f 60/60/60 57/57/57 58/58/58
f 63/63/63 62/62/62 61/61/61
f 64/64/64 61/61/61 62/62/62
f 67/67/67 66/66/66 65/65/65
f 68/68/68 65/65/65 66/66/66
f 71/71/71 70/70/70 69/69/69
f 72/72/72 69/69/69 70/70/70
f 75/75/75 74/74/74 73/73/73
f 76/76/76 73/73/73 74/74/74
f 79/79/79 78/78/78 77/77/77
f 80/80/80 77/77/77 78/78/78
f 83/83/83 82/82/82 81/81/81
f 84/84/84 81/81/81 82/82/82
f 87/87/87 86/86/86 85/85/85
f 88/88/88 85/85/85 86/86/86
