g Robot Roller Broken 05
v -0.1389526 0.2406729 -0.09250434
v -0.2779051 -4.11272E-08 -0.06325241
v -0.1389526 -0.240673 -0.09250434
v 0.1389526 0.2406729 -0.09250434
v 0.1389526 -0.240673 -0.09250434
v 0.2779051 -4.11272E-08 -0.06325241
v 0 0.189116 0.2130656
v -0.2183722 -2.339482E-08 0.2130656
v -0.1091861 0.189116 0.2130656
v 0.2183722 -2.339482E-08 0.2130656
v 0.1091861 0.189116 0.2130656
v -0.2183722 -2.339482E-08 0.2130656
v 0 -0.1891158 0.2130656
v -0.1091861 -0.1891158 0.2130656
v -0.2183722 -2.339482E-08 0.2130656
v 0 -1.907349E-08 0.2130656
v 0 0.189116 0.2130656
v 0 -0.1891158 0.2130656
v 0.2183722 -2.339482E-08 0.2130656
v 0.1091861 -0.1891158 0.2130656
v 0.2183722 -2.339482E-08 0.2130656
v 0 -1.907349E-08 0.2130656
v 0 0.189116 0.2130656
v -0.1857774 0.03263876 0.01438034
v -0.1669333 -8.240342E-08 -0.2130657
v -0.1669333 -8.09133E-08 0.01438034
v -0.1857774 0.03263876 -0.2130657
v -0.2234655 0.03263876 0.01438034
v -0.1857774 0.03263876 -0.2130657
v -0.1857774 0.03263876 0.01438034
v -0.2234655 0.03263875 -0.2130657
v -0.2423095 -8.486211E-08 0.01438034
v -0.2234655 0.03263875 -0.2130657
v -0.2234655 0.03263876 0.01438034
v -0.2423095 -8.635223E-08 -0.2130657
v -0.2234655 -0.03263892 0.01438034
v -0.2423095 -8.635223E-08 -0.2130657
v -0.2423095 -8.486211E-08 0.01438034
v -0.2234655 -0.03263893 -0.2130657
v -0.1857774 -0.03263892 0.01438034
v -0.2234655 -0.03263893 -0.2130657
v -0.2234655 -0.03263892 0.01438034
v -0.1857774 -0.03263893 -0.2130657
v -0.1669333 -8.09133E-08 0.01438034
v -0.1857774 -0.03263893 -0.2130657
v -0.1857774 -0.03263892 0.01438034
v -0.1669333 -8.240342E-08 -0.2130657
v 0.1857774 0.03263876 -0.1372504
v 0.1669333 -8.09133E-08 0.01438034
v 0.1669333 -8.195639E-08 -0.1372504
v 0.1857774 0.03263876 0.01438034
v 0.2234655 0.03263875 -0.1372504
v 0.1857774 0.03263876 0.01438034
v 0.1857774 0.03263876 -0.1372504
v 0.2234655 0.03263876 0.01438034
v 0.2423095 -8.583068E-08 -0.1372504
v 0.2234655 0.03263876 0.01438034
v 0.2234655 0.03263875 -0.1372504
v 0.2423095 -8.486211E-08 0.01438034
v 0.2234655 -0.03263893 -0.1372504
v 0.2423095 -8.486211E-08 0.01438034
v 0.2423095 -8.583068E-08 -0.1372504
v 0.2234655 -0.03263892 0.01438034
v 0.1857774 -0.03263893 -0.1372504
v 0.2234655 -0.03263892 0.01438034
v 0.2234655 -0.03263893 -0.1372504
v 0.1857774 -0.03263892 0.01438034
v 0.1669333 -8.195639E-08 -0.1372504
v 0.1857774 -0.03263892 0.01438034
v 0.1857774 -0.03263893 -0.1372504
v 0.1669333 -8.09133E-08 0.01438034
v -0.2779051 -4.11272E-08 -0.06325241
v -0.1389526 0.240673 0.1643549
v -0.2779052 -3.293157E-08 0.1643549
v -0.1389526 0.2406729 -0.09250434
v -0.1389526 -0.240673 -0.09250434
v -0.2779052 -3.293157E-08 0.1643549
v -0.1389526 -0.240673 0.1643549
v -0.2779051 -4.11272E-08 -0.06325241
v 0 -0.240673 -0.09250434
v -0.1389526 -0.240673 0.1643549
v 0 -0.240673 0.1643549
v -0.1389526 -0.240673 -0.09250434
v 0 0.240673 -0.09250434
v -0.1151924 0.1160471 -0.1725317
v 0 0.1160471 -0.1725317
v -0.1389526 0.2406729 -0.09250434
v -0.1178983 0.2042059 0.1655683
v 0 0.240673 0.1643549
v 0 0.2042059 0.1655683
v -0.1389526 0.240673 0.1643549
v -0.2357966 -2.533197E-08 0.1655683
v -0.2779052 -3.293157E-08 0.1643549
v -0.1178982 -0.2042058 0.1655684
v -0.2779052 -3.293157E-08 0.1643549
v -0.2357966 -2.533197E-08 0.1655683
v -0.1389526 -0.240673 0.1643549
v 0 -0.240673 0.1643549
v 0 -0.2042058 0.1655684
v -0.1091861 0.189116 0.2130656
v 0 0.2042059 0.1655683
v 0 0.189116 0.2130656
v -0.1178983 0.2042059 0.1655683
v -0.2183722 -2.339482E-08 0.2130656
v -0.1178983 0.2042059 0.1655683
v -0.1091861 0.189116 0.2130656
v -0.2357966 -2.533197E-08 0.1655683
v -0.1091861 -0.1891158 0.2130656
v -0.2357966 -2.533197E-08 0.1655683
v -0.2183722 -2.339482E-08 0.2130656
v -0.1178982 -0.2042058 0.1655684
v -0.1389526 0.2406729 -0.09250434
v 0 0.240673 0.1643549
v -0.1389526 0.240673 0.1643549
v 0 0.240673 -0.09250434
v 0 -0.240673 -0.09250434
v -0.1151923 -0.1160471 -0.1725317
v -0.1389526 -0.240673 -0.09250434
v 0 -0.1160471 -0.1725317
v -0.1151923 -0.1160471 -0.1725317
v 0 0.1160471 -0.1725317
v -0.1151924 0.1160471 -0.1725317
v 0 -0.1160471 -0.1725317
v -0.1151924 0.1160471 -0.1725317
v -0.1389526 -0.240673 -0.09250434
v -0.1151923 -0.1160471 -0.1725317
v -0.1389526 0.2406729 -0.09250434
v -0.1178982 -0.2042058 0.1655684
v 0 -0.1891158 0.2130656
v 0 -0.2042058 0.1655684
v -0.1091861 -0.1891158 0.2130656
v 0.2779051 -4.11272E-08 -0.06325241
v 0.1389526 0.240673 0.1643549
v 0.1389526 0.2406729 -0.09250434
v 0.2779052 -3.293157E-08 0.1643549
v 0.1389526 -0.240673 -0.09250434
v 0.2779052 -3.293157E-08 0.1643549
v 0.2779051 -4.11272E-08 -0.06325241
v 0.1389526 -0.240673 0.1643549
v 0 -0.240673 -0.09250434
v 0.1389526 -0.240673 0.1643549
v 0.1389526 -0.240673 -0.09250434
v 0 -0.240673 0.1643549
v 0 0.240673 -0.09250434
v 0.1151924 0.1160471 -0.1725317
v 0.1389526 0.2406729 -0.09250434
v 0 0.1160471 -0.1725317
v 0 0.240673 0.1643549
v 0.1178983 0.2042059 0.1655683
v 0 0.2042059 0.1655683
v 0.1389526 0.240673 0.1643549
v 0.2357966 -2.533197E-08 0.1655683
v 0.2779052 -3.293157E-08 0.1643549
v 0.2779052 -3.293157E-08 0.1643549
v 0.1178982 -0.2042058 0.1655684
v 0.2357966 -2.533197E-08 0.1655683
v 0.1389526 -0.240673 0.1643549
v 0 -0.240673 0.1643549
v 0 -0.2042058 0.1655684
v 0.1091861 0.189116 0.2130656
v 0 0.2042059 0.1655683
v 0.1178983 0.2042059 0.1655683
v 0 0.189116 0.2130656
v 0.2183722 -2.339482E-08 0.2130656
v 0.1178983 0.2042059 0.1655683
v 0.2357966 -2.533197E-08 0.1655683
v 0.1091861 0.189116 0.2130656
v 0.1091861 -0.1891158 0.2130656
v 0.2357966 -2.533197E-08 0.1655683
v 0.1178982 -0.2042058 0.1655684
v 0.2183722 -2.339482E-08 0.2130656
v 0.1389526 0.2406729 -0.09250434
v 0 0.240673 0.1643549
v 0 0.240673 -0.09250434
v 0.1389526 0.240673 0.1643549
v 0 -0.240673 -0.09250434
v 0.1151923 -0.1160471 -0.1725317
v 0 -0.1160471 -0.1725317
v 0.1389526 -0.240673 -0.09250434
v 0.1151923 -0.1160471 -0.1725317
v 0 0.1160471 -0.1725317
v 0 -0.1160471 -0.1725317
v 0.1151924 0.1160471 -0.1725317
v 0.1151924 0.1160471 -0.1725317
v 0.1389526 -0.240673 -0.09250434
v 0.1389526 0.2406729 -0.09250434
v 0.1151923 -0.1160471 -0.1725317
v 0.1178982 -0.2042058 0.1655684
v 0 -0.1891158 0.2130656
v 0.1091861 -0.1891158 0.2130656
v 0 -0.2042058 0.1655684
v 0.2234655 -0.03263893 -0.1372504
v 0.1669333 -8.195639E-08 -0.1372504
v 0.1857774 -0.03263893 -0.1372504
v 0.2423095 -8.583068E-08 -0.1372504
v 0.1857774 0.03263876 -0.1372504
v 0.2234655 0.03263875 -0.1372504
v -0.1857774 -0.03263893 -0.2130657
v -0.2423095 -8.635223E-08 -0.2130657
v -0.2234655 -0.03263893 -0.2130657
v -0.1669333 -8.240342E-08 -0.2130657
v -0.2234655 0.03263875 -0.2130657
v -0.1857774 0.03263876 -0.2130657
vt 0.9373748 0.4941955
vt 0.9881376 0.4062719
vt 0.9373748 0.318348
vt 0.9373748 0.4941955
vt 0.9373748 0.318348
vt 0.9881376 0.4062719
vt 0.2992638 0.3961418
vt 0.08605272 0.3961418
vt 0.2135745 0.3961418
vt 0.08605272 0.3961418
vt 0.2135745 0.3961418
vt 0.08605272 0.3961418
vt 0.2992637 0.3961421
vt 0.2135744 0.3961421
vt 0.08605272 0.3961418
vt 0.2992638 0.396142
vt 0.2992638 0.3961418
vt 0.2992637 0.3961421
vt 0.08605272 0.3961418
vt 0.2135744 0.3961421
vt 0.08605272 0.3961418
vt 0.2992638 0.396142
vt 0.2992638 0.3961418
vt 0.3788662 0.4203632
vt 0.3997217 0.2418633
vt 0.3997217 0.4203632
vt 0.3788662 0.2418633
vt 0.3492885 0.4203632
vt 0.3788662 0.2418633
vt 0.3788662 0.4203632
vt 0.3492885 0.2418633
vt 0.3218329 0.4203632
vt 0.3492885 0.2418633
vt 0.3492885 0.4203632
vt 0.3218329 0.2418633
vt 0.3492885 0.4203632
vt 0.3218329 0.2418633
vt 0.3218329 0.4203632
vt 0.3492885 0.2418633
vt 0.378866 0.4203632
vt 0.3492885 0.2418633
vt 0.3492885 0.4203632
vt 0.378866 0.2418633
vt 0.3997217 0.4203632
vt 0.378866 0.2418633
vt 0.378866 0.4203632
vt 0.3997217 0.2418633
vt 0.3788662 0.3013632
vt 0.3997217 0.4203632
vt 0.3997217 0.3013632
vt 0.3788662 0.4203632
vt 0.3492885 0.3013632
vt 0.3788662 0.4203632
vt 0.3788662 0.3013632
vt 0.3492885 0.4203632
vt 0.3218329 0.3013632
vt 0.3492885 0.4203632
vt 0.3492885 0.3013632
vt 0.3218329 0.4203632
vt 0.3492885 0.3013632
vt 0.3218329 0.4203632
vt 0.3218329 0.3013632
vt 0.3492885 0.4203632
vt 0.378866 0.3013632
vt 0.3492885 0.4203632
vt 0.3492885 0.3013632
vt 0.378866 0.4203632
vt 0.3997217 0.3013632
vt 0.378866 0.4203632
vt 0.378866 0.3013632
vt 0.3997217 0.4203632
vt 0.03933124 0.1514588
vt 0.1902137 0.3300851
vt 0.0393312 0.3300851
vt 0.1902137 0.1285017
vt 0.1877384 0.1285017
vt 0.0393312 0.3300851
vt 0.1877384 0.3300854
vt 0.03933124 0.1514588
vt 0.2967885 0.1285017
vt 0.1877384 0.3300854
vt 0.2967885 0.3300854
vt 0.1877384 0.1285017
vt 0.2992638 0.1285017
vt 0.2088607 0.03640306
vt 0.2992638 0.03640306
vt 0.1902137 0.1285017
vt 0.2067371 0.3588661
vt 0.2992638 0.3300851
vt 0.2992638 0.3588661
vt 0.1902137 0.3300851
vt 0.0723781 0.3588661
vt 0.0393312 0.3300851
vt 0.2067371 0.3588661
vt 0.0393312 0.3300851
vt 0.0723781 0.3588661
vt 0.1877384 0.3300854
vt 0.2967885 0.3300854
vt 0.2992637 0.3588661
vt 0.2135745 0.3961418
vt 0.2992638 0.3588661
vt 0.2992638 0.3961418
vt 0.2067371 0.3588661
vt 0.08605272 0.3961418
vt 0.2067371 0.3588661
vt 0.2135745 0.3961418
vt 0.0723781 0.3588661
vt 0.2135744 0.3961421
vt 0.0723781 0.3588661
vt 0.08605272 0.3961418
vt 0.2067371 0.3588661
vt 0.1902137 0.1285017
vt 0.2992638 0.3300851
vt 0.1902137 0.3300851
vt 0.2992638 0.1285017
vt 0.2967885 0.1285017
vt 0.2088607 0.03640306
vt 0.1877384 0.1285017
vt 0.2992638 0.03640306
vt 0.9056496 0.363877
vt 0.863567 0.4486667
vt 0.9056496 0.4486667
vt 0.8635671 0.363877
vt 0.9056496 0.4486667
vt 0.9373748 0.318348
vt 0.9056496 0.363877
vt 0.9373748 0.4941955
vt 0.2067371 0.3588661
vt 0.2992637 0.3961421
vt 0.2992637 0.3588661
vt 0.2135744 0.3961421
vt 0.03933124 0.1514588
vt 0.1902137 0.3300851
vt 0.1902137 0.1285017
vt 0.0393312 0.3300851
vt 0.1877384 0.1285017
vt 0.0393312 0.3300851
vt 0.03933124 0.1514588
vt 0.1877384 0.3300854
vt 0.2967885 0.1285017
vt 0.1877384 0.3300854
vt 0.1877384 0.1285017
vt 0.2967885 0.3300854
vt 0.2992638 0.1285017
vt 0.2088607 0.03640306
vt 0.1902137 0.1285017
vt 0.2992638 0.03640306
vt 0.2992638 0.3300851
vt 0.2067371 0.3588661
vt 0.2992638 0.3588661
vt 0.1902137 0.3300851
vt 0.0723781 0.3588661
vt 0.0393312 0.3300851
vt 0.0393312 0.3300851
vt 0.2067371 0.3588661
vt 0.0723781 0.3588661
vt 0.1877384 0.3300854
vt 0.2967885 0.3300854
vt 0.2992637 0.3588661
vt 0.2135745 0.3961418
vt 0.2992638 0.3588661
vt 0.2067371 0.3588661
vt 0.2992638 0.3961418
vt 0.08605272 0.3961418
vt 0.2067371 0.3588661
vt 0.0723781 0.3588661
vt 0.2135745 0.3961418
vt 0.2135744 0.3961421
vt 0.0723781 0.3588661
vt 0.2067371 0.3588661
vt 0.08605272 0.3961418
vt 0.1902137 0.1285017
vt 0.2992638 0.3300851
vt 0.2992638 0.1285017
vt 0.1902137 0.3300851
vt 0.2967885 0.1285017
vt 0.2088607 0.03640306
vt 0.2992638 0.03640306
vt 0.1877384 0.1285017
vt 0.9056496 0.363877
vt 0.863567 0.4486667
vt 0.8635671 0.363877
vt 0.9056496 0.4486667
vt 0.9056496 0.4486667
vt 0.9373748 0.318348
vt 0.9373748 0.4941955
vt 0.9056496 0.363877
vt 0.2067371 0.3588661
vt 0.2992637 0.3961421
vt 0.2135744 0.3961421
vt 0.2992637 0.3588661
vt 0.3492885 0.3013632
vt 0.3997217 0.3013632
vt 0.378866 0.3013632
vt 0.3218329 0.3013632
vt 0.3788662 0.3013632
vt 0.3492885 0.3013632
vt 0.378866 0.2418633
vt 0.3218329 0.2418633
vt 0.3492885 0.2418633
vt 0.3997217 0.2418633
vt 0.3492885 0.2418633
vt 0.3788662 0.2418633
vn -0.2060022 0 -0.9785516
vn -0.2060022 0 -0.9785516
vn -0.2060022 0 -0.9785516
vn 0.2060022 0 -0.9785516
vn 0.2060022 0 -0.9785516
vn 0.2060022 0 -0.9785516
vn 0 0 1
vn 0 0 1
vn 0 0 1
vn 0 0 1
vn 0 0 1
vn 0 4.034245E-07 1
vn 0 4.034245E-07 1
vn 0 4.034245E-07 1
vn -3.493756E-07 4.034241E-07 1
vn -3.493756E-07 4.034241E-07 1
vn -3.493756E-07 4.034241E-07 1
vn 0 4.034245E-07 1
vn 0 4.034245E-07 1
vn 0 4.034245E-07 1
vn 3.493756E-07 4.034241E-07 1
vn 3.493756E-07 4.034241E-07 1
vn 3.493756E-07 4.034241E-07 1
vn 0.8660253 0.5000002 0
vn 0.8660253 0.5000002 0
vn 0.8660253 0.5000002 0
vn 0.8660253 0.5000001 0
vn 0 1 0
vn 0 1 0
vn 0 1 0
vn -1.897831E-07 1 0
vn -0.8660256 0.4999998 0
vn -0.8660256 0.4999997 0
vn -0.8660256 0.4999998 0
vn -0.8660253 0.5000002 0
vn -0.8660253 -0.5000002 0
vn -0.8660253 -0.5000002 0
vn -0.8660253 -0.5000002 0
vn -0.8660253 -0.5000002 0
vn 0 -1 0
vn 0 -1 0
vn 0 -1 0
vn 0 -1 0
vn 0.8660253 -0.5000002 0
vn 0.8660253 -0.5000002 0
vn 0.8660253 -0.5000002 0
vn 0.8660253 -0.5000002 0
vn -0.8660253 0.5000002 0
vn -0.8660253 0.5000001 0
vn -0.8660253 0.5000002 0
vn -0.8660253 0.5000002 0
vn 1.265221E-07 1 0
vn 1.265221E-07 1 0
vn 1.265221E-07 1 0
vn 0 1 0
vn 0.8660253 0.5000002 -1.246602E-07
vn 0.8660253 0.5000001 -1.246602E-07
vn 0.8660253 0.5000002 -1.246602E-07
vn 0.8660256 0.4999997 0
vn 0.8660253 -0.5000001 0
vn 0.8660253 -0.5000002 0
vn 0.8660253 -0.5000002 0
vn 0.8660253 -0.5000002 0
vn 0 -1 0
vn 0 -1 0
vn 0 -1 0
vn 0 -1 0
vn -0.8660253 -0.5000001 0
vn -0.8660253 -0.5000002 0
vn -0.8660253 -0.5000002 0
vn -0.8660253 -0.5000002 0
vn -0.8660255 0.4999999 -3.082956E-07
vn -0.8660254 0.4999999 -3.082956E-07
vn -0.8660255 0.4999999 -3.082956E-07
vn -0.8660255 0.4999997 -1.064106E-07
vn -0.8660254 -0.5000001 0
vn -0.8660253 -0.5000001 0
vn -0.8660253 -0.5000001 0
vn -0.8660255 -0.4999999 -2.722878E-07
vn 0 -1 0
vn 0 -1 0
vn 0 -1 0
vn 0 -1 0
vn -6.020426E-07 0.5403309 -0.8414525
vn -6.020426E-07 0.540331 -0.8414525
vn -6.020426E-07 0.540331 -0.8414525
vn -1.483382E-07 0.5403306 -0.8414527
vn 0 0.03325687 0.9994468
vn 0 0.03325687 0.9994468
vn 0 0.03325687 0.9994468
vn 0 0.0332569 0.9994468
vn -0.02880133 0.01662845 0.9994468
vn -0.02880131 0.01662844 0.9994468
vn -0.0288013 -0.01662808 0.9994468
vn -0.0288013 -0.01662808 0.9994468
vn -0.0288013 -0.01662808 0.9994468
vn -0.02880308 -0.01662946 0.9994468
vn 0 -0.03325887 0.9994468
vn 0 -0.03325887 0.9994468
vn 0 0.9530582 0.3027869
vn 0 0.9530582 0.3027869
vn 0 0.9530582 0.3027869
vn 0 0.9530582 0.3027869
vn -0.8253726 0.4765289 0.3027873
vn -0.8253726 0.4765289 0.3027873
vn -0.8253726 0.4765289 0.3027874
vn -0.8253727 0.4765289 0.3027871
vn -0.8253725 -0.4765294 0.302787
vn -0.8253725 -0.4765294 0.302787
vn -0.8253725 -0.4765294 0.302787
vn -0.8253724 -0.4765291 0.3027875
vn -2.745322E-07 1 -1.485132E-07
vn -2.745322E-07 1 -1.485132E-07
vn -2.745322E-07 1 -1.485132E-07
vn -2.745323E-07 1 -1.485132E-07
vn 0 -0.540331 -0.8414525
vn 0 -0.5403309 -0.8414525
vn 0 -0.540331 -0.8414525
vn 0 -0.540331 -0.8414525
vn -6.623176E-07 3.287197E-07 -1
vn -6.623175E-07 3.287197E-07 -1
vn -6.623177E-07 3.287197E-07 -1
vn 0 0 -1
vn -0.95864 0 -0.2846212
vn -0.95864 0 -0.2846212
vn -0.95864 0 -0.2846212
vn -0.9586399 0 -0.2846215
vn 0 -0.9530579 0.302788
vn 0 -0.9530579 0.302788
vn 0 -0.9530579 0.302788
vn 0 -0.9530579 0.3027879
vn 0.8660255 0.4999997 -1.064106E-07
vn 0.8660256 0.4999998 -1.064106E-07
vn 0.8660255 0.4999997 -1.064106E-07
vn 0.8660255 0.4999999 -3.082956E-07
vn 0.8660255 -0.4999999 -2.722878E-07
vn 0.8660255 -0.4999999 -2.722878E-07
vn 0.8660255 -0.4999999 -2.722878E-07
vn 0.8660253 -0.5000001 0
vn 0 -1 0
vn 0 -1 0
vn 0 -1 0
vn 0 -1 0
vn 1.483382E-07 0.5403307 -0.8414527
vn 1.483382E-07 0.5403306 -0.8414527
vn 1.483382E-07 0.5403306 -0.8414527
vn 6.020426E-07 0.540331 -0.8414525
vn 0 0.0332569 0.9994468
vn 0 0.0332569 0.9994468
vn 0 0.03325687 0.9994468
vn 0 0.0332569 0.9994468
vn 0.0288013 0.01662844 0.9994468
vn 0.02880131 0.01662844 0.9994468
vn 0.02880308 -0.01662946 0.9994468
vn 0.02880308 -0.01662946 0.9994468
vn 0.0288013 -0.01662808 0.9994468
vn 0.02880308 -0.01662946 0.9994468
vn 0 -0.03325887 0.9994468
vn 0 -0.03325887 0.9994468
vn 0 0.9530582 0.3027869
vn 0 0.9530584 0.3027869
vn 0 0.9530582 0.3027869
vn 0 0.9530582 0.3027869
vn 0.8253727 0.4765289 0.3027871
vn 0.8253727 0.4765289 0.3027871
vn 0.8253727 0.4765289 0.3027871
vn 0.8253726 0.4765289 0.3027874
vn 0.8253724 -0.4765291 0.3027875
vn 0.8253724 -0.4765292 0.3027875
vn 0.8253724 -0.4765291 0.3027875
vn 0.8253725 -0.4765294 0.302787
vn 2.745323E-07 1 -1.485132E-07
vn 2.745323E-07 1 -1.485132E-07
vn 2.745323E-07 1 -1.485132E-07
vn 2.745322E-07 1 -1.485132E-07
vn 0 -0.540331 -0.8414525
vn 0 -0.540331 -0.8414525
vn 0 -0.540331 -0.8414525
vn 0 -0.540331 -0.8414525
vn 0 0 -1
vn 0 0 -1
vn 0 0 -1
vn 6.623177E-07 3.287197E-07 -1
vn 0.9586399 0 -0.2846215
vn 0.95864 0 -0.2846215
vn 0.9586399 0 -0.2846215
vn 0.95864 0 -0.2846212
vn 0 -0.9530579 0.3027879
vn 0 -0.9530579 0.302788
vn 0 -0.9530579 0.3027879
vn 0 -0.9530579 0.302788
vn 0 0 -1
vn 0 0 -1
vn 0 0 -1
vn 0 0 -1
vn 0 0 -1
vn 0 0 -1
vn 0 0 -1
vn 0 0 -1
vn 0 0 -1
vn 0 0 -1
vn 0 0 -1
vn 0 0 -1
g Robot Roller Broken 05_0
f 3/3/3 2/2/2 1/1/1
f 6/6/6 5/5/5 4/4/4
f 9/9/9 8/8/8 7/7/7
f 11/11/11 7/7/7 10/10/10
f 14/14/14 13/13/13 12/12/12
f 16/16/16 15/15/15 13/13/13
f 16/16/16 17/17/17 15/15/15
f 20/20/20 19/19/19 18/18/18
f 22/22/22 18/18/18 21/21/21
f 22/22/22 21/21/21 23/23/23
f 26/26/26 25/25/25 24/24/24
f 27/27/27 24/24/24 25/25/25
f 30/30/30 29/29/29 28/28/28
f 31/31/31 28/28/28 29/29/29
f 34/34/34 33/33/33 32/32/32
f 35/35/35 32/32/32 33/33/33
f 38/38/38 37/37/37 36/36/36
f 39/39/39 36/36/36 37/37/37
f 42/42/42 41/41/41 40/40/40
f 43/43/43 40/40/40 41/41/41
f 46/46/46 45/45/45 44/44/44
f 47/47/47 44/44/44 45/45/45
f 50/50/50 49/49/49 48/48/48
f 51/51/51 48/48/48 49/49/49
f 54/54/54 53/53/53 52/52/52
f 55/55/55 52/52/52 53/53/53
f 58/58/58 57/57/57 56/56/56
f 59/59/59 56/56/56 57/57/57
f 62/62/62 61/61/61 60/60/60
f 63/63/63 60/60/60 61/61/61
f 66/66/66 65/65/65 64/64/64
f 67/67/67 64/64/64 65/65/65
f 70/70/70 69/69/69 68/68/68
f 71/71/71 68/68/68 69/69/69
f 74/74/74 73/73/73 72/72/72
f 75/75/75 72/72/72 73/73/73
f 78/78/78 77/77/77 76/76/76
f 79/79/79 76/76/76 77/77/77
f 82/82/82 81/81/81 80/80/80
f 83/83/83 80/80/80 81/81/81
f 86/86/86 85/85/85 84/84/84
f 87/87/87 84/84/84 85/85/85
f 90/90/90 89/89/89 88/88/88
f 91/91/91 88/88/88 89/89/89
f 88/88/88 91/91/91 92/92/92
f 93/93/93 92/92/92 91/91/91
f 96/96/96 95/95/95 94/94/94
f 97/97/97 94/94/94 95/95/95
f 97/97/97 98/98/98 94/94/94
f 99/99/99 94/94/94 98/98/98
f 102/102/102 101/101/101 100/100/100
f 103/103/103 100/100/100 101/101/101
f 106/106/106 105/105/105 104/104/104
f 107/107/107 104/104/104 105/105/105
f 110/110/110 109/109/109 108/108/108
f 111/111/111 108/108/108 109/109/109
f 114/114/114 113/113/113 112/112/112
f 115/115/115 112/112/112 113/113/113
f 118/118/118 117/117/117 116/116/116
f 119/119/119 116/116/116 117/117/117
f 122/122/122 121/121/121 120/120/120
f 123/123/123 120/120/120 121/121/121
f 126/126/126 125/125/125 124/124/124
f 127/127/127 124/124/124 125/125/125
f 130/130/130 129/129/129 128/128/128
f 131/131/131 128/128/128 129/129/129
f 134/134/134 133/133/133 132/132/132
f 135/135/135 132/132/132 133/133/133
f 138/138/138 137/137/137 136/136/136
f 139/139/139 136/136/136 137/137/137
f 142/142/142 141/141/141 140/140/140
f 143/143/143 140/140/140 141/141/141
f 146/146/146 145/145/145 144/144/144
f 147/147/147 144/144/144 145/145/145
f 150/150/150 149/149/149 148/148/148
f 151/151/151 148/148/148 149/149/149
f 149/149/149 152/152/152 151/151/151
f 153/153/153 151/151/151 152/152/152
f 156/156/156 155/155/155 154/154/154
f 157/157/157 154/154/154 155/155/155
f 157/157/157 155/155/155 158/158/158
f 159/159/159 158/158/158 155/155/155
f 162/162/162 161/161/161 160/160/160
f 163/163/163 160/160/160 161/161/161
f 166/166/166 165/165/165 164/164/164
f 167/167/167 164/164/164 165/165/165
f 170/170/170 169/169/169 168/168/168
f 171/171/171 168/168/168 169/169/169
f 174/174/174 173/173/173 172/172/172
f 175/175/175 172/172/172 173/173/173
f 178/178/178 177/177/177 176/176/176
f 179/179/179 176/176/176 177/177/177
f 182/182/182 181/181/181 180/180/180
f 183/183/183 180/180/180 181/181/181
f 186/186/186 185/185/185 184/184/184
f 187/187/187 184/184/184 185/185/185
f 190/190/190 189/189/189 188/188/188
f 191/191/191 188/188/188 189/189/189
f 194/194/194 193/193/193 192/192/192
f 195/195/195 192/192/192 193/193/193
f 193/193/193 196/196/196 195/195/195
f 197/197/197 195/195/195 196/196/196
f 200/200/200 199/199/199 198/198/198
f 201/201/201 198/198/198 199/199/199
f 199/199/199 202/202/202 201/201/201
f 203/203/203 201/201/201 202/202/202
