g Robot Tanker Broken 09
v 0.03442188 0.03355682 -0.1620324
v -0.03269161 -0.03355675 -0.1620324
v 0.03442181 -0.03355675 -0.1620324
v -0.03269161 0.03355682 -0.1620324
v -0.03269161 -0.03355675 -0.1620324
v 0.03936527 -0.03872238 -0.092528
v 0.03442181 -0.03355675 -0.1620324
v -0.03850017 -0.03877121 -0.0921624
v 0.04769627 -0.04713018 0.02138176
v -0.04726376 -0.04721144 0.02240425
v 0.05334881 -0.05287926 0.1353204
v -0.05334881 -0.05298836 0.1369419
v 0.03936527 -0.03872238 -0.092528
v 0.03442188 0.03355682 -0.1620324
v 0.03442181 -0.03355675 -0.1620324
v 0.03936527 0.03872253 -0.092528
v 0.04769627 0.04713026 0.02138191
v 0.04769627 -0.04713018 0.02138176
v 0.05334881 0.05287926 0.1353205
v 0.05334881 -0.05287926 0.1353204
v 0.03936527 0.03872253 -0.092528
v -0.03269161 0.03355682 -0.1620324
v 0.03442188 0.03355682 -0.1620324
v -0.0385001 0.03877136 -0.0921624
v 0.04769627 0.04713026 0.02138191
v -0.04726368 0.04721152 0.02240425
v 0.05334881 0.05287926 0.1353205
v -0.05334881 0.05298836 0.1369419
v -0.0385001 0.03877136 -0.0921624
v -0.03269161 -0.03355675 -0.1620324
v -0.03269161 0.03355682 -0.1620324
v -0.03850017 -0.03877121 -0.0921624
v -0.04726376 -0.04721144 0.02240425
v -0.04726368 0.04721152 0.02240425
v -0.05334881 -0.05298836 0.1369419
v -0.05334881 0.05298836 0.1369419
v -0.05334881 -0.05298836 0.1369419
v 0.03342754 -0.03311706 0.1604407
v 0.05334881 -0.05287926 0.1353204
v -0.03262211 -0.0333229 0.1620324
v 0.05334881 -0.05287926 0.1353204
v 0.03342754 0.03311699 0.1604407
v 0.05334881 0.05287926 0.1353205
v 0.03342754 -0.03311706 0.1604407
v 0.05334881 0.05287926 0.1353205
v -0.03262211 0.03332298 0.1620324
v -0.05334881 0.05298836 0.1369419
v 0.03342754 0.03311699 0.1604407
v -0.05334881 0.05298836 0.1369419
v -0.03262211 -0.0333229 0.1620324
v -0.05334881 -0.05298836 0.1369419
v -0.03262211 0.03332298 0.1620324
v 0.03342754 0.03311699 0.1604407
v -0.03262211 -0.0333229 0.1620324
v -0.03262211 0.03332298 0.1620324
v 0.03342754 -0.03311706 0.1604407
vt 0.9477774 0.5060627
vt 0.966478 0.4873621
vt 0.9477774 0.4873621
vt 0.966478 0.5060627
vt 0.9476067 0.5113792
vt 0.9672843 0.530797
vt 0.9663074 0.5113792
vt 0.9459882 0.530797
vt 0.9700062 0.5626286
vt 0.9435463 0.5626286
vt 0.9713053 0.5944601
vt 0.9418508 0.5944601
vt 0.9672843 0.530797
vt 0.9477475 0.5113792
vt 0.9664481 0.5113792
vt 0.9453044 0.530797
vt 0.9433631 0.5626286
vt 0.969628 0.5626286
vt 0.9415604 0.5944601
vt 0.9713053 0.5944601
vt 0.9672843 0.530797
vt 0.9476067 0.5113792
vt 0.9663075 0.5113792
vt 0.9459883 0.530797
vt 0.9700062 0.5626286
vt 0.9435463 0.5626286
vt 0.9713053 0.5944601
vt 0.9418508 0.5944601
vt 0.9452907 0.530797
vt 0.9664481 0.5113792
vt 0.9477475 0.5113792
vt 0.9672843 0.530797
vt 0.9696505 0.5626286
vt 0.9433404 0.5626286
vt 0.9713053 0.5944601
vt 0.94153 0.5944601
vt 0.9418508 0.5944601
vt 0.9670769 0.6014557
vt 0.9713053 0.5944601
vt 0.9480491 0.6014557
vt 0.9713053 0.5944601
vt 0.9480491 0.6014557
vt 0.9415604 0.5944601
vt 0.9670769 0.6014557
vt 0.9713053 0.5944601
vt 0.9480491 0.6014557
vt 0.9418508 0.5944601
vt 0.9670769 0.6014557
vt 0.94153 0.5944601
vt 0.9670769 0.6014557
vt 0.9713053 0.5944601
vt 0.9480491 0.6014557
vt 0.9480491 0.6014557
vt 0.9670769 0.6014557
vt 0.9480491 0.6014557
vt 0.9670769 0.6014557
vn 0 0 -1
vn 0 0 -1
vn 0 0 -1
vn 0 0 -1
vn 0.0002760107 -0.9972283 -0.07440113
vn 0.0002760107 -0.9972283 -0.07440113
vn 0 -0.9972495 -0.07411657
vn 0.0002760107 -0.9972283 -0.07440113
vn 0.0002796616 -0.9972855 -0.07363117
vn 6.232904E-05 -0.9972977 -0.07346708
vn 0.0003118341 -0.9987286 -0.05040895
vn 0.0002558803 -0.9987311 -0.05035923
vn 0.9974802 -1.133924E-06 -0.07094538
vn 0.9974802 -1.133924E-06 -0.07094538
vn 0.9974802 -1.133924E-06 -0.07094538
vn 0.9974803 0 -0.07094421
vn 0.9973362 0 -0.07294188
vn 0.9973361 1.180777E-07 -0.07294194
vn 0.9987716 0 -0.04954948
vn 0.9987716 0 -0.04954948
vn 0 0.9972494 -0.07411765
vn 0 0.9972494 -0.07411765
vn 0 0.9972494 -0.07411765
vn 0.0002760058 0.9972282 -0.07440221
vn 0.0002796655 0.9972856 -0.07363047
vn 6.245399E-05 0.9972977 -0.07346646
vn 0.000311923 0.9987286 -0.05040826
vn 0.0002559631 0.9987312 -0.05035852
vn -0.9965623 0 -0.082847
vn -0.9965623 0 -0.082847
vn -0.9965623 0 -0.08284701
vn -0.9965622 9.805151E-07 -0.08284801
vn -0.9970872 9.810316E-07 -0.07627041
vn -0.9970872 8.056485E-07 -0.07627056
vn -0.9985917 8.068641E-07 -0.05305223
vn -0.9985917 0 -0.05305294
vn 0.01027202 -0.781926 0.6232866
vn 0.01027202 -0.781926 0.6232866
vn 0.01027202 -0.781926 0.6232866
vn 0.01712484 -0.793761 0.6079885
vn 0.7835235 -8.964982E-07 0.621362
vn 0.7835236 -8.964982E-07 0.621362
vn 0.7835236 -8.964981E-07 0.621362
vn 0.7835251 0 0.6213602
vn 0.01010384 0.7910534 0.6116638
vn 0.01010383 0.7910534 0.6116638
vn 0.01010384 0.7910534 0.6116638
vn 0.01753305 0.7790146 0.6267606
vn -0.7709652 0 0.6368774
vn -0.7709652 0 0.6368774
vn -0.7709652 0 0.6368774
vn -0.7709652 0 0.6368774
vn 0.0240907 0 0.9997098
vn 0.0240907 0 0.9997098
vn 0.0240907 0 0.9997098
vn 0.0240907 0 0.9997098
g Robot Tanker Broken 09_0
f 3/3/3 2/2/2 1/1/1
f 4/4/4 1/1/1 2/2/2
f 7/7/7 6/6/6 5/5/5
f 8/8/8 5/5/5 6/6/6
f 6/6/6 9/9/9 8/8/8
f 10/10/10 8/8/8 9/9/9
f 9/9/9 11/11/11 10/10/10
f 12/12/12 10/10/10 11/11/11
f 15/15/15 14/14/14 13/13/13
f 16/16/16 13/13/13 14/14/14
f 16/16/16 17/17/17 13/13/13
f 18/18/18 13/13/13 17/17/17
f 17/17/17 19/19/19 18/18/18
f 20/20/20 18/18/18 19/19/19
f 23/23/23 22/22/22 21/21/21
f 24/24/24 21/21/21 22/22/22
f 21/21/21 24/24/24 25/25/25
f 26/26/26 25/25/25 24/24/24
f 25/25/25 26/26/26 27/27/27
f 28/28/28 27/27/27 26/26/26
f 31/31/31 30/30/30 29/29/29
f 32/32/32 29/29/29 30/30/30
f 32/32/32 33/33/33 29/29/29
f 34/34/34 29/29/29 33/33/33
f 33/33/33 35/35/35 34/34/34
f 36/36/36 34/34/34 35/35/35
f 39/39/39 38/38/38 37/37/37
f 40/40/40 37/37/37 38/38/38
f 43/43/43 42/42/42 41/41/41
f 44/44/44 41/41/41 42/42/42
f 47/47/47 46/46/46 45/45/45
f 48/48/48 45/45/45 46/46/46
f 51/51/51 50/50/50 49/49/49
f 52/52/52 49/49/49 50/50/50
f 55/55/55 54/54/54 53/53/53
f 56/56/56 53/53/53 54/54/54
