g Robot Tanker Broken 03
v 0.4056575 0.04386187 0.02532364
v 0.4056581 -3.33786E-08 -0.05064728
v 0.4056581 -3.33786E-08 0.05064728
v 0.4056581 -3.33786E-08 -0.05064728
v 0.4056575 0.04386187 0.02532364
v 0.4056581 0.04386187 -0.02532364
v 0.4056578 -0.04386187 0.02532364
v 0.4056581 -0.04386193 -0.02532364
v 0.4056581 -3.33786E-08 -0.05064728
v 0.4056578 -0.04386187 0.02532364
v 0.4056581 -3.33786E-08 0.05064728
v -0.4056581 -0.03548989 -0.02049011
v -0.4056579 -3.33786E-08 0.04098007
v -0.4056582 -0.03548991 0.02048996
v -0.4056581 0.03548978 0.02048996
v -0.4056582 -3.33786E-08 -0.04098022
v -0.4056581 0.03548978 -0.02049011
v -0.06161118 0.04356983 -0.02515503
v 0.3882161 -3.33786E-08 -0.07722168
v 0.3882161 0.06687593 -0.03861084
v -0.06161148 -3.33786E-08 -0.05031021
v -0.4056582 -3.33786E-08 -0.04098022
v -0.4056581 0.03548978 -0.02049011
v -0.06161118 0.04356983 0.02515503
v 0.3882161 0.06687593 -0.03861084
v 0.3882161 0.06687605 0.03861084
v -0.06161118 0.04356983 -0.02515503
v -0.4056581 0.03548978 -0.02049011
v -0.4056581 0.03548978 0.02048996
v -0.06161148 -3.345311E-08 0.05031021
v 0.3882161 0.06687605 0.03861084
v 0.3882161 -3.33786E-08 0.07722168
v -0.06161118 0.04356983 0.02515503
v -0.4056581 0.03548978 0.02048996
v -0.4056579 -3.33786E-08 0.04098007
v -0.06161148 -0.04356996 0.02515503
v 0.3882161 -3.33786E-08 0.07722168
v 0.3882161 -0.06687605 0.03861084
v -0.06161148 -3.345311E-08 0.05031021
v -0.4056579 -3.33786E-08 0.04098007
v -0.4056582 -0.03548991 0.02048996
v -0.06161118 -0.04356989 -0.02515503
v 0.3882161 -0.06687605 0.03861084
v 0.3882161 -0.06687593 -0.03861084
v -0.06161148 -0.04356996 0.02515503
v -0.4056582 -0.03548991 0.02048996
v -0.4056581 -0.03548989 -0.02049011
v -0.06161148 -3.33786E-08 -0.05031021
v 0.3882161 -0.06687593 -0.03861084
v 0.3882161 -3.33786E-08 -0.07722168
v -0.06161118 -0.04356989 -0.02515503
v -0.4056581 -0.03548989 -0.02049011
v -0.4056582 -3.33786E-08 -0.04098022
v 0.4056581 -3.33786E-08 -0.05064728
v 0.3882161 0.06687593 -0.03861084
v 0.3882161 -3.33786E-08 -0.07722168
v 0.4056581 0.04386187 -0.02532364
v 0.4056581 0.04386187 -0.02532364
v 0.3882161 0.06687605 0.03861084
v 0.3882161 0.06687593 -0.03861084
v 0.4056575 0.04386187 0.02532364
v 0.4056575 0.04386187 0.02532364
v 0.3882161 -3.33786E-08 0.07722168
v 0.3882161 0.06687605 0.03861084
v 0.4056581 -3.33786E-08 0.05064728
v 0.4056581 -3.33786E-08 0.05064728
v 0.3882161 -0.06687605 0.03861084
v 0.3882161 -3.33786E-08 0.07722168
v 0.4056578 -0.04386187 0.02532364
v 0.4056578 -0.04386187 0.02532364
v 0.3882161 -0.06687593 -0.03861084
v 0.3882161 -0.06687605 0.03861084
v 0.4056581 -0.04386193 -0.02532364
v 0.4056581 -0.04386193 -0.02532364
v 0.3882161 -3.33786E-08 -0.07722168
v 0.3882161 -0.06687593 -0.03861084
v 0.4056581 -3.33786E-08 -0.05064728
v -0.4056579 -3.33786E-08 0.04098007
v -0.4056581 -0.03548989 -0.02049011
v -0.4056582 -3.33786E-08 -0.04098022
v -0.4056581 0.03548978 0.02048996
vt 0.8904629 0.7023277
vt 0.8630139 0.702328
vt 0.9037991 0.702328
vt 0.8630139 0.702328
vt 0.8904629 0.7023277
vt 0.8763505 0.702328
vt 0.8904629 0.7023278
vt 0.8763505 0.702328
vt 0.8630139 0.702328
vt 0.8904629 0.7023278
vt 0.9037991 0.702328
vt 0.8776971 0.4762607
vt 0.8999068 0.4762608
vt 0.8891159 0.4762606
vt 0.889116 0.4762607
vt 0.8669065 0.4762606
vt 0.8776971 0.4762607
vt 0.8763973 0.5721269
vt 0.8523141 0.6974679
vt 0.8726479 0.6974679
vt 0.8631498 0.5721267
vt 0.8669065 0.4762606
vt 0.8776971 0.4762607
vt 0.8904158 0.5721269
vt 0.8726479 0.6974679
vt 0.8941655 0.6974679
vt 0.8763973 0.5721269
vt 0.8776971 0.4762607
vt 0.889116 0.4762607
vt 0.9036636 0.5721267
vt 0.8941655 0.6974679
vt 0.9144991 0.6974679
vt 0.8904158 0.5721269
vt 0.889116 0.4762607
vt 0.8999068 0.4762608
vt 0.8904158 0.5721267
vt 0.9144991 0.6974679
vt 0.8941655 0.6974679
vt 0.9036636 0.5721267
vt 0.8999068 0.4762608
vt 0.8891159 0.4762606
vt 0.8763973 0.5721269
vt 0.8941655 0.6974679
vt 0.8726479 0.6974679
vt 0.8904158 0.5721267
vt 0.8891159 0.4762606
vt 0.8776971 0.4762607
vt 0.8631498 0.5721267
vt 0.8726479 0.6974679
vt 0.8523141 0.6974679
vt 0.8763973 0.5721269
vt 0.8776971 0.4762607
vt 0.8669065 0.4762606
vt 0.8630139 0.702328
vt 0.8726479 0.6974679
vt 0.8523141 0.6974679
vt 0.8763505 0.702328
vt 0.8763505 0.702328
vt 0.8941655 0.6974679
vt 0.8726479 0.6974679
vt 0.8904629 0.7023277
vt 0.8904629 0.7023277
vt 0.9144991 0.6974679
vt 0.8941655 0.6974679
vt 0.9037991 0.702328
vt 0.9037991 0.702328
vt 0.8941655 0.6974679
vt 0.9144991 0.6974679
vt 0.8904629 0.7023278
vt 0.8904629 0.7023278
vt 0.8726479 0.6974679
vt 0.8941655 0.6974679
vt 0.8763505 0.702328
vt 0.8763505 0.702328
vt 0.8523141 0.6974679
vt 0.8726479 0.6974679
vt 0.8630139 0.702328
vt 0.8999068 0.4762608
vt 0.8776971 0.4762607
vt 0.8669065 0.4762606
vt 0.889116 0.4762607
vn 1 1.39153E-05 0
vn 1 1.39153E-05 0
vn 1 1.39153E-05 0
vn 1 -6.957652E-06 1.205103E-05
vn 1 -6.957652E-06 1.205103E-05
vn 1 -6.957652E-06 1.205103E-05
vn 1 3.478823E-06 6.025509E-06
vn 1 3.478823E-06 6.025508E-06
vn 1 -6.957661E-06 0
vn 1 -6.957661E-06 0
vn 1 -6.957661E-06 0
vn -1 7.524087E-06 -1.86173E-06
vn -1 7.524087E-06 -1.86173E-06
vn -1 7.524087E-06 -1.86173E-06
vn -1 2.149742E-06 0
vn -1 2.149742E-06 0
vn -1 2.149742E-06 0
vn -0.05174153 0.4993322 -0.8648642
vn -0.05174153 0.4993322 -0.8648642
vn -0.05174187 0.4993301 -0.8648654
vn -0.05174154 0.4993322 -0.8648642
vn -0.0234787 0.499864 -0.8657856
vn -0.0234786 0.4998633 -0.8657861
vn -0.05174182 0.9986606 0
vn -0.05174181 0.9986606 0
vn -0.05174206 0.9986604 -1.72666E-06
vn -0.05174182 0.9986606 0
vn -0.02347883 0.9997243 0
vn -0.02347884 0.9997243 0
vn -0.05174208 0.4993322 0.8648642
vn -0.05174208 0.4993321 0.8648642
vn -0.05174163 0.4993294 0.8648658
vn -0.05174208 0.4993322 0.8648642
vn -0.02347899 0.4998639 0.8657857
vn -0.02347911 0.4998631 0.8657861
vn -0.05174156 -0.4993314 0.8648647
vn -0.05174156 -0.4993314 0.8648647
vn -0.05174183 -0.4993297 0.8648657
vn -0.05174156 -0.4993314 0.8648647
vn -0.02347911 -0.4998633 0.8657861
vn -0.02347898 -0.4998625 0.8657865
vn -0.05174175 -0.9986606 -1.544346E-06
vn -0.05174175 -0.9986606 -1.544346E-06
vn -0.05174175 -0.9986606 -1.603327E-06
vn -0.05174175 -0.9986606 -1.544346E-06
vn -0.02347883 -0.9997243 -1.374216E-06
vn -0.0234787 -0.9997243 -3.926897E-07
vn -0.05174188 -0.4993322 -0.8648642
vn -0.05174188 -0.4993322 -0.8648642
vn -0.05174159 -0.4993305 -0.8648652
vn -0.05174187 -0.4993322 -0.8648642
vn -0.02347854 -0.4998639 -0.8657857
vn -0.02347871 -0.4998628 -0.8657863
vn 0.7969741 0.3020067 -0.5230911
vn 0.7969741 0.3020067 -0.5230911
vn 0.796974 0.3020067 -0.5230912
vn 0.7969735 0.3020067 -0.5230919
vn 0.7969736 0.6040141 -1.044326E-06
vn 0.7969737 0.604014 -1.044326E-06
vn 0.7969738 0.604014 -1.044326E-06
vn 0.796988 0.6039952 9.604521E-06
vn 0.7969846 0.3019993 0.5230793
vn 0.7969846 0.3019993 0.5230794
vn 0.7969845 0.3019993 0.5230793
vn 0.7969714 0.3020165 0.5230895
vn 0.7969741 -0.3020064 0.5230913
vn 0.7969741 -0.3020064 0.5230913
vn 0.7969741 -0.3020064 0.5230913
vn 0.7969809 -0.3020063 0.5230809
vn 0.7969798 -0.604006 -9.69718E-07
vn 0.7969798 -0.6040059 -9.697179E-07
vn 0.7969798 -0.604006 -9.69718E-07
vn 0.7969711 -0.6040174 5.541436E-06
vn 0.7969734 -0.3020073 -0.5230919
vn 0.7969734 -0.3020073 -0.5230918
vn 0.7969734 -0.3020073 -0.5230918
vn 0.7969741 -0.3020063 -0.5230911
vn -1 -5.374318E-07 2.792594E-06
vn -1 -5.374318E-07 2.792594E-06
vn -1 -5.374318E-07 2.792594E-06
vn -1 -2.687175E-06 2.792594E-06
g Robot Tanker Broken 03_0
f 3/3/3 2/2/2 1/1/1
f 6/6/6 5/5/5 4/4/4
f 8/8/8 4/4/4 7/7/7
f 11/11/11 10/10/10 9/9/9
f 14/14/14 13/13/13 12/12/12
f 17/17/17 16/16/16 15/15/15
f 20/20/20 19/19/19 18/18/18
f 21/21/21 18/18/18 19/19/19
f 21/21/21 22/22/22 18/18/18
f 23/23/23 18/18/18 22/22/22
f 26/26/26 25/25/25 24/24/24
f 27/27/27 24/24/24 25/25/25
f 27/27/27 28/28/28 24/24/24
f 29/29/29 24/24/24 28/28/28
f 32/32/32 31/31/31 30/30/30
f 33/33/33 30/30/30 31/31/31
f 33/33/33 34/34/34 30/30/30
f 35/35/35 30/30/30 34/34/34
f 38/38/38 37/37/37 36/36/36
f 39/39/39 36/36/36 37/37/37
f 39/39/39 40/40/40 36/36/36
f 41/41/41 36/36/36 40/40/40
f 44/44/44 43/43/43 42/42/42
f 45/45/45 42/42/42 43/43/43
f 45/45/45 46/46/46 42/42/42
f 47/47/47 42/42/42 46/46/46
f 50/50/50 49/49/49 48/48/48
f 51/51/51 48/48/48 49/49/49
f 51/51/51 52/52/52 48/48/48
f 53/53/53 48/48/48 52/52/52
f 56/56/56 55/55/55 54/54/54
f 57/57/57 54/54/54 55/55/55
f 60/60/60 59/59/59 58/58/58
f 61/61/61 58/58/58 59/59/59
f 64/64/64 63/63/63 62/62/62
f 65/65/65 62/62/62 63/63/63
f 68/68/68 67/67/67 66/66/66
f 69/69/69 66/66/66 67/67/67
f 72/72/72 71/71/71 70/70/70
f 73/73/73 70/70/70 71/71/71
f 76/76/76 75/75/75 74/74/74
f 77/77/77 74/74/74 75/75/75
f 80/80/80 79/79/79 78/78/78
f 78/78/78 81/81/81 80/80/80
