g Signboard 02
v -0.612427 -0.1183029 2.890095
v 0.612427 0.1368225 2.890095
v 0.612427 -0.1183029 2.890095
v -0.612427 0.1368226 2.890095
v -0.612427 -0.1183029 0
v 0.612427 -0.1183029 2.890095
v 0.612427 -0.1183029 0
v -0.612427 -0.1183029 2.890095
v 0.612427 -0.1183029 0
v 0.612427 0.1368225 2.890095
v 0.612427 0.1368225 0
v 0.612427 -0.1183029 2.890095
v 0.612427 0.1368225 0
v -0.612427 0.1368226 2.890095
v -0.612427 0.1368226 0
v 0.612427 0.1368225 2.890095
v -0.612427 0.1368226 0
v -0.612427 -0.1183029 2.890095
v -0.612427 -0.1183029 0
v -0.612427 0.1368226 2.890095
v 0.612427 0.1368225 0
v -0.612427 -0.1183029 0
v 0.612427 -0.1183029 0
v -0.612427 0.1368226 0
v -0.5026034 -0.2001347 2.810299
v 0.497128 0.08714073 2.810299
v 0.497128 -0.2001347 2.810299
v -0.5026034 0.08714073 2.810299
v 0.497128 -0.2001347 0.05275921
v 0.497128 0.08714073 2.810299
v 0.497128 0.08714073 0.05275898
v 0.497128 -0.2001347 2.810299
v -0.5026034 0.08714073 0.05275898
v -0.5026034 -0.2001347 2.810299
v -0.5026034 -0.2001347 0.05275921
v -0.5026034 0.08714073 2.810299
v 0.497128 0.08714073 0.05275898
v -0.5026034 -0.2001347 0.05275921
v 0.497128 -0.2001347 0.05275921
v -0.5026034 0.08714073 0.05275898
v -0.4342867 0.09259728 0.1176439
v -0.4342867 -0.2001347 2.745414
v -0.4342867 0.09259722 2.745414
v -0.4342867 -0.2001347 0.117644
v -0.4342867 0.09259722 2.745414
v 0.4288115 -0.2001347 2.745414
v 0.4288111 0.09259722 2.745414
v -0.4342867 -0.2001347 2.745414
v 0.4288111 0.09259722 2.745414
v 0.4288115 -0.2001347 0.117644
v 0.4288111 0.09259728 0.1176439
v 0.4288115 -0.2001347 2.745414
v 0.4288111 0.09259728 0.1176439
v -0.4342867 -0.2001347 0.117644
v -0.4342867 0.09259728 0.1176439
v 0.4288115 -0.2001347 0.117644
v -0.3489467 -0.1805526 2.684468
v 0.3489468 0.04881241 2.684468
v 0.3489467 -0.1805527 2.684468
v -0.3489466 0.04881241 2.684468
v -0.3489467 -0.1805527 0.1632453
v 0.3489467 -0.1805527 2.684468
v 0.3489467 -0.1805527 0.1632453
v -0.3489467 -0.1805526 2.684468
v 0.3489467 -0.1805527 0.1632453
v 0.3489468 0.04881241 2.684468
v 0.3489468 0.04881241 0.1632453
v 0.3489467 -0.1805527 2.684468
v -0.3489466 0.04881241 0.1632453
v -0.3489467 -0.1805526 2.684468
v -0.3489467 -0.1805527 0.1632453
v -0.3489466 0.04881241 2.684468
v 0.3489468 0.04881241 0.1632453
v -0.3489467 -0.1805527 0.1632453
v 0.3489467 -0.1805527 0.1632453
v -0.3489466 0.04881241 0.1632453
v -0.08164089 -0.2026831 0.94333
v -0.2810583 -0.202683 0.7894516
v -0.2810583 -0.2026831 0.9433302
v -0.08164055 -0.202683 0.7894516
v 0.08372978 -0.202683 0.7894511
v -0.08164055 -0.2026831 0.5540372
v 0.08372978 -0.2026831 0.554037
v 0.08372967 -0.2026831 0.94333
v 0.2873456 -0.202683 0.7894516
v 0.2873455 -0.2026831 0.94333
v 0.2820484 -0.2026832 0.4146129
v -0.279959 -0.2026832 0.2555738
v -0.279959 -0.2026832 0.4146129
v 0.2820484 -0.2026832 0.2555738
v -0.09972896 -0.2026833 1.780242
v -0.2650995 -0.2026833 1.621203
v -0.2650995 -0.2026833 1.780242
v -0.09972896 -0.2026833 1.621203
v -0.2786452 -0.2026832 1.260297
v 0.1168924 -0.2026832 1.101257
v -0.2786452 -0.2026832 1.101257
v 0.1168924 -0.2026832 1.260296
v 0.2833622 -0.2026832 1.101257
v 0.2833622 -0.2026832 1.260297
v 0.1168924 -0.2026833 1.620213
v 0.2833622 -0.2026833 1.620214
v 0.2833622 -0.2026833 1.782146
v 0.1168924 -0.2026833 1.782146
v -0.06287281 -0.2026833 1.782146
v -0.06287281 -0.2026833 1.620213
v 0.2709208 -0.2026833 2.615845
v 0.1044509 -0.2026833 2.093996
v 0.1044509 -0.2026833 2.615845
v 0.2709208 -0.2026833 2.093996
v 0.2709208 -0.2026833 1.934957
v 0.1044509 -0.2026833 1.934957
v -0.1211576 -0.2026833 2.093996
v -0.1211576 -0.2026833 1.934957
v -0.2910868 -0.2026833 2.093996
v -0.2910868 -0.2026833 1.934957
v -0.1211576 -0.2026834 2.618073
v -0.2910868 -0.2026833 2.618073
v 0.07248344 -0.2026834 2.608103
v -0.092887 -0.2026833 2.449064
v -0.092887 -0.2026834 2.608103
v 0.07248344 -0.2026833 2.449064
v 0.497128 0.1816464 2.810299
v -0.5026034 -0.1056288 2.810299
v -0.5026034 0.1816465 2.810299
v 0.497128 -0.105629 2.810299
v -0.5026034 0.1816465 0.05275921
v -0.5026034 -0.1056288 2.810299
v -0.5026034 -0.1056288 0.05275898
v -0.5026034 0.1816465 2.810299
v 0.497128 -0.105629 0.05275898
v 0.497128 0.1816464 2.810299
v 0.497128 0.1816464 0.05275921
v 0.497128 -0.105629 2.810299
v -0.5026034 -0.1056288 0.05275898
v 0.497128 0.1816464 0.05275921
v -0.5026034 0.1816465 0.05275921
v 0.497128 -0.105629 0.05275898
v 0.4288114 -0.1110855 0.1176439
v 0.4288114 0.1816465 2.745414
v 0.4288114 -0.1110855 2.745414
v 0.4288114 0.1816465 0.117644
v 0.4288114 -0.1110855 2.745414
v -0.4342868 0.1816466 2.745414
v -0.4342864 -0.1110854 2.745414
v 0.4288114 0.1816465 2.745414
v -0.4342864 -0.1110854 2.745414
v -0.4342868 0.1816466 0.117644
v -0.4342864 -0.1110854 0.1176439
v -0.4342868 0.1816466 2.745414
v -0.4342864 -0.1110854 0.1176439
v 0.4288114 0.1816465 0.117644
v 0.4288114 -0.1110855 0.1176439
v -0.4342868 0.1816466 0.117644
v 0.3489468 0.1911823 2.684468
v -0.3489467 -0.03818251 2.684468
v -0.3489466 0.1911825 2.684468
v 0.3489467 -0.03818262 2.684468
v 0.3489468 0.1911824 0.1632453
v -0.3489466 0.1911825 2.684468
v -0.3489466 0.1911825 0.1632453
v 0.3489468 0.1911823 2.684468
v -0.3489466 0.1911825 0.1632453
v -0.3489467 -0.03818251 2.684468
v -0.3489467 -0.03818251 0.1632453
v -0.3489466 0.1911825 2.684468
v 0.3489467 -0.03818262 0.1632453
v 0.3489468 0.1911823 2.684468
v 0.3489468 0.1911824 0.1632453
v 0.3489467 -0.03818262 2.684468
v -0.3489467 -0.03818251 0.1632453
v 0.3489468 0.1911824 0.1632453
v -0.3489466 0.1911825 0.1632453
v 0.3489467 -0.03818262 0.1632453
v 0.0847795 0.2026833 0.94333
v 0.2841969 0.2026832 0.7894516
v 0.2841969 0.2026833 0.9433302
v 0.08477916 0.2026832 0.7894516
v -0.08059116 0.2026832 0.7894511
v 0.08477916 0.2026833 0.5540372
v -0.08059116 0.2026833 0.554037
v -0.08059105 0.2026833 0.94333
v -0.284207 0.2026833 0.7894516
v -0.2842069 0.2026834 0.94333
v -0.279959 0.202683 0.4146129
v 0.2820484 0.202683 0.2555738
v 0.2820484 0.2026829 0.4146129
v -0.279959 0.2026831 0.2555738
v 0.1068895 0.202683 1.780242
v 0.2722601 0.202683 1.621203
v 0.2722601 0.202683 1.780242
v 0.1068895 0.202683 1.621203
v 0.274108 0.2026828 1.260297
v -0.1214295 0.2026829 1.101257
v 0.274108 0.2026828 1.101257
v -0.1214295 0.2026829 1.260296
v -0.2878994 0.2026829 1.101257
v -0.2878994 0.2026829 1.260297
v -0.1214295 0.2026829 1.620213
v -0.2878994 0.202683 1.620214
v -0.2878994 0.202683 1.782146
v -0.1214295 0.2026829 1.782146
v 0.05833562 0.2026829 1.782146
v 0.05833562 0.2026829 1.620213
v -0.2890112 0.202683 2.615845
v -0.1225413 0.2026829 2.093996
v -0.1225413 0.202683 2.615845
v -0.2890112 0.2026829 2.093996
v -0.2890112 0.202683 1.934957
v -0.1225413 0.202683 1.934957
v 0.1030672 0.2026829 2.093996
v 0.1030672 0.2026829 1.934957
v 0.2729964 0.2026829 2.093996
v 0.2729964 0.2026829 1.934957
v 0.1030672 0.202683 2.618073
v 0.2729964 0.2026829 2.618073
v -0.092887 0.2026829 2.608103
v 0.07248344 0.2026829 2.449064
v 0.07248344 0.2026829 2.608103
v -0.092887 0.2026829 2.449064
v 0.4288115 -0.2001347 0.117644
v -0.5026034 -0.2001347 0.05275921
v -0.4342867 -0.2001347 0.117644
v 0.497128 -0.2001347 0.05275921
v -0.5026034 -0.2001347 2.810299
v 0.4288115 -0.2001347 2.745414
v -0.4342867 -0.2001347 2.745414
v 0.497128 -0.2001347 2.810299
v 0.497128 0.1816464 0.05275921
v -0.4342868 0.1816466 0.117644
v -0.5026034 0.1816465 0.05275921
v 0.4288114 0.1816465 0.117644
v -0.4342868 0.1816466 2.745414
v 0.497128 0.1816464 2.810299
v -0.5026034 0.1816465 2.810299
v 0.4288114 0.1816465 2.745414
vt 0.7768705 0.5481748
vt 0.7932014 0.6097679
vt 0.7932014 0.5481748
vt 0.7768705 0.6097679
vt 0.7768705 0.5481748
vt 0.7932014 0.5481748
vt 0.7932014 0.5481748
vt 0.7768705 0.5481748
vt 0.7932014 0.5481748
vt 0.7932014 0.6097679
vt 0.7932014 0.6097679
vt 0.7932014 0.5481748
vt 0.7932014 0.6097679
vt 0.7768705 0.6097679
vt 0.7768705 0.6097679
vt 0.7932014 0.6097679
vt 0.7768705 0.6097679
vt 0.7768705 0.5481748
vt 0.7768705 0.5481748
vt 0.7768705 0.6097679
vt 0.7932014 0.6097679
vt 0.7768705 0.5481748
vt 0.7932014 0.5481748
vt 0.7768705 0.6097679
vt 0.2061214 0.928295
vt 0.2224523 0.989888
vt 0.2224523 0.928295
vt 0.2061214 0.989888
vt 0.2224523 0.928295
vt 0.2224523 0.989888
vt 0.2224523 0.989888
vt 0.2224523 0.928295
vt 0.2061214 0.989888
vt 0.2061214 0.928295
vt 0.2061214 0.928295
vt 0.2061214 0.989888
vt 0.2224523 0.989888
vt 0.2061214 0.928295
vt 0.2224523 0.928295
vt 0.2061214 0.989888
vt 0.2061214 0.989888
vt 0.2061214 0.928295
vt 0.2061214 0.989888
vt 0.2061214 0.928295
vt 0.2061214 0.989888
vt 0.2224523 0.928295
vt 0.2224523 0.989888
vt 0.2061214 0.928295
vt 0.2224523 0.989888
vt 0.2224523 0.928295
vt 0.2224523 0.989888
vt 0.2224523 0.928295
vt 0.2224523 0.989888
vt 0.2061214 0.928295
vt 0.2061214 0.989888
vt 0.2224523 0.928295
vt 0.3052143 0.9286758
vt 0.3215452 0.9902689
vt 0.3215452 0.9286758
vt 0.3052143 0.9902689
vt 0.3052143 0.9286758
vt 0.3215452 0.9286758
vt 0.3215452 0.9286758
vt 0.3052143 0.9286758
vt 0.3215452 0.9286758
vt 0.3215452 0.9902689
vt 0.3215452 0.9902689
vt 0.3215452 0.9286758
vt 0.3052143 0.9902689
vt 0.3052143 0.9286758
vt 0.3052143 0.9286758
vt 0.3052143 0.9902689
vt 0.3215452 0.9902689
vt 0.3052143 0.9286758
vt 0.3215452 0.9286758
vt 0.3052143 0.9902689
vt 0.2208749 0.9562415
vt 0.2208749 0.9562415
vt 0.2208749 0.9562415
vt 0.2208749 0.9562415
vt 0.2208749 0.9562415
vt 0.2208749 0.9562415
vt 0.2208749 0.9562415
vt 0.2208749 0.9562415
vt 0.2208749 0.9562415
vt 0.2208749 0.9562415
vt 0.2208749 0.9562415
vt 0.2208749 0.9562415
vt 0.2208749 0.9562415
vt 0.2208749 0.9562415
vt 0.2208749 0.9562415
vt 0.2208749 0.9562415
vt 0.2208749 0.9562415
vt 0.2208749 0.9562415
vt 0.2208749 0.9562415
vt 0.2208749 0.9562415
vt 0.2208749 0.9562415
vt 0.2208749 0.9562415
vt 0.2208749 0.9562415
vt 0.2208749 0.9562415
vt 0.2208749 0.9562415
vt 0.2208749 0.9562415
vt 0.2208749 0.9562415
vt 0.2208749 0.9562415
vt 0.2208749 0.9562415
vt 0.2208749 0.9562415
vt 0.2208749 0.9562415
vt 0.2208749 0.9562415
vt 0.2208749 0.9562415
vt 0.2208749 0.9562415
vt 0.2208749 0.9562415
vt 0.2208749 0.9562415
vt 0.2208749 0.9562415
vt 0.2208749 0.9562415
vt 0.2208749 0.9562415
vt 0.2208749 0.9562415
vt 0.2208749 0.9562415
vt 0.2208749 0.9562415
vt 0.2208749 0.9562415
vt 0.2208749 0.9562415
vt 0.2208749 0.9562415
vt 0.2208749 0.9562415
vt 0.2061214 0.928295
vt 0.2224523 0.989888
vt 0.2224523 0.928295
vt 0.2061214 0.989888
vt 0.2224523 0.928295
vt 0.2224523 0.989888
vt 0.2224523 0.989888
vt 0.2224523 0.928295
vt 0.2061214 0.989888
vt 0.2061214 0.928295
vt 0.2061214 0.928295
vt 0.2061214 0.989888
vt 0.2224523 0.989888
vt 0.2061214 0.928295
vt 0.2224523 0.928295
vt 0.2061214 0.989888
vt 0.2061214 0.989888
vt 0.2061214 0.928295
vt 0.2061214 0.989888
vt 0.2061214 0.928295
vt 0.2061214 0.989888
vt 0.2224523 0.928295
vt 0.2224523 0.989888
vt 0.2061214 0.928295
vt 0.2224523 0.989888
vt 0.2224523 0.928295
vt 0.2224523 0.989888
vt 0.2224523 0.928295
vt 0.2224523 0.989888
vt 0.2061214 0.928295
vt 0.2061214 0.989888
vt 0.2224523 0.928295
vt 0.3052143 0.9286758
vt 0.3215452 0.9902689
vt 0.3215452 0.9286758
vt 0.3052143 0.9902689
vt 0.3052143 0.9286758
vt 0.3215452 0.9286758
vt 0.3215452 0.9286758
vt 0.3052143 0.9286758
vt 0.3215452 0.9286758
vt 0.3215452 0.9902689
vt 0.3215452 0.9902689
vt 0.3215452 0.9286758
vt 0.3052143 0.9902689
vt 0.3052143 0.9286758
vt 0.3052143 0.9286758
vt 0.3052143 0.9902689
vt 0.3215452 0.9902689
vt 0.3052143 0.9286758
vt 0.3215452 0.9286758
vt 0.3052143 0.9902689
vt 0.2208749 0.9562415
vt 0.2208749 0.9562415
vt 0.2208749 0.9562415
vt 0.2208749 0.9562415
vt 0.2208749 0.9562415
vt 0.2208749 0.9562415
vt 0.2208749 0.9562415
vt 0.2208749 0.9562415
vt 0.2208749 0.9562415
vt 0.2208749 0.9562415
vt 0.2208749 0.9562415
vt 0.2208749 0.9562415
vt 0.2208749 0.9562415
vt 0.2208749 0.9562415
vt 0.2208749 0.9562415
vt 0.2208749 0.9562415
vt 0.2208749 0.9562415
vt 0.2208749 0.9562415
vt 0.2208749 0.9562415
vt 0.2208749 0.9562415
vt 0.2208749 0.9562415
vt 0.2208749 0.9562415
vt 0.2208749 0.9562415
vt 0.2208749 0.9562415
vt 0.2208749 0.9562415
vt 0.2208749 0.9562415
vt 0.2208749 0.9562415
vt 0.2208749 0.9562415
vt 0.2208749 0.9562415
vt 0.2208749 0.9562415
vt 0.2208749 0.9562415
vt 0.2208749 0.9562415
vt 0.2208749 0.9562415
vt 0.2208749 0.9562415
vt 0.2208749 0.9562415
vt 0.2208749 0.9562415
vt 0.2208749 0.9562415
vt 0.2208749 0.9562415
vt 0.2208749 0.9562415
vt 0.2208749 0.9562415
vt 0.2208749 0.9562415
vt 0.2208749 0.9562415
vt 0.2208749 0.9562415
vt 0.2208749 0.9562415
vt 0.2208749 0.9562415
vt 0.2208749 0.9562415
vt 0.2224523 0.928295
vt 0.2061214 0.928295
vt 0.2061214 0.928295
vt 0.2224523 0.928295
vt 0.2061214 0.928295
vt 0.2224523 0.928295
vt 0.2061214 0.928295
vt 0.2224523 0.928295
vt 0.2061214 0.928295
vt 0.2224523 0.928295
vt 0.2224523 0.928295
vt 0.2061214 0.928295
vt 0.2224523 0.928295
vt 0.2061214 0.928295
vt 0.2224523 0.928295
vt 0.2061214 0.928295
vn 0 0 1
vn 0 0 1
vn 0 0 1
vn 0 0 1
vn 0 -1 0
vn 0 -1 0
vn 0 -1 0
vn 0 -1 0
vn 1 0 0
vn 1 0 0
vn 1 0 0
vn 1 0 0
vn 0 1 0
vn 0 1 0
vn 0 1 0
vn 0 1 0
vn -1 0 0
vn -1 0 0
vn -1 0 0
vn -1 0 0
vn 0 0 -1
vn 0 0 -1
vn 0 0 -1
vn 0 0 -1
vn 0 7.967332E-07 1
vn 0 7.967332E-07 1
vn 0 7.967332E-07 1
vn 0 7.967332E-07 1
vn 1 0 0
vn 1 0 0
vn 1 0 0
vn 1 0 0
vn -1 0 0
vn -1 0 0
vn -1 0 0
vn -1 0 0
vn 0 -7.967332E-07 -1
vn 0 -7.967333E-07 -1
vn 0 -7.967332E-07 -1
vn 0 -7.967332E-07 -1
vn 1 0 0
vn 1 0 0
vn 1 0 0
vn 1 0 0
vn 0 0 -1
vn 0 0 -1
vn 0 0 -1
vn 0 0 -1
vn -1 -1.172823E-06 0
vn -1 -1.172823E-06 0
vn -1 -1.172823E-06 0
vn -1 -1.172823E-06 0
vn 0 3.909409E-07 1
vn 0 3.909409E-07 1
vn 0 3.909409E-07 1
vn 0 3.909409E-07 1
vn 0 0 1
vn 0 0 1
vn 0 0 1
vn 0 0 1
vn 0 -1 0
vn 0 -1 0
vn 0 -1 0
vn 0 -1 0
vn 1 -4.989465E-07 0
vn 1 -4.989465E-07 0
vn 1 -4.989465E-07 0
vn 1 -4.989465E-07 0
vn -1 4.989465E-07 0
vn -1 4.989466E-07 0
vn -1 4.989465E-07 0
vn -1 4.989466E-07 0
vn 0 0 -1
vn 0 0 -1
vn 0 0 -1
vn 0 0 -1
vn 0 -1 -7.4371E-07
vn 0 -1 -7.4371E-07
vn 0 -1 -7.437089E-07
vn 0 -1 -7.437101E-07
vn 0 -1 -7.437079E-07
vn 0 -1 6.076566E-07
vn 0 -1 6.076575E-07
vn 0 -1 -7.437079E-07
vn 0 -1 -7.4371E-07
vn 0 -1 -7.437101E-07
vn 0 -1 1.798943E-07
vn 0 -1 1.798943E-07
vn 0 -1 1.798943E-07
vn 0 -1 1.798943E-07
vn 0 -1 0
vn 0 -1 0
vn 0 -1 0
vn 0 -1 0
vn 0 -1 0
vn 0 -1 0
vn 0 -1 0
vn 0 -1 0
vn 0 -1 0
vn 0 -1 0
vn 0 -1 -1.589825E-07
vn 0 -1 -1.589825E-07
vn 0 -1 0
vn 0 -1 0
vn 0 -1 0
vn 0 -1 0
vn 0 -1 0
vn 0 -1 1.798944E-07
vn 0 -1 0
vn 0 -1 1.798942E-07
vn 0 -1 1.798944E-07
vn 0 -1 1.798944E-07
vn 0 -1 1.798944E-07
vn 0 -1 1.798944E-07
vn 0 -1 1.798942E-07
vn 0 -1 1.798942E-07
vn 0 -1 -2.183668E-07
vn -3.367311E-07 -1 0
vn 0 -1 -3.597893E-07
vn 0 -1 -3.597894E-07
vn 0 -1 -3.597894E-07
vn 0 -1 -3.597894E-07
vn 0 -7.967333E-07 1
vn 0 -7.967333E-07 1
vn 0 -7.967333E-07 1
vn 0 -7.967333E-07 1
vn -1 0 0
vn -1 0 0
vn -1 0 0
vn -1 0 0
vn 1 0 0
vn 1 0 0
vn 1 0 0
vn 1 0 0
vn 0 7.967333E-07 -1
vn 0 7.967333E-07 -1
vn 0 7.967333E-07 -1
vn 0 7.967333E-07 -1
vn -1 0 0
vn -1 0 0
vn -1 0 0
vn -1 0 0
vn 0 0 -1
vn 0 0 -1
vn 0 0 -1
vn 0 0 -1
vn 1 1.172823E-06 0
vn 1 1.172823E-06 0
vn 1 1.172823E-06 0
vn 1 1.172823E-06 0
vn 0 -3.90941E-07 1
vn 0 -3.90941E-07 1
vn 0 -3.90941E-07 1
vn 0 -3.909409E-07 1
vn 0 0 1
vn 0 0 1
vn 0 0 1
vn 0 0 1
vn 1.78076E-07 1 0
vn 2.318753E-07 1 0
vn 1.639805E-07 1 0
vn 2.459708E-07 1 0
vn -1 4.989467E-07 0
vn -1 4.989467E-07 0
vn -1 4.989467E-07 0
vn -1 4.989467E-07 0
vn 1 -4.989467E-07 0
vn 1 -4.989469E-07 0
vn 1 -4.989467E-07 0
vn 1 -4.989469E-07 0
vn 0 0 -1
vn 0 0 -1
vn 0 0 -1
vn 0 0 -1
vn 0 1 -7.437104E-07
vn 0 1 -7.437104E-07
vn 0 1 -7.437089E-07
vn 0 1 -7.437104E-07
vn 0 1 -7.437079E-07
vn 0 1 3.645939E-07
vn 0 1 3.645945E-07
vn 0 1 -7.437079E-07
vn 2.810217E-07 1 -7.437103E-07
vn 2.810217E-07 1 -7.437102E-07
vn 1.527216E-07 1 1.798943E-07
vn 1.527216E-07 1 1.798943E-07
vn 1.527216E-07 1 1.798943E-07
vn 1.527216E-07 1 1.798943E-07
vn 1.730068E-07 1 0
vn 1.730068E-07 1 0
vn 1.730068E-07 1 0
vn 1.730068E-07 1 0
vn 0 1 0
vn 1.718643E-07 1 0
vn 0 1 0
vn 1.718644E-07 1 0
vn 1.718643E-07 1 0
vn 1.718643E-07 1 0
vn 1.71864E-07 1 -1.589825E-07
vn 1.71864E-07 1 -1.589825E-07
vn 1.718643E-07 1 0
vn 1.718643E-07 1 0
vn 1.591533E-07 1 0
vn 1.591533E-07 1 0
vn 0 1 0
vn 0 1 1.798944E-07
vn 0 1 0
vn 0 1 1.798942E-07
vn 0 1 1.798944E-07
vn 0 1 1.798944E-07
vn 2.536272E-07 1 1.798944E-07
vn 2.536272E-07 1 1.798944E-07
vn 0 1 1.798942E-07
vn 0 1 1.798942E-07
vn 0 1 -2.183668E-07
vn 3.367311E-07 1 0
vn 0 1 -3.597893E-07
vn 0 1 -3.597894E-07
vn 0 1 -3.597894E-07
vn 0 1 -3.597894E-07
vn 0 -1 -8.818778E-07
vn 0 -1 -8.818777E-07
vn 0 -1 -8.818777E-07
vn 0 -1 -8.818777E-07
vn 0 -1 8.818808E-07
vn 0 -1 8.818809E-07
vn 0 -1 8.818808E-07
vn 0 -1 8.818807E-07
vn 0 1 -1.002404E-06
vn 0 1 -1.002404E-06
vn 0 1 -1.002404E-06
vn 0 1 -7.422715E-07
vn 0 1 1.021487E-06
vn 0 1 7.613541E-07
vn 0 1 7.613542E-07
vn 0 1 7.613542E-07
g Signboard 02_0
f 3/3/3 2/2/2 1/1/1
f 4/4/4 1/1/1 2/2/2
f 7/7/7 6/6/6 5/5/5
f 8/8/8 5/5/5 6/6/6
f 11/11/11 10/10/10 9/9/9
f 12/12/12 9/9/9 10/10/10
f 15/15/15 14/14/14 13/13/13
f 16/16/16 13/13/13 14/14/14
f 19/19/19 18/18/18 17/17/17
f 20/20/20 17/17/17 18/18/18
f 23/23/23 22/22/22 21/21/21
f 24/24/24 21/21/21 22/22/22
f 27/27/27 26/26/26 25/25/25
f 28/28/28 25/25/25 26/26/26
f 31/31/31 30/30/30 29/29/29
f 32/32/32 29/29/29 30/30/30
f 35/35/35 34/34/34 33/33/33
f 36/36/36 33/33/33 34/34/34
f 39/39/39 38/38/38 37/37/37
f 40/40/40 37/37/37 38/38/38
f 43/43/43 42/42/42 41/41/41
f 44/44/44 41/41/41 42/42/42
f 47/47/47 46/46/46 45/45/45
f 48/48/48 45/45/45 46/46/46
f 51/51/51 50/50/50 49/49/49
f 52/52/52 49/49/49 50/50/50
f 55/55/55 54/54/54 53/53/53
f 56/56/56 53/53/53 54/54/54
f 59/59/59 58/58/58 57/57/57
f 60/60/60 57/57/57 58/58/58
f 63/63/63 62/62/62 61/61/61
f 64/64/64 61/61/61 62/62/62
f 67/67/67 66/66/66 65/65/65
f 68/68/68 65/65/65 66/66/66
f 71/71/71 70/70/70 69/69/69
f 72/72/72 69/69/69 70/70/70
f 75/75/75 74/74/74 73/73/73
f 76/76/76 73/73/73 74/74/74
f 79/79/79 78/78/78 77/77/77
f 80/80/80 77/77/77 78/78/78
f 80/80/80 81/81/81 77/77/77
f 80/80/80 82/82/82 81/81/81
f 83/83/83 81/81/81 82/82/82
f 84/84/84 77/77/77 81/81/81
f 81/81/81 85/85/85 84/84/84
f 86/86/86 84/84/84 85/85/85
f 89/89/89 88/88/88 87/87/87
f 90/90/90 87/87/87 88/88/88
f 93/93/93 92/92/92 91/91/91
f 94/94/94 91/91/91 92/92/92
f 97/97/97 96/96/96 95/95/95
f 98/98/98 95/95/95 96/96/96
f 96/96/96 99/99/99 98/98/98
f 100/100/100 98/98/98 99/99/99
f 98/98/98 100/100/100 101/101/101
f 102/102/102 101/101/101 100/100/100
f 102/102/102 103/103/103 101/101/101
f 104/104/104 101/101/101 103/103/103
f 104/104/104 105/105/105 101/101/101
f 106/106/106 101/101/101 105/105/105
f 109/109/109 108/108/108 107/107/107
f 110/110/110 107/107/107 108/108/108
f 110/110/110 108/108/108 111/111/111
f 112/112/112 111/111/111 108/108/108
f 108/108/108 113/113/113 112/112/112
f 114/114/114 112/112/112 113/113/113
f 113/113/113 115/115/115 114/114/114
f 116/116/116 114/114/114 115/115/115
f 113/113/113 117/117/117 115/115/115
f 118/118/118 115/115/115 117/117/117
f 121/121/121 120/120/120 119/119/119
f 122/122/122 119/119/119 120/120/120
f 125/125/125 124/124/124 123/123/123
f 126/126/126 123/123/123 124/124/124
f 129/129/129 128/128/128 127/127/127
f 130/130/130 127/127/127 128/128/128
f 133/133/133 132/132/132 131/131/131
f 134/134/134 131/131/131 132/132/132
f 137/137/137 136/136/136 135/135/135
f 138/138/138 135/135/135 136/136/136
f 141/141/141 140/140/140 139/139/139
f 142/142/142 139/139/139 140/140/140
f 145/145/145 144/144/144 143/143/143
f 146/146/146 143/143/143 144/144/144
f 149/149/149 148/148/148 147/147/147
f 150/150/150 147/147/147 148/148/148
f 153/153/153 152/152/152 151/151/151
f 154/154/154 151/151/151 152/152/152
f 157/157/157 156/156/156 155/155/155
f 158/158/158 155/155/155 156/156/156
f 161/161/161 160/160/160 159/159/159
f 162/162/162 159/159/159 160/160/160
f 165/165/165 164/164/164 163/163/163
f 166/166/166 163/163/163 164/164/164
f 169/169/169 168/168/168 167/167/167
f 170/170/170 167/167/167 168/168/168
f 173/173/173 172/172/172 171/171/171
f 174/174/174 171/171/171 172/172/172
f 177/177/177 176/176/176 175/175/175
f 178/178/178 175/175/175 176/176/176
f 178/178/178 179/179/179 175/175/175
f 178/178/178 180/180/180 179/179/179
f 181/181/181 179/179/179 180/180/180
f 182/182/182 175/175/175 179/179/179
f 179/179/179 183/183/183 182/182/182
f 184/184/184 182/182/182 183/183/183
f 187/187/187 186/186/186 185/185/185
f 188/188/188 185/185/185 186/186/186
f 191/191/191 190/190/190 189/189/189
f 192/192/192 189/189/189 190/190/190
f 195/195/195 194/194/194 193/193/193
f 196/196/196 193/193/193 194/194/194
f 194/194/194 197/197/197 196/196/196
f 198/198/198 196/196/196 197/197/197
f 196/196/196 198/198/198 199/199/199
f 200/200/200 199/199/199 198/198/198
f 200/200/200 201/201/201 199/199/199
f 202/202/202 199/199/199 201/201/201
f 202/202/202 203/203/203 199/199/199
f 204/204/204 199/199/199 203/203/203
f 207/207/207 206/206/206 205/205/205
f 208/208/208 205/205/205 206/206/206
f 208/208/208 206/206/206 209/209/209
f 210/210/210 209/209/209 206/206/206
f 206/206/206 211/211/211 210/210/210
f 212/212/212 210/210/210 211/211/211
f 211/211/211 213/213/213 212/212/212
f 214/214/214 212/212/212 213/213/213
f 211/211/211 215/215/215 213/213/213
f 216/216/216 213/213/213 215/215/215
f 219/219/219 218/218/218 217/217/217
f 220/220/220 217/217/217 218/218/218
f 223/223/223 222/222/222 221/221/221
f 224/224/224 221/221/221 222/222/222
f 222/222/222 223/223/223 225/225/225
f 221/221/221 224/224/224 226/226/226
f 227/227/227 225/225/225 223/223/223
f 228/228/228 226/226/226 224/224/224
f 225/225/225 227/227/227 228/228/228
f 226/226/226 228/228/228 227/227/227
f 231/231/231 230/230/230 229/229/229
f 232/232/232 229/229/229 230/230/230
f 230/230/230 231/231/231 233/233/233
f 229/229/229 232/232/232 234/234/234
f 235/235/235 233/233/233 231/231/231
f 236/236/236 234/234/234 232/232/232
f 233/233/233 235/235/235 236/236/236
f 234/234/234 236/236/236 235/235/235
