g Signboard 03
v 0.612427 0.1368225 2.547123
v -0.612427 -0.1183029 2.547123
v -0.612427 0.1368226 2.547123
v 0.612427 -0.1183029 2.547123
v 0.612427 -0.1183029 2.547123
v -0.612427 -0.1183029 0
v -0.612427 -0.1183029 2.547123
v 0.612427 -0.1183029 0
v 0.612427 0.1368225 2.547123
v 0.612427 -0.1183029 0
v 0.612427 -0.1183029 2.547123
v 0.612427 0.1368225 0
v -0.612427 0.1368226 2.547123
v 0.612427 0.1368225 0
v 0.612427 0.1368225 2.547123
v -0.612427 0.1368226 0
v -0.612427 -0.1183029 2.547123
v -0.612427 0.1368226 0
v -0.612427 0.1368226 2.547123
v -0.612427 -0.1183029 0
v -0.612427 -0.1183029 0
v 0.612427 0.1368225 0
v -0.612427 0.1368226 0
v 0.612427 -0.1183029 0
v 0.497128 0.08714076 2.467327
v -0.5026034 -0.2001347 2.467327
v -0.5026034 0.08714076 2.467327
v 0.497128 -0.2001347 2.467327
v 0.497128 0.08714076 2.467327
v 0.497128 -0.2001347 0.05275921
v 0.497128 -0.2001347 2.467327
v 0.497128 0.08714073 0.05275898
v -0.5026034 -0.2001347 2.467327
v -0.5026034 0.08714073 0.05275898
v -0.5026034 0.08714076 2.467327
v -0.5026034 -0.2001347 0.05275921
v -0.5026034 -0.2001347 0.05275921
v 0.497128 0.08714073 0.05275898
v -0.5026034 0.08714073 0.05275898
v 0.497128 -0.2001347 0.05275921
v -0.4342867 -0.2001347 2.402443
v -0.4342867 0.09259728 0.1176439
v -0.4342867 -0.2001347 0.117644
v -0.4342867 0.09259724 2.402443
v 0.4288115 -0.2001347 2.402443
v -0.4342867 0.09259724 2.402443
v -0.4342867 -0.2001347 2.402443
v 0.4288111 0.09259724 2.402443
v 0.4288115 -0.2001347 0.117644
v 0.4288111 0.09259724 2.402443
v 0.4288115 -0.2001347 2.402443
v 0.4288111 0.09259728 0.1176439
v -0.4342867 -0.2001347 0.117644
v 0.4288111 0.09259728 0.1176439
v 0.4288115 -0.2001347 0.117644
v -0.4342867 0.09259728 0.1176439
v 0.3489468 0.04881244 2.341496
v -0.3489467 -0.1805526 2.341496
v -0.3489466 0.04881244 2.341496
v 0.3489467 -0.1805527 2.341496
v 0.3489467 -0.1805527 2.341496
v -0.3489467 -0.1805527 0.1632453
v -0.3489467 -0.1805526 2.341496
v 0.3489467 -0.1805527 0.1632453
v 0.3489468 0.04881244 2.341496
v 0.3489467 -0.1805527 0.1632453
v 0.3489467 -0.1805527 2.341496
v 0.3489468 0.04881241 0.1632453
v -0.3489467 -0.1805526 2.341496
v -0.3489466 0.04881241 0.1632453
v -0.3489466 0.04881244 2.341496
v -0.3489467 -0.1805527 0.1632453
v -0.3489467 -0.1805527 0.1632453
v 0.3489468 0.04881241 0.1632453
v -0.3489466 0.04881241 0.1632453
v 0.3489467 -0.1805527 0.1632453
v -0.1053681 -0.1927461 1.727462
v 0.1074106 -0.192746 0.836389
v -0.1053681 -0.192746 0.836389
v 0.1074105 -0.1927461 1.727462
v 0.05509457 -0.1927461 1.886283
v 0.2391759 -0.192746 1.938216
v -0.05305213 -0.1927461 1.886283
v 0.07312533 -0.192746 1.957922
v 0.1008425 -0.192746 2.169835
v 0.03697611 -0.192746 2.12799
v -0.07629886 -0.1927461 1.953817
v -0.2434353 -0.1927461 1.948658
v -0.02183554 -0.192746 2.127046
v -0.09055986 -0.1927461 2.172072
v -0.5026034 -0.1056288 2.467327
v 0.497128 0.1816465 2.467327
v 0.497128 -0.105629 2.467327
v -0.5026034 0.1816466 2.467327
v -0.5026034 -0.1056288 2.467327
v -0.5026034 0.1816465 0.05275921
v -0.5026034 0.1816466 2.467327
v -0.5026034 -0.1056288 0.05275898
v 0.497128 0.1816465 2.467327
v 0.497128 -0.105629 0.05275898
v 0.497128 -0.105629 2.467327
v 0.497128 0.1816464 0.05275921
v 0.497128 0.1816464 0.05275921
v -0.5026034 -0.1056288 0.05275898
v 0.497128 -0.105629 0.05275898
v -0.5026034 0.1816465 0.05275921
v 0.4288114 0.1816465 2.402443
v 0.4288114 -0.1110855 0.1176439
v 0.4288114 0.1816465 0.117644
v 0.4288114 -0.1110855 2.402443
v -0.4342868 0.1816466 2.402443
v 0.4288114 -0.1110855 2.402443
v 0.4288114 0.1816465 2.402443
v -0.4342864 -0.1110854 2.402443
v -0.4342868 0.1816466 0.117644
v -0.4342864 -0.1110854 2.402443
v -0.4342868 0.1816466 2.402443
v -0.4342864 -0.1110854 0.1176439
v 0.4288114 0.1816465 0.117644
v -0.4342864 -0.1110854 0.1176439
v -0.4342868 0.1816466 0.117644
v 0.4288114 -0.1110855 0.1176439
v -0.3489467 -0.03818248 2.341496
v 0.3489468 0.1911823 2.341496
v 0.3489467 -0.0381826 2.341496
v -0.3489466 0.1911825 2.341496
v -0.3489466 0.1911825 2.341496
v 0.3489468 0.1911824 0.1632453
v 0.3489468 0.1911823 2.341496
v -0.3489466 0.1911825 0.1632453
v -0.3489467 -0.03818248 2.341496
v -0.3489466 0.1911825 0.1632453
v -0.3489466 0.1911825 2.341496
v -0.3489467 -0.03818251 0.1632453
v 0.3489468 0.1911823 2.341496
v 0.3489467 -0.03818262 0.1632453
v 0.3489467 -0.0381826 2.341496
v 0.3489468 0.1911824 0.1632453
v 0.3489468 0.1911824 0.1632453
v -0.3489467 -0.03818251 0.1632453
v 0.3489467 -0.03818262 0.1632453
v -0.3489466 0.1911825 0.1632453
v 0.02370832 -0.192746 0.4039553
v 0.2453081 -0.192746 0.5823424
v 0.09243263 -0.192746 0.3589287
v 0.07817159 -0.192746 0.5771833
v 0.1072408 -0.192746 0.8035389
v 0.0549248 -0.192746 0.6447175
v -0.05322189 -0.192746 0.6447175
v -0.1055379 -0.1927459 0.8035387
v -0.2373032 -0.192746 0.5927848
v -0.0712526 -0.192746 0.5730786
v -0.09896977 -0.192746 0.3611663
v -0.03510335 -0.1927459 0.4030104
v 0.1072691 0.2088152 1.727462
v -0.1055095 0.2088151 0.836389
v 0.1072691 0.2088151 0.836389
v -0.1055095 0.2088152 1.727462
v -0.05319357 0.2088152 1.886283
v -0.2372749 0.2088152 1.938216
v 0.05495314 0.2088151 1.886283
v -0.07122434 0.2088151 1.957922
v -0.09894153 0.2088152 2.169835
v -0.0350751 0.2088151 2.12799
v 0.07819986 0.2088151 1.953817
v 0.2453364 0.2088151 1.948658
v 0.02373655 0.2088151 2.127046
v 0.09246086 0.2088152 2.172072
v -0.02183561 0.2088153 0.4039553
v -0.2434354 0.2088154 0.5823424
v -0.09055991 0.2088154 0.3589287
v -0.07629888 0.2088154 0.5771833
v -0.105368 0.2088153 0.8035389
v -0.05305209 0.2088154 0.6447175
v 0.0550946 0.2088153 0.6447175
v 0.1074106 0.2088152 0.8035387
v 0.2391759 0.2088152 0.5927848
v 0.07312531 0.2088152 0.5730786
v 0.1008425 0.2088153 0.3611663
v 0.03697606 0.2088153 0.4030104
v 0.4288115 -0.2001347 0.117644
v -0.5026034 -0.2001347 0.05275921
v -0.4342867 -0.2001347 0.117644
v 0.497128 -0.2001347 0.05275921
v -0.5026034 -0.2001347 2.467327
v 0.4288115 -0.2001347 2.402443
v -0.4342867 -0.2001347 2.402443
v 0.497128 -0.2001347 2.467327
v -0.4342868 0.1816466 0.117644
v 0.497128 0.1816464 0.05275921
v 0.4288114 0.1816465 0.117644
v -0.5026034 0.1816465 0.05275921
v 0.497128 0.1816465 2.467327
v -0.4342868 0.1816466 2.402443
v 0.4288114 0.1816465 2.402443
v -0.5026034 0.1816466 2.467327
vt 0.7932014 0.6097679
vt 0.7768705 0.5481748
vt 0.7768705 0.6097679
vt 0.7932014 0.5481748
vt 0.7932014 0.5481748
vt 0.7768705 0.5481748
vt 0.7768705 0.5481748
vt 0.7932014 0.5481748
vt 0.7932014 0.6097679
vt 0.7932014 0.5481748
vt 0.7932014 0.5481748
vt 0.7932014 0.6097679
vt 0.7768705 0.6097679
vt 0.7932014 0.6097679
vt 0.7932014 0.6097679
vt 0.7768705 0.6097679
vt 0.7768705 0.5481748
vt 0.7768705 0.6097679
vt 0.7768705 0.6097679
vt 0.7768705 0.5481748
vt 0.7768705 0.5481748
vt 0.7932014 0.6097679
vt 0.7768705 0.6097679
vt 0.7932014 0.5481748
vt 0.2895075 0.989888
vt 0.2731766 0.928295
vt 0.2731766 0.989888
vt 0.2895075 0.928295
vt 0.2895075 0.989888
vt 0.2895075 0.928295
vt 0.2895075 0.928295
vt 0.2895075 0.989888
vt 0.2731766 0.928295
vt 0.2731766 0.989888
vt 0.2731766 0.989888
vt 0.2731766 0.928295
vt 0.2731766 0.928295
vt 0.2895075 0.989888
vt 0.2731766 0.989888
vt 0.2895075 0.928295
vt 0.2731766 0.928295
vt 0.2731766 0.989888
vt 0.2731766 0.928295
vt 0.2731766 0.989888
vt 0.2895075 0.928295
vt 0.2731766 0.989888
vt 0.2731766 0.928295
vt 0.2895075 0.989888
vt 0.2895075 0.928295
vt 0.2895075 0.989888
vt 0.2895075 0.928295
vt 0.2895075 0.989888
vt 0.2731766 0.928295
vt 0.2895075 0.989888
vt 0.2895075 0.928295
vt 0.2731766 0.989888
vt 0.08879167 0.9902689
vt 0.07246077 0.9286758
vt 0.07246077 0.9902689
vt 0.08879167 0.9286758
vt 0.08879167 0.9286758
vt 0.07246077 0.9286758
vt 0.07246077 0.9286758
vt 0.08879167 0.9286758
vt 0.08879167 0.9902689
vt 0.08879167 0.9286758
vt 0.08879167 0.9286758
vt 0.08879167 0.9902689
vt 0.07246077 0.9286758
vt 0.07246077 0.9902689
vt 0.07246077 0.9902689
vt 0.07246077 0.9286758
vt 0.07246077 0.9286758
vt 0.08879167 0.9902689
vt 0.07246077 0.9902689
vt 0.08879167 0.9286758
vt 0.2879301 0.9562415
vt 0.2879301 0.9562415
vt 0.2879301 0.9562415
vt 0.2879301 0.9562415
vt 0.2879301 0.9562415
vt 0.2879301 0.9562415
vt 0.2879301 0.9562415
vt 0.2879301 0.9562415
vt 0.2879301 0.9562415
vt 0.2879301 0.9562415
vt 0.2879301 0.9562415
vt 0.2879301 0.9562415
vt 0.2879301 0.9562415
vt 0.2879301 0.9562415
vt 0.2895075 0.989888
vt 0.2731766 0.928295
vt 0.2731766 0.989888
vt 0.2895075 0.928295
vt 0.2895075 0.989888
vt 0.2895075 0.928295
vt 0.2895075 0.928295
vt 0.2895075 0.989888
vt 0.2731766 0.928295
vt 0.2731766 0.989888
vt 0.2731766 0.989888
vt 0.2731766 0.928295
vt 0.2731766 0.928295
vt 0.2895075 0.989888
vt 0.2731766 0.989888
vt 0.2895075 0.928295
vt 0.2731766 0.928295
vt 0.2731766 0.989888
vt 0.2731766 0.928295
vt 0.2731766 0.989888
vt 0.2895075 0.928295
vt 0.2731766 0.989888
vt 0.2731766 0.928295
vt 0.2895075 0.989888
vt 0.2895075 0.928295
vt 0.2895075 0.989888
vt 0.2895075 0.928295
vt 0.2895075 0.989888
vt 0.2731766 0.928295
vt 0.2895075 0.989888
vt 0.2895075 0.928295
vt 0.2731766 0.989888
vt 0.08879167 0.9902689
vt 0.07246077 0.9286758
vt 0.07246077 0.9902689
vt 0.08879167 0.9286758
vt 0.08879167 0.9286758
vt 0.07246077 0.9286758
vt 0.07246077 0.9286758
vt 0.08879167 0.9286758
vt 0.08879167 0.9902689
vt 0.08879167 0.9286758
vt 0.08879167 0.9286758
vt 0.08879167 0.9902689
vt 0.07246077 0.9286758
vt 0.07246077 0.9902689
vt 0.07246077 0.9902689
vt 0.07246077 0.9286758
vt 0.07246077 0.9286758
vt 0.08879167 0.9902689
vt 0.07246077 0.9902689
vt 0.08879167 0.9286758
vt 0.2879301 0.9562415
vt 0.2879301 0.9562415
vt 0.2879301 0.9562415
vt 0.2879301 0.9562415
vt 0.2879301 0.9562415
vt 0.2879301 0.9562415
vt 0.2879301 0.9562415
vt 0.2879301 0.9562415
vt 0.2879301 0.9562415
vt 0.2879301 0.9562415
vt 0.2879301 0.9562415
vt 0.2879301 0.9562415
vt 0.2879301 0.9562415
vt 0.2879301 0.9562415
vt 0.2879301 0.9562415
vt 0.2879301 0.9562415
vt 0.2879301 0.9562415
vt 0.2879301 0.9562415
vt 0.2879301 0.9562415
vt 0.2879301 0.9562415
vt 0.2879301 0.9562415
vt 0.2879301 0.9562415
vt 0.2879301 0.9562415
vt 0.2879301 0.9562415
vt 0.2879301 0.9562415
vt 0.2879301 0.9562415
vt 0.2879301 0.9562415
vt 0.2879301 0.9562415
vt 0.2879301 0.9562415
vt 0.2879301 0.9562415
vt 0.2879301 0.9562415
vt 0.2879301 0.9562415
vt 0.2879301 0.9562415
vt 0.2879301 0.9562415
vt 0.2879301 0.9562415
vt 0.2879301 0.9562415
vt 0.2879301 0.9562415
vt 0.2879301 0.9562415
vt 0.2895075 0.928295
vt 0.2731766 0.928295
vt 0.2731766 0.928295
vt 0.2895075 0.928295
vt 0.2731766 0.928295
vt 0.2895075 0.928295
vt 0.2731766 0.928295
vt 0.2895075 0.928295
vt 0.2895075 0.928295
vt 0.2731766 0.928295
vt 0.2731766 0.928295
vt 0.2895075 0.928295
vt 0.2731766 0.928295
vt 0.2895075 0.928295
vt 0.2731766 0.928295
vt 0.2895075 0.928295
vn 0 0 1
vn 0 0 1
vn 0 0 1
vn 0 0 1
vn 0 -1 0
vn 0 -1 0
vn 0 -1 0
vn 0 -1 0
vn 1 0 0
vn 1 0 0
vn 1 0 0
vn 1 0 0
vn 0 1 0
vn 0 1 0
vn 0 1 0
vn 0 1 0
vn -1 0 0
vn -1 0 0
vn -1 0 0
vn -1 0 0
vn 0 0 -1
vn 0 0 -1
vn 0 0 -1
vn 0 0 -1
vn 0 0 1
vn 0 0 1
vn 0 0 1
vn 0 0 1
vn 1 0 0
vn 1 0 0
vn 1 0 0
vn 1 0 0
vn -1 0 0
vn -1 0 0
vn -1 0 0
vn -1 0 0
vn 0 -7.967332E-07 -1
vn 0 -7.967333E-07 -1
vn 0 -7.967332E-07 -1
vn 0 -7.967332E-07 -1
vn 1 0 0
vn 1 0 0
vn 1 0 0
vn 1 0 0
vn 0 0 -1
vn 0 0 -1
vn 0 0 -1
vn 0 0 -1
vn -1 -1.172823E-06 0
vn -1 -1.172823E-06 0
vn -1 -1.172823E-06 0
vn -1 -1.172823E-06 0
vn 0 3.909409E-07 1
vn 0 3.909409E-07 1
vn 0 3.909409E-07 1
vn 0 3.909409E-07 1
vn 0 0 1
vn 0 0 1
vn 0 0 1
vn 0 0 1
vn 0 -1 0
vn 0 -1 0
vn 0 -1 0
vn 0 -1 0
vn 1 -4.989465E-07 0
vn 1 -4.989465E-07 0
vn 1 -4.989465E-07 0
vn 1 -4.989465E-07 0
vn -1 4.989466E-07 0
vn -1 4.989466E-07 0
vn -1 4.989466E-07 0
vn -1 4.989465E-07 0
vn 0 0 -1
vn 0 0 -1
vn 0 0 -1
vn 0 0 -1
vn 4.033802E-07 -1 0
vn 4.033802E-07 -1 0
vn 4.033802E-07 -1 0
vn 2.689201E-07 -1 0
vn 2.689201E-07 -1 0
vn 2.844129E-07 -1 0
vn 0 -1 3.60282E-07
vn 2.133219E-07 -1 3.45677E-07
vn 1.696647E-07 -1 0
vn -4.899567E-07 -1 0
vn 5.348413E-07 -1 1.841045E-07
vn 1.640262E-07 -1 2.317257E-07
vn 1.677084E-07 -1 0
vn 5.748798E-07 -1 -3.933732E-07
vn 0 0 1
vn 0 0 1
vn 0 0 1
vn 0 0 1
vn -1 0 0
vn -1 0 0
vn -1 0 0
vn -1 0 0
vn 1 0 0
vn 1 0 0
vn 1 0 0
vn 1 0 0
vn 0 7.967333E-07 -1
vn 0 7.967333E-07 -1
vn 0 7.967333E-07 -1
vn 0 7.967333E-07 -1
vn -1 0 0
vn -1 0 0
vn -1 0 0
vn -1 0 0
vn 0 0 -1
vn 0 0 -1
vn 0 0 -1
vn 0 0 -1
vn 1 1.172823E-06 0
vn 1 1.172823E-06 0
vn 1 1.172823E-06 0
vn 1 1.172823E-06 0
vn 0 -3.90941E-07 1
vn 0 -3.90941E-07 1
vn 0 -3.909409E-07 1
vn 0 -3.90941E-07 1
vn 0 0 1
vn 0 0 1
vn 0 0 1
vn 0 0 1
vn 2.297868E-07 1 0
vn 1.801645E-07 1 0
vn 2.459708E-07 1 0
vn 1.639805E-07 1 0
vn -1 4.989468E-07 0
vn -1 4.989467E-07 0
vn -1 4.989467E-07 0
vn -1 4.989467E-07 0
vn 1 -4.989469E-07 0
vn 1 -4.989467E-07 0
vn 1 -4.989469E-07 0
vn 1 -4.989467E-07 0
vn 0 0 -1
vn 0 0 -1
vn 0 0 -1
vn 0 0 -1
vn 0 -1 -3.335558E-07
vn 0 -1 0
vn -5.748797E-07 -1 3.933734E-07
vn 1.16374E-06 -1 0
vn -4.033805E-07 -1 5.876898E-07
vn -2.645502E-07 -1 4.474248E-07
vn -4.033805E-07 -1 5.876898E-07
vn -4.033805E-07 -1 5.876898E-07
vn -4.704119E-07 -1 5.656096E-07
vn 0 -1 -7.75569E-07
vn 0 -1 0
vn 9.799134E-07 -1 0
vn -2.689201E-07 1 0
vn -2.689201E-07 1 0
vn -2.689201E-07 1 0
vn 0 1 0
vn 0 1 0
vn 0 1 0
vn 3.968253E-07 1 5.810673E-07
vn 1.819205E-07 1 6.448377E-07
vn 2.781633E-07 1 -1.661321E-07
vn 1.079771E-06 1 0
vn -6.685528E-07 1 2.301302E-07
vn 2.675825E-07 1 3.503514E-07
vn 2.592845E-07 1 0
vn -4.868782E-07 1 -8.453947E-07
vn 3.328426E-07 1 -3.082519E-07
vn 3.554713E-07 1 4.248358E-07
vn 8.344603E-07 1 3.14878E-07
vn -1.250421E-06 1 2.18603E-07
vn 2.689205E-07 1 6.319811E-07
vn 3.968253E-07 1 7.612077E-07
vn 2.689205E-07 1 6.319811E-07
vn 2.689205E-07 1 6.319811E-07
vn 6.837215E-07 1 4.953451E-07
vn 2.21713E-07 1 -1.1423E-06
vn 0 1 0
vn 0 1 0
vn 0 -1 -8.818777E-07
vn 0 -1 -8.818777E-07
vn 0 -1 -8.818777E-07
vn 0 -1 -8.818777E-07
vn 0 -1 8.81884E-07
vn 0 -1 8.81884E-07
vn 0 -1 8.81884E-07
vn 0 -1 8.81884E-07
vn 0 1 -7.422715E-07
vn 0 1 -7.422715E-07
vn 0 1 -7.422715E-07
vn 0 1 -1.002404E-06
vn 0 1 5.408859E-07
vn 0 1 8.0102E-07
vn 0 1 8.0102E-07
vn 0 1 8.0102E-07
g Signboard 03_0
f 3/3/3 2/2/2 1/1/1
f 4/4/4 1/1/1 2/2/2
f 7/7/7 6/6/6 5/5/5
f 8/8/8 5/5/5 6/6/6
f 11/11/11 10/10/10 9/9/9
f 12/12/12 9/9/9 10/10/10
f 15/15/15 14/14/14 13/13/13
f 16/16/16 13/13/13 14/14/14
f 19/19/19 18/18/18 17/17/17
f 20/20/20 17/17/17 18/18/18
f 23/23/23 22/22/22 21/21/21
f 24/24/24 21/21/21 22/22/22
f 27/27/27 26/26/26 25/25/25
f 28/28/28 25/25/25 26/26/26
f 31/31/31 30/30/30 29/29/29
f 32/32/32 29/29/29 30/30/30
f 35/35/35 34/34/34 33/33/33
f 36/36/36 33/33/33 34/34/34
f 39/39/39 38/38/38 37/37/37
f 40/40/40 37/37/37 38/38/38
f 43/43/43 42/42/42 41/41/41
f 44/44/44 41/41/41 42/42/42
f 47/47/47 46/46/46 45/45/45
f 48/48/48 45/45/45 46/46/46
f 51/51/51 50/50/50 49/49/49
f 52/52/52 49/49/49 50/50/50
f 55/55/55 54/54/54 53/53/53
f 56/56/56 53/53/53 54/54/54
f 59/59/59 58/58/58 57/57/57
f 60/60/60 57/57/57 58/58/58
f 63/63/63 62/62/62 61/61/61
f 64/64/64 61/61/61 62/62/62
f 67/67/67 66/66/66 65/65/65
f 68/68/68 65/65/65 66/66/66
f 71/71/71 70/70/70 69/69/69
f 72/72/72 69/69/69 70/70/70
f 75/75/75 74/74/74 73/73/73
f 76/76/76 73/73/73 74/74/74
f 79/79/79 78/78/78 77/77/77
f 80/80/80 77/77/77 78/78/78
f 80/80/80 81/81/81 77/77/77
f 80/80/80 82/82/82 81/81/81
f 83/83/83 77/77/77 81/81/81
f 84/84/84 81/81/81 82/82/82
f 82/82/82 85/85/85 84/84/84
f 86/86/86 84/84/84 85/85/85
f 83/83/83 87/87/87 77/77/77
f 88/88/88 77/77/77 87/87/87
f 87/87/87 89/89/89 88/88/88
f 90/90/90 88/88/88 89/89/89
f 93/93/93 92/92/92 91/91/91
f 94/94/94 91/91/91 92/92/92
f 97/97/97 96/96/96 95/95/95
f 98/98/98 95/95/95 96/96/96
f 101/101/101 100/100/100 99/99/99
f 102/102/102 99/99/99 100/100/100
f 105/105/105 104/104/104 103/103/103
f 106/106/106 103/103/103 104/104/104
f 109/109/109 108/108/108 107/107/107
f 110/110/110 107/107/107 108/108/108
f 113/113/113 112/112/112 111/111/111
f 114/114/114 111/111/111 112/112/112
f 117/117/117 116/116/116 115/115/115
f 118/118/118 115/115/115 116/116/116
f 121/121/121 120/120/120 119/119/119
f 122/122/122 119/119/119 120/120/120
f 125/125/125 124/124/124 123/123/123
f 126/126/126 123/123/123 124/124/124
f 129/129/129 128/128/128 127/127/127
f 130/130/130 127/127/127 128/128/128
f 133/133/133 132/132/132 131/131/131
f 134/134/134 131/131/131 132/132/132
f 137/137/137 136/136/136 135/135/135
f 138/138/138 135/135/135 136/136/136
f 141/141/141 140/140/140 139/139/139
f 142/142/142 139/139/139 140/140/140
f 145/145/145 144/144/144 143/143/143
f 146/146/146 143/143/143 144/144/144
f 144/144/144 147/147/147 146/146/146
f 148/148/148 146/146/146 147/147/147
f 148/148/148 147/147/147 149/149/149
f 150/150/150 149/149/149 147/147/147
f 150/150/150 151/151/151 149/149/149
f 152/152/152 149/149/149 151/151/151
f 151/151/151 153/153/153 152/152/152
f 154/154/154 152/152/152 153/153/153
f 157/157/157 156/156/156 155/155/155
f 158/158/158 155/155/155 156/156/156
f 158/158/158 159/159/159 155/155/155
f 158/158/158 160/160/160 159/159/159
f 161/161/161 155/155/155 159/159/159
f 162/162/162 159/159/159 160/160/160
f 160/160/160 163/163/163 162/162/162
f 164/164/164 162/162/162 163/163/163
f 161/161/161 165/165/165 155/155/155
f 166/166/166 155/155/155 165/165/165
f 165/165/165 167/167/167 166/166/166
f 168/168/168 166/166/166 167/167/167
f 171/171/171 170/170/170 169/169/169
f 172/172/172 169/169/169 170/170/170
f 170/170/170 173/173/173 172/172/172
f 174/174/174 172/172/172 173/173/173
f 174/174/174 173/173/173 175/175/175
f 176/176/176 175/175/175 173/173/173
f 176/176/176 177/177/177 175/175/175
f 178/178/178 175/175/175 177/177/177
f 177/177/177 179/179/179 178/178/178
f 180/180/180 178/178/178 179/179/179
f 183/183/183 182/182/182 181/181/181
f 184/184/184 181/181/181 182/182/182
f 182/182/182 183/183/183 185/185/185
f 181/181/181 184/184/184 186/186/186
f 187/187/187 185/185/185 183/183/183
f 188/188/188 186/186/186 184/184/184
f 185/185/185 187/187/187 188/188/188
f 186/186/186 188/188/188 187/187/187
f 191/191/191 190/190/190 189/189/189
f 192/192/192 189/189/189 190/190/190
f 190/190/190 191/191/191 193/193/193
f 189/189/189 192/192/192 194/194/194
f 195/195/195 193/193/193 191/191/191
f 196/196/196 194/194/194 192/192/192
f 193/193/193 195/195/195 196/196/196
f 194/194/194 196/196/196 195/195/195
