g SM_Chr_Patch_Rank_03
v 0.02134588 0.03450279 0.009489012
v 0.05691402 0.04370575 0.009488988
v 0.05691402 -0.02406998 0.009488988
v 0.02643568 -0.03262577 0.009489012
v 0.0006906748 0.02499027 0.009489012
v -0.0002626181 -0.04370575 0.009489012
v -0.02320001 0.03509636 0.009489012
v -0.02379591 -0.03243503 0.009489012
v -0.05691397 -0.02336731 0.009488988
v -0.05691397 0.04360809 0.009488988
v -0.06269009 0.05097046 -0.009487462
v -0.06269009 0.05097046 0.009488988
v -0.06269009 -0.02926197 0.009488988
v -0.06269009 -0.02926197 -0.009487462
v 0.06269009 -0.03022785 -0.009487462
v 0.06269009 -0.03022785 0.009488988
v 0.06269009 0.05110474 0.009488988
v 0.06269009 0.05110474 -0.009487462
v -0.06269009 -0.02926197 -0.009487462
v -0.06269009 -0.02926197 0.009488988
v -0.02717884 -0.03692417 0.009489012
v -0.02717884 -0.03692417 -0.009488988
v -0.02717884 -0.03692417 -0.009488988
v -0.02717884 -0.03692417 0.009489012
v -0.0002999544 -0.05110474 0.009489012
v -0.0002999544 -0.05110474 -0.009488988
v -0.0002999544 -0.05110474 -0.009488988
v -0.0002999544 -0.05110474 0.009489012
v 0.03019388 -0.03718624 0.009489012
v 0.03019388 -0.03718624 -0.009488988
v 0.03019388 -0.03718624 -0.009488988
v 0.03019388 -0.03718624 0.009489012
v 0.06269009 -0.03022785 0.009488988
v 0.06269009 -0.03022785 -0.009487462
v 0.06269009 0.05110474 -0.009487462
v 0.06269009 0.05110474 0.009488988
v 0.0206712 0.04040718 0.009489012
v 0.0206712 0.04040718 -0.009488988
v 0.0206712 0.04040718 -0.009488988
v 0.0206712 0.04040718 0.009489012
v 0.0007888555 0.03233738 0.009489012
v 0.0007888555 0.03233738 -0.009488988
v 0.0007888555 0.03233738 -0.009488988
v 0.0007888555 0.03233738 0.009489012
v -0.02278888 0.04110393 0.009489012
v -0.02278888 0.04110393 -0.009488988
v -0.02278888 0.04110393 -0.009488988
v -0.02278888 0.04110393 0.009489012
v -0.06269009 0.05097046 0.009488988
v -0.06269009 0.05097046 -0.009487462
v -0.04020597 0.0008338928 -0.009487438
v -0.06269009 0.05097046 -0.009487462
v -0.06269009 -0.02926197 -0.009487462
v -0.02278888 0.04110393 -0.009488988
v -0.02717884 -0.03692417 -0.009488988
v 0.0007888555 0.03233738 -0.009488988
v 0.0002140283 0.001999473 -0.009488988
v -0.0002999544 -0.05110474 -0.009488988
v 0.0206712 0.04040718 -0.009488988
v 0.0404024 0.0008958816 -0.009487438
v 0.03019388 -0.03718624 -0.009488988
v 0.06269009 0.05110474 -0.009487462
v 0.06269009 -0.03022785 -0.009487462
v -0.05691397 -0.02336731 0.009488988
v -0.06269009 -0.02926197 0.009488988
v -0.06269009 0.05097046 0.009488988
v -0.05691397 0.04360809 0.009488988
v -0.02379591 -0.03243503 0.009489012
v -0.02278888 0.04110393 0.009489012
v -0.02717884 -0.03692417 0.009489012
v -0.02320001 0.03509636 0.009489012
v -0.0002626181 -0.04370575 0.009489012
v 0.0007888555 0.03233738 0.009489012
v -0.0002999544 -0.05110474 0.009489012
v 0.0006906748 0.02499027 0.009489012
v 0.02643568 -0.03262577 0.009489012
v 0.0206712 0.04040718 0.009489012
v 0.03019388 -0.03718624 0.009489012
v 0.02134588 0.03450279 0.009489012
v 0.05691402 -0.02406998 0.009488988
v 0.06269009 0.05110474 0.009488988
v 0.06269009 -0.03022785 0.009488988
v 0.05691402 0.04370575 0.009488988
vt 0.6610368 0.2412644
vt 0.671539 0.2454538
vt 0.6715389 0.2186906
vt 0.6625397 0.2144467
vt 0.6549381 0.2369342
vt 0.6546566 0.2088443
vt 0.647884 0.2415347
vt 0.647708 0.213975
vt 0.6379294 0.2185218
vt 0.6379294 0.2454094
vt 0.6338234 0.2321148
vt 0.6338234 0.2321148
vt 0.6338234 0.2321148
vt 0.6338234 0.2321148
vt 0.6338234 0.2321148
vt 0.6338234 0.2321148
vt 0.6338234 0.2321148
vt 0.6338234 0.2321148
vt 0.6338234 0.2321148
vt 0.6338234 0.2321148
vt 0.6338234 0.2321148
vt 0.6338234 0.2321148
vt 0.6338234 0.2321148
vt 0.6338234 0.2321148
vt 0.6338234 0.2321148
vt 0.6338234 0.2321148
vt 0.6338234 0.2321148
vt 0.6338234 0.2321148
vt 0.6338234 0.2321148
vt 0.6338234 0.2321148
vt 0.6338234 0.2321148
vt 0.6338234 0.2321148
vt 0.6338234 0.2321148
vt 0.6338234 0.2321148
vt 0.6338234 0.2321148
vt 0.6338234 0.2321148
vt 0.6338234 0.2321148
vt 0.6338234 0.2321148
vt 0.6338234 0.2321148
vt 0.6338234 0.2321148
vt 0.6338234 0.2321148
vt 0.6338234 0.2321148
vt 0.6338234 0.2321148
vt 0.6338234 0.2321148
vt 0.6338234 0.2321148
vt 0.6338234 0.2321148
vt 0.6338234 0.2321148
vt 0.6338234 0.2321148
vt 0.6338234 0.2321148
vt 0.6338234 0.2321148
vt 0.6338234 0.2321148
vt 0.6338234 0.2321148
vt 0.6338234 0.2321148
vt 0.6338234 0.2321148
vt 0.6338234 0.2321148
vt 0.6338234 0.2321148
vt 0.6338234 0.2321148
vt 0.6338234 0.2321148
vt 0.6338234 0.2321148
vt 0.6338234 0.2321148
vt 0.6338234 0.2321148
vt 0.6338234 0.2321148
vt 0.6338234 0.2321148
vt 0.6338234 0.2321148
vt 0.6338234 0.2321148
vt 0.6338234 0.2321148
vt 0.6338234 0.2321148
vt 0.6338234 0.2321148
vt 0.6338234 0.2321148
vt 0.6338234 0.2321148
vt 0.6338234 0.2321148
vt 0.6338234 0.2321148
vt 0.6338234 0.2321148
vt 0.6338234 0.2321148
vt 0.6338234 0.2321148
vt 0.6338234 0.2321148
vt 0.6338234 0.2321148
vt 0.6338234 0.2321148
vt 0.6338234 0.2321148
vt 0.6338234 0.2321148
vt 0.6338234 0.2321148
vt 0.6338234 0.2321148
vt 0.6338234 0.2321148
vn 0 0 1
vn 0 0 1
vn 0 0 1
vn 0 0 1
vn 0 0 1
vn 0 0 1
vn 0 0 1
vn 0 0 1
vn 0 0 1
vn 0 0 1
vn -1 0 0
vn -1 0 0
vn -1 0 0
vn -1 0 0
vn 1 0 0
vn 1 0 0
vn 1 0 0
vn 1 0 0
vn -0.2109144 -0.9775046 0
vn -0.2109144 -0.9775046 0
vn -0.2109144 -0.9775046 0
vn -0.2109144 -0.9775046 0
vn -0.4666168 -0.8844597 0
vn -0.4666168 -0.8844597 0
vn -0.4666168 -0.8844597 0
vn -0.4666168 -0.8844597 0
vn 0.4152281 -0.9097173 0
vn 0.4152281 -0.9097173 0
vn 0.4152281 -0.9097173 0
vn 0.4152281 -0.9097173 0
vn 0.2093828 -0.9778337 0
vn 0.2093828 -0.9778337 0
vn 0.2093828 -0.9778337 0
vn 0.2093828 -0.9778337 0
vn -0.2467191 0.969087 0
vn -0.2467191 0.969087 0
vn -0.2467191 0.969087 0
vn -0.2467191 0.969087 0
vn -0.376081 0.9265868 0
vn -0.376081 0.9265868 0
vn -0.376081 0.9265868 0
vn -0.376081 0.9265868 0
vn 0.3485048 0.937307 0
vn 0.3485048 0.937307 0
vn 0.3485048 0.937307 0
vn 0.3485048 0.937307 0
vn 0.240044 0.970762 0
vn 0.240044 0.970762 0
vn 0.240044 0.970762 0
vn 0.240044 0.970762 0
vn -2.504851E-05 0 -1
vn -2.104143E-05 -9.911726E-06 -1
vn -1.789818E-05 1.416364E-05 -1
vn -3.458868E-05 -1.756892E-05 -1
vn -2.85628E-05 2.129582E-05 -1
vn 0 -1.497999E-05 -1
vn 0 0 -1
vn 0 1.449768E-05 -1
vn 3.428696E-05 -1.667731E-05 -1
vn 2.546583E-05 2.238991E-06 -1
vn 2.991249E-05 2.227479E-05 -1
vn 2.000375E-05 -9.354509E-06 -1
vn 1.975042E-05 1.490929E-05 -1
vn 0 0 1
vn 0 0 1
vn 0 0 1
vn 0 0 1
vn 0 0 1
vn 0 0 1
vn 0 0 1
vn 0 0 1
vn 0 0 1
vn 0 0 1
vn 0 0 1
vn 0 0 1
vn 0 0 1
vn 0 0 1
vn 0 0 1
vn 0 0 1
vn 0 0 1
vn 0 0 1
vn 0 0 1
vn 0 0 1
g SM_Chr_Patch_Rank_03_0
f 3/3/3 2/2/2 1/1/1
f 4/4/4 3/3/3 1/1/1
f 4/4/4 1/1/1 5/5/5
f 6/6/6 4/4/4 5/5/5
f 6/6/6 5/5/5 7/7/7
f 8/8/8 6/6/6 7/7/7
f 8/8/8 7/7/7 9/9/9
f 7/7/7 10/10/10 9/9/9
f 13/13/13 12/12/12 11/11/11
f 14/14/14 13/13/13 11/11/11
f 17/17/17 16/16/16 15/15/15
f 18/18/18 17/17/17 15/15/15
f 21/21/21 20/20/20 19/19/19
f 22/22/22 21/21/21 19/19/19
f 25/25/25 24/24/24 23/23/23
f 26/26/26 25/25/25 23/23/23
f 29/29/29 28/28/28 27/27/27
f 30/30/30 29/29/29 27/27/27
f 33/33/33 32/32/32 31/31/31
f 34/34/34 33/33/33 31/31/31
f 37/37/37 36/36/36 35/35/35
f 38/38/38 37/37/37 35/35/35
f 41/41/41 40/40/40 39/39/39
f 42/42/42 41/41/41 39/39/39
f 45/45/45 44/44/44 43/43/43
f 46/46/46 45/45/45 43/43/43
f 49/49/49 48/48/48 47/47/47
f 50/50/50 49/49/49 47/47/47
f 53/53/53 52/52/52 51/51/51
f 52/52/52 54/54/54 51/51/51
f 55/55/55 53/53/53 51/51/51
f 54/54/54 56/56/56 51/51/51
f 55/55/55 51/51/51 57/57/57
f 56/56/56 57/57/57 51/51/51
f 58/58/58 55/55/55 57/57/57
f 56/56/56 59/59/59 57/57/57
f 58/58/58 57/57/57 60/60/60
f 59/59/59 60/60/60 57/57/57
f 61/61/61 58/58/58 60/60/60
f 59/59/59 62/62/62 60/60/60
f 63/63/63 61/61/61 60/60/60
f 62/62/62 63/63/63 60/60/60
f 66/66/66 65/65/65 64/64/64
f 67/67/67 66/66/66 64/64/64
f 64/64/64 65/65/65 68/68/68
f 69/69/69 66/66/66 67/67/67
f 65/65/65 70/70/70 68/68/68
f 71/71/71 69/69/69 67/67/67
f 68/68/68 70/70/70 72/72/72
f 73/73/73 69/69/69 71/71/71
f 70/70/70 74/74/74 72/72/72
f 75/75/75 73/73/73 71/71/71
f 72/72/72 74/74/74 76/76/76
f 77/77/77 73/73/73 75/75/75
f 74/74/74 78/78/78 76/76/76
f 79/79/79 77/77/77 75/75/75
f 76/76/76 78/78/78 80/80/80
f 81/81/81 77/77/77 79/79/79
f 78/78/78 82/82/82 80/80/80
f 83/83/83 81/81/81 79/79/79
f 80/80/80 82/82/82 83/83/83
f 82/82/82 81/81/81 83/83/83
