g SM_Chr_Attach_Hat_Roadcone_01
v 0.1468484 0.1227284 -0.08631761
v 0.09714539 0.2790977 -0.1467068
v 0.03352876 0.2462174 -0.1978552
v 0.05618175 0.07845602 -0.1624692
v 0.05618175 0.07845602 -0.1624692
v 0.03352876 0.2462174 -0.1978552
v -0.05346579 0.2355955 -0.1898887
v -0.06989431 0.0713706 -0.1566214
v -0.06989431 0.0713706 -0.1566214
v -0.05346579 0.2355955 -0.1898887
v -0.112878 0.253454 -0.1274739
v -0.1575261 0.105623 -0.07219973
v -0.1575261 0.105623 -0.07219973
v -0.112878 0.253454 -0.1274739
v -0.1099051 0.2893316 -0.04717261
v -0.1553801 0.1611484 0.04134268
v -0.1553801 0.1611484 0.04134268
v -0.1099051 0.2893316 -0.04717261
v -0.04628842 0.3222118 0.003975809
v -0.06471345 0.205421 0.1174943
v -0.06471345 0.205421 0.1174943
v -0.04628842 0.3222118 0.003975809
v 0.04070613 0.3328338 -0.003990727
v 0.06136261 0.2125063 0.1116465
v 0.06136261 0.2125063 0.1116465
v 0.04070613 0.3328338 -0.003990727
v 0.1001184 0.3149753 -0.0664055
v 0.1489944 0.1782539 0.02722482
v 0.1489944 0.1782539 0.02722482
v 0.1001184 0.3149753 -0.0664055
v 0.09714539 0.2790977 -0.1467068
v 0.1468484 0.1227284 -0.08631761
v -0.1174582 0.02022686 -0.2538343
v -0.1141897 -0.02124424 -0.2336155
v 0.2596362 0.06733513 -0.1123594
v 0.2563677 0.1088062 -0.1325782
v -0.2648994 0.1750708 0.08760326
v -0.261631 0.1335997 0.107822
v -0.1141897 -0.02124424 -0.2336155
v -0.1174582 0.02022686 -0.2538343
v 0.1089265 0.2636501 0.2088594
v 0.112195 0.222179 0.2290781
v -0.261631 0.1335997 0.107822
v -0.2648994 0.1750708 0.08760326
v 0.2563677 0.1088062 -0.1325782
v 0.2596362 0.06733513 -0.1123594
v 0.112195 0.222179 0.2290781
v 0.1089265 0.2636501 0.2088594
v 0.06649387 0.3481151 -0.1659816
v -0.009909382 0.5307919 -0.2242645
v -0.0309473 0.5199184 -0.2411793
v 0.0182914 0.3232018 -0.2047368
v 0.0687465 0.3752997 -0.1051371
v -0.008926213 0.5426565 -0.197709
v -0.009909382 0.5307919 -0.2242645
v 0.06649387 0.3481151 -0.1659816
v 0.02372972 0.3888312 -0.0578453
v -0.02857376 0.5485622 -0.1770685
v -0.008926213 0.5426565 -0.197709
v 0.0687465 0.3752997 -0.1051371
v -0.04218625 0.3807829 -0.05180903
v -0.05734275 0.5450497 -0.174434
v -0.02857376 0.5485622 -0.1770685
v 0.02372972 0.3888312 -0.0578453
v -0.09038872 0.3558694 -0.0905643
v -0.07838068 0.5341762 -0.1913487
v -0.05734275 0.5450497 -0.174434
v -0.04218625 0.3807829 -0.05180903
v -0.09264133 0.3286848 -0.1514088
v -0.07936384 0.5223114 -0.2179042
v -0.07838068 0.5341762 -0.1913487
v -0.09038872 0.3558694 -0.0905643
v -0.04762456 0.3151535 -0.1987006
v -0.05971628 0.5164058 -0.2385447
v -0.07936384 0.5223114 -0.2179042
v -0.09264133 0.3286848 -0.1514088
v 0.0182914 0.3232018 -0.2047368
v -0.0309473 0.5199184 -0.2411793
v -0.05971628 0.5164058 -0.2385447
v -0.04762456 0.3151535 -0.1987006
v 0.09714539 0.2790977 -0.1467068
v 0.06649387 0.3481151 -0.1659816
v 0.0182914 0.3232018 -0.2047368
v 0.03352876 0.2462174 -0.1978552
v 0.1001184 0.3149753 -0.0664055
v 0.0687465 0.3752997 -0.1051371
v 0.06649387 0.3481151 -0.1659816
v 0.09714539 0.2790977 -0.1467068
v 0.04070613 0.3328338 -0.003990727
v 0.02372972 0.3888312 -0.0578453
v 0.0687465 0.3752997 -0.1051371
v 0.1001184 0.3149753 -0.0664055
v -0.04628842 0.3222118 0.003975809
v -0.04218625 0.3807829 -0.05180903
v 0.02372972 0.3888312 -0.0578453
v 0.04070613 0.3328338 -0.003990727
v -0.1099051 0.2893316 -0.04717261
v -0.09038872 0.3558694 -0.0905643
v -0.04218625 0.3807829 -0.05180903
v -0.04628842 0.3222118 0.003975809
v -0.112878 0.253454 -0.1274739
v -0.09264133 0.3286848 -0.1514088
v -0.09038872 0.3558694 -0.0905643
v -0.1099051 0.2893316 -0.04717261
v -0.05346579 0.2355955 -0.1898887
v -0.04762456 0.3151535 -0.1987006
v -0.09264133 0.3286848 -0.1514088
v -0.112878 0.253454 -0.1274739
v 0.03352876 0.2462174 -0.1978552
v 0.0182914 0.3232018 -0.2047368
v -0.04762456 0.3151535 -0.1987006
v -0.05346579 0.2355955 -0.1898887
v -0.009909382 0.5307919 -0.2242645
v -0.04414503 0.5324841 -0.2078066
v -0.0309473 0.5199184 -0.2411793
v -0.008926213 0.5426565 -0.197709
v -0.05971628 0.5164058 -0.2385447
v -0.02857376 0.5485622 -0.1770685
v -0.07936384 0.5223114 -0.2179042
v -0.05734275 0.5450497 -0.174434
v -0.07838068 0.5341762 -0.1913487
v 0.05618175 0.07845602 -0.1624692
v 0.2563677 0.1088062 -0.1325782
v 0.1468484 0.1227284 -0.08631761
v 0.1489944 0.1782539 0.02722482
v -0.1174582 0.02022686 -0.2538343
v -0.06989431 0.0713706 -0.1566214
v -0.1575261 0.105623 -0.07219973
v 0.1089265 0.2636501 0.2088594
v 0.06136261 0.2125063 0.1116465
v -0.06471345 0.205421 0.1174943
v -0.2648994 0.1750708 0.08760326
v -0.1553801 0.1611484 0.04134268
v -0.0009973916 0.1004673 -0.002268684
v 0.2596362 0.06733513 -0.1123594
v -0.1141897 -0.02124424 -0.2336155
v -0.261631 0.1335997 0.107822
v 0.112195 0.222179 0.2290781
vt 0.123193 0.2100452
vt 0.123193 0.2100452
vt 0.123193 0.2100452
vt 0.123193 0.2100452
vt 0.123193 0.2100452
vt 0.123193 0.2100452
vt 0.123193 0.2100452
vt 0.123193 0.2100452
vt 0.123193 0.2100452
vt 0.123193 0.2100452
vt 0.123193 0.2100452
vt 0.123193 0.2100452
vt 0.123193 0.2100452
vt 0.123193 0.2100452
vt 0.123193 0.2100452
vt 0.123193 0.2100452
vt 0.123193 0.2100452
vt 0.123193 0.2100452
vt 0.123193 0.2100452
vt 0.123193 0.2100452
vt 0.123193 0.2100452
vt 0.123193 0.2100452
vt 0.123193 0.2100452
vt 0.123193 0.2100452
vt 0.123193 0.2100452
vt 0.123193 0.2100452
vt 0.123193 0.2100452
vt 0.123193 0.2100452
vt 0.123193 0.2100452
vt 0.123193 0.2100452
vt 0.123193 0.2100452
vt 0.123193 0.2100452
vt 0.123193 0.2100452
vt 0.123193 0.2100452
vt 0.123193 0.2100452
vt 0.123193 0.2100452
vt 0.123193 0.2100452
vt 0.123193 0.2100452
vt 0.123193 0.2100452
vt 0.123193 0.2100452
vt 0.123193 0.2100452
vt 0.123193 0.2100452
vt 0.123193 0.2100452
vt 0.123193 0.2100452
vt 0.123193 0.2100452
vt 0.123193 0.2100452
vt 0.123193 0.2100452
vt 0.123193 0.2100452
vt 0.123193 0.2100452
vt 0.123193 0.2100452
vt 0.123193 0.2100452
vt 0.123193 0.2100452
vt 0.123193 0.2100452
vt 0.123193 0.2100452
vt 0.123193 0.2100452
vt 0.123193 0.2100452
vt 0.123193 0.2100452
vt 0.123193 0.2100452
vt 0.123193 0.2100452
vt 0.123193 0.2100452
vt 0.123193 0.2100452
vt 0.123193 0.2100452
vt 0.123193 0.2100452
vt 0.123193 0.2100452
vt 0.123193 0.2100452
vt 0.123193 0.2100452
vt 0.123193 0.2100452
vt 0.123193 0.2100452
vt 0.123193 0.2100452
vt 0.123193 0.2100452
vt 0.123193 0.2100452
vt 0.123193 0.2100452
vt 0.123193 0.2100452
vt 0.123193 0.2100452
vt 0.123193 0.2100452
vt 0.123193 0.2100452
vt 0.123193 0.2100452
vt 0.123193 0.2100452
vt 0.123193 0.2100452
vt 0.123193 0.2100452
vt 0.1546618 0.2114697
vt 0.1546618 0.2114697
vt 0.1546618 0.2114697
vt 0.1546618 0.2114697
vt 0.1546618 0.2114697
vt 0.1546618 0.2114697
vt 0.1546618 0.2114697
vt 0.1546618 0.2114697
vt 0.1546618 0.2114697
vt 0.1546618 0.2114697
vt 0.1546618 0.2114697
vt 0.1546618 0.2114697
vt 0.1546618 0.2114697
vt 0.1546618 0.2114697
vt 0.1546618 0.2114697
vt 0.1546618 0.2114697
vt 0.1546618 0.2114697
vt 0.1546618 0.2114697
vt 0.1546618 0.2114697
vt 0.1546618 0.2114697
vt 0.1546618 0.2114697
vt 0.1546618 0.2114697
vt 0.1546618 0.2114697
vt 0.1546618 0.2114697
vt 0.1546618 0.2114697
vt 0.1546618 0.2114697
vt 0.1546618 0.2114697
vt 0.1546618 0.2114697
vt 0.1546618 0.2114697
vt 0.1546618 0.2114697
vt 0.1546618 0.2114697
vt 0.1546618 0.2114697
vt 0.123193 0.2100452
vt 0.123193 0.2100452
vt 0.123193 0.2100452
vt 0.123193 0.2100452
vt 0.123193 0.2100452
vt 0.123193 0.2100452
vt 0.123193 0.2100452
vt 0.123193 0.2100452
vt 0.123193 0.2100452
vt 0.123193 0.2100452
vt 0.123193 0.2100452
vt 0.123193 0.2100452
vt 0.123193 0.2100452
vt 0.123193 0.2100452
vt 0.123193 0.2100452
vt 0.123193 0.2100452
vt 0.123193 0.2100452
vt 0.123193 0.2100452
vt 0.123193 0.2100452
vt 0.123193 0.2100452
vt 0.123193 0.2100452
vt 0.123193 0.2100452
vt 0.123193 0.2100452
vt 0.123193 0.2100452
vt 0.123193 0.2100452
vt 0.123193 0.2100452
vn 0.6567165 -0.07512712 -0.7503861
vn 0.6567165 -0.07512712 -0.7503861
vn 0.6567165 -0.07512712 -0.7503861
vn 0.6567165 -0.07512712 -0.7503861
vn -0.04652998 -0.2031282 -0.9780459
vn -0.04652998 -0.2031282 -0.9780459
vn -0.04652998 -0.2031282 -0.9780459
vn -0.04652998 -0.2031282 -0.9780459
vn -0.7155647 -0.05747813 -0.6961778
vn -0.7215875 -0.04003037 -0.691165
vn -0.7215875 -0.04003037 -0.691165
vn -0.7155647 -0.05747813 -0.6961778
vn -0.9599829 0.2622391 -0.09830279
vn -0.9644984 0.2502281 -0.08443144
vn -0.9644984 0.2502281 -0.08443144
vn -0.9599829 0.2622391 -0.09830279
vn -0.6742148 0.5665691 0.4737446
vn -0.6776487 0.5482953 0.490066
vn -0.6776487 0.5482953 0.490066
vn -0.6742148 0.5665691 0.4737446
vn -0.01112257 0.6948329 0.7190852
vn -0.01457777 0.6925358 0.7212362
vn -0.01457777 0.6925358 0.7212362
vn -0.01112257 0.6948329 0.7190852
vn 0.673731 0.5675417 0.4732685
vn 0.6617753 0.5942521 0.4570754
vn 0.6617753 0.5942521 0.4570754
vn 0.673731 0.5675417 0.4732685
vn 0.9583678 0.2476709 -0.1420925
vn 0.9583678 0.2476709 -0.1420925
vn 0.9583678 0.2476709 -0.1420925
vn 0.9583678 0.2476709 -0.1420925
vn 0.3659875 -0.3843627 -0.8475367
vn 0.3659875 -0.3843627 -0.8475367
vn 0.3659875 -0.3843627 -0.8475367
vn 0.3659875 -0.3843627 -0.8475367
vn -0.927933 -0.2198766 -0.3009893
vn -0.927933 -0.2198766 -0.3009893
vn -0.927933 -0.2198766 -0.3009893
vn -0.927933 -0.2198766 -0.3009893
vn -0.3659874 0.3843625 0.8475369
vn -0.3659874 0.3843625 0.8475369
vn -0.3659874 0.3843625 0.8475369
vn -0.3659874 0.3843625 0.8475369
vn 0.9279331 0.2198769 0.300989
vn 0.9279331 0.2198769 0.300989
vn 0.9279331 0.2198769 0.300989
vn 0.9279331 0.2198769 0.300989
vn 0.6166641 0.03056362 -0.7866328
vn 0.6230777 0.01107482 -0.7820816
vn 0.6230777 0.01107482 -0.7820816
vn 0.6166641 0.03056362 -0.7866328
vn 0.9212024 0.341398 -0.1866379
vn 0.9265069 0.3295801 -0.1815541
vn 0.9265069 0.3295801 -0.1815541
vn 0.9212024 0.341398 -0.1866379
vn 0.6595563 0.596698 0.4570964
vn 0.6694088 0.5725335 0.4733892
vn 0.6694088 0.5725335 0.4733892
vn 0.6595563 0.596698 0.4570964
vn 0.0003407272 0.5982233 0.8013294
vn 0.0003407272 0.5982233 0.8013294
vn 0.0003407272 0.5982233 0.8013294
vn 0.0003407272 0.5982233 0.8013294
vn -0.690953 0.3904205 0.6084042
vn -0.690953 0.3904205 0.6084042
vn -0.690953 0.3904205 0.6084042
vn -0.690953 0.3904205 0.6084042
vn -0.9975108 0.07029831 0.005521931
vn -0.9975108 0.07029831 0.005521931
vn -0.9975108 0.07029831 0.005521931
vn -0.9975108 0.07029831 0.005521931
vn -0.7376448 -0.1735052 -0.6525152
vn -0.7376448 -0.1735052 -0.6525152
vn -0.7376448 -0.1735052 -0.6525152
vn -0.7376448 -0.1735052 -0.6525152
vn -0.07184807 -0.1510031 -0.9859189
vn -0.06544542 -0.1975776 -0.9781002
vn -0.06544542 -0.1975776 -0.9781002
vn -0.07184807 -0.1510031 -0.9859189
vn 0.6099781 0.05003892 -0.7908368
vn 0.6166641 0.03056362 -0.7866328
vn 0.6166641 0.03056362 -0.7866328
vn 0.6099781 0.05003892 -0.7908368
vn 0.9157193 0.3531498 -0.1916856
vn 0.9212024 0.341398 -0.1866379
vn 0.9212024 0.341398 -0.1866379
vn 0.9157193 0.3531498 -0.1916856
vn 0.6617753 0.5942521 0.4570754
vn 0.6595563 0.596698 0.4570964
vn 0.6595563 0.596698 0.4570964
vn 0.6617753 0.5942521 0.4570754
vn -0.01457777 0.6925358 0.7212362
vn -0.01803266 0.6902236 0.7233714
vn -0.01803266 0.6902236 0.7233714
vn -0.01457777 0.6925358 0.7212362
vn -0.6776487 0.5482953 0.490066
vn -0.6806677 0.5296857 0.5060874
vn -0.6806677 0.5296857 0.5060874
vn -0.6776487 0.5482953 0.490066
vn -0.9644984 0.2502281 -0.08443144
vn -0.9686696 0.2381278 -0.07052994
vn -0.9686696 0.2381278 -0.07052994
vn -0.9644984 0.2502281 -0.08443144
vn -0.7215875 -0.04003037 -0.691165
vn -0.7273466 -0.02256797 -0.6858992
vn -0.7273466 -0.02256797 -0.6858992
vn -0.7215875 -0.04003037 -0.691165
vn -0.07808756 -0.1040856 -0.9914981
vn -0.07184807 -0.1510031 -0.9859189
vn -0.07184807 -0.1510031 -0.9859189
vn -0.07808756 -0.1040856 -0.9914981
vn -0.1470473 0.9051075 -0.3989455
vn -0.1470463 0.9051072 -0.3989466
vn -0.147047 0.905107 -0.3989467
vn -0.1470463 0.9051081 -0.3989443
vn -0.1470473 0.9051074 -0.3989457
vn -0.1470436 0.9051078 -0.398946
vn -0.1470479 0.9051067 -0.3989472
vn -0.1470439 0.905107 -0.3989481
vn -0.1470468 0.9051059 -0.3989491
vn -0.07066489 0.8966156 -0.4371348
vn -0.07066556 0.8966154 -0.4371352
vn -0.07066518 0.8966156 -0.4371348
vn -0.07066597 0.8966153 -0.4371354
vn -0.07066485 0.8966156 -0.4371349
vn -0.0706649 0.8966156 -0.437135
vn -0.07066429 0.8966157 -0.4371348
vn -0.07066504 0.8966151 -0.4371358
vn -0.07066532 0.8966151 -0.4371359
vn -0.0706644 0.8966151 -0.4371359
vn -0.07066435 0.8966156 -0.4371351
vn -0.07066415 0.8966156 -0.4371352
vn 0.07066479 -0.8966156 0.4371351
vn 0.0706651 -0.8966156 0.437135
vn 0.07066467 -0.8966157 0.4371348
vn 0.0706645 -0.8966155 0.4371352
vn 0.07066493 -0.8966154 0.4371354
g SM_Chr_Attach_Hat_Roadcone_01_0
f 3/3/3 2/2/2 1/1/1
f 4/4/4 3/3/3 1/1/1
f 7/7/7 6/6/6 5/5/5
f 8/8/8 7/7/7 5/5/5
f 11/11/11 10/10/10 9/9/9
f 12/12/12 11/11/11 9/9/9
f 15/15/15 14/14/14 13/13/13
f 16/16/16 15/15/15 13/13/13
f 19/19/19 18/18/18 17/17/17
f 20/20/20 19/19/19 17/17/17
f 23/23/23 22/22/22 21/21/21
f 24/24/24 23/23/23 21/21/21
f 27/27/27 26/26/26 25/25/25
f 28/28/28 27/27/27 25/25/25
f 31/31/31 30/30/30 29/29/29
f 32/32/32 31/31/31 29/29/29
f 35/35/35 34/34/34 33/33/33
f 36/36/36 35/35/35 33/33/33
f 39/39/39 38/38/38 37/37/37
f 40/40/40 39/39/39 37/37/37
f 43/43/43 42/42/42 41/41/41
f 44/44/44 43/43/43 41/41/41
f 47/47/47 46/46/46 45/45/45
f 48/48/48 47/47/47 45/45/45
f 51/51/51 50/50/50 49/49/49
f 52/52/52 51/51/51 49/49/49
f 55/55/55 54/54/54 53/53/53
f 56/56/56 55/55/55 53/53/53
f 59/59/59 58/58/58 57/57/57
f 60/60/60 59/59/59 57/57/57
f 63/63/63 62/62/62 61/61/61
f 64/64/64 63/63/63 61/61/61
f 67/67/67 66/66/66 65/65/65
f 68/68/68 67/67/67 65/65/65
f 71/71/71 70/70/70 69/69/69
f 72/72/72 71/71/71 69/69/69
f 75/75/75 74/74/74 73/73/73
f 76/76/76 75/75/75 73/73/73
f 79/79/79 78/78/78 77/77/77
f 80/80/80 79/79/79 77/77/77
f 83/83/83 82/82/82 81/81/81
f 84/84/84 83/83/83 81/81/81
f 87/87/87 86/86/86 85/85/85
f 88/88/88 87/87/87 85/85/85
f 91/91/91 90/90/90 89/89/89
f 92/92/92 91/91/91 89/89/89
f 95/95/95 94/94/94 93/93/93
f 96/96/96 95/95/95 93/93/93
f 99/99/99 98/98/98 97/97/97
f 100/100/100 99/99/99 97/97/97
f 103/103/103 102/102/102 101/101/101
f 104/104/104 103/103/103 101/101/101
f 107/107/107 106/106/106 105/105/105
f 108/108/108 107/107/107 105/105/105
f 111/111/111 110/110/110 109/109/109
f 112/112/112 111/111/111 109/109/109
f 115/115/115 114/114/114 113/113/113
f 113/113/113 114/114/114 116/116/116
f 117/117/117 114/114/114 115/115/115
f 116/116/116 114/114/114 118/118/118
f 119/119/119 114/114/114 117/117/117
f 118/118/118 114/114/114 120/120/120
f 121/121/121 114/114/114 119/119/119
f 120/120/120 114/114/114 121/121/121
f 124/124/124 123/123/123 122/122/122
f 125/125/125 123/123/123 124/124/124
f 123/123/123 126/126/126 122/122/122
f 122/122/122 126/126/126 127/127/127
f 127/127/127 126/126/126 128/128/128
f 129/129/129 123/123/123 125/125/125
f 130/130/130 129/129/129 125/125/125
f 131/131/131 129/129/129 130/130/130
f 126/126/126 132/132/132 128/128/128
f 132/132/132 129/129/129 131/131/131
f 128/128/128 132/132/132 133/133/133
f 133/133/133 132/132/132 131/131/131
f 136/136/136 135/135/135 134/134/134
f 137/137/137 136/136/136 134/134/134
f 135/135/135 138/138/138 134/134/134
f 138/138/138 137/137/137 134/134/134
