g SM_Generic_Small_Rocks_02
v 0.02059191 0 -0.2003153
v 0.1173172 0.03716061 -0.3220102
v 0.1234595 0.04104512 -0.2560124
v 0.02062467 0.04550416 -0.2933901
v 0.06012324 0 -0.3716961
v 0.1418296 0 -0.3628671
v 0.1613815 0 -0.2368291
v 0.0952862 0 -0.2019953
v -0.005231112 0 -0.299866
v 0.04268696 0.05383803 -0.2298469
v 0.06771167 0.04354152 -0.3347474
v 0.08265918 0.05383803 -0.2308716
v -0.178441 0 -0.0746407
v -0.08849091 0.0781173 -0.07862034
v 0.0786259 0.07816868 -0.09713341
v 0.03648664 0.0781173 -0.01254809
v -0.05989759 0.07816868 -0.151511
v 0.05084883 0.04215062 -0.1892818
v 0.03264254 0.09021149 -0.1575639
v 0.1289061 0 -0.0780931
v 0.06161262 0 0.05224028
v -0.06359128 0.06910538 0.01042719
v -0.07753794 0 -0.2401296
v -0.09770127 0 0.05621098
v -0.03653507 0.09907186 -0.02165421
v 0.086122 0 -0.2059988
v 0.03366276 0 0.3716961
v 0.05855493 0.0503739 0.3192416
v 0.09846306 0.05040722 0.2184284
v 0.1339373 0.05037409 0.2679789
v 0.02565433 0.05040722 0.2809407
v 0.03756943 0.02718084 0.2064329
v 0.05014732 0.05817289 0.226384
v 0.1244946 0 0.1955276
v 0.178441 0 0.2732241
v 0.1168123 0.04456268 0.3319393
v -0.03016643 0 0.2642346
v 0.1326013 0 0.3651995
v 0.1066994 0.06388656 0.3068369
v 0.03869689 0 0.1812883
v -0.005231112 0 -0.299866
v 0.02062467 0.04550416 -0.2933901
v 0.06012324 0 -0.3716961
v 0.1173172 0.03716061 -0.3220102
v 0.06771167 0.04354152 -0.3347474
v 0.1234595 0.04104512 -0.2560124
v 0.1173172 0.03716061 -0.3220102
v 0.02059191 0 -0.2003153
v 0.04268696 0.05383803 -0.2298469
v 0.04268696 0.05383803 -0.2298469
v 0.02062467 0.04550416 -0.2933901
v 0.08265918 0.05383803 -0.2308716
v 0.1418296 0 -0.3628671
v 0.1173172 0.03716061 -0.3220102
v 0.06012324 0 -0.3716961
v 0.06012324 0 -0.3716961
v 0.06771167 0.04354152 -0.3347474
v 0.02062467 0.04550416 -0.2933901
v 0.02062467 0.04550416 -0.2933901
v 0.06771167 0.04354152 -0.3347474
v 0.1234595 0.04104512 -0.2560124
v 0.08265918 0.05383803 -0.2308716
v 0.1234595 0.04104512 -0.2560124
v 0.1613815 0 -0.2368291
v 0.0952862 0 -0.2019953
v 0.02062467 0.04550416 -0.2933901
v 0.1234595 0.04104512 -0.2560124
v 0.08265918 0.05383803 -0.2308716
v -0.05989759 0.07816868 -0.151511
v -0.178441 0 -0.0746407
v -0.05989759 0.07816868 -0.151511
v -0.07753794 0 -0.2401296
v -0.07753794 0 -0.2401296
v 0.03264254 0.09021149 -0.1575639
v 0.03264254 0.09021149 -0.1575639
v 0.05084883 0.04215062 -0.1892818
v 0.0786259 0.07816868 -0.09713341
v 0.03264254 0.09021149 -0.1575639
v 0.03648664 0.0781173 -0.01254809
v 0.0786259 0.07816868 -0.09713341
v 0.06161262 0 0.05224028
v -0.06359128 0.06910538 0.01042719
v -0.09770127 0 0.05621098
v -0.08849091 0.0781173 -0.07862034
v -0.09770127 0 0.05621098
v -0.178441 0 -0.0746407
v -0.08849091 0.0781173 -0.07862034
v -0.06359128 0.06910538 0.01042719
v -0.08849091 0.0781173 -0.07862034
v -0.06359128 0.06910538 0.01042719
v -0.03653507 0.09907186 -0.02165421
v 0.06161262 0 0.05224028
v 0.03648664 0.0781173 -0.01254809
v -0.03653507 0.09907186 -0.02165421
v 0.03264254 0.09021149 -0.1575639
v 0.03648664 0.0781173 -0.01254809
v -0.08849091 0.0781173 -0.07862034
v -0.05989759 0.07816868 -0.151511
v -0.03653507 0.09907186 -0.02165421
v -0.05989759 0.07816868 -0.151511
v 0.03264254 0.09021149 -0.1575639
v -0.03653507 0.09907186 -0.02165421
v 0.05084883 0.04215062 -0.1892818
v -0.07753794 0 -0.2401296
v 0.1289061 0 -0.0780931
v 0.0786259 0.07816868 -0.09713341
v 0.086122 0 -0.2059988
v 0.0786259 0.07816868 -0.09713341
v 0.05084883 0.04215062 -0.1892818
v 0.086122 0 -0.2059988
v 0.02565433 0.05040722 0.2809407
v 0.03366276 0 0.3716961
v 0.02565433 0.05040722 0.2809407
v -0.03016643 0 0.2642346
v -0.03016643 0 0.2642346
v 0.05014732 0.05817289 0.226384
v 0.05014732 0.05817289 0.226384
v 0.03756943 0.02718084 0.2064329
v 0.09846306 0.05040722 0.2184284
v 0.05014732 0.05817289 0.226384
v 0.1339373 0.05037409 0.2679789
v 0.09846306 0.05040722 0.2184284
v 0.178441 0 0.2732241
v 0.1168123 0.04456268 0.3319393
v 0.1326013 0 0.3651995
v 0.05855493 0.0503739 0.3192416
v 0.1326013 0 0.3651995
v 0.03366276 0 0.3716961
v 0.05855493 0.0503739 0.3192416
v 0.1168123 0.04456268 0.3319393
v 0.05855493 0.0503739 0.3192416
v 0.1168123 0.04456268 0.3319393
v 0.1066994 0.06388656 0.3068369
v 0.178441 0 0.2732241
v 0.1339373 0.05037409 0.2679789
v 0.1066994 0.06388656 0.3068369
v 0.05014732 0.05817289 0.226384
v 0.1339373 0.05037409 0.2679789
v 0.05855493 0.0503739 0.3192416
v 0.02565433 0.05040722 0.2809407
v 0.1066994 0.06388656 0.3068369
v 0.02565433 0.05040722 0.2809407
v 0.05014732 0.05817289 0.226384
v 0.1066994 0.06388656 0.3068369
v 0.03756943 0.02718084 0.2064329
v -0.03016643 0 0.2642346
v 0.1244946 0 0.1955276
v 0.09846306 0.05040722 0.2184284
v 0.03869689 0 0.1812883
v 0.09846306 0.05040722 0.2184284
v 0.03756943 0.02718084 0.2064329
v 0.03869689 0 0.1812883
vt 0.170027 0.1908758
vt 0.170027 0.1908758
vt 0.170027 0.1908758
vt 0.170027 0.1908758
vt 0.170027 0.1908758
vt 0.170027 0.1908758
vt 0.170027 0.1908758
vt 0.170027 0.1908758
vt 0.170027 0.1908758
vt 0.170027 0.1908758
vt 0.170027 0.1908758
vt 0.170027 0.1908758
vt 0.170027 0.1908758
vt 0.170027 0.1908758
vt 0.170027 0.1908758
vt 0.170027 0.1908758
vt 0.170027 0.1908758
vt 0.170027 0.1908758
vt 0.170027 0.1908758
vt 0.170027 0.1908758
vt 0.170027 0.1908758
vt 0.170027 0.1908758
vt 0.170027 0.1908758
vt 0.170027 0.1908758
vt 0.170027 0.1908758
vt 0.170027 0.1908758
vt 0.170027 0.1908758
vt 0.170027 0.1908758
vt 0.170027 0.1908758
vt 0.170027 0.1908758
vt 0.170027 0.1908758
vt 0.170027 0.1908758
vt 0.170027 0.1908758
vt 0.170027 0.1908758
vt 0.170027 0.1908758
vt 0.170027 0.1908758
vt 0.170027 0.1908758
vt 0.170027 0.1908758
vt 0.170027 0.1908758
vt 0.170027 0.1908758
vt 0.170027 0.1908758
vt 0.170027 0.1908758
vt 0.170027 0.1908758
vt 0.170027 0.1908758
vt 0.170027 0.1908758
vt 0.170027 0.1908758
vt 0.170027 0.1908758
vt 0.170027 0.1908758
vt 0.170027 0.1908758
vt 0.170027 0.1908758
vt 0.170027 0.1908758
vt 0.170027 0.1908758
vt 0.170027 0.1908758
vt 0.170027 0.1908758
vt 0.170027 0.1908758
vt 0.170027 0.1908758
vt 0.170027 0.1908758
vt 0.170027 0.1908758
vt 0.170027 0.1908758
vt 0.170027 0.1908758
vt 0.170027 0.1908758
vt 0.170027 0.1908758
vt 0.170027 0.1908758
vt 0.170027 0.1908758
vt 0.170027 0.1908758
vt 0.170027 0.1908758
vt 0.170027 0.1908758
vt 0.170027 0.1908758
vt 0.170027 0.1908758
vt 0.170027 0.1908758
vt 0.170027 0.1908758
vt 0.170027 0.1908758
vt 0.170027 0.1908758
vt 0.170027 0.1908758
vt 0.170027 0.1908758
vt 0.170027 0.1908758
vt 0.170027 0.1908758
vt 0.170027 0.1908758
vt 0.170027 0.1908758
vt 0.170027 0.1908758
vt 0.170027 0.1908758
vt 0.170027 0.1908758
vt 0.170027 0.1908758
vt 0.170027 0.1908758
vt 0.170027 0.1908758
vt 0.170027 0.1908758
vt 0.170027 0.1908758
vt 0.170027 0.1908758
vt 0.170027 0.1908758
vt 0.170027 0.1908758
vt 0.170027 0.1908758
vt 0.170027 0.1908758
vt 0.170027 0.1908758
vt 0.170027 0.1908758
vt 0.170027 0.1908758
vt 0.170027 0.1908758
vt 0.170027 0.1908758
vt 0.170027 0.1908758
vt 0.170027 0.1908758
vt 0.170027 0.1908758
vt 0.170027 0.1908758
vt 0.170027 0.1908758
vt 0.170027 0.1908758
vt 0.170027 0.1908758
vt 0.170027 0.1908758
vt 0.170027 0.1908758
vt 0.170027 0.1908758
vt 0.170027 0.1908758
vt 0.170027 0.1908758
vt 0.170027 0.1908758
vt 0.170027 0.1908758
vt 0.170027 0.1908758
vt 0.170027 0.1908758
vt 0.170027 0.1908758
vt 0.170027 0.1908758
vt 0.170027 0.1908758
vt 0.170027 0.1908758
vt 0.170027 0.1908758
vt 0.170027 0.1908758
vt 0.170027 0.1908758
vt 0.170027 0.1908758
vt 0.170027 0.1908758
vt 0.170027 0.1908758
vt 0.170027 0.1908758
vt 0.170027 0.1908758
vt 0.170027 0.1908758
vt 0.170027 0.1908758
vt 0.170027 0.1908758
vt 0.170027 0.1908758
vt 0.170027 0.1908758
vt 0.170027 0.1908758
vt 0.170027 0.1908758
vt 0.170027 0.1908758
vt 0.170027 0.1908758
vt 0.170027 0.1908758
vt 0.170027 0.1908758
vt 0.170027 0.1908758
vt 0.170027 0.1908758
vt 0.170027 0.1908758
vt 0.170027 0.1908758
vt 0.170027 0.1908758
vt 0.170027 0.1908758
vt 0.170027 0.1908758
vt 0.170027 0.1908758
vt 0.170027 0.1908758
vt 0.170027 0.1908758
vt 0.170027 0.1908758
vt 0.170027 0.1908758
vt 0.170027 0.1908758
vt 0.170027 0.1908758
vt 0.170027 0.1908758
vt 0.170027 0.1908758
vn -0.8546959 0.4664943 0.2277678
vn 0.1453199 0.9867902 -0.07160518
vn 0.1453199 0.9867902 -0.07160518
vn -0.8546959 0.4664943 0.2277678
vn -0.6572984 0.4585917 -0.5980404
vn 0.7639866 0.6342543 -0.1185153
vn 0.759476 0.6405705 -0.1134264
vn 0.02116069 0.4756077 0.8794029
vn -0.8608044 0.4573377 0.2232889
vn -0.8484665 0.475585 0.2322144
vn 0.1453199 0.9867902 -0.07160518
vn 0.02252868 0.476638 0.8788109
vn -0.6410232 0.7253376 -0.2509474
vn -0.6410232 0.7253376 -0.2509474
vn 0.155387 0.9847686 0.0780098
vn 0.155387 0.9847686 0.0780098
vn -0.6410232 0.7253376 -0.2509474
vn 0.128377 0.5796769 -0.8046702
vn -0.1402144 0.7562112 -0.639128
vn 0.7336432 0.5641659 0.3787935
vn 0.7406688 0.5569351 0.3758097
vn 0.02089053 0.5449986 0.8381766
vn -0.6722945 0.6164322 -0.4099163
vn 0.02089053 0.5449986 0.8381766
vn -0.5782087 0.7796129 0.2405794
vn 0.1781953 0.4879991 -0.8544608
vn -0.5218707 0.7253429 0.4489194
vn -0.5218707 0.7253429 0.4489194
vn 0.1416856 0.9847685 -0.1007772
vn 0.1416856 0.9847685 -0.1007772
vn -0.5218707 0.7253429 0.4489194
vn -0.6509025 0.5797087 -0.4901671
vn -0.6303885 0.7562113 -0.1753703
vn 0.6782064 0.564177 -0.4708932
vn 0.6788599 0.5569431 -0.4785015
vn 0.7503975 0.5450086 0.373991
vn -0.6769925 0.6164289 0.4021149
vn 0.7503975 0.5450086 0.373991
vn -0.05814549 0.7796043 0.6235673
vn -0.6715918 0.4879391 -0.5575661
vn -0.6572984 0.4585917 -0.5980404
vn -0.6572984 0.4585917 -0.5980404
vn 0.2708417 0.5949616 -0.7567465
vn 0.2708417 0.5949616 -0.7567465
vn 0.2708417 0.5949616 -0.7567465
vn 0.7548999 0.6468317 -0.1083277
vn 0.759476 0.6405705 -0.1134264
vn 0.01979264 0.4745759 0.8799921
vn 0.02116069 0.4756077 0.8794029
vn -0.003304669 0.9916508 -0.1289103
vn -0.003304669 0.9916508 -0.1289103
vn -0.003304669 0.9916508 -0.1289103
vn 0.07000955 0.758512 -0.6478875
vn 0.07000955 0.758512 -0.6478875
vn 0.07000955 0.758512 -0.6478875
vn -0.5103188 0.6064023 -0.6097957
vn -0.5103188 0.6064023 -0.6097957
vn -0.5103188 0.6064023 -0.6097957
vn 0.04283006 0.9990815 0.001351745
vn 0.04283006 0.9990815 0.001351745
vn 0.04283006 0.9990815 0.001351745
vn 0.4496257 0.5825163 0.6771348
vn 0.4496257 0.5825163 0.6771348
vn 0.4496257 0.5825163 0.6771348
vn 0.4496257 0.5825163 0.6771348
vn 0.1371294 0.954902 -0.2633585
vn 0.1371294 0.954902 -0.2633585
vn 0.1371294 0.954902 -0.2633585
vn -0.6722945 0.6164322 -0.4099163
vn -0.6722945 0.6164322 -0.4099163
vn -0.1402144 0.7562112 -0.639128
vn -0.1402144 0.7562112 -0.639128
vn 0.128377 0.5796769 -0.8046702
vn 0.128377 0.5796769 -0.8046702
vn 0.155387 0.9847686 0.0780098
vn 0.7118983 0.5542815 -0.4312455
vn 0.7118983 0.5542815 -0.4312455
vn 0.7118983 0.5542815 -0.4312455
vn 0.7476127 0.5496427 0.3727844
vn 0.7406688 0.5569351 0.3758097
vn 0.02089053 0.5449986 0.8381766
vn -0.7774984 0.5657367 0.2746601
vn -0.7774984 0.5657367 0.2746601
vn -0.7774984 0.5657367 0.2746601
vn -0.5997599 0.7094613 0.3700712
vn -0.5997599 0.7094613 0.3700712
vn -0.5997599 0.7094613 0.3700712
vn -0.5782087 0.7796129 0.2405794
vn -0.5782087 0.7796129 0.2405794
vn 0.1254662 0.6700199 0.7316635
vn 0.109643 0.661782 0.7416353
vn 0.109643 0.661782 0.7416353
vn 0.09377402 0.6532676 0.7512975
vn 0.266663 0.9610153 0.07307908
vn 0.266663 0.9610153 0.07307908
vn 0.266663 0.9610153 0.07307908
vn -0.2703973 0.9569624 -0.1053961
vn -0.2703973 0.9569624 -0.1053961
vn -0.2703973 0.9569624 -0.1053961
vn -0.1364725 0.981613 -0.1334586
vn -0.1364725 0.981613 -0.1334586
vn -0.1364725 0.981613 -0.1334586
vn 0.1781953 0.4879991 -0.8544608
vn 0.1781953 0.4879991 -0.8544608
vn 0.8369879 0.4701785 -0.2799706
vn 0.8369879 0.4701785 -0.2799706
vn 0.8369879 0.4701785 -0.2799706
vn 0.5939797 0.6722922 -0.4418271
vn 0.5939797 0.6722922 -0.4418271
vn 0.5939797 0.6722922 -0.4418271
vn -0.6769925 0.6164289 0.4021149
vn -0.6769925 0.6164289 0.4021149
vn -0.6303885 0.7562113 -0.1753703
vn -0.6303885 0.7562113 -0.1753703
vn -0.6509025 0.5797087 -0.4901671
vn -0.6509025 0.5797087 -0.4901671
vn 0.1416856 0.9847685 -0.1007772
vn -0.04773261 0.5542957 -0.8309501
vn -0.04773261 0.5542957 -0.8309501
vn -0.04773261 0.5542957 -0.8309501
vn 0.6794382 0.5496476 -0.4860569
vn 0.6788599 0.5569431 -0.4785015
vn 0.7503975 0.5450086 0.373991
vn -0.121333 0.5657499 0.8156012
vn -0.121333 0.5657499 0.8156012
vn -0.121333 0.5657499 0.8156012
vn 0.04617669 0.7094596 0.7032316
vn 0.04617669 0.7094596 0.7032316
vn 0.04617669 0.7094596 0.7032316
vn -0.05814549 0.7796043 0.6235673
vn -0.05814549 0.7796043 0.6235673
vn 0.7052354 0.6700476 0.2316878
vn 0.70664 0.661799 0.2503637
vn 0.70664 0.661799 0.2503637
vn 0.7077488 0.6532732 0.2689348
vn 0.1894273 0.9610173 -0.2014027
vn 0.1894273 0.9610173 -0.2014027
vn 0.1894273 0.9610173 -0.2014027
vn -0.21974 0.9569587 0.1895899
vn -0.21974 0.9569587 0.1895899
vn -0.21974 0.9569587 0.1895899
vn -0.1818241 0.9816135 0.05809503
vn -0.1818241 0.9816135 0.05809503
vn -0.1818241 0.9816135 0.05809503
vn -0.6715918 0.4879391 -0.5575661
vn -0.6715918 0.4879391 -0.5575661
vn 0.1444982 0.4701785 -0.8706621
vn 0.1444982 0.4701785 -0.8706621
vn 0.1444982 0.4701785 -0.8706621
vn -0.1122733 0.6722688 -0.731744
vn -0.1122733 0.6722688 -0.731744
vn -0.1122733 0.6722688 -0.731744
g SM_Generic_Small_Rocks_02_0
f 42/42/42 5/5/5 41/41/41
f 3/3/3 2/2/2 11/11/11
f 45/45/45 44/44/44 43/43/43
f 52/52/52 51/51/51 50/50/50
f 55/55/55 54/54/54 53/53/53
f 58/58/58 57/57/57 56/56/56
f 61/61/61 60/60/60 59/59/59
f 68/68/68 67/67/67 66/66/66
f 17/17/17 13/13/13 14/14/14
f 70/70/70 69/69/69 23/23/23
f 19/19/19 72/72/72 71/71/71
f 74/74/74 18/18/18 73/73/73
f 16/16/16 15/15/15 75/75/75
f 78/78/78 77/77/77 76/76/76
f 81/81/81 22/22/22 24/24/24
f 84/84/84 83/83/83 82/82/82
f 87/87/87 86/86/86 85/85/85
f 25/25/25 89/89/89 88/88/88
f 96/96/96 95/95/95 94/94/94
f 99/99/99 98/98/98 97/97/97
f 102/102/102 101/101/101 100/100/100
f 104/104/104 103/103/103 26/26/26
f 107/107/107 106/106/106 105/105/105
f 110/110/110 109/109/109 108/108/108
f 31/31/31 27/27/27 28/28/28
f 112/112/112 111/111/111 37/37/37
f 33/33/33 114/114/114 113/113/113
f 116/116/116 32/32/32 115/115/115
f 30/30/30 29/29/29 117/117/117
f 120/120/120 119/119/119 118/118/118
f 123/123/123 36/36/36 38/38/38
f 126/126/126 125/125/125 124/124/124
f 129/129/129 128/128/128 127/127/127
f 39/39/39 131/131/131 130/130/130
f 138/138/138 137/137/137 136/136/136
f 141/141/141 140/140/140 139/139/139
f 144/144/144 143/143/143 142/142/142
f 146/146/146 145/145/145 40/40/40
f 149/149/149 148/148/148 147/147/147
f 152/152/152 151/151/151 150/150/150
f 4/4/4 1/1/1 10/10/10
f 1/1/1 4/4/4 9/9/9
f 7/7/7 47/47/47 46/46/46
f 47/47/47 7/7/7 6/6/6
f 49/49/49 48/48/48 8/8/8
f 8/8/8 12/12/12 49/49/49
f 64/64/64 63/63/63 62/62/62
f 65/65/65 64/64/64 62/62/62
f 21/21/21 80/80/80 79/79/79
f 80/80/80 21/21/21 20/20/20
f 92/92/92 91/91/91 90/90/90
f 92/92/92 93/93/93 91/91/91
f 35/35/35 122/122/122 121/121/121
f 122/122/122 35/35/35 34/34/34
f 134/134/134 133/133/133 132/132/132
f 134/134/134 135/135/135 133/133/133
