g SM_Icon_SelectionRing_09
v 0.3489084 0.018366 0.2375223
v 0.2375224 0.018366 0.3489088
v -0.2375224 0.018366 0.348909
v -0.3489087 0.018366 0.2375227
v -0.3489092 0.018366 -0.2375223
v -0.2375225 0.018366 -0.3489088
v 0.2375222 0.018366 -0.3489088
v 0.3489088 0.018366 -0.2375224
v 0.3224545 0.018366 0.2110683
v 0.148184 0.018366 0.148184
v 0.2110682 0.018366 0.3224548
v -0.2110682 0.018366 0.3224548
v -0.1481843 0.018366 0.1481842
v -0.3224547 0.018366 0.2110685
v -0.3224548 0.018366 -0.2110682
v -0.1481844 0.018366 -0.1481838
v -0.2110686 0.018366 -0.3224547
v 0.2110681 0.018366 -0.3224546
v 0.1481839 0.018366 -0.148184
v 0.3224547 0.018366 -0.2110684
v 0.3489084 -0.018366 0.2375223
v 0.3224545 -0.018366 0.2110683
v 0.148184 -0.018366 0.148184
v 0.2375224 -0.018366 0.3489088
v 0.2110682 -0.018366 0.3224548
v -0.2375224 -0.018366 0.348909
v -0.2110682 -0.018366 0.3224548
v -0.1481843 -0.018366 0.1481842
v -0.3489087 -0.018366 0.2375227
v -0.3224547 -0.018366 0.2110685
v -0.3489092 -0.018366 -0.2375223
v -0.3224548 -0.018366 -0.2110682
v -0.1481844 -0.018366 -0.1481838
v -0.2375225 -0.018366 -0.3489088
v -0.2110686 -0.018366 -0.3224547
v 0.2375222 -0.018366 -0.3489088
v 0.2110681 -0.018366 -0.3224546
v 0.1481839 -0.018366 -0.148184
v 0.3489088 -0.018366 -0.2375224
v 0.3224547 -0.018366 -0.2110684
v 0.3489084 -0.018366 0.2375223
v 0.2375224 -0.018366 0.3489088
v 0.2375224 0.018366 0.3489088
v 0.3489084 0.018366 0.2375223
v 0.148184 0.018366 0.148184
v 0.148184 -0.018366 0.148184
v 0.3224545 -0.018366 0.2110683
v 0.3224545 0.018366 0.2110683
v 0.2110682 0.018366 0.3224548
v 0.2110682 -0.018366 0.3224548
v 0.148184 -0.018366 0.148184
v 0.148184 0.018366 0.148184
v -0.2375224 -0.018366 0.348909
v -0.3489087 -0.018366 0.2375227
v -0.3489087 0.018366 0.2375227
v -0.2375224 0.018366 0.348909
v -0.1481843 0.018366 0.1481842
v -0.1481843 -0.018366 0.1481842
v -0.2110682 -0.018366 0.3224548
v -0.2110682 0.018366 0.3224548
v -0.3224547 0.018366 0.2110685
v -0.3224547 -0.018366 0.2110685
v -0.1481843 -0.018366 0.1481842
v -0.1481843 0.018366 0.1481842
v -0.3489092 -0.018366 -0.2375223
v -0.2375225 -0.018366 -0.3489088
v -0.2375225 0.018366 -0.3489088
v -0.3489092 0.018366 -0.2375223
v -0.1481844 0.018366 -0.1481838
v -0.1481844 -0.018366 -0.1481838
v -0.3224548 -0.018366 -0.2110682
v -0.3224548 0.018366 -0.2110682
v -0.2110686 0.018366 -0.3224547
v -0.2110686 -0.018366 -0.3224547
v -0.1481844 -0.018366 -0.1481838
v -0.1481844 0.018366 -0.1481838
v 0.2375222 -0.018366 -0.3489088
v 0.3489088 -0.018366 -0.2375224
v 0.3489088 0.018366 -0.2375224
v 0.2375222 0.018366 -0.3489088
v 0.1481839 0.018366 -0.148184
v 0.1481839 -0.018366 -0.148184
v 0.2110681 -0.018366 -0.3224546
v 0.2110681 0.018366 -0.3224546
v 0.3224547 0.018366 -0.2110684
v 0.3224547 -0.018366 -0.2110684
v 0.1481839 -0.018366 -0.148184
v 0.1481839 0.018366 -0.148184
v 0.3224545 0.018366 0.2110683
v 0.3224545 -0.018366 0.2110683
v 0.3489084 -0.018366 0.2375223
v 0.3489084 0.018366 0.2375223
v 0.2110682 0.018366 0.3224548
v 0.2375224 0.018366 0.3489088
v 0.2375224 -0.018366 0.3489088
v 0.2110682 -0.018366 0.3224548
v -0.2110682 0.018366 0.3224548
v -0.2110682 -0.018366 0.3224548
v -0.2375224 -0.018366 0.348909
v -0.2375224 0.018366 0.348909
v -0.3224547 0.018366 0.2110685
v -0.3489087 0.018366 0.2375227
v -0.3489087 -0.018366 0.2375227
v -0.3224547 -0.018366 0.2110685
v -0.3224548 0.018366 -0.2110682
v -0.3224548 -0.018366 -0.2110682
v -0.3489092 -0.018366 -0.2375223
v -0.3489092 0.018366 -0.2375223
v -0.2110686 0.018366 -0.3224547
v -0.2375225 0.018366 -0.3489088
v -0.2375225 -0.018366 -0.3489088
v -0.2110686 -0.018366 -0.3224547
v 0.2110681 0.018366 -0.3224546
v 0.2110681 -0.018366 -0.3224546
v 0.2375222 -0.018366 -0.3489088
v 0.2375222 0.018366 -0.3489088
v 0.3224547 0.018366 -0.2110684
v 0.3489088 0.018366 -0.2375224
v 0.3489088 -0.018366 -0.2375224
v 0.3224547 -0.018366 -0.2110684
vt 0.2488354 0.3079823
vt 0.2488354 0.3079823
vt 0.2488354 0.3079823
vt 0.2488354 0.3079823
vt 0.2488354 0.3079823
vt 0.2488354 0.3079823
vt 0.2488354 0.3079823
vt 0.2488354 0.3079823
vt 0.2488354 0.3079823
vt 0.2488354 0.3079823
vt 0.2488354 0.3079823
vt 0.2488354 0.3079823
vt 0.2488354 0.3079823
vt 0.2488354 0.3079823
vt 0.2488354 0.3079823
vt 0.2488354 0.3079823
vt 0.2488354 0.3079823
vt 0.2488354 0.3079823
vt 0.2488354 0.3079823
vt 0.2488354 0.3079823
vt 0.2488354 0.3079823
vt 0.2488354 0.3079823
vt 0.2488354 0.3079823
vt 0.2488354 0.3079823
vt 0.2488354 0.3079823
vt 0.2488354 0.3079823
vt 0.2488354 0.3079823
vt 0.2488354 0.3079823
vt 0.2488354 0.3079823
vt 0.2488354 0.3079823
vt 0.2488354 0.3079823
vt 0.2488354 0.3079823
vt 0.2488354 0.3079823
vt 0.2488354 0.3079823
vt 0.2488354 0.3079823
vt 0.2488354 0.3079823
vt 0.2488354 0.3079823
vt 0.2488354 0.3079823
vt 0.2488354 0.3079823
vt 0.2488354 0.3079823
vt 0.2488354 0.3079823
vt 0.2488354 0.3079823
vt 0.2488354 0.3079823
vt 0.2488354 0.3079823
vt 0.2488354 0.3079823
vt 0.2488354 0.3079823
vt 0.2488354 0.3079823
vt 0.2488354 0.3079823
vt 0.2488354 0.3079823
vt 0.2488354 0.3079823
vt 0.2488354 0.3079823
vt 0.2488354 0.3079823
vt 0.2488354 0.3079823
vt 0.2488354 0.3079823
vt 0.2488354 0.3079823
vt 0.2488354 0.3079823
vt 0.2488354 0.3079823
vt 0.2488354 0.3079823
vt 0.2488354 0.3079823
vt 0.2488354 0.3079823
vt 0.2488354 0.3079823
vt 0.2488354 0.3079823
vt 0.2488354 0.3079823
vt 0.2488354 0.3079823
vt 0.2488354 0.3079823
vt 0.2488354 0.3079823
vt 0.2488354 0.3079823
vt 0.2488354 0.3079823
vt 0.2488354 0.3079823
vt 0.2488354 0.3079823
vt 0.2488354 0.3079823
vt 0.2488354 0.3079823
vt 0.2488354 0.3079823
vt 0.2488354 0.3079823
vt 0.2488354 0.3079823
vt 0.2488354 0.3079823
vt 0.2488354 0.3079823
vt 0.2488354 0.3079823
vt 0.2488354 0.3079823
vt 0.2488354 0.3079823
vt 0.2488354 0.3079823
vt 0.2488354 0.3079823
vt 0.2488354 0.3079823
vt 0.2488354 0.3079823
vt 0.2488354 0.3079823
vt 0.2488354 0.3079823
vt 0.2488354 0.3079823
vt 0.2488354 0.3079823
vt 0.2488354 0.3079823
vt 0.2488354 0.3079823
vt 0.2488354 0.3079823
vt 0.2488354 0.3079823
vt 0.2488354 0.3079823
vt 0.2488354 0.3079823
vt 0.2488354 0.3079823
vt 0.2488354 0.3079823
vt 0.2488354 0.3079823
vt 0.2488354 0.3079823
vt 0.2488354 0.3079823
vt 0.2488354 0.3079823
vt 0.2488354 0.3079823
vt 0.2488354 0.3079823
vt 0.2488354 0.3079823
vt 0.2488354 0.3079823
vt 0.2488354 0.3079823
vt 0.2488354 0.3079823
vt 0.2488354 0.3079823
vt 0.2488354 0.3079823
vt 0.2488354 0.3079823
vt 0.2488354 0.3079823
vt 0.2488354 0.3079823
vt 0.2488354 0.3079823
vt 0.2488354 0.3079823
vt 0.2488354 0.3079823
vt 0.2488354 0.3079823
vt 0.2488354 0.3079823
vt 0.2488354 0.3079823
vt 0.2488354 0.3079823
vt 0.2488354 0.3079823
vt 0.2488354 0.3079823
vn 0 1 0
vn 0 1 0
vn 0 1 0
vn 0 1 0
vn 0 1 0
vn 0 1 0
vn 0 1 0
vn 0 1 0
vn 0 1 0
vn 0 1 0
vn 0 1 0
vn 0 1 0
vn 0 1 0
vn 0 1 0
vn 0 1 0
vn 0 1 0
vn 0 1 0
vn 0 1 0
vn 0 1 0
vn 0 1 0
vn 0 -1 0
vn 0 -1 0
vn 0 -1 0
vn 0 -1 0
vn 0 -1 0
vn 0 -1 0
vn 0 -1 0
vn 0 -1 0
vn 0 -1 0
vn 0 -1 0
vn 0 -1 0
vn 0 -1 0
vn 0 -1 0
vn 0 -1 0
vn 0 -1 0
vn 0 -1 0
vn 0 -1 0
vn 0 -1 0
vn 0 -1 0
vn 0 -1 0
vn 0.7071083 0 0.7071052
vn 0.7071083 0 0.7071052
vn 0.7071083 0 0.7071052
vn 0.7071083 0 0.7071052
vn 0.3394217 0 -0.9406343
vn 0.3394217 0 -0.9406343
vn 0.3394217 0 -0.9406343
vn 0.3394217 0 -0.9406343
vn -0.9406348 0 0.3394201
vn -0.9406348 0 0.3394201
vn -0.9406348 0 0.3394201
vn -0.9406348 0 0.3394201
vn -0.7071068 0 0.7071066
vn -0.7071068 0 0.7071066
vn -0.7071068 0 0.7071066
vn -0.7071068 0 0.7071066
vn 0.9406353 0 0.339419
vn 0.9406353 0 0.339419
vn 0.9406353 0 0.339419
vn 0.9406353 0 0.339419
vn -0.3394217 0 -0.9406343
vn -0.3394217 0 -0.9406343
vn -0.3394217 0 -0.9406343
vn -0.3394217 0 -0.9406343
vn -0.7071059 0 -0.7071076
vn -0.7071059 0 -0.7071076
vn -0.7071059 0 -0.7071076
vn -0.7071059 0 -0.7071076
vn -0.3394217 0 0.9406343
vn -0.3394217 0 0.9406343
vn -0.3394217 0 0.9406343
vn -0.3394217 0 0.9406343
vn 0.9406348 0 -0.3394202
vn 0.9406348 0 -0.3394202
vn 0.9406348 0 -0.3394202
vn 0.9406348 0 -0.3394202
vn 0.7071061 0 -0.7071074
vn 0.7071061 0 -0.7071074
vn 0.7071061 0 -0.7071074
vn 0.7071061 0 -0.7071074
vn -0.9406347 0 -0.3394206
vn -0.9406347 0 -0.3394206
vn -0.9406347 0 -0.3394206
vn -0.9406347 0 -0.3394206
vn 0.3394212 0 0.9406345
vn 0.3394212 0 0.9406345
vn 0.3394212 0 0.9406345
vn 0.3394212 0 0.9406345
vn 0.7071068 0 -0.7071068
vn 0.7071068 0 -0.7071068
vn 0.7071068 0 -0.7071068
vn 0.7071068 0 -0.7071068
vn -0.7071027 0 0.7071108
vn -0.7071027 0 0.7071108
vn -0.7071027 0 0.7071108
vn -0.7071027 0 0.7071108
vn 0.7071055 0 0.707108
vn 0.7071055 0 0.707108
vn 0.7071055 0 0.707108
vn 0.7071055 0 0.707108
vn -0.7071088 0 -0.7071047
vn -0.7071088 0 -0.7071047
vn -0.7071088 0 -0.7071047
vn -0.7071088 0 -0.7071047
vn -0.7071034 0 0.7071101
vn -0.7071034 0 0.7071101
vn -0.7071034 0 0.7071101
vn -0.7071034 0 0.7071101
vn 0.7071099 0 -0.7071037
vn 0.7071099 0 -0.7071037
vn 0.7071099 0 -0.7071037
vn 0.7071099 0 -0.7071037
vn -0.7071078 0 -0.7071057
vn -0.7071078 0 -0.7071057
vn -0.7071078 0 -0.7071057
vn -0.7071078 0 -0.7071057
vn 0.7071055 0 0.707108
vn 0.7071055 0 0.707108
vn 0.7071055 0 0.707108
vn 0.7071055 0 0.707108
g SM_Icon_SelectionRing_09_0
f 25/25/25 23/23/23 22/22/22
f 22/22/22 21/21/21 25/25/25
f 21/21/21 24/24/24 25/25/25
f 30/30/30 28/28/28 27/27/27
f 27/27/27 29/29/29 30/30/30
f 27/27/27 26/26/26 29/29/29
f 31/31/31 34/34/34 35/35/35
f 35/35/35 33/33/33 31/31/31
f 33/33/33 32/32/32 31/31/31
f 37/37/37 36/36/36 39/39/39
f 39/39/39 38/38/38 37/37/37
f 39/39/39 40/40/40 38/38/38
f 9/9/9 10/10/10 11/11/11
f 11/11/11 1/1/1 9/9/9
f 11/11/11 2/2/2 1/1/1
f 12/12/12 13/13/13 14/14/14
f 14/14/14 4/4/4 12/12/12
f 4/4/4 3/3/3 12/12/12
f 17/17/17 6/6/6 5/5/5
f 5/5/5 16/16/16 17/17/17
f 5/5/5 15/15/15 16/16/16
f 8/8/8 7/7/7 18/18/18
f 18/18/18 19/19/19 8/8/8
f 19/19/19 20/20/20 8/8/8
f 43/43/43 42/42/42 41/41/41
f 44/44/44 43/43/43 41/41/41
f 47/47/47 46/46/46 45/45/45
f 48/48/48 47/47/47 45/45/45
f 51/51/51 50/50/50 49/49/49
f 52/52/52 51/51/51 49/49/49
f 55/55/55 54/54/54 53/53/53
f 56/56/56 55/55/55 53/53/53
f 59/59/59 58/58/58 57/57/57
f 60/60/60 59/59/59 57/57/57
f 63/63/63 62/62/62 61/61/61
f 64/64/64 63/63/63 61/61/61
f 67/67/67 66/66/66 65/65/65
f 68/68/68 67/67/67 65/65/65
f 71/71/71 70/70/70 69/69/69
f 72/72/72 71/71/71 69/69/69
f 75/75/75 74/74/74 73/73/73
f 76/76/76 75/75/75 73/73/73
f 79/79/79 78/78/78 77/77/77
f 80/80/80 79/79/79 77/77/77
f 83/83/83 82/82/82 81/81/81
f 84/84/84 83/83/83 81/81/81
f 87/87/87 86/86/86 85/85/85
f 88/88/88 87/87/87 85/85/85
f 91/91/91 90/90/90 89/89/89
f 92/92/92 91/91/91 89/89/89
f 95/95/95 94/94/94 93/93/93
f 96/96/96 95/95/95 93/93/93
f 99/99/99 98/98/98 97/97/97
f 100/100/100 99/99/99 97/97/97
f 103/103/103 102/102/102 101/101/101
f 104/104/104 103/103/103 101/101/101
f 107/107/107 106/106/106 105/105/105
f 108/108/108 107/107/107 105/105/105
f 111/111/111 110/110/110 109/109/109
f 112/112/112 111/111/111 109/109/109
f 115/115/115 114/114/114 113/113/113
f 116/116/116 115/115/115 113/113/113
f 119/119/119 118/118/118 117/117/117
f 120/120/120 119/119/119 117/117/117
