g SM_Prop_ShopInterior_Chair_01
v -0.2466431 0.4784039 -0.1999969
v -0.2466431 0.561336 -0.1999969
v -0.2466431 0.561336 0.2932844
v -0.2466431 0.4784039 0.2932844
v -0.1906738 0.5914297 -0.1440172
v 0.1906586 0.5914297 -0.1440172
v 0.1906586 0.5914297 0.2373056
v -0.1906738 0.5914297 0.2373056
v 0.2466431 0.561336 -0.1999969
v 0.2466431 0.4784039 -0.1999969
v 0.2466431 0.4784039 0.2932844
v 0.2466431 0.561336 0.2932844
v 0.2466431 0.4784039 -0.1999969
v -0.2466431 0.4784039 -0.1999969
v -0.2466431 0.4784039 0.2932844
v 0.2466431 0.4784039 0.2932844
v -0.2466431 0.4784039 0.2932844
v -0.2466431 0.561336 0.2932844
v 0.2466431 0.561336 0.2932844
v 0.2466431 0.4784039 0.2932844
v 0.2466431 0.4784039 -0.1999969
v 0.2466431 0.561336 -0.1999969
v -0.2466431 0.561336 -0.1999969
v -0.2466431 0.4784039 -0.1999969
v -0.2167969 0.7981741 -0.2619877
v -0.2167969 1.032387 -0.2869272
v -0.2167969 1.032387 -0.2219486
v -0.2167969 0.8045498 -0.1975889
v -0.2167969 1.032387 -0.2869272
v 0.2167816 1.032387 -0.2869272
v 0.2167816 1.032387 -0.2219486
v -0.2167969 1.032387 -0.2219486
v 0.2167816 1.032387 -0.2869272
v 0.2167816 0.7981741 -0.2619877
v 0.2167816 0.8045498 -0.1975889
v 0.2167816 1.032387 -0.2219486
v 0.2167816 0.7981741 -0.2619877
v -0.2167969 0.7981741 -0.2619877
v -0.2167969 0.8045498 -0.1975889
v 0.2167816 0.8045498 -0.1975889
v -0.1676025 0.833605 -0.1704302
v -0.1676025 1.009731 -0.1892614
v 0.1675873 1.009731 -0.1892614
v 0.1675873 0.833605 -0.1704302
v 0.2167816 0.7981741 -0.2619877
v 0.2167816 1.032387 -0.2869272
v -0.2167969 1.032387 -0.2869272
v -0.2167969 0.7981741 -0.2619877
v 0.2024231 -1.110223E-16 -0.2414227
v 0.2024384 0.5610194 -0.1981277
v 0.2024384 -1.110223E-16 -0.1981277
v 0.2024231 0.5610194 -0.2414227
v 0.2024231 1.047451 -0.2499895
v 0.2024384 1.047451 -0.2932844
v 0.2024384 1.047451 -0.2932844
v 0.2457123 1.047451 -0.2932844
v 0.2457123 1.047451 -0.2499886
v 0.2024231 1.047451 -0.2499895
v 0.2457123 0.5610191 -0.2414227
v 0.2457123 -1.110223E-16 -0.2414227
v 0.2457123 -1.110223E-16 -0.1981277
v 0.2457123 0.5610191 -0.1981277
v 0.2457123 1.047451 -0.2932844
v 0.2457123 1.047451 -0.2499886
v 0.2457123 -1.110223E-16 -0.2414227
v 0.2024231 -1.110223E-16 -0.2414227
v 0.2024384 -1.110223E-16 -0.1981277
v 0.2457123 -1.110223E-16 -0.1981277
v 0.2024384 -1.110223E-16 -0.1981277
v 0.2024384 0.5610194 -0.1981277
v 0.2457123 0.5610191 -0.1981277
v 0.2457123 -1.110223E-16 -0.1981277
v 0.2457123 -1.110223E-16 -0.2414227
v 0.2457123 0.5610191 -0.2414227
v 0.2024231 0.5610194 -0.2414227
v 0.2024231 -1.110223E-16 -0.2414227
v 0.2024231 -1.110223E-16 0.2481985
v 0.2024231 0.4858845 0.2481985
v 0.2024231 0.4858845 0.2914925
v 0.2024231 -1.110223E-16 0.2914925
v 0.2024231 0.4858845 0.2481985
v 0.2457123 0.4858845 0.2481985
v 0.2457123 0.4858845 0.2914934
v 0.2024231 0.4858845 0.2914925
v 0.2457123 0.4858845 0.2481985
v 0.2457123 -1.110223E-16 0.2481985
v 0.2457123 -1.110223E-16 0.2914934
v 0.2457123 0.4858845 0.2914934
v 0.2457123 -1.110223E-16 0.2481985
v 0.2024231 -1.110223E-16 0.2481985
v 0.2024231 -1.110223E-16 0.2914925
v 0.2457123 -1.110223E-16 0.2914934
v 0.2024231 -1.110223E-16 0.2914925
v 0.2024231 0.4858845 0.2914925
v 0.2457123 0.4858845 0.2914934
v 0.2457123 -1.110223E-16 0.2914934
v 0.2457123 -1.110223E-16 0.2481985
v 0.2457123 0.4858845 0.2481985
v 0.2024231 0.4858845 0.2481985
v 0.2024231 -1.110223E-16 0.2481985
v -0.2448578 0.5602839 -0.2414227
v -0.2448578 1.047451 -0.2932844
v -0.2448578 1.047451 -0.2499886
v -0.2448578 0.5602839 -0.1981277
v -0.2448578 -1.110223E-16 -0.2414227
v -0.2448578 -1.110223E-16 -0.1981277
v -0.2448578 1.047451 -0.2932844
v -0.2015686 1.047451 -0.2932844
v -0.2015686 1.047451 -0.2499886
v -0.2448578 1.047451 -0.2499886
v -0.2015686 1.047451 -0.2932844
v -0.2015686 0.5602839 -0.1981277
v -0.2015686 1.047451 -0.2499886
v -0.2015686 0.5602839 -0.2414227
v -0.2015686 -1.110223E-16 -0.1981277
v -0.2015686 -1.110223E-16 -0.2414227
v -0.2015686 -1.110223E-16 -0.2414227
v -0.2448578 -1.110223E-16 -0.2414227
v -0.2448578 -1.110223E-16 -0.1981277
v -0.2015686 -1.110223E-16 -0.1981277
v -0.2448578 0.5602839 -0.1981277
v -0.2448578 1.047451 -0.2499886
v -0.2015686 1.047451 -0.2499886
v -0.2015686 0.5602839 -0.1981277
v -0.2015686 0.5602839 -0.2414227
v -0.2015686 1.047451 -0.2932844
v -0.2448578 1.047451 -0.2932844
v -0.2448578 0.5602839 -0.2414227
v -0.2448578 -1.110223E-16 0.2481985
v -0.2448578 0.4858845 0.2481985
v -0.2448578 0.4858845 0.2914925
v -0.2448578 -1.110223E-16 0.2914925
v -0.2448578 0.4858845 0.2481985
v -0.2015686 0.4858845 0.2481985
v -0.2015686 0.4858845 0.2914925
v -0.2448578 0.4858845 0.2914925
v -0.2015686 0.4858845 0.2481985
v -0.2015686 -1.110223E-16 0.2481985
v -0.2015686 -1.110223E-16 0.2914925
v -0.2015686 0.4858845 0.2914925
v -0.2015686 -1.110223E-16 0.2481985
v -0.2448578 -1.110223E-16 0.2481985
v -0.2448578 -1.110223E-16 0.2914925
v -0.2015686 -1.110223E-16 0.2914925
v -0.2448578 -1.110223E-16 0.2914925
v -0.2448578 0.4858845 0.2914925
v -0.2015686 0.4858845 0.2914925
v -0.2015686 -1.110223E-16 0.2914925
v -0.2015686 -1.110223E-16 0.2481985
v -0.2015686 0.4858845 0.2481985
v -0.2448578 0.4858845 0.2481985
v -0.2448578 -1.110223E-16 0.2481985
v -0.2015686 -1.110223E-16 -0.2414227
v -0.2015686 0.5602839 -0.2414227
v -0.2448578 0.5602839 -0.2414227
v -0.2448578 -1.110223E-16 -0.2414227
v -0.2448578 -1.110223E-16 -0.1981277
v -0.2448578 0.5602839 -0.1981277
v -0.2015686 0.5602839 -0.1981277
v -0.2015686 -1.110223E-16 -0.1981277
v 0.2457123 0.5610191 -0.2414227
v 0.2457123 1.047451 -0.2932844
v 0.2024384 1.047451 -0.2932844
v 0.2024231 0.5610194 -0.2414227
v 0.2024384 0.5610194 -0.1981277
v 0.2024231 1.047451 -0.2499895
v 0.2457123 1.047451 -0.2499886
v 0.2457123 0.5610191 -0.1981277
v -0.2466431 0.561336 -0.1999969
v -0.1906738 0.5914297 -0.1440172
v -0.1906738 0.5914297 0.2373056
v -0.2466431 0.561336 0.2932844
v -0.2466431 0.561336 0.2932844
v -0.1906738 0.5914297 0.2373056
v 0.1906586 0.5914297 0.2373056
v 0.2466431 0.561336 0.2932844
v 0.2466431 0.561336 0.2932844
v 0.1906586 0.5914297 0.2373056
v 0.1906586 0.5914297 -0.1440172
v 0.2466431 0.561336 -0.1999969
v 0.2466431 0.561336 -0.1999969
v 0.1906586 0.5914297 -0.1440172
v -0.1906738 0.5914297 -0.1440172
v -0.2466431 0.561336 -0.1999969
v -0.2167969 0.8045498 -0.1975889
v -0.1676025 0.833605 -0.1704302
v 0.1675873 0.833605 -0.1704302
v 0.2167816 0.8045498 -0.1975889
v 0.2167816 0.8045498 -0.1975889
v 0.1675873 0.833605 -0.1704302
v 0.1675873 1.009731 -0.1892614
v 0.2167816 1.032387 -0.2219486
v 0.2167816 1.032387 -0.2219486
v 0.1675873 1.009731 -0.1892614
v -0.1676025 1.009731 -0.1892614
v -0.2167969 1.032387 -0.2219486
v -0.2167969 1.032387 -0.2219486
v -0.1676025 1.009731 -0.1892614
v -0.1676025 0.833605 -0.1704302
v -0.2167969 0.8045498 -0.1975889
vt 0.3520203 0.4242122
vt 0.3520203 0.4242122
vt 0.3520203 0.4242122
vt 0.3520203 0.4242122
vt 0.3520203 0.4242122
vt 0.3520203 0.4242122
vt 0.3520203 0.4242122
vt 0.3520203 0.4242122
vt 0.3520203 0.4242122
vt 0.3520203 0.4242122
vt 0.3520203 0.4242122
vt 0.3520203 0.4242122
vt 0.3520203 0.4242122
vt 0.3520203 0.4242122
vt 0.3520203 0.4242122
vt 0.3520203 0.4242122
vt 0.3520203 0.4242122
vt 0.3520203 0.4242122
vt 0.3520203 0.4242122
vt 0.3520203 0.4242122
vt 0.3520203 0.4242122
vt 0.3520203 0.4242122
vt 0.3520203 0.4242122
vt 0.3520203 0.4242122
vt 0.3520203 0.4242122
vt 0.3520203 0.4242122
vt 0.3520203 0.4242122
vt 0.3520203 0.4242122
vt 0.3520203 0.4242122
vt 0.3520203 0.4242122
vt 0.3520203 0.4242122
vt 0.3520203 0.4242122
vt 0.3520203 0.4242122
vt 0.3520203 0.4242122
vt 0.3520203 0.4242122
vt 0.3520203 0.4242122
vt 0.3520203 0.4242122
vt 0.3520203 0.4242122
vt 0.3520203 0.4242122
vt 0.3520203 0.4242122
vt 0.3520203 0.4242122
vt 0.3520203 0.4242122
vt 0.3520203 0.4242122
vt 0.3520203 0.4242122
vt 0.3520203 0.4242122
vt 0.3520203 0.4242122
vt 0.3520203 0.4242122
vt 0.3520203 0.4242122
vt 0.1032149 0.230305
vt 0.1032149 0.230305
vt 0.1032149 0.230305
vt 0.1032149 0.230305
vt 0.1032149 0.230305
vt 0.1032149 0.230305
vt 0.1032149 0.230305
vt 0.1032149 0.230305
vt 0.1032149 0.230305
vt 0.1032149 0.230305
vt 0.1032149 0.230305
vt 0.1032149 0.230305
vt 0.1032149 0.230305
vt 0.1032149 0.230305
vt 0.1032149 0.230305
vt 0.1032149 0.230305
vt 0.1032149 0.230305
vt 0.1032149 0.230305
vt 0.1032149 0.230305
vt 0.1032149 0.230305
vt 0.1032149 0.230305
vt 0.1032149 0.230305
vt 0.1032149 0.230305
vt 0.1032149 0.230305
vt 0.1032149 0.230305
vt 0.1032149 0.230305
vt 0.1032149 0.230305
vt 0.1032149 0.230305
vt 0.1032149 0.230305
vt 0.1032149 0.230305
vt 0.1032149 0.230305
vt 0.1032149 0.230305
vt 0.1032149 0.230305
vt 0.1032149 0.230305
vt 0.1032149 0.230305
vt 0.1032149 0.230305
vt 0.1032149 0.230305
vt 0.1032149 0.230305
vt 0.1032149 0.230305
vt 0.1032149 0.230305
vt 0.1032149 0.230305
vt 0.1032149 0.230305
vt 0.1032149 0.230305
vt 0.1032149 0.230305
vt 0.1032149 0.230305
vt 0.1032149 0.230305
vt 0.1032149 0.230305
vt 0.1032149 0.230305
vt 0.1032149 0.230305
vt 0.1032149 0.230305
vt 0.1032149 0.230305
vt 0.1032149 0.230305
vt 0.1032149 0.230305
vt 0.1032149 0.230305
vt 0.1032149 0.230305
vt 0.1032149 0.230305
vt 0.1032149 0.230305
vt 0.1032149 0.230305
vt 0.1032149 0.230305
vt 0.1032149 0.230305
vt 0.1032149 0.230305
vt 0.1032149 0.230305
vt 0.1032149 0.230305
vt 0.1032149 0.230305
vt 0.1032149 0.230305
vt 0.1032149 0.230305
vt 0.1032149 0.230305
vt 0.1032149 0.230305
vt 0.1032149 0.230305
vt 0.1032149 0.230305
vt 0.1032149 0.230305
vt 0.1032149 0.230305
vt 0.1032149 0.230305
vt 0.1032149 0.230305
vt 0.1032149 0.230305
vt 0.1032149 0.230305
vt 0.1032149 0.230305
vt 0.1032149 0.230305
vt 0.1032149 0.230305
vt 0.1032149 0.230305
vt 0.1032149 0.230305
vt 0.1032149 0.230305
vt 0.1032149 0.230305
vt 0.1032149 0.230305
vt 0.1032149 0.230305
vt 0.1032149 0.230305
vt 0.1032149 0.230305
vt 0.1032149 0.230305
vt 0.1032149 0.230305
vt 0.1032149 0.230305
vt 0.1032149 0.230305
vt 0.1032149 0.230305
vt 0.1032149 0.230305
vt 0.1032149 0.230305
vt 0.1032149 0.230305
vt 0.1032149 0.230305
vt 0.1032149 0.230305
vt 0.1032149 0.230305
vt 0.1032149 0.230305
vt 0.1032149 0.230305
vt 0.1032149 0.230305
vt 0.1032149 0.230305
vt 0.1032149 0.230305
vt 0.1032149 0.230305
vt 0.1032149 0.230305
vt 0.1032149 0.230305
vt 0.1032149 0.230305
vt 0.1032149 0.230305
vt 0.1032149 0.230305
vt 0.1032149 0.230305
vt 0.1032149 0.230305
vt 0.1032149 0.230305
vt 0.1032149 0.230305
vt 0.1032149 0.230305
vt 0.1032149 0.230305
vt 0.1032149 0.230305
vt 0.1032149 0.230305
vt 0.1032149 0.230305
vt 0.1032149 0.230305
vt 0.1032149 0.230305
vt 0.3520203 0.4242122
vt 0.3520203 0.4242122
vt 0.3520203 0.4242122
vt 0.3520203 0.4242122
vt 0.3520203 0.4242122
vt 0.3520203 0.4242122
vt 0.3520203 0.4242122
vt 0.3520203 0.4242122
vt 0.3520203 0.4242122
vt 0.3520203 0.4242122
vt 0.3520203 0.4242122
vt 0.3520203 0.4242122
vt 0.3520203 0.4242122
vt 0.3520203 0.4242122
vt 0.3520203 0.4242122
vt 0.3520203 0.4242122
vt 0.3520203 0.4242122
vt 0.3520203 0.4242122
vt 0.3520203 0.4242122
vt 0.3520203 0.4242122
vt 0.3520203 0.4242122
vt 0.3520203 0.4242122
vt 0.3520203 0.4242122
vt 0.3520203 0.4242122
vt 0.3520203 0.4242122
vt 0.3520203 0.4242122
vt 0.3520203 0.4242122
vt 0.3520203 0.4242122
vt 0.3520203 0.4242122
vt 0.3520203 0.4242122
vt 0.3520203 0.4242122
vt 0.3520203 0.4242122
vn -1 0 0
vn -1 0 0
vn -1 0 0
vn -1 0 0
vn 0 1 0
vn 0 1 0
vn 0 1 0
vn 0 1 0
vn 1 0 0
vn 1 0 0
vn 1 0 0
vn 1 0 0
vn 0 -1 0
vn 0 -1 0
vn 0 -1 0
vn 0 -1 0
vn 0 0 1
vn 0 0 1
vn 0 0 1
vn 0 0 1
vn 0 0 -1
vn 0 0 -1
vn 0 0 -1
vn 0 0 -1
vn -1 0 0
vn -1 0 0
vn -1 0 0
vn -1 0 0
vn 0 1 0
vn 0 1 0
vn 0 1 0
vn 0 1 0
vn 1 0 0
vn 1 0 0
vn 1 0 0
vn 1 0 0
vn 0 -0.9951349 0.09852225
vn 0 -0.9951349 0.09852225
vn 0 -0.9951349 0.09852225
vn 0 -0.9951349 0.09852225
vn 0 0.1063132 0.9943327
vn 0 0.1063132 0.9943327
vn 0 0.1063132 0.9943327
vn 0 0.1063132 0.9943327
vn 0 -0.1058835 -0.9943785
vn 0 -0.1058835 -0.9943785
vn 0 -0.1058835 -0.9943785
vn 0 -0.1058835 -0.9943785
vn -1 0 0.0003524384
vn -1 0 0.0001762192
vn -1 0 0.0003524384
vn -1 0 0.0001762192
vn -1 0 0
vn -1 0 0
vn 0 1 0
vn 0 1 0
vn 0 1 0
vn 0 1 0
vn 1 0 0
vn 1 0 0
vn 1 0 0
vn 1 0 0
vn 1 0 0
vn 1 0 0
vn 0 -1 0
vn 0 -1 0
vn 0 -1 0
vn 0 -1 0
vn 0 0 1
vn 0 0 1
vn 0 0 1
vn 0 0 1
vn 0 0 -1
vn 0 0 -1
vn 0 0 -1
vn 0 0 -1
vn -1 0 0
vn -1 0 0
vn -1 0 0
vn -1 0 0
vn 0 1 0
vn 0 1 0
vn 0 1 0
vn 0 1 0
vn 1 0 0
vn 1 0 0
vn 1 0 0
vn 1 0 0
vn 0 -1 0
vn 0 -1 0
vn 0 -1 0
vn 0 -1 0
vn 0 0 1
vn 0 0 1
vn 0 0 1
vn 0 0 1
vn 0 0 -1
vn 0 0 -1
vn 0 0 -1
vn 0 0 -1
vn -1 0 0
vn -1 0 0
vn -1 0 0
vn -1 0 0
vn -1 0 0
vn -1 0 0
vn 0 1 0
vn 0 1 0
vn 0 1 0
vn 0 1 0
vn 1 0 0
vn 1 0 0
vn 1 0 0
vn 1 0 0
vn 1 0 0
vn 1 0 0
vn 0 -1 0
vn 0 -1 0
vn 0 -1 0
vn 0 -1 0
vn 0 0.1058558 0.9943815
vn 0 0.1058558 0.9943815
vn 0 0.1058558 0.9943815
vn 0 0.1058558 0.9943815
vn 0 -0.1058577 -0.9943812
vn 0 -0.1058577 -0.9943812
vn 0 -0.1058577 -0.9943812
vn 0 -0.1058577 -0.9943812
vn -1 0 0
vn -1 0 0
vn -1 0 0
vn -1 0 0
vn 0 1 0
vn 0 1 0
vn 0 1 0
vn 0 1 0
vn 1 0 0
vn 1 0 0
vn 1 0 0
vn 1 0 0
vn 0 -1 0
vn 0 -1 0
vn 0 -1 0
vn 0 -1 0
vn 0 0 1
vn 0 0 1
vn 0 0 1
vn 0 0 1
vn 0 0 -1
vn 0 0 -1
vn 0 0 -1
vn 0 0 -1
vn 0 0 -1
vn 0 0 -1
vn 0 0 -1
vn 0 0 -1
vn 0 0 1
vn 0 0 1
vn 0 0 1
vn 0 0 1
vn 0 -0.1060159 -0.9943645
vn 0 -0.1060159 -0.9943645
vn 0 -0.1060159 -0.9943645
vn 0 -0.1060159 -0.9943645
vn 0 0.106015 0.9943645
vn 0 0.106015 0.9943645
vn 0 0.106015 0.9943645
vn 0 0.106015 0.9943645
vn -0.4735677 0.8807574 0
vn -0.4735677 0.8807574 0
vn -0.4735677 0.8807574 0
vn -0.4735677 0.8807574 0
vn 0 0.8807911 0.4735051
vn 0 0.8807911 0.4735051
vn 0 0.8807911 0.4735051
vn 0 0.8807911 0.4735051
vn 0.4734676 0.8808113 0
vn 0.4734676 0.8808113 0
vn 0.4734676 0.8808113 0
vn 0.4734676 0.8808113 0
vn 0 0.8807945 -0.4734988
vn 0 0.8807945 -0.4734988
vn 0 0.8807945 -0.4734988
vn 0 0.8807945 -0.4734988
vn 0 -0.6828633 0.7305463
vn 0 -0.6828633 0.7305463
vn 0 -0.6828633 0.7305463
vn 0 -0.6828633 0.7305463
vn 0.5218326 0.09068921 0.8482136
vn 0.5218326 0.09068921 0.8482136
vn 0.5218326 0.09068921 0.8482136
vn 0.5218326 0.09068921 0.8482136
vn 0 0.821876 0.5696662
vn 0 0.821876 0.5696662
vn 0 0.821876 0.5696662
vn 0 0.821876 0.5696662
vn -0.5218326 0.09068921 0.8482136
vn -0.5218326 0.09068921 0.8482136
vn -0.5218326 0.09068921 0.8482136
vn -0.5218326 0.09068921 0.8482136
g SM_Prop_ShopInterior_Chair_01_0
f 3/3/3 2/2/2 1/1/1
f 4/4/4 3/3/3 1/1/1
f 7/7/7 6/6/6 5/5/5
f 8/8/8 7/7/7 5/5/5
f 11/11/11 10/10/10 9/9/9
f 12/12/12 11/11/11 9/9/9
f 15/15/15 14/14/14 13/13/13
f 16/16/16 15/15/15 13/13/13
f 19/19/19 18/18/18 17/17/17
f 20/20/20 19/19/19 17/17/17
f 23/23/23 22/22/22 21/21/21
f 24/24/24 23/23/23 21/21/21
f 27/27/27 26/26/26 25/25/25
f 28/28/28 27/27/27 25/25/25
f 31/31/31 30/30/30 29/29/29
f 32/32/32 31/31/31 29/29/29
f 35/35/35 34/34/34 33/33/33
f 36/36/36 35/35/35 33/33/33
f 39/39/39 38/38/38 37/37/37
f 40/40/40 39/39/39 37/37/37
f 43/43/43 42/42/42 41/41/41
f 44/44/44 43/43/43 41/41/41
f 47/47/47 46/46/46 45/45/45
f 48/48/48 47/47/47 45/45/45
f 51/51/51 50/50/50 49/49/49
f 50/50/50 52/52/52 49/49/49
f 50/50/50 53/53/53 52/52/52
f 53/53/53 54/54/54 52/52/52
f 57/57/57 56/56/56 55/55/55
f 58/58/58 57/57/57 55/55/55
f 61/61/61 60/60/60 59/59/59
f 62/62/62 61/61/61 59/59/59
f 62/62/62 59/59/59 63/63/63
f 64/64/64 62/62/62 63/63/63
f 67/67/67 66/66/66 65/65/65
f 68/68/68 67/67/67 65/65/65
f 71/71/71 70/70/70 69/69/69
f 72/72/72 71/71/71 69/69/69
f 75/75/75 74/74/74 73/73/73
f 76/76/76 75/75/75 73/73/73
f 79/79/79 78/78/78 77/77/77
f 80/80/80 79/79/79 77/77/77
f 83/83/83 82/82/82 81/81/81
f 84/84/84 83/83/83 81/81/81
f 87/87/87 86/86/86 85/85/85
f 88/88/88 87/87/87 85/85/85
f 91/91/91 90/90/90 89/89/89
f 92/92/92 91/91/91 89/89/89
f 95/95/95 94/94/94 93/93/93
f 96/96/96 95/95/95 93/93/93
f 99/99/99 98/98/98 97/97/97
f 100/100/100 99/99/99 97/97/97
f 103/103/103 102/102/102 101/101/101
f 104/104/104 103/103/103 101/101/101
f 104/104/104 101/101/101 105/105/105
f 106/106/106 104/104/104 105/105/105
f 109/109/109 108/108/108 107/107/107
f 110/110/110 109/109/109 107/107/107
f 113/113/113 112/112/112 111/111/111
f 112/112/112 114/114/114 111/111/111
f 112/112/112 115/115/115 114/114/114
f 115/115/115 116/116/116 114/114/114
f 119/119/119 118/118/118 117/117/117
f 120/120/120 119/119/119 117/117/117
f 123/123/123 122/122/122 121/121/121
f 124/124/124 123/123/123 121/121/121
f 127/127/127 126/126/126 125/125/125
f 128/128/128 127/127/127 125/125/125
f 131/131/131 130/130/130 129/129/129
f 132/132/132 131/131/131 129/129/129
f 135/135/135 134/134/134 133/133/133
f 136/136/136 135/135/135 133/133/133
f 139/139/139 138/138/138 137/137/137
f 140/140/140 139/139/139 137/137/137
f 143/143/143 142/142/142 141/141/141
f 144/144/144 143/143/143 141/141/141
f 147/147/147 146/146/146 145/145/145
f 148/148/148 147/147/147 145/145/145
f 151/151/151 150/150/150 149/149/149
f 152/152/152 151/151/151 149/149/149
f 155/155/155 154/154/154 153/153/153
f 156/156/156 155/155/155 153/153/153
f 159/159/159 158/158/158 157/157/157
f 160/160/160 159/159/159 157/157/157
f 163/163/163 162/162/162 161/161/161
f 164/164/164 163/163/163 161/161/161
f 167/167/167 166/166/166 165/165/165
f 168/168/168 167/167/167 165/165/165
f 171/171/171 170/170/170 169/169/169
f 172/172/172 171/171/171 169/169/169
f 175/175/175 174/174/174 173/173/173
f 176/176/176 175/175/175 173/173/173
f 179/179/179 178/178/178 177/177/177
f 180/180/180 179/179/179 177/177/177
f 183/183/183 182/182/182 181/181/181
f 184/184/184 183/183/183 181/181/181
f 187/187/187 186/186/186 185/185/185
f 188/188/188 187/187/187 185/185/185
f 191/191/191 190/190/190 189/189/189
f 192/192/192 191/191/191 189/189/189
f 195/195/195 194/194/194 193/193/193
f 196/196/196 195/195/195 193/193/193
f 199/199/199 198/198/198 197/197/197
f 200/200/200 199/199/199 197/197/197
