g SM_Primitive_Sphere_02
v 0 0.5013131 0
v 0.4483887 0.2241941 0
v 0.138559 0.2241941 -0.4264427
v -0.3627533 0.2241941 -0.2635559
v -0.3627533 0.2241941 0.2635559
v 0.138559 0.2241941 0.4264423
v 0.3627533 -0.2241941 -0.2635559
v -0.138559 -0.2241941 -0.4264423
v -0.4483887 -0.2241941 0
v -0.138559 -0.2241941 0.4264427
v 0.3627533 -0.2241941 0.2635559
v 0 -0.5013131 0
v 0.2635559 0.4264424 0
v 0.08144302 0.4264424 -0.2506565
v -0.2132217 0.4264424 -0.1549141
v -0.213221 0.4264424 0.1549145
v 0.08144302 0.4264424 0.2506565
v 0.3449997 0.2635559 -0.2506565
v -0.131778 0.2635559 -0.405571
v -0.4264419 0.2635559 0
v -0.131778 0.2635559 0.405571
v 0.3449997 0.2635559 0.2506565
v 0.4767776 0 -0.1549141
v 0 0 -0.501313
v -0.4767776 0 -0.1549141
v -0.294664 0 0.405571
v 0.294664 0 0.405571
v 0.4767776 0 0.1549145
v 0.294664 0 -0.405571
v -0.294664 0 -0.405571
v -0.4767776 0 0.1549145
v 0 0 0.501313
v 0.131778 -0.2635559 -0.405571
v -0.3449997 -0.2635559 -0.2506565
v -0.3449989 -0.263556 0.2506569
v 0.131778 -0.2635559 0.405571
v 0.4264419 -0.2635559 0
v 0.213221 -0.4264424 -0.1549141
v -0.08144302 -0.4264424 -0.2506565
v -0.2635559 -0.4264424 0
v -0.08144302 -0.4264424 0.2506565
v 0.213221 -0.4264424 0.1549145
v 0.2635559 0.4264424 0
v 0.2635559 0.4264424 0
v 0.08144302 0.4264424 -0.2506565
v 0.3449997 0.2635559 -0.2506565
v 0.08144302 0.4264424 -0.2506565
v 0.3449997 0.2635559 -0.2506565
v 0 0.5013131 0
v 0.08144302 0.4264424 -0.2506565
v 0.08144302 0.4264424 -0.2506565
v 0.138559 0.2241941 -0.4264427
v 0.08144302 0.4264424 -0.2506565
v -0.2132217 0.4264424 -0.1549141
v -0.131778 0.2635559 -0.405571
v -0.2132217 0.4264424 -0.1549141
v -0.131778 0.2635559 -0.405571
v 0 0.5013131 0
v -0.2132217 0.4264424 -0.1549141
v -0.2132217 0.4264424 -0.1549141
v -0.3627533 0.2241941 -0.2635559
v -0.2132217 0.4264424 -0.1549141
v -0.213221 0.4264424 0.1549145
v -0.4264419 0.2635559 0
v -0.213221 0.4264424 0.1549145
v -0.4264419 0.2635559 0
v 0 0.5013131 0
v -0.213221 0.4264424 0.1549145
v -0.213221 0.4264424 0.1549145
v -0.3627533 0.2241941 0.2635559
v -0.213221 0.4264424 0.1549145
v 0.08144302 0.4264424 0.2506565
v -0.131778 0.2635559 0.405571
v 0.08144302 0.4264424 0.2506565
v -0.131778 0.2635559 0.405571
v 0 0.5013131 0
v 0.2635559 0.4264424 0
v 0.08144302 0.4264424 0.2506565
v 0.08144302 0.4264424 0.2506565
v 0.138559 0.2241941 0.4264423
v 0.08144302 0.4264424 0.2506565
v 0.2635559 0.4264424 0
v 0.3449997 0.2635559 0.2506565
v 0.2635559 0.4264424 0
v 0.4483887 0.2241941 0
v 0.3449997 0.2635559 0.2506565
v 0.4483887 0.2241941 0
v 0.4767776 0 0.1549145
v 0.4767776 0 0.1549145
v 0.4767776 0 -0.1549141
v 0.4264419 -0.2635559 0
v 0.4767776 0 -0.1549141
v 0.4264419 -0.2635559 0
v 0.138559 0.2241941 -0.4264427
v 0.294664 0 -0.405571
v 0.3627533 -0.2241941 -0.2635559
v 0.294664 0 -0.405571
v 0 0 -0.501313
v 0.131778 -0.2635559 -0.405571
v 0 0 -0.501313
v 0.131778 -0.2635559 -0.405571
v -0.3627533 0.2241941 -0.2635559
v -0.294664 0 -0.405571
v -0.138559 -0.2241941 -0.4264423
v -0.294664 0 -0.405571
v -0.4767776 0 -0.1549141
v -0.3449997 -0.2635559 -0.2506565
v -0.4767776 0 -0.1549141
v -0.3449997 -0.2635559 -0.2506565
v -0.3627533 0.2241941 0.2635559
v -0.4767776 0 0.1549145
v -0.4483887 -0.2241941 0
v -0.4767776 0 0.1549145
v -0.294664 0 0.405571
v -0.3449989 -0.263556 0.2506569
v -0.294664 0 0.405571
v -0.3449989 -0.263556 0.2506569
v 0.138559 0.2241941 0.4264423
v 0 0 0.501313
v -0.138559 -0.2241941 0.4264427
v 0 0 0.501313
v 0.294664 0 0.405571
v 0.131778 -0.2635559 0.405571
v 0.294664 0 0.405571
v 0.3627533 -0.2241941 0.2635559
v 0.131778 -0.2635559 0.405571
v 0.3627533 -0.2241941 -0.2635559
v 0.4767776 0 -0.1549141
v 0.294664 0 -0.405571
v 0.294664 0 -0.405571
v 0.3449997 0.2635559 -0.2506565
v 0.138559 0.2241941 -0.4264427
v 0.294664 0 -0.405571
v 0.4767776 0 -0.1549141
v 0.3449997 0.2635559 -0.2506565
v 0.4767776 0 -0.1549141
v 0.4483887 0.2241941 0
v 0.3449997 0.2635559 -0.2506565
v -0.138559 -0.2241941 -0.4264423
v 0 0 -0.501313
v -0.294664 0 -0.405571
v -0.294664 0 -0.405571
v -0.131778 0.2635559 -0.405571
v -0.3627533 0.2241941 -0.2635559
v -0.294664 0 -0.405571
v 0 0 -0.501313
v -0.131778 0.2635559 -0.405571
v 0 0 -0.501313
v 0.138559 0.2241941 -0.4264427
v -0.131778 0.2635559 -0.405571
v -0.4483887 -0.2241941 0
v -0.4767776 0 -0.1549141
v -0.4767776 0 0.1549145
v -0.4767776 0 0.1549145
v -0.4264419 0.2635559 0
v -0.3627533 0.2241941 0.2635559
v -0.4767776 0 0.1549145
v -0.4767776 0 -0.1549141
v -0.4264419 0.2635559 0
v -0.4767776 0 -0.1549141
v -0.3627533 0.2241941 -0.2635559
v -0.4264419 0.2635559 0
v -0.138559 -0.2241941 0.4264427
v -0.294664 0 0.405571
v 0 0 0.501313
v 0 0 0.501313
v -0.131778 0.2635559 0.405571
v 0.138559 0.2241941 0.4264423
v 0 0 0.501313
v -0.294664 0 0.405571
v -0.131778 0.2635559 0.405571
v -0.294664 0 0.405571
v -0.3627533 0.2241941 0.2635559
v -0.131778 0.2635559 0.405571
v 0.3627533 -0.2241941 0.2635559
v 0.294664 0 0.405571
v 0.4767776 0 0.1549145
v 0.4767776 0 0.1549145
v 0.3449997 0.2635559 0.2506565
v 0.4483887 0.2241941 0
v 0.4767776 0 0.1549145
v 0.294664 0 0.405571
v 0.3449997 0.2635559 0.2506565
v 0.294664 0 0.405571
v 0.138559 0.2241941 0.4264423
v 0.3449997 0.2635559 0.2506565
v -0.08144302 -0.4264424 -0.2506565
v 0.131778 -0.2635559 -0.405571
v -0.138559 -0.2241941 -0.4264423
v -0.08144302 -0.4264424 -0.2506565
v 0.213221 -0.4264424 -0.1549141
v 0.131778 -0.2635559 -0.405571
v 0.213221 -0.4264424 -0.1549141
v 0.3627533 -0.2241941 -0.2635559
v 0.131778 -0.2635559 -0.405571
v 0 -0.5013131 0
v -0.08144302 -0.4264424 -0.2506565
v -0.2635559 -0.4264424 0
v -0.3449997 -0.2635559 -0.2506565
v -0.4483887 -0.2241941 0
v -0.2635559 -0.4264424 0
v -0.08144302 -0.4264424 -0.2506565
v -0.3449997 -0.2635559 -0.2506565
v -0.08144302 -0.4264424 -0.2506565
v -0.138559 -0.2241941 -0.4264423
v -0.3449997 -0.2635559 -0.2506565
v 0 -0.5013131 0
v -0.2635559 -0.4264424 0
v -0.08144302 -0.4264424 0.2506565
v -0.3449989 -0.263556 0.2506569
v -0.138559 -0.2241941 0.4264427
v -0.08144302 -0.4264424 0.2506565
v -0.2635559 -0.4264424 0
v -0.3449989 -0.263556 0.2506569
v -0.2635559 -0.4264424 0
v -0.4483887 -0.2241941 0
v -0.3449989 -0.263556 0.2506569
v 0 -0.5013131 0
v -0.08144302 -0.4264424 0.2506565
v 0.213221 -0.4264424 0.1549145
v 0.131778 -0.2635559 0.405571
v 0.3627533 -0.2241941 0.2635559
v 0.213221 -0.4264424 0.1549145
v -0.08144302 -0.4264424 0.2506565
v 0.131778 -0.2635559 0.405571
v -0.08144302 -0.4264424 0.2506565
v -0.138559 -0.2241941 0.4264427
v 0.131778 -0.2635559 0.405571
v 0 -0.5013131 0
v 0.213221 -0.4264424 0.1549145
v 0.213221 -0.4264424 -0.1549141
v 0.213221 -0.4264424 -0.1549141
v 0.4264419 -0.2635559 0
v 0.3627533 -0.2241941 -0.2635559
v 0.213221 -0.4264424 -0.1549141
v 0.213221 -0.4264424 0.1549145
v 0.4264419 -0.2635559 0
v 0.213221 -0.4264424 0.1549145
v 0.3627533 -0.2241941 0.2635559
v 0.4264419 -0.2635559 0
vt 0.2498627 0.3001676
vt 0.2498627 0.3001678
vt 0.2498627 0.3001678
vt 0.2498627 0.3001678
vt 0.2498627 0.3001678
vt 0.2498627 0.3001678
vt 0.2498627 0.3001678
vt 0.2498627 0.3001678
vt 0.2498627 0.3001678
vt 0.2498627 0.3001678
vt 0.2498627 0.3001678
vt 0.2498627 0.3001676
vt 0.2498627 0.3001676
vt 0.2498627 0.3001676
vt 0.2498627 0.3001676
vt 0.2498627 0.3001676
vt 0.2498627 0.3001676
vt 0.2498627 0.3001678
vt 0.2498627 0.3001678
vt 0.2498627 0.3001678
vt 0.2498627 0.3001678
vt 0.2498627 0.3001678
vt 0.2498627 0.3001677
vt 0.2498627 0.3001677
vt 0.2498627 0.3001677
vt 0.2498627 0.3001677
vt 0.2498627 0.3001677
vt 0.2498627 0.3001677
vt 0.2498627 0.3001677
vt 0.2498627 0.3001677
vt 0.2498627 0.3001677
vt 0.2498627 0.3001677
vt 0.2498627 0.3001678
vt 0.2498627 0.3001678
vt 0.2498627 0.3001678
vt 0.2498627 0.3001678
vt 0.2498627 0.3001678
vt 0.2498627 0.3001676
vt 0.2498627 0.3001676
vt 0.2498627 0.3001676
vt 0.2498627 0.3001676
vt 0.2498627 0.3001676
vt 0.2498627 0.3001676
vt 0.2498627 0.3001676
vt 0.2498627 0.3001676
vt 0.2498627 0.3001678
vt 0.2498627 0.3001676
vt 0.2498627 0.3001678
vt 0.2498627 0.3001676
vt 0.2498627 0.3001676
vt 0.2498627 0.3001676
vt 0.2498627 0.3001678
vt 0.2498627 0.3001676
vt 0.2498627 0.3001676
vt 0.2498627 0.3001678
vt 0.2498627 0.3001676
vt 0.2498627 0.3001678
vt 0.2498627 0.3001676
vt 0.2498627 0.3001676
vt 0.2498627 0.3001676
vt 0.2498627 0.3001678
vt 0.2498627 0.3001676
vt 0.2498627 0.3001676
vt 0.2498627 0.3001678
vt 0.2498627 0.3001676
vt 0.2498627 0.3001678
vt 0.2498627 0.3001676
vt 0.2498627 0.3001676
vt 0.2498627 0.3001676
vt 0.2498627 0.3001678
vt 0.2498627 0.3001676
vt 0.2498627 0.3001676
vt 0.2498627 0.3001678
vt 0.2498627 0.3001676
vt 0.2498627 0.3001678
vt 0.2498627 0.3001676
vt 0.2498627 0.3001676
vt 0.2498627 0.3001676
vt 0.2498627 0.3001676
vt 0.2498627 0.3001678
vt 0.2498627 0.3001676
vt 0.2498627 0.3001676
vt 0.2498627 0.3001678
vt 0.2498627 0.3001676
vt 0.2498627 0.3001678
vt 0.2498627 0.3001678
vt 0.2498627 0.3001678
vt 0.2498627 0.3001677
vt 0.2498627 0.3001677
vt 0.2498627 0.3001677
vt 0.2498627 0.3001678
vt 0.2498627 0.3001677
vt 0.2498627 0.3001678
vt 0.2498627 0.3001678
vt 0.2498627 0.3001677
vt 0.2498627 0.3001678
vt 0.2498627 0.3001677
vt 0.2498627 0.3001677
vt 0.2498627 0.3001678
vt 0.2498627 0.3001677
vt 0.2498627 0.3001678
vt 0.2498627 0.3001678
vt 0.2498627 0.3001677
vt 0.2498627 0.3001678
vt 0.2498627 0.3001677
vt 0.2498627 0.3001677
vt 0.2498627 0.3001678
vt 0.2498627 0.3001677
vt 0.2498627 0.3001678
vt 0.2498627 0.3001678
vt 0.2498627 0.3001677
vt 0.2498627 0.3001678
vt 0.2498627 0.3001677
vt 0.2498627 0.3001677
vt 0.2498627 0.3001678
vt 0.2498627 0.3001677
vt 0.2498627 0.3001678
vt 0.2498627 0.3001678
vt 0.2498627 0.3001677
vt 0.2498627 0.3001678
vt 0.2498627 0.3001677
vt 0.2498627 0.3001677
vt 0.2498627 0.3001678
vt 0.2498627 0.3001677
vt 0.2498627 0.3001678
vt 0.2498627 0.3001678
vt 0.2498627 0.3001678
vt 0.2498627 0.3001677
vt 0.2498627 0.3001677
vt 0.2498627 0.3001677
vt 0.2498627 0.3001678
vt 0.2498627 0.3001678
vt 0.2498627 0.3001677
vt 0.2498627 0.3001677
vt 0.2498627 0.3001678
vt 0.2498627 0.3001677
vt 0.2498627 0.3001678
vt 0.2498627 0.3001678
vt 0.2498627 0.3001678
vt 0.2498627 0.3001677
vt 0.2498627 0.3001677
vt 0.2498627 0.3001677
vt 0.2498627 0.3001678
vt 0.2498627 0.3001678
vt 0.2498627 0.3001677
vt 0.2498627 0.3001677
vt 0.2498627 0.3001678
vt 0.2498627 0.3001677
vt 0.2498627 0.3001678
vt 0.2498627 0.3001678
vt 0.2498627 0.3001678
vt 0.2498627 0.3001677
vt 0.2498627 0.3001677
vt 0.2498627 0.3001677
vt 0.2498627 0.3001678
vt 0.2498627 0.3001678
vt 0.2498627 0.3001677
vt 0.2498627 0.3001677
vt 0.2498627 0.3001678
vt 0.2498627 0.3001677
vt 0.2498627 0.3001678
vt 0.2498627 0.3001678
vt 0.2498627 0.3001678
vt 0.2498627 0.3001677
vt 0.2498627 0.3001677
vt 0.2498627 0.3001677
vt 0.2498627 0.3001678
vt 0.2498627 0.3001678
vt 0.2498627 0.3001677
vt 0.2498627 0.3001677
vt 0.2498627 0.3001678
vt 0.2498627 0.3001677
vt 0.2498627 0.3001678
vt 0.2498627 0.3001678
vt 0.2498627 0.3001678
vt 0.2498627 0.3001677
vt 0.2498627 0.3001677
vt 0.2498627 0.3001677
vt 0.2498627 0.3001678
vt 0.2498627 0.3001678
vt 0.2498627 0.3001677
vt 0.2498627 0.3001677
vt 0.2498627 0.3001678
vt 0.2498627 0.3001677
vt 0.2498627 0.3001678
vt 0.2498627 0.3001678
vt 0.2498627 0.3001676
vt 0.2498627 0.3001678
vt 0.2498627 0.3001678
vt 0.2498627 0.3001676
vt 0.2498627 0.3001676
vt 0.2498627 0.3001678
vt 0.2498627 0.3001676
vt 0.2498627 0.3001678
vt 0.2498627 0.3001678
vt 0.2498627 0.3001676
vt 0.2498627 0.3001676
vt 0.2498627 0.3001676
vt 0.2498627 0.3001678
vt 0.2498627 0.3001678
vt 0.2498627 0.3001676
vt 0.2498627 0.3001676
vt 0.2498627 0.3001678
vt 0.2498627 0.3001676
vt 0.2498627 0.3001678
vt 0.2498627 0.3001678
vt 0.2498627 0.3001676
vt 0.2498627 0.3001676
vt 0.2498627 0.3001676
vt 0.2498627 0.3001678
vt 0.2498627 0.3001678
vt 0.2498627 0.3001676
vt 0.2498627 0.3001676
vt 0.2498627 0.3001678
vt 0.2498627 0.3001676
vt 0.2498627 0.3001678
vt 0.2498627 0.3001678
vt 0.2498627 0.3001676
vt 0.2498627 0.3001676
vt 0.2498627 0.3001676
vt 0.2498627 0.3001678
vt 0.2498627 0.3001678
vt 0.2498627 0.3001676
vt 0.2498627 0.3001676
vt 0.2498627 0.3001678
vt 0.2498627 0.3001676
vt 0.2498627 0.3001678
vt 0.2498627 0.3001678
vt 0.2498627 0.3001676
vt 0.2498627 0.3001676
vt 0.2498627 0.3001676
vt 0.2498627 0.3001676
vt 0.2498627 0.3001678
vt 0.2498627 0.3001678
vt 0.2498627 0.3001676
vt 0.2498627 0.3001676
vt 0.2498627 0.3001678
vt 0.2498627 0.3001676
vt 0.2498627 0.3001678
vt 0.2498627 0.3001678
vn 0.2680349 0.9435221 -0.1947391
vn 0.7240419 0.6616949 -0.1947384
vn 0.4089482 0.6616942 -0.6284284
vn -0.4712994 0.661693 -0.5831288
vn -0.7002281 0.6616933 0.2680345
vn 0.03853463 0.6616938 0.7487833
vn 0.9049872 -0.3303871 -0.2680345
vn 0.02473968 -0.3303838 -0.9435225
vn -0.8896977 -0.330384 -0.3150943
vn -0.5746034 -0.3303837 0.7487841
vn 0.9049871 -0.3303874 0.2680345
vn 0.1023805 -0.9435221 -0.315094
vn 0.2680349 0.9435221 -0.1947391
vn 0.2680349 0.9435221 -0.1947391
vn -0.1023802 0.9435221 -0.3150939
vn -0.3313091 0.9435222 0
vn -0.1023801 0.9435222 0.3150938
vn 0.7240419 0.6616949 -0.1947384
vn 0.03853381 0.6616944 -0.7487828
vn -0.7002293 0.6616921 -0.2680346
vn -0.4712992 0.6616934 0.5831285
vn 0.4089479 0.6616936 0.6284292
vn 0.9920779 0.1256237 0
vn 0.3065687 0.1256231 -0.9435223
vn -0.8026066 0.125625 -0.5831302
vn -0.8026062 0.1256254 0.5831308
vn 0.3065686 0.1256247 0.9435221
vn 0.9920779 0.1256237 0
vn 0.3065687 0.1256231 -0.9435223
vn -0.8026066 0.125625 -0.5831302
vn -0.8026062 0.1256254 0.5831308
vn 0.3065686 0.1256247 0.9435221
vn 0.5345739 -0.3303839 -0.7778671
vn -0.574602 -0.330384 -0.748785
vn -0.8896967 -0.3303854 0.3150958
vn 0.02474128 -0.3303831 0.9435226
vn 0.9049871 -0.3303874 0.2680345
vn 0.1023805 -0.9435221 -0.315094
vn 0.1023805 -0.9435221 -0.315094
vn -0.2680349 -0.9435221 -0.1947391
vn -0.2680349 -0.9435221 0.194739
vn 0.1023801 -0.9435222 0.3150938
vn 0.7240419 0.6616949 -0.1947384
vn 0.4911224 0.7946551 -0.3568219
vn 0.4911224 0.7946551 -0.3568219
vn 0.4911224 0.7946551 -0.3568219
vn 0.4089482 0.6616942 -0.6284284
vn 0.4089482 0.6616942 -0.6284284
vn -0.1023802 0.9435221 -0.3150939
vn -0.1023802 0.9435221 -0.3150939
vn 0.03853381 0.6616944 -0.7487828
vn 0.03853381 0.6616944 -0.7487828
vn -0.1875924 0.7946547 -0.57735
vn -0.1875924 0.7946547 -0.57735
vn -0.1875924 0.7946547 -0.57735
vn -0.4712994 0.661693 -0.5831288
vn -0.4712994 0.661693 -0.5831288
vn -0.3313091 0.9435222 0
vn -0.3313091 0.9435222 0
vn -0.7002293 0.6616921 -0.2680346
vn -0.7002293 0.6616921 -0.2680346
vn -0.6070631 0.7946537 0
vn -0.6070631 0.7946537 0
vn -0.6070631 0.7946537 0
vn -0.7002281 0.6616933 0.2680345
vn -0.7002281 0.6616933 0.2680345
vn -0.1023801 0.9435222 0.3150938
vn -0.1023801 0.9435222 0.3150938
vn -0.4712992 0.6616934 0.5831285
vn -0.4712992 0.6616934 0.5831285
vn -0.1875922 0.7946545 0.5773503
vn -0.1875922 0.7946545 0.5773503
vn -0.1875922 0.7946545 0.5773503
vn 0.03853463 0.6616938 0.7487833
vn 0.03853463 0.6616938 0.7487833
vn 0.2680349 0.9435221 0.194739
vn 0.2680349 0.9435221 0.194739
vn 0.2680349 0.9435221 0.194739
vn 0.4089479 0.6616936 0.6284292
vn 0.4089479 0.6616936 0.6284292
vn 0.4911225 0.7946553 0.3568219
vn 0.4911225 0.7946553 0.3568219
vn 0.4911225 0.7946553 0.3568219
vn 0.724042 0.6616949 0.1947384
vn 0.724042 0.6616949 0.1947384
vn 0.724042 0.6616949 0.1947384
vn 0.9920779 0.1256237 0
vn 0.9049871 -0.3303874 0.2680345
vn 0.9822463 -0.187596 0
vn 0.9822463 -0.187596 0
vn 0.9822463 -0.187596 0
vn 0.9049872 -0.3303871 -0.2680345
vn 0.9049872 -0.3303871 -0.2680345
vn 0.3065687 0.1256231 -0.9435223
vn 0.5345739 -0.3303839 -0.7778671
vn 0.5345739 -0.3303839 -0.7778671
vn 0.3035308 -0.1875918 -0.9341726
vn 0.3035308 -0.1875918 -0.9341726
vn 0.3035308 -0.1875918 -0.9341726
vn 0.02473968 -0.3303838 -0.9435225
vn 0.02473968 -0.3303838 -0.9435225
vn -0.8026066 0.125625 -0.5831302
vn -0.574602 -0.330384 -0.748785
vn -0.574602 -0.330384 -0.748785
vn -0.7946535 -0.1875912 -0.577352
vn -0.7946535 -0.1875912 -0.577352
vn -0.7946535 -0.1875912 -0.577352
vn -0.8896977 -0.330384 -0.3150943
vn -0.8896977 -0.330384 -0.3150943
vn -0.8026062 0.1256254 0.5831308
vn -0.8896967 -0.3303854 0.3150958
vn -0.8896967 -0.3303854 0.3150958
vn -0.7946528 -0.1875929 0.5773523
vn -0.7946528 -0.1875929 0.5773523
vn -0.7946528 -0.1875929 0.5773523
vn -0.5746034 -0.3303837 0.7487841
vn -0.5746034 -0.3303837 0.7487841
vn 0.3065686 0.1256247 0.9435221
vn 0.02474128 -0.3303831 0.9435226
vn 0.02474128 -0.3303831 0.9435226
vn 0.3035308 -0.1875918 0.9341726
vn 0.3035308 -0.1875918 0.9341726
vn 0.3035308 -0.1875918 0.9341726
vn 0.5345738 -0.3303839 0.7778671
vn 0.5345738 -0.3303839 0.7778671
vn 0.5345738 -0.3303839 0.7778671
vn 0.8026066 -0.125625 -0.5831302
vn 0.8026066 -0.125625 -0.5831302
vn 0.8026066 -0.125625 -0.5831302
vn 0.5746032 0.3303835 -0.7487844
vn 0.5746032 0.3303835 -0.7487844
vn 0.5746032 0.3303835 -0.7487844
vn 0.7946536 0.1875912 -0.577352
vn 0.7946536 0.1875912 -0.577352
vn 0.7946536 0.1875912 -0.577352
vn 0.8896977 0.330384 -0.3150943
vn 0.8896977 0.330384 -0.3150943
vn 0.8896977 0.330384 -0.3150943
vn -0.3065686 -0.1256249 -0.9435221
vn -0.3065686 -0.1256249 -0.9435221
vn -0.3065686 -0.1256249 -0.9435221
vn -0.5345739 0.3303839 -0.7778671
vn -0.5345739 0.3303839 -0.7778671
vn -0.5345739 0.3303839 -0.7778671
vn -0.3035308 0.1875918 -0.9341726
vn -0.3035308 0.1875918 -0.9341726
vn -0.3035308 0.1875918 -0.9341726
vn -0.02474124 0.3303831 -0.9435226
vn -0.02474124 0.3303831 -0.9435226
vn -0.02474124 0.3303831 -0.9435226
vn -0.9920779 -0.1256237 0
vn -0.9920779 -0.1256237 0
vn -0.9920779 -0.1256237 0
vn -0.9049871 0.3303874 0.2680345
vn -0.9049871 0.3303874 0.2680345
vn -0.9049871 0.3303874 0.2680345
vn -0.9822463 0.187596 0
vn -0.9822463 0.187596 0
vn -0.9822463 0.187596 0
vn -0.9049872 0.3303871 -0.2680345
vn -0.9049872 0.3303871 -0.2680345
vn -0.9049872 0.3303871 -0.2680345
vn -0.3065687 -0.1256231 0.9435223
vn -0.3065687 -0.1256231 0.9435223
vn -0.3065687 -0.1256231 0.9435223
vn -0.02473981 0.3303837 0.9435225
vn -0.02473981 0.3303837 0.9435225
vn -0.02473981 0.3303837 0.9435225
vn -0.3035308 0.1875918 0.9341726
vn -0.3035308 0.1875918 0.9341726
vn -0.3035308 0.1875918 0.9341726
vn -0.5345739 0.3303839 0.7778671
vn -0.5345739 0.3303839 0.7778671
vn -0.5345739 0.3303839 0.7778671
vn 0.8026062 -0.1256254 0.5831308
vn 0.8026062 -0.1256254 0.5831308
vn 0.8026062 -0.1256254 0.5831308
vn 0.8896976 0.3303844 0.3150941
vn 0.8896976 0.3303844 0.3150941
vn 0.8896976 0.3303844 0.3150941
vn 0.7946531 0.1875915 0.5773525
vn 0.7946531 0.1875915 0.5773525
vn 0.7946531 0.1875915 0.5773525
vn 0.5746021 0.3303839 0.748785
vn 0.5746021 0.3303839 0.748785
vn 0.5746021 0.3303839 0.748785
vn -0.03853476 -0.6616938 -0.7487833
vn -0.03853476 -0.6616938 -0.7487833
vn -0.03853476 -0.6616938 -0.7487833
vn 0.1875927 -0.7946548 -0.5773497
vn 0.1875927 -0.7946548 -0.5773497
vn 0.1875927 -0.7946548 -0.5773497
vn 0.471299 -0.661694 -0.5831279
vn 0.471299 -0.661694 -0.5831279
vn 0.471299 -0.661694 -0.5831279
vn -0.2680349 -0.9435221 -0.1947391
vn -0.2680349 -0.9435221 -0.1947391
vn -0.7240419 -0.6616949 -0.1947384
vn -0.7240419 -0.6616949 -0.1947384
vn -0.7240419 -0.6616949 -0.1947384
vn -0.4911225 -0.7946551 -0.3568219
vn -0.4911225 -0.7946551 -0.3568219
vn -0.4911225 -0.7946551 -0.3568219
vn -0.4089479 -0.6616936 -0.6284292
vn -0.4089479 -0.6616936 -0.6284292
vn -0.4089479 -0.6616936 -0.6284292
vn -0.2680349 -0.9435221 0.194739
vn -0.2680349 -0.9435221 0.194739
vn -0.4089484 -0.661694 0.6284284
vn -0.4089484 -0.661694 0.6284284
vn -0.4089484 -0.661694 0.6284284
vn -0.4911229 -0.7946547 0.3568222
vn -0.4911229 -0.7946547 0.3568222
vn -0.4911229 -0.7946547 0.3568222
vn -0.7240418 -0.6616946 0.1947401
vn -0.7240418 -0.6616946 0.1947401
vn -0.7240418 -0.6616946 0.1947401
vn 0.1023801 -0.9435222 0.3150938
vn 0.1023801 -0.9435222 0.3150938
vn 0.4712991 -0.6616935 0.5831286
vn 0.4712991 -0.6616935 0.5831286
vn 0.4712991 -0.6616935 0.5831286
vn 0.1875923 -0.7946545 0.5773503
vn 0.1875923 -0.7946545 0.5773503
vn 0.1875923 -0.7946545 0.5773503
vn -0.03853364 -0.6616944 0.7487828
vn -0.03853364 -0.6616944 0.7487828
vn -0.03853364 -0.6616944 0.7487828
vn 0.3313097 -0.943522 0
vn 0.3313097 -0.943522 0
vn 0.3313097 -0.943522 0
vn 0.7002278 -0.6616936 -0.2680344
vn 0.7002278 -0.6616936 -0.2680344
vn 0.7002278 -0.6616936 -0.2680344
vn 0.6070624 -0.7946542 0
vn 0.6070624 -0.7946542 0
vn 0.6070624 -0.7946542 0
vn 0.7002281 -0.6616933 0.2680345
vn 0.7002281 -0.6616933 0.2680345
vn 0.7002281 -0.6616933 0.2680345
g SM_Primitive_Sphere_02_0
f 13/13/13 14/14/14 1/1/1
f 2/2/2 18/18/18 43/43/43
f 46/46/46 45/45/45 44/44/44
f 48/48/48 3/3/3 47/47/47
f 50/50/50 15/15/15 49/49/49
f 52/52/52 19/19/19 51/51/51
f 55/55/55 54/54/54 53/53/53
f 57/57/57 4/4/4 56/56/56
f 59/59/59 16/16/16 58/58/58
f 61/61/61 20/20/20 60/60/60
f 64/64/64 63/63/63 62/62/62
f 66/66/66 5/5/5 65/65/65
f 68/68/68 17/17/17 67/67/67
f 70/70/70 21/21/21 69/69/69
f 73/73/73 72/72/72 71/71/71
f 75/75/75 6/6/6 74/74/74
f 78/78/78 77/77/77 76/76/76
f 80/80/80 22/22/22 79/79/79
f 83/83/83 82/82/82 81/81/81
f 86/86/86 85/85/85 84/84/84
f 28/28/28 23/23/23 87/87/87
f 11/11/11 37/37/37 88/88/88
f 91/91/91 90/90/90 89/89/89
f 93/93/93 7/7/7 92/92/92
f 29/29/29 24/24/24 94/94/94
f 96/96/96 33/33/33 95/95/95
f 99/99/99 98/98/98 97/97/97
f 101/101/101 8/8/8 100/100/100
f 30/30/30 25/25/25 102/102/102
f 104/104/104 34/34/34 103/103/103
f 107/107/107 106/106/106 105/105/105
f 109/109/109 9/9/9 108/108/108
f 31/31/31 26/26/26 110/110/110
f 112/112/112 35/35/35 111/111/111
f 115/115/115 114/114/114 113/113/113
f 117/117/117 10/10/10 116/116/116
f 32/32/32 27/27/27 118/118/118
f 120/120/120 36/36/36 119/119/119
f 123/123/123 122/122/122 121/121/121
f 126/126/126 125/125/125 124/124/124
f 129/129/129 128/128/128 127/127/127
f 132/132/132 131/131/131 130/130/130
f 135/135/135 134/134/134 133/133/133
f 138/138/138 137/137/137 136/136/136
f 141/141/141 140/140/140 139/139/139
f 144/144/144 143/143/143 142/142/142
f 147/147/147 146/146/146 145/145/145
f 150/150/150 149/149/149 148/148/148
f 153/153/153 152/152/152 151/151/151
f 156/156/156 155/155/155 154/154/154
f 159/159/159 158/158/158 157/157/157
f 162/162/162 161/161/161 160/160/160
f 165/165/165 164/164/164 163/163/163
f 168/168/168 167/167/167 166/166/166
f 171/171/171 170/170/170 169/169/169
f 174/174/174 173/173/173 172/172/172
f 177/177/177 176/176/176 175/175/175
f 180/180/180 179/179/179 178/178/178
f 183/183/183 182/182/182 181/181/181
f 186/186/186 185/185/185 184/184/184
f 39/39/39 38/38/38 12/12/12
f 189/189/189 188/188/188 187/187/187
f 192/192/192 191/191/191 190/190/190
f 195/195/195 194/194/194 193/193/193
f 40/40/40 197/197/197 196/196/196
f 200/200/200 199/199/199 198/198/198
f 203/203/203 202/202/202 201/201/201
f 206/206/206 205/205/205 204/204/204
f 41/41/41 208/208/208 207/207/207
f 211/211/211 210/210/210 209/209/209
f 214/214/214 213/213/213 212/212/212
f 217/217/217 216/216/216 215/215/215
f 42/42/42 219/219/219 218/218/218
f 222/222/222 221/221/221 220/220/220
f 225/225/225 224/224/224 223/223/223
f 228/228/228 227/227/227 226/226/226
f 231/231/231 230/230/230 229/229/229
f 234/234/234 233/233/233 232/232/232
f 237/237/237 236/236/236 235/235/235
f 240/240/240 239/239/239 238/238/238
