g SM_Switch_Button_01
v 0.04586898 0 -0.04586899
v 0 0 -0.06486852
v -0.04586898 0 -0.04586899
v -0.06486852 0 0
v -0.04586898 0 0.04586899
v 0 0 0.06486852
v 0.04586898 0 0.04586899
v 0.06486853 0 0
v 0.04224173 0.01061953 -0.04224167
v 0 0.01061953 -0.05973902
v -0.04224173 0.01061953 -0.04224167
v -0.05973883 0.01061953 0
v -0.04224173 0.01061953 0.04224192
v 0 0.01061953 0.059739
v 0.04224173 0.01061953 0.04224192
v 0.05973883 0.01061953 0
v 0.03348092 0.01061953 -0.03348085
v 0 0.01061953 -0.04734917
v 0 0.01061953 0
v -0.03348092 0.01061953 -0.03348085
v -0.04734919 0.01061953 0
v -0.03348092 0.01061953 0.0334811
v 0 0.01061953 0.04734915
v 0.03348092 0.01061953 0.0334811
v 0.04734918 0.01061953 0
v 0 0 -0.06486852
v 0 0.01061953 -0.05973902
v -0.04586898 0 -0.04586899
v -0.04224173 0.01061953 -0.04224167
v -0.06486852 0 0
v -0.05973883 0.01061953 0
v -0.04586898 0 0.04586899
v -0.04224173 0.01061953 0.04224192
v 0 0 0.06486852
v 0 0.01061953 0.059739
v 0.04586898 0 0.04586899
v 0.04224173 0.01061953 0.04224192
v 0.06486853 0 0
v 0.05973883 0.01061953 0
v 0.04224173 0.01061953 -0.04224167
v 0.04586898 0 -0.04586899
v 0.04224173 0.01061953 -0.04224167
v 0.03348092 0.01061953 -0.03348085
v 0 0.01061953 -0.04734917
v 0 0.01061953 -0.05973902
v -0.03348092 0.01061953 -0.03348085
v -0.04224173 0.01061953 -0.04224167
v -0.04734919 0.01061953 0
v -0.05973883 0.01061953 0
v -0.03348092 0.01061953 0.0334811
v -0.04224173 0.01061953 0.04224192
v 0 0.01061953 0.04734915
v 0 0.01061953 0.059739
v 0.03348092 0.01061953 0.0334811
v 0.04224173 0.01061953 0.04224192
v 0.04734918 0.01061953 0
v 0.05973883 0.01061953 0
vt 0.08094019 0.3285801
vt 0.08094019 0.3285801
vt 0.08094019 0.3285801
vt 0.08094019 0.3285801
vt 0.08094019 0.3285801
vt 0.08094019 0.3285801
vt 0.08094019 0.3285801
vt 0.08094019 0.3285801
vt 0.08094019 0.3285801
vt 0.08094019 0.3285801
vt 0.08094019 0.3285801
vt 0.08094019 0.3285801
vt 0.08094019 0.3285801
vt 0.08094019 0.3285801
vt 0.08094019 0.3285801
vt 0.08094019 0.3285801
vt 0.0801277 0.2765808
vt 0.0801277 0.2765808
vt 0.0801277 0.2765808
vt 0.0801277 0.2765808
vt 0.0801277 0.2765808
vt 0.0801277 0.2765808
vt 0.0801277 0.2765808
vt 0.0801277 0.2765808
vt 0.0801277 0.2765808
vt 0.08094019 0.3285801
vt 0.08094019 0.3285801
vt 0.08094019 0.3285801
vt 0.08094019 0.3285801
vt 0.08094019 0.3285801
vt 0.08094019 0.3285801
vt 0.08094019 0.3285801
vt 0.08094019 0.3285801
vt 0.08094019 0.3285801
vt 0.08094019 0.3285801
vt 0.08094019 0.3285801
vt 0.08094019 0.3285801
vt 0.08094019 0.3285801
vt 0.08094019 0.3285801
vt 0.08094019 0.3285801
vt 0.08094019 0.3285801
vt 0.08094019 0.3285801
vt 0.08094019 0.3285801
vt 0.08094019 0.3285801
vt 0.08094019 0.3285801
vt 0.08094019 0.3285801
vt 0.08094019 0.3285801
vt 0.08094019 0.3285801
vt 0.08094019 0.3285801
vt 0.08094019 0.3285801
vt 0.08094019 0.3285801
vt 0.08094019 0.3285801
vt 0.08094019 0.3285801
vt 0.08094019 0.3285801
vt 0.08094019 0.3285801
vt 0.08094019 0.3285801
vt 0.08094019 0.3285801
vn 0.3494654 0.4075297 -0.8436785
vn 0.3494654 0.4075297 -0.8436785
vn -0.3494654 0.4075297 -0.8436785
vn -0.8436773 0.4075346 -0.3494628
vn -0.8436791 0.4075312 0.3494625
vn -0.3494646 0.4075217 0.8436827
vn 0.3494646 0.4075217 0.8436827
vn 0.843679 0.4075314 0.3494625
vn 0.3494654 0.4075297 -0.8436785
vn 0.3494654 0.4075297 -0.8436785
vn -0.3494654 0.4075297 -0.8436785
vn -0.8436773 0.4075346 -0.3494628
vn -0.8436791 0.4075312 0.3494625
vn -0.3494646 0.4075217 0.8436827
vn 0.3494646 0.4075217 0.8436827
vn 0.843679 0.4075314 0.3494625
vn 0 1 0
vn 0 1 0
vn 0 1 0
vn 0 1 0
vn 0 1 0
vn 0 1 0
vn 0 1 0
vn 0 1 0
vn 0 1 0
vn -0.3494654 0.4075297 -0.8436785
vn -0.3494654 0.4075297 -0.8436785
vn -0.8436773 0.4075346 -0.3494628
vn -0.8436773 0.4075346 -0.3494628
vn -0.8436791 0.4075312 0.3494625
vn -0.8436791 0.4075312 0.3494625
vn -0.3494646 0.4075217 0.8436827
vn -0.3494646 0.4075217 0.8436827
vn 0.3494646 0.4075217 0.8436827
vn 0.3494646 0.4075217 0.8436827
vn 0.843679 0.4075314 0.3494625
vn 0.843679 0.4075314 0.3494625
vn 0.8436772 0.4075348 -0.3494628
vn 0.8436772 0.4075348 -0.3494628
vn 0.8436772 0.4075348 -0.3494628
vn 0.8436772 0.4075348 -0.3494628
vn 0 1 0
vn 0 1 0
vn 0 1 0
vn 0 1 0
vn 0 1 0
vn 0 1 0
vn 0 1 0
vn 0 1 0
vn 0 1 0
vn 0 1 0
vn 0 1 0
vn 0 1 0
vn 0 1 0
vn 0 1 0
vn 0 1 0
vn 0 1 0
g SM_Switch_Button_01_0
f 10/10/10 9/9/9 1/1/1
f 2/2/2 10/10/10 1/1/1
f 11/11/11 27/27/27 26/26/26
f 3/3/3 11/11/11 26/26/26
f 12/12/12 29/29/29 28/28/28
f 4/4/4 12/12/12 28/28/28
f 13/13/13 31/31/31 30/30/30
f 5/5/5 13/13/13 30/30/30
f 14/14/14 33/33/33 32/32/32
f 6/6/6 14/14/14 32/32/32
f 15/15/15 35/35/35 34/34/34
f 7/7/7 15/15/15 34/34/34
f 16/16/16 37/37/37 36/36/36
f 8/8/8 16/16/16 36/36/36
f 40/40/40 39/39/39 38/38/38
f 41/41/41 40/40/40 38/38/38
f 18/18/18 19/19/19 17/17/17
f 17/17/17 19/19/19 25/25/25
f 20/20/20 19/19/19 18/18/18
f 25/25/25 19/19/19 24/24/24
f 21/21/21 19/19/19 20/20/20
f 24/24/24 19/19/19 23/23/23
f 22/22/22 19/19/19 21/21/21
f 23/23/23 19/19/19 22/22/22
f 44/44/44 43/43/43 42/42/42
f 45/45/45 44/44/44 42/42/42
f 42/42/42 43/43/43 57/57/57
f 46/46/46 44/44/44 45/45/45
f 43/43/43 56/56/56 57/57/57
f 47/47/47 46/46/46 45/45/45
f 57/57/57 56/56/56 55/55/55
f 48/48/48 46/46/46 47/47/47
f 56/56/56 54/54/54 55/55/55
f 49/49/49 48/48/48 47/47/47
f 55/55/55 54/54/54 53/53/53
f 50/50/50 48/48/48 49/49/49
f 54/54/54 52/52/52 53/53/53
f 51/51/51 50/50/50 49/49/49
f 53/53/53 52/52/52 51/51/51
f 52/52/52 50/50/50 51/51/51
