g SM_Switch_Button_Button_01
v 0.3551903 0 1.266696
v 0.3243773 0 1.253933
v 0.2935643 0 1.266696
v 0.2808012 0 1.297509
v 0.2935643 0 1.328322
v 0.3243773 0 1.341085
v 0.3551903 0 1.328322
v 0.3679534 0 1.297509
v 0.3551903 0.02886434 1.266696
v 0.3243773 0.02886434 1.253933
v 0.2935643 0.02886434 1.266696
v 0.2808012 0.02886434 1.297509
v 0.2935643 0.02886434 1.328322
v 0.3243773 0.02886434 1.341085
v 0.3551903 0.02886434 1.328322
v 0.3679534 0.02886434 1.297509
v 0.352032 0.03279861 1.269855
v 0.3243773 0.03279861 1.258399
v 0.3243773 0.03279861 1.297509
v 0.2982156 0.03279861 1.272147
v 0.2852676 0.03279861 1.297509
v 0.2967226 0.03279861 1.325164
v 0.3243773 0.03279861 1.336619
v 0.3520148 0.03279861 1.322429
v 0.363487 0.03279861 1.297509
v 0.3243773 0 1.253933
v 0.3243773 0.02886434 1.253933
v 0.2935643 0 1.266696
v 0.2935643 0.02886434 1.266696
v 0.2808012 0 1.297509
v 0.2808012 0.02886434 1.297509
v 0.2935643 0 1.328322
v 0.2935643 0.02886434 1.328322
v 0.3243773 0 1.341085
v 0.3243773 0.02886434 1.341085
v 0.3551903 0 1.328322
v 0.3551903 0.02886434 1.328322
v 0.3679534 0 1.297509
v 0.3679534 0.02886434 1.297509
v 0.3551903 0.02886434 1.266696
v 0.3551903 0 1.266696
v 0.3551903 0.02886434 1.266696
v 0.352032 0.03279861 1.269855
v 0.3243773 0.03279861 1.258399
v 0.3243773 0.02886434 1.253933
v 0.3243773 0.02886434 1.253933
v 0.3243773 0.03279861 1.258399
v 0.2982156 0.03279861 1.272147
v 0.2935643 0.02886434 1.266696
v 0.2935643 0.02886434 1.266696
v 0.2982156 0.03279861 1.272147
v 0.2852676 0.03279861 1.297509
v 0.2808012 0.02886434 1.297509
v 0.2808012 0.02886434 1.297509
v 0.2852676 0.03279861 1.297509
v 0.2967226 0.03279861 1.325164
v 0.2935643 0.02886434 1.328322
v 0.2935643 0.02886434 1.328322
v 0.2967226 0.03279861 1.325164
v 0.3243773 0.03279861 1.336619
v 0.3243773 0.02886434 1.341085
v 0.3243773 0.02886434 1.341085
v 0.3243773 0.03279861 1.336619
v 0.3520148 0.03279861 1.322429
v 0.3551903 0.02886434 1.328322
v 0.3551903 0.02886434 1.328322
v 0.3520148 0.03279861 1.322429
v 0.363487 0.03279861 1.297509
v 0.3679534 0.02886434 1.297509
v 0.3679534 0.02886434 1.297509
v 0.363487 0.03279861 1.297509
v 0.352032 0.03279861 1.269855
v 0.3551903 0.02886434 1.266696
vt 0.2480925 0.3031127
vt 0.2480925 0.3031127
vt 0.2480925 0.3031127
vt 0.2480925 0.3031127
vt 0.2480924 0.3031127
vt 0.2480924 0.3031127
vt 0.2480924 0.3031127
vt 0.2480924 0.3031127
vt 0.2480925 0.3031126
vt 0.2480925 0.3031126
vt 0.2480925 0.3031126
vt 0.2480925 0.3031126
vt 0.2480924 0.3031126
vt 0.2480924 0.3031126
vt 0.2480924 0.3031126
vt 0.2480924 0.3031126
vt 0.2480924 0.3031126
vt 0.2480924 0.3031126
vt 0.2480924 0.3031126
vt 0.2480925 0.3031126
vt 0.2480925 0.3031126
vt 0.2480925 0.3031126
vt 0.2480924 0.3031126
vt 0.2480924 0.3031126
vt 0.2480924 0.3031126
vt 0.2480925 0.3031127
vt 0.2480925 0.3031126
vt 0.2480925 0.3031127
vt 0.2480925 0.3031126
vt 0.2480925 0.3031127
vt 0.2480925 0.3031126
vt 0.2480924 0.3031127
vt 0.2480924 0.3031126
vt 0.2480924 0.3031127
vt 0.2480924 0.3031126
vt 0.2480924 0.3031127
vt 0.2480924 0.3031126
vt 0.2480924 0.3031127
vt 0.2480924 0.3031126
vt 0.2480924 0.3031126
vt 0.2480924 0.3031127
vt 0.2480924 0.3031126
vt 0.2480924 0.3031126
vt 0.2480924 0.3031126
vt 0.2480924 0.3031126
vt 0.2480924 0.3031126
vt 0.2480924 0.3031126
vt 0.2480925 0.3031126
vt 0.2480925 0.3031126
vt 0.2480925 0.3031126
vt 0.2480925 0.3031126
vt 0.2480925 0.3031126
vt 0.2480925 0.3031126
vt 0.2480925 0.3031126
vt 0.2480925 0.3031126
vt 0.2480925 0.3031126
vt 0.2480925 0.3031126
vt 0.2480925 0.3031126
vt 0.2480925 0.3031126
vt 0.2480924 0.3031126
vt 0.2480924 0.3031126
vt 0.2480924 0.3031126
vt 0.2480924 0.3031126
vt 0.2480924 0.3031126
vt 0.2480924 0.3031126
vt 0.2480924 0.3031126
vt 0.2480924 0.3031126
vt 0.2480924 0.3031126
vt 0.2480924 0.3031126
vt 0.2480924 0.3031126
vt 0.2480924 0.3031126
vt 0.2480924 0.3031126
vt 0.2480924 0.3031126
vn 0.3826814 0 -0.9238805
vn 0.3826814 0 -0.9238805
vn -0.3826812 0 -0.9238805
vn -0.9238799 0 -0.3826826
vn -0.9238782 0 0.3826866
vn -0.382689 0 0.9238772
vn 0.3826892 0 0.9238772
vn 0.9238788 0 0.3826852
vn 0.3826814 0 -0.9238805
vn 0.3826814 0 -0.9238805
vn -0.3826812 0 -0.9238805
vn -0.9238799 0 -0.3826826
vn -0.9238782 0 0.3826866
vn -0.382689 0 0.9238772
vn 0.3826892 0 0.9238772
vn 0.9238788 0 0.3826852
vn 0 1 0
vn 0 1 0
vn 0 1 0
vn 0 1 0
vn 0 1 0
vn 0 1 0
vn 0 1 0
vn 0 1 0
vn 0 1 0
vn -0.3826812 0 -0.9238805
vn -0.3826812 0 -0.9238805
vn -0.9238799 0 -0.3826826
vn -0.9238799 0 -0.3826826
vn -0.9238782 0 0.3826866
vn -0.9238782 0 0.3826866
vn -0.382689 0 0.9238772
vn -0.382689 0 0.9238772
vn 0.3826892 0 0.9238772
vn 0.3826892 0 0.9238772
vn 0.9238788 0 0.3826852
vn 0.9238788 0 0.3826852
vn 0.9238805 0 -0.3826812
vn 0.9238805 0 -0.3826812
vn 0.9238805 0 -0.3826812
vn 0.9238805 0 -0.3826812
vn 0.2640742 0.7237558 -0.6375283
vn 0.2640742 0.7237558 -0.6375283
vn 0.2640742 0.7237558 -0.6375283
vn 0.2640742 0.7237558 -0.6375283
vn -0.2461281 0.8121771 -0.5289513
vn -0.2461281 0.8121771 -0.5289513
vn -0.2461281 0.8121771 -0.5289513
vn -0.2461281 0.8121771 -0.5289513
vn -0.543319 0.8018509 -0.2486759
vn -0.543319 0.8018509 -0.2486759
vn -0.543319 0.8018509 -0.2486759
vn -0.543319 0.8018509 -0.2486759
vn -0.6375268 0.7237571 0.2640744
vn -0.6375268 0.7237571 0.2640744
vn -0.6375268 0.7237571 0.2640744
vn -0.6375268 0.7237571 0.2640744
vn -0.2640737 0.7237584 0.6375256
vn -0.2640737 0.7237584 0.6375256
vn -0.2640737 0.7237584 0.6375256
vn -0.2640737 0.7237584 0.6375256
vn 0.247526 0.8065882 0.5367928
vn 0.247526 0.8065882 0.5367928
vn 0.247526 0.8065882 0.5367928
vn 0.247526 0.8065882 0.5367928
vn 0.5901904 0.7653821 0.2566429
vn 0.5901904 0.7653821 0.2566429
vn 0.5901904 0.7653821 0.2566429
vn 0.5901904 0.7653821 0.2566429
vn 0.6375251 0.7237599 -0.2640706
vn 0.6375251 0.7237599 -0.2640706
vn 0.6375251 0.7237599 -0.2640706
vn 0.6375251 0.7237599 -0.2640706
g SM_Switch_Button_Button_01_0
f 10/10/10 9/9/9 1/1/1
f 2/2/2 10/10/10 1/1/1
f 11/11/11 27/27/27 26/26/26
f 3/3/3 11/11/11 26/26/26
f 12/12/12 29/29/29 28/28/28
f 4/4/4 12/12/12 28/28/28
f 13/13/13 31/31/31 30/30/30
f 5/5/5 13/13/13 30/30/30
f 14/14/14 33/33/33 32/32/32
f 6/6/6 14/14/14 32/32/32
f 15/15/15 35/35/35 34/34/34
f 7/7/7 15/15/15 34/34/34
f 16/16/16 37/37/37 36/36/36
f 8/8/8 16/16/16 36/36/36
f 40/40/40 39/39/39 38/38/38
f 41/41/41 40/40/40 38/38/38
f 44/44/44 43/43/43 42/42/42
f 45/45/45 44/44/44 42/42/42
f 48/48/48 47/47/47 46/46/46
f 49/49/49 48/48/48 46/46/46
f 52/52/52 51/51/51 50/50/50
f 53/53/53 52/52/52 50/50/50
f 56/56/56 55/55/55 54/54/54
f 57/57/57 56/56/56 54/54/54
f 60/60/60 59/59/59 58/58/58
f 61/61/61 60/60/60 58/58/58
f 64/64/64 63/63/63 62/62/62
f 65/65/65 64/64/64 62/62/62
f 68/68/68 67/67/67 66/66/66
f 69/69/69 68/68/68 66/66/66
f 72/72/72 71/71/71 70/70/70
f 73/73/73 72/72/72 70/70/70
f 18/18/18 19/19/19 17/17/17
f 17/17/17 19/19/19 25/25/25
f 20/20/20 19/19/19 18/18/18
f 25/25/25 19/19/19 24/24/24
f 21/21/21 19/19/19 20/20/20
f 24/24/24 19/19/19 23/23/23
f 22/22/22 19/19/19 21/21/21
f 23/23/23 19/19/19 22/22/22
