g SM_Wep_Grenade_Launcher_Trigger_01
v -0.004691973 0.01392142 -0.01058101
v 0.004691973 0.01392142 -0.01058101
v 0.004691973 0.01392142 0.02617649
v -0.004691973 0.01392142 0.02617649
v 0.003706318 -0.04735624 0.009544414
v -0.003706318 -0.04735624 0.009544414
v -0.003706318 -0.04557905 0.01188725
v 0.003706318 -0.04557905 0.01188725
v -0.004691973 -0.02729352 0.001718791
v -0.004691973 -0.01555311 0.002349894
v 0.004691973 -0.01555311 0.002349894
v 0.004691973 -0.02729352 0.001718791
v 0.004691973 -0.02729352 -0.004230001
v 0.004691973 -0.01555311 -0.003598592
v -0.004691973 -0.01555311 -0.003598592
v -0.004691973 -0.02729352 -0.004230001
v -0.004691973 -0.01555311 0.002349894
v -0.004691973 -0.009477362 0.006410563
v 0.004691973 -0.009477362 0.006410563
v 0.004691973 -0.01555311 0.002349894
v 0.004691973 -0.01555311 -0.003598592
v -0.004691973 -0.009477362 -0.005230977
v -0.004691973 -0.01555311 -0.003598592
v 0.004691973 -0.009477362 -0.005230977
v -0.004691973 0.01392142 -0.01058101
v 0.004691973 0.01392142 -0.01058101
v -0.004691973 -0.009477362 -0.005230977
v -0.004691973 0.01392142 -0.01058101
v -0.004691973 0.01392142 0.02617649
v -0.004691973 -0.009477362 0.006410563
v -0.004691973 -0.01555311 -0.003598592
v -0.004691973 -0.01555311 0.002349894
v -0.004691973 -0.02729352 -0.004230001
v -0.004691973 -0.02729352 0.001718791
v -0.004087439 -0.0380013 -0.001606404
v -0.004087439 -0.03669344 0.003344157
v -0.003706318 -0.04548929 0.003981669
v -0.003706318 -0.04255598 0.007339214
v -0.003706318 -0.04735624 0.009544414
v -0.003706318 -0.04557905 0.01188725
v -0.004691973 -0.009477362 0.006410563
v -0.004691973 0.01392142 0.02617649
v 0.004691973 0.01392142 0.02617649
v 0.004691973 -0.009477362 0.006410563
v 0.004691973 -0.009477362 0.006410563
v 0.004691973 0.01392142 0.02617649
v 0.004691973 0.01392142 -0.01058101
v 0.004691973 -0.009477362 -0.005230977
v 0.004691973 -0.01555311 0.002349894
v 0.004691973 -0.01555311 -0.003598592
v 0.004691973 -0.02729352 0.001718791
v 0.004691973 -0.02729352 -0.004230001
v 0.004087439 -0.03669344 0.003344157
v 0.004087439 -0.0380013 -0.001606404
v 0.003706318 -0.04255598 0.007339214
v 0.003706318 -0.04548929 0.003981669
v 0.003706318 -0.04557905 0.01188725
v 0.003706318 -0.04735624 0.009544414
v 0.004691973 -0.02729352 0.001718791
v 0.004087439 -0.03669344 0.003344157
v -0.004087439 -0.03669344 0.003344157
v -0.004691973 -0.02729352 0.001718791
v -0.004691973 -0.02729352 -0.004230001
v -0.004087439 -0.0380013 -0.001606404
v 0.004087439 -0.0380013 -0.001606404
v 0.004691973 -0.02729352 -0.004230001
v 0.004087439 -0.03669344 0.003344157
v 0.003706318 -0.04255598 0.007339214
v -0.003706318 -0.04255598 0.007339214
v -0.004087439 -0.03669344 0.003344157
v -0.004087439 -0.0380013 -0.001606404
v -0.003706318 -0.04548929 0.003981669
v 0.003706318 -0.04548929 0.003981669
v 0.004087439 -0.0380013 -0.001606404
v 0.003706318 -0.04255598 0.007339214
v 0.003706318 -0.04557905 0.01188725
v -0.003706318 -0.04557905 0.01188725
v -0.003706318 -0.04255598 0.007339214
v -0.003706318 -0.04548929 0.003981669
v -0.003706318 -0.04735624 0.009544414
v 0.003706318 -0.04735624 0.009544414
v 0.003706318 -0.04548929 0.003981669
vt 0.05803709 0.1786222
vt 0.05803709 0.1786222
vt 0.05803709 0.1786222
vt 0.05803709 0.1786222
vt 0.05803709 0.1786222
vt 0.05803709 0.1786222
vt 0.05803709 0.1786222
vt 0.05803709 0.1786222
vt 0.05803709 0.1786222
vt 0.05803709 0.1786222
vt 0.05803709 0.1786222
vt 0.05803709 0.1786222
vt 0.05803709 0.1786222
vt 0.05803709 0.1786222
vt 0.05803709 0.1786222
vt 0.05803709 0.1786222
vt 0.05803709 0.1786222
vt 0.05803709 0.1786222
vt 0.05803709 0.1786222
vt 0.05803709 0.1786222
vt 0.05803709 0.1786222
vt 0.05803709 0.1786222
vt 0.05803709 0.1786222
vt 0.05803709 0.1786222
vt 0.05803709 0.1786222
vt 0.05803709 0.1786222
vt 0.05803709 0.1786222
vt 0.05803709 0.1786222
vt 0.05803709 0.1786222
vt 0.05803709 0.1786222
vt 0.05803709 0.1786222
vt 0.05803709 0.1786222
vt 0.05803709 0.1786222
vt 0.05803709 0.1786222
vt 0.05803709 0.1786222
vt 0.05803709 0.1786222
vt 0.05803709 0.1786222
vt 0.05803709 0.1786222
vt 0.05803709 0.1786222
vt 0.05803709 0.1786222
vt 0.05803709 0.1786222
vt 0.05803709 0.1786222
vt 0.05803709 0.1786222
vt 0.05803709 0.1786222
vt 0.05803709 0.1786222
vt 0.05803709 0.1786222
vt 0.05803709 0.1786222
vt 0.05803709 0.1786222
vt 0.05803709 0.1786222
vt 0.05803709 0.1786222
vt 0.05803709 0.1786222
vt 0.05803709 0.1786222
vt 0.05803709 0.1786222
vt 0.05803709 0.1786222
vt 0.05803709 0.1786222
vt 0.05803709 0.1786222
vt 0.05803709 0.1786222
vt 0.05803709 0.1786222
vt 0.05803709 0.1786222
vt 0.05803709 0.1786222
vt 0.05803709 0.1786222
vt 0.05803709 0.1786222
vt 0.05803709 0.1786222
vt 0.05803709 0.1786222
vt 0.05803709 0.1786222
vt 0.05803709 0.1786222
vt 0.05803709 0.1786222
vt 0.05803709 0.1786222
vt 0.05803709 0.1786222
vt 0.05803709 0.1786222
vt 0.05803709 0.1786222
vt 0.05803709 0.1786222
vt 0.05803709 0.1786222
vt 0.05803709 0.1786222
vt 0.05803709 0.1786222
vt 0.05803709 0.1786222
vt 0.05803709 0.1786222
vt 0.05803709 0.1786222
vt 0.05803709 0.1786222
vt 0.05803709 0.1786222
vt 0.05803709 0.1786222
vt 0.05803709 0.1786222
vn 0 1 0
vn 0 1 0
vn 0 1 0
vn 0 1 0
vn 0 -0.7967127 0.6043582
vn 0 -0.7967127 0.6043582
vn 0 -0.7967127 0.6043582
vn 0 -0.7967127 0.6043582
vn 0 -0.05367727 0.9985583
vn 0 -0.05367727 0.9985583
vn 0 -0.05367727 0.9985583
vn 0 -0.05367727 0.9985583
vn 0 0.05370315 -0.9985569
vn 0 0.05370315 -0.9985569
vn 0 0.05370315 -0.9985569
vn 0 0.05370315 -0.9985569
vn 0 -0.5556635 0.8314072
vn 0 -0.5556635 0.8314072
vn 0 -0.5556635 0.8314072
vn 0 -0.5556635 0.8314072
vn 0 -0.2594707 -0.965751
vn 0 -0.2412251 -0.9704692
vn 0 -0.2594707 -0.965751
vn 0 -0.2412251 -0.9704692
vn 0 -0.2228939 -0.9748427
vn 0 -0.2228939 -0.9748427
vn -1 0 0
vn -1 0 0
vn -1 0 0
vn -1 0 0
vn -1 0 0
vn -1 0 0
vn -0.9995649 -0.02928304 0.003513824
vn -0.9995649 -0.02928304 0.003513824
vn -0.9986416 -0.05014225 0.01416645
vn -0.9986416 -0.05014225 0.01416645
vn -0.9997253 -0.02087463 0.01065623
vn -0.9997253 -0.02087463 0.01065623
vn -1 0 0
vn -1 0 0
vn 0 -0.6453134 0.7639179
vn 0 -0.6453134 0.7639179
vn 0 -0.6453134 0.7639179
vn 0 -0.6453134 0.7639179
vn 1 0 0
vn 1 0 0
vn 1 0 0
vn 1 0 0
vn 1 0 0
vn 1 0 0
vn 0.9995649 -0.02928304 0.003513824
vn 0.9995649 -0.02928304 0.003513824
vn 0.9986416 -0.05014225 0.01416645
vn 0.9986416 -0.05014225 0.01416645
vn 0.9997253 -0.02087463 0.01065623
vn 0.9997253 -0.02087463 0.01065623
vn 1 0 0
vn 1 0 0
vn 0 0.1703846 0.9853777
vn 0 0.1703846 0.9853777
vn 0 0.1703846 0.9853777
vn 0 0.1703846 0.9853777
vn 0 -0.2379785 -0.9712704
vn 0 -0.2379785 -0.9712704
vn 0 -0.2379785 -0.9712704
vn 0 -0.2379785 -0.9712704
vn 0 0.5631318 0.8263671
vn 0 0.5631318 0.8263671
vn 0 0.5631318 0.8263671
vn 0 0.5631318 0.8263671
vn 0 -0.5980862 -0.8014318
vn 0 -0.5980862 -0.8014318
vn 0 -0.5980862 -0.8014318
vn 0 -0.5980862 -0.8014318
vn 0 0.8328061 0.5535648
vn 0 0.8328061 0.5535648
vn 0 0.8328061 0.5535648
vn 0 0.8328061 0.5535648
vn 0 -0.9480318 -0.3181755
vn 0 -0.9480318 -0.3181755
vn 0 -0.9480318 -0.3181755
vn 0 -0.9480318 -0.3181755
g SM_Wep_Grenade_Launcher_Trigger_01_0
f 3/3/3 2/2/2 1/1/1
f 4/4/4 3/3/3 1/1/1
f 7/7/7 6/6/6 5/5/5
f 8/8/8 7/7/7 5/5/5
f 11/11/11 10/10/10 9/9/9
f 12/12/12 11/11/11 9/9/9
f 15/15/15 14/14/14 13/13/13
f 16/16/16 15/15/15 13/13/13
f 19/19/19 18/18/18 17/17/17
f 20/20/20 19/19/19 17/17/17
f 23/23/23 22/22/22 21/21/21
f 22/22/22 24/24/24 21/21/21
f 22/22/22 25/25/25 24/24/24
f 25/25/25 26/26/26 24/24/24
f 29/29/29 28/28/28 27/27/27
f 30/30/30 29/29/29 27/27/27
f 30/30/30 27/27/27 31/31/31
f 32/32/32 30/30/30 31/31/31
f 32/32/32 31/31/31 33/33/33
f 34/34/34 32/32/32 33/33/33
f 33/33/33 35/35/35 34/34/34
f 35/35/35 36/36/36 34/34/34
f 35/35/35 37/37/37 36/36/36
f 37/37/37 38/38/38 36/36/36
f 37/37/37 39/39/39 38/38/38
f 39/39/39 40/40/40 38/38/38
f 43/43/43 42/42/42 41/41/41
f 44/44/44 43/43/43 41/41/41
f 47/47/47 46/46/46 45/45/45
f 48/48/48 47/47/47 45/45/45
f 48/48/48 45/45/45 49/49/49
f 50/50/50 48/48/48 49/49/49
f 49/49/49 51/51/51 50/50/50
f 51/51/51 52/52/52 50/50/50
f 51/51/51 53/53/53 52/52/52
f 53/53/53 54/54/54 52/52/52
f 53/53/53 55/55/55 54/54/54
f 55/55/55 56/56/56 54/54/54
f 55/55/55 57/57/57 56/56/56
f 57/57/57 58/58/58 56/56/56
f 61/61/61 60/60/60 59/59/59
f 62/62/62 61/61/61 59/59/59
f 65/65/65 64/64/64 63/63/63
f 66/66/66 65/65/65 63/63/63
f 69/69/69 68/68/68 67/67/67
f 70/70/70 69/69/69 67/67/67
f 73/73/73 72/72/72 71/71/71
f 74/74/74 73/73/73 71/71/71
f 77/77/77 76/76/76 75/75/75
f 78/78/78 77/77/77 75/75/75
f 81/81/81 80/80/80 79/79/79
f 82/82/82 81/81/81 79/79/79
