g SM_Wep_Pistol_Hammer_01
v -0.001192806 0.02889661 0.0391739
v -0.001192806 0.03253473 0.04080751
v 0.001405847 0.03253473 0.04080751
v 0.001405847 0.02889661 0.0391739
v -0.00725309 0.03637397 0.00932649
v -0.00725309 0.03840995 0.001334851
v 0.00725309 0.03840995 0.001334851
v 0.00725309 0.03637397 0.00932649
v -0.004362241 0.03556201 0.0116324
v 0.004362241 0.03556201 0.0116324
v -0.004611005 0.03786361 -0.006751696
v -0.004611005 0.03500671 -0.006888415
v 0.004611005 0.03500671 -0.006888415
v 0.004611005 0.03786361 -0.006751696
v -0.00725309 0.03391631 0.001119397
v -0.00725309 0.03215365 0.007767652
v 0.00725309 0.03215365 0.007767652
v 0.00725309 0.03391631 0.001119397
v 0.00725309 0.03215365 0.007767652
v 0.00725309 0.03637397 0.00932649
v 0.00725309 0.03840995 0.001334851
v 0.00725309 0.03391631 0.001119397
v -0.00725309 0.03391631 0.001119397
v -0.00725309 0.03840995 0.001334851
v -0.00725309 0.03637397 0.00932649
v -0.00725309 0.03215365 0.007767652
v -0.00725309 0.03840995 0.001334851
v -0.004611005 0.03786361 -0.006751696
v 0.004611005 0.03786361 -0.006751696
v 0.00725309 0.03840995 0.001334851
v 0.00725309 0.03840995 0.001334851
v 0.004611005 0.03786361 -0.006751696
v 0.004611005 0.03500671 -0.006888415
v 0.00725309 0.03391631 0.001119397
v 0.00725309 0.03391631 0.001119397
v 0.004611005 0.03500671 -0.006888415
v -0.004611005 0.03500671 -0.006888415
v -0.00725309 0.03391631 0.001119397
v -0.00725309 0.03391631 0.001119397
v -0.004611005 0.03500671 -0.006888415
v -0.004611005 0.03786361 -0.006751696
v -0.00725309 0.03840995 0.001334851
v -0.00725309 0.03215365 0.007767652
v -0.004362241 0.03127177 0.01004731
v 0.004362241 0.03127177 0.01004731
v 0.00725309 0.03215365 0.007767652
v 0.00725309 0.03215365 0.007767652
v 0.004362241 0.03127177 0.01004731
v 0.004362241 0.03556201 0.0116324
v 0.00725309 0.03637397 0.00932649
v -0.00725309 0.03637397 0.00932649
v -0.004362241 0.03556201 0.0116324
v -0.004362241 0.03127177 0.01004731
v -0.00725309 0.03215365 0.007767652
v -0.004362241 0.03127177 0.01004731
v -0.003882261 0.02681068 0.01678926
v 0.004095301 0.02681068 0.01678926
v 0.004362241 0.03127177 0.01004731
v 0.004362241 0.03127177 0.01004731
v 0.004095301 0.03073364 0.01823854
v 0.004362241 0.03556201 0.0116324
v 0.004095301 0.02681068 0.01678926
v 0.004095301 0.03126506 0.02831086
v 0.004095301 0.0182352 0.0227176
v 0.004095301 0.03948855 0.03628602
v 0.004095301 0.04087718 0.03305146
v 0.004095301 0.01628585 0.02200929
v 0.004095301 0.01489711 0.02524446
v 0.004095301 0.01197276 0.02815431
v 0.004095301 0.01578075 0.01523622
v 0.004095301 0.007317879 0.02634828
v 0.004095301 0.01145217 0.007214368
v 0.004095301 -7.429398E-09 -2.927236E-07
v 0.004095301 -0.00559941 0.01782746
v 0.004362241 0.03556201 0.0116324
v 0.004095301 0.03073364 0.01823854
v -0.003882261 0.03073364 0.01823854
v -0.004362241 0.03556201 0.0116324
v -0.004362241 0.03556201 0.0116324
v -0.003882261 0.02681068 0.01678926
v -0.004362241 0.03127177 0.01004731
v -0.003882261 0.03073364 0.01823854
v -0.003882261 0.0182352 0.0227176
v -0.003882261 0.03126506 0.02831086
v -0.003882261 0.03948855 0.03628602
v -0.003882261 0.04087718 0.03305146
v -0.003882261 0.01628585 0.02200929
v -0.003882261 0.01489711 0.02524446
v -0.003882261 0.01578075 0.01523622
v -0.003882261 0.01197276 0.02815431
v -0.003882261 0.01145217 0.007214368
v -0.003882261 0.007317879 0.02634828
v -0.003882261 -7.429398E-09 -2.927236E-07
v -0.003882261 -0.00559941 0.01782746
v -0.003882261 0.02681068 0.01678926
v -0.003882261 0.0182352 0.0227176
v 0.004095301 0.0182352 0.0227176
v 0.004095301 0.02681068 0.01678926
v 0.004095301 0.03073364 0.01823854
v 0.004095301 0.03126506 0.02831086
v -0.003882261 0.03126506 0.02831086
v -0.003882261 0.03073364 0.01823854
v -0.003882261 0.0182352 0.0227176
v -0.003882261 0.01628585 0.02200929
v 0.004095301 0.01628585 0.02200929
v 0.004095301 0.0182352 0.0227176
v 0.004095301 0.03126506 0.02831086
v 0.004095301 0.04087718 0.03305146
v -0.003882261 0.04087718 0.03305146
v -0.003882261 0.03126506 0.02831086
v -0.003882261 -7.429398E-09 -2.927236E-07
v -0.003882261 -0.00559941 0.01782746
v 0.004095301 -0.00559941 0.01782746
v 0.004095301 -7.429398E-09 -2.927236E-07
v 0.004095301 0.04087718 0.03305146
v 0.004095301 0.03948855 0.03628602
v -0.003882261 0.03948855 0.03628602
v -0.003882261 0.04087718 0.03305146
v -0.003882261 0.01628585 0.02200929
v -0.003882261 0.01578075 0.01523622
v 0.004095301 0.01578075 0.01523622
v 0.004095301 0.01628585 0.02200929
v 0.004095301 0.01489711 0.02524446
v 0.004095301 0.01197276 0.02815431
v -0.003882261 0.01197276 0.02815431
v -0.003882261 0.01489711 0.02524446
v -0.003882261 0.01578075 0.01523622
v -0.003882261 0.01145217 0.007214368
v 0.004095301 0.01145217 0.007214368
v 0.004095301 0.01578075 0.01523622
v 0.004095301 0.01197276 0.02815431
v 0.004095301 0.007317879 0.02634828
v -0.003882261 0.007317879 0.02634828
v -0.003882261 0.01197276 0.02815431
v -0.003882261 0.01145217 0.007214368
v -0.003882261 -7.429398E-09 -2.927236E-07
v 0.004095301 -7.429398E-09 -2.927236E-07
v 0.004095301 0.01145217 0.007214368
v -0.002002362 0.02941638 0.03176362
v -0.001192806 0.02889661 0.0391739
v 0.001405847 0.02889661 0.0391739
v 0.002215402 0.02941638 0.03176362
v 0.002215402 0.02941638 0.03176362
v 0.001405847 0.02889661 0.0391739
v 0.001405847 0.03253473 0.04080751
v 0.002215402 0.03532123 0.03441499
v 0.002215402 0.03532123 0.03441499
v 0.001405847 0.03253473 0.04080751
v -0.001192806 0.03253473 0.04080751
v -0.002002362 0.03532123 0.03441499
v -0.002002362 0.03532123 0.03441499
v -0.001192806 0.03253473 0.04080751
v -0.001192806 0.02889661 0.0391739
v -0.002002362 0.02941638 0.03176362
v 0.004095301 0.007317879 0.02634828
v 0.004095301 -0.00559941 0.01782746
v -0.003882261 -0.00559941 0.01782746
v -0.003882261 0.007317879 0.02634828
v -0.003882261 0.01489711 0.02524446
v -0.002002362 0.02941638 0.03176362
v 0.002215402 0.02941638 0.03176362
v 0.004095301 0.01489711 0.02524446
v -0.003882261 0.03948855 0.03628602
v 0.002215402 0.03532123 0.03441499
v -0.002002362 0.03532123 0.03441499
v 0.004095301 0.03948855 0.03628602
vt 0.1449967 0.02458085
vt 0.1449967 0.02458085
vt 0.1449967 0.02458085
vt 0.1449967 0.02458085
vt 0.1449967 0.02458085
vt 0.1449967 0.02458085
vt 0.1449967 0.02458085
vt 0.1449967 0.02458085
vt 0.1449967 0.02458085
vt 0.1449967 0.02458085
vt 0.1449967 0.02458085
vt 0.1449967 0.02458085
vt 0.1449967 0.02458085
vt 0.1449967 0.02458085
vt 0.1449967 0.02458085
vt 0.1449967 0.02458085
vt 0.1449967 0.02458085
vt 0.1449967 0.02458085
vt 0.1449967 0.02458085
vt 0.1449967 0.02458085
vt 0.1449967 0.02458085
vt 0.1449967 0.02458085
vt 0.1449967 0.02458085
vt 0.1449967 0.02458085
vt 0.1449967 0.02458085
vt 0.1449967 0.02458085
vt 0.1449967 0.02458085
vt 0.1449967 0.02458085
vt 0.1449967 0.02458085
vt 0.1449967 0.02458085
vt 0.1449967 0.02458085
vt 0.1449967 0.02458085
vt 0.1449967 0.02458085
vt 0.1449967 0.02458085
vt 0.1449967 0.02458085
vt 0.1449967 0.02458085
vt 0.1449967 0.02458085
vt 0.1449967 0.02458085
vt 0.1449967 0.02458085
vt 0.1449967 0.02458085
vt 0.1449967 0.02458085
vt 0.1449967 0.02458085
vt 0.1449967 0.02458085
vt 0.1449967 0.02458085
vt 0.1449967 0.02458085
vt 0.1449967 0.02458085
vt 0.1449967 0.02458085
vt 0.1449967 0.02458085
vt 0.1449967 0.02458085
vt 0.1449967 0.02458085
vt 0.1449967 0.02458085
vt 0.1449967 0.02458085
vt 0.1449967 0.02458085
vt 0.1449967 0.02458085
vt 0.1449967 0.02458085
vt 0.1449967 0.02458085
vt 0.1449967 0.02458085
vt 0.1449967 0.02458085
vt 0.1449967 0.02458085
vt 0.1449967 0.02458085
vt 0.1449967 0.02458085
vt 0.1449967 0.02458085
vt 0.1449967 0.02458085
vt 0.1449967 0.02458085
vt 0.1449967 0.02458085
vt 0.1449967 0.02458085
vt 0.1449967 0.02458085
vt 0.1449967 0.02458085
vt 0.1449967 0.02458085
vt 0.1449967 0.02458085
vt 0.1449967 0.02458085
vt 0.1449967 0.02458085
vt 0.1449967 0.02458085
vt 0.1449967 0.02458085
vt 0.1449967 0.02458085
vt 0.1449967 0.02458085
vt 0.1449967 0.02458085
vt 0.1449967 0.02458085
vt 0.1449967 0.02458085
vt 0.1449967 0.02458085
vt 0.1449967 0.02458085
vt 0.1449967 0.02458085
vt 0.1449967 0.02458085
vt 0.1449967 0.02458085
vt 0.1449967 0.02458085
vt 0.1449967 0.02458085
vt 0.1449967 0.02458085
vt 0.1449967 0.02458085
vt 0.1449967 0.02458085
vt 0.1449967 0.02458085
vt 0.1449967 0.02458085
vt 0.1449967 0.02458085
vt 0.1449967 0.02458085
vt 0.1449967 0.02458085
vt 0.1449967 0.02458085
vt 0.1449967 0.02458085
vt 0.1449967 0.02458085
vt 0.1449967 0.02458085
vt 0.1449967 0.02458085
vt 0.1449967 0.02458085
vt 0.1449967 0.02458085
vt 0.1449967 0.02458085
vt 0.1449967 0.02458085
vt 0.1449967 0.02458085
vt 0.1449967 0.02458085
vt 0.1449967 0.02458085
vt 0.1449967 0.02458085
vt 0.1449967 0.02458085
vt 0.1449967 0.02458085
vt 0.1449967 0.02458085
vt 0.1449967 0.02458085
vt 0.1449967 0.02458085
vt 0.1449967 0.02458085
vt 0.1449967 0.02458085
vt 0.1449967 0.02458085
vt 0.1449967 0.02458085
vt 0.1449967 0.02458085
vt 0.1449967 0.02458085
vt 0.1449967 0.02458085
vt 0.1449967 0.02458085
vt 0.1449967 0.02458085
vt 0.1449967 0.02458085
vt 0.1449967 0.02458085
vt 0.1449967 0.02458085
vt 0.1449967 0.02458085
vt 0.1449967 0.02458085
vt 0.1449967 0.02458085
vt 0.1449967 0.02458085
vt 0.1449967 0.02458085
vt 0.1449967 0.02458085
vt 0.1449967 0.02458085
vt 0.1449967 0.02458085
vt 0.1449967 0.02458085
vt 0.1449967 0.02458085
vt 0.1449967 0.02458085
vt 0.1449967 0.02458085
vt 0.1449967 0.02458085
vt 0.1449967 0.02458085
vt 0.1449967 0.02458085
vt 0.1449967 0.02458085
vt 0.1449967 0.02458085
vt 0.1449967 0.02458085
vt 0.1449967 0.02458085
vt 0.1449967 0.02458085
vt 0.1449967 0.02458085
vt 0.1449967 0.02458085
vt 0.1449967 0.02458085
vt 0.1449967 0.02458085
vt 0.1449967 0.02458085
vt 0.1449967 0.02458085
vt 0.1449967 0.02458085
vt 0.1449967 0.02458085
vt 0.1449967 0.02458085
vt 0.1449967 0.02458085
vt 0.1449967 0.02458085
vt 0.1449967 0.02458085
vt 0.1449967 0.02458085
vt 0.1449967 0.02458085
vt 0.1449967 0.02458085
vt 0.1449967 0.02458085
vt 0.1449967 0.02458085
vt 0.1449967 0.02458085
vt 0.1449967 0.02458085
vt 0.1449967 0.02458085
vt 0.1449967 0.02458085
vt 0.1449967 0.02458085
vn 0 -0.4096256 0.9122537
vn 0 -0.4096256 0.9122537
vn 0 -0.4096256 0.9122537
vn 0 -0.4096256 0.9122537
vn 0 0.9570895 0.2897926
vn 0 0.9690466 0.246878
vn 0 0.9690466 0.246878
vn 0 0.9570895 0.2897926
vn 0 0.9432329 0.332132
vn 0 0.9432329 0.332132
vn 0 0.04780088 -0.9988569
vn 0 0.04780088 -0.9988569
vn 0 0.04780088 -0.9988569
vn 0 0.04780088 -0.9988569
vn 0 -0.9666036 -0.2562765
vn 0 -0.9666036 -0.2562765
vn 0 -0.9666036 -0.2562765
vn 0 -0.9666036 -0.2562765
vn 1 0 0
vn 1 0 0
vn 1 0 0
vn 1 0 0
vn -1 0 0
vn -1 0 0
vn -1 0 0
vn -1 0 0
vn 0 0.9977255 -0.06740803
vn 0 0.9977255 -0.06740803
vn 0 0.9977255 -0.06740803
vn 0 0.9977255 -0.06740803
vn 0.9501449 0.01492198 -0.3114513
vn 0.9501449 0.01492198 -0.3114513
vn 0.9501449 0.01492198 -0.3114513
vn 0.9501449 0.01492198 -0.3114513
vn 0 -0.9908564 -0.1349211
vn 0 -0.9908564 -0.1349211
vn 0 -0.9908564 -0.1349211
vn 0 -0.9908564 -0.1349211
vn -0.9501449 0.01492198 -0.3114513
vn -0.9501449 0.01492198 -0.3114513
vn -0.9501449 0.01492198 -0.3114513
vn -0.9501449 0.01492198 -0.3114513
vn 0 -0.9326463 -0.3607918
vn 0 -0.9326463 -0.3607918
vn 0 -0.9326463 -0.3607918
vn 0 -0.9326463 -0.3607918
vn 0.64565 -0.2646186 0.7163191
vn 0.64565 -0.2646186 0.7163191
vn 0.64565 -0.2646186 0.7163191
vn 0.64565 -0.2646186 0.7163191
vn -0.64565 -0.2646186 0.7163191
vn -0.64565 -0.2646186 0.7163191
vn -0.64565 -0.2646186 0.7163191
vn -0.64565 -0.2646186 0.7163191
vn 0 -0.8339597 -0.5518254
vn 0 -0.8339597 -0.5518254
vn 0 -0.8339597 -0.5518254
vn 0 -0.8339597 -0.5518254
vn 0.9994253 -0.01174778 0.03179805
vn 0.9998564 -0.005874735 0.01590131
vn 0.9994253 -0.01174778 0.03179805
vn 0.9998564 -0.005874735 0.01590131
vn 1 0 0
vn 1 0 0
vn 1 0 0
vn 1 0 0
vn 1 0 0
vn 1 0 0
vn 1 0 0
vn 1 0 0
vn 1 0 0
vn 1 0 0
vn 1 0 0
vn 1 0 0
vn 0 0.8073438 0.5900813
vn 0 0.8073438 0.5900813
vn 0 0.8073438 0.5900813
vn 0 0.8073438 0.5900813
vn -0.9981453 -0.02109644 0.05710233
vn -0.9995363 -0.01055312 0.02856441
vn -0.9981453 -0.02109644 0.05710233
vn -0.9995363 -0.01055312 0.02856441
vn -1 0 0
vn -1 0 0
vn -1 0 0
vn -1 0 0
vn -1 0 0
vn -1 0 0
vn -1 0 0
vn -1 0 0
vn -1 0 0
vn -1 0 0
vn -1 0 0
vn -1 0 0
vn 0 -0.568657 -0.8225746
vn 0 -0.568657 -0.8225746
vn 0 -0.568657 -0.8225746
vn 0 -0.568657 -0.8225746
vn 0 0.998611 -0.05268766
vn 0 0.998611 -0.05268766
vn 0 0.998611 -0.05268766
vn 0 0.998611 -0.05268766
vn 0 0.3415127 -0.9398772
vn 0 0.3415127 -0.9398772
vn 0 0.3415127 -0.9398772
vn 0 0.3415127 -0.9398772
vn 0 0.4423209 -0.896857
vn 0 0.4423209 -0.896857
vn 0 0.4423209 -0.896857
vn 0 0.4423209 -0.896857
vn 0 -0.9540488 -0.2996509
vn 0 -0.9540488 -0.2996509
vn 0 -0.9540488 -0.2996509
vn 0 -0.9540488 -0.2996509
vn 0 0.9188996 0.3944915
vn 0 0.9188996 0.3944915
vn 0 0.9188996 0.3944915
vn 0 0.9188996 0.3944915
vn 0 0.9972308 -0.07436882
vn 0 0.9972308 -0.07436882
vn 0 0.9972308 -0.07436882
vn 0 0.9972308 -0.07436882
vn 0 0.7053478 0.7088615
vn 0 0.7053478 0.7088615
vn 0 0.7053478 0.7088615
vn 0 0.7053478 0.7088615
vn 0 0.8800532 -0.4748751
vn 0 0.8800532 -0.4748751
vn 0 0.8800532 -0.4748751
vn 0 0.8800532 -0.4748751
vn 0 -0.361715 0.9322887
vn 0 -0.361715 0.9322887
vn 0 -0.361715 0.9322887
vn 0 -0.361715 0.9322887
vn 0 0.5330265 -0.8460986
vn 0 0.5330265 -0.8460986
vn 0 0.5330265 -0.8460986
vn 0 0.5330265 -0.8460986
vn 0 -0.9975491 -0.06997008
vn 0 -0.9975491 -0.06997008
vn 0 -0.9975491 -0.06997008
vn 0 -0.9975491 -0.06997008
vn 0.993328 -0.0472391 0.105205
vn 0.993328 -0.0472391 0.105205
vn 0.993328 -0.0472391 0.105205
vn 0.993328 -0.0472391 0.105205
vn 0 0.9166949 0.3995878
vn 0 0.9166949 0.3995878
vn 0 0.9166949 0.3995878
vn 0 0.9166949 0.3995878
vn -0.993328 -0.04723909 0.105205
vn -0.993328 -0.04723909 0.105205
vn -0.993328 -0.04723909 0.105205
vn -0.993328 -0.04723909 0.105205
vn 0 -0.5506352 0.834746
vn 0 -0.5506352 0.834746
vn 0 -0.5506352 0.834746
vn 0 -0.5506352 0.834746
vn -9.294883E-06 -0.4096074 0.9122618
vn -9.294883E-06 -0.4096074 0.9122618
vn 9.294883E-06 -0.4096074 0.9122618
vn 9.294883E-06 -0.4096074 0.9122618
vn -9.294883E-06 -0.4095982 0.912266
vn 9.294883E-06 -0.4095982 0.912266
vn -9.294883E-06 -0.4095982 0.912266
vn 9.294883E-06 -0.4095982 0.912266
g SM_Wep_Pistol_Hammer_01_0
f 3/3/3 2/2/2 1/1/1
f 4/4/4 3/3/3 1/1/1
f 7/7/7 6/6/6 5/5/5
f 8/8/8 7/7/7 5/5/5
f 5/5/5 9/9/9 8/8/8
f 9/9/9 10/10/10 8/8/8
f 13/13/13 12/12/12 11/11/11
f 14/14/14 13/13/13 11/11/11
f 17/17/17 16/16/16 15/15/15
f 18/18/18 17/17/17 15/15/15
f 21/21/21 20/20/20 19/19/19
f 22/22/22 21/21/21 19/19/19
f 25/25/25 24/24/24 23/23/23
f 26/26/26 25/25/25 23/23/23
f 29/29/29 28/28/28 27/27/27
f 30/30/30 29/29/29 27/27/27
f 33/33/33 32/32/32 31/31/31
f 34/34/34 33/33/33 31/31/31
f 37/37/37 36/36/36 35/35/35
f 38/38/38 37/37/37 35/35/35
f 41/41/41 40/40/40 39/39/39
f 42/42/42 41/41/41 39/39/39
f 45/45/45 44/44/44 43/43/43
f 46/46/46 45/45/45 43/43/43
f 49/49/49 48/48/48 47/47/47
f 50/50/50 49/49/49 47/47/47
f 53/53/53 52/52/52 51/51/51
f 54/54/54 53/53/53 51/51/51
f 57/57/57 56/56/56 55/55/55
f 58/58/58 57/57/57 55/55/55
f 61/61/61 60/60/60 59/59/59
f 60/60/60 62/62/62 59/59/59
f 60/60/60 63/63/63 62/62/62
f 63/63/63 64/64/64 62/62/62
f 64/64/64 63/63/63 65/65/65
f 63/63/63 66/66/66 65/65/65
f 67/67/67 64/64/64 65/65/65
f 65/65/65 68/68/68 67/67/67
f 68/68/68 69/69/69 67/67/67
f 69/69/69 70/70/70 67/67/67
f 69/69/69 71/71/71 70/70/70
f 71/71/71 72/72/72 70/70/70
f 73/73/73 72/72/72 71/71/71
f 71/71/71 74/74/74 73/73/73
f 77/77/77 76/76/76 75/75/75
f 78/78/78 77/77/77 75/75/75
f 81/81/81 80/80/80 79/79/79
f 80/80/80 82/82/82 79/79/79
f 80/80/80 83/83/83 82/82/82
f 83/83/83 84/84/84 82/82/82
f 85/85/85 84/84/84 83/83/83
f 85/85/85 86/86/86 84/84/84
f 85/85/85 83/83/83 87/87/87
f 87/87/87 88/88/88 85/85/85
f 87/87/87 89/89/89 88/88/88
f 89/89/89 90/90/90 88/88/88
f 89/89/89 91/91/91 90/90/90
f 91/91/91 92/92/92 90/90/90
f 92/92/92 91/91/91 93/93/93
f 93/93/93 94/94/94 92/92/92
f 97/97/97 96/96/96 95/95/95
f 98/98/98 97/97/97 95/95/95
f 101/101/101 100/100/100 99/99/99
f 102/102/102 101/101/101 99/99/99
f 105/105/105 104/104/104 103/103/103
f 106/106/106 105/105/105 103/103/103
f 109/109/109 108/108/108 107/107/107
f 110/110/110 109/109/109 107/107/107
f 113/113/113 112/112/112 111/111/111
f 114/114/114 113/113/113 111/111/111
f 117/117/117 116/116/116 115/115/115
f 118/118/118 117/117/117 115/115/115
f 121/121/121 120/120/120 119/119/119
f 122/122/122 121/121/121 119/119/119
f 125/125/125 124/124/124 123/123/123
f 126/126/126 125/125/125 123/123/123
f 129/129/129 128/128/128 127/127/127
f 130/130/130 129/129/129 127/127/127
f 133/133/133 132/132/132 131/131/131
f 134/134/134 133/133/133 131/131/131
f 137/137/137 136/136/136 135/135/135
f 138/138/138 137/137/137 135/135/135
f 141/141/141 140/140/140 139/139/139
f 142/142/142 141/141/141 139/139/139
f 145/145/145 144/144/144 143/143/143
f 146/146/146 145/145/145 143/143/143
f 149/149/149 148/148/148 147/147/147
f 150/150/150 149/149/149 147/147/147
f 153/153/153 152/152/152 151/151/151
f 154/154/154 153/153/153 151/151/151
f 157/157/157 156/156/156 155/155/155
f 158/158/158 157/157/157 155/155/155
f 161/161/161 160/160/160 159/159/159
f 162/162/162 161/161/161 159/159/159
f 159/159/159 160/160/160 163/163/163
f 164/164/164 161/161/161 162/162/162
f 160/160/160 165/165/165 163/163/163
f 166/166/166 164/164/164 162/162/162
f 163/163/163 165/165/165 166/166/166
f 165/165/165 164/164/164 166/166/166
