g SM_Wep_Sniper_Mil_Stock_01
v -0.01533603 0.05969223 -0.02194026
v 5.543492E-05 0.0709699 -0.02379607
v 8.306384E-05 0.003329487 -0.01701262
v 3.203749E-09 -0.05909074 -0.0113592
v -0.01533603 -0.0521719 -0.0113592
v 0.01533603 0.05969223 -0.02194026
v -8.305751E-05 0.003329487 -0.01701262
v -5.542852E-05 0.0709699 -0.02379607
v 3.203749E-09 -0.05909074 -0.0113592
v 0.01533603 -0.0521719 -0.0113592
v -0.01533603 0.05969223 -0.02194026
v -0.01533603 -0.004085426 -0.04076123
v -0.01533603 0.05794117 -0.04817456
v -0.01533603 -0.002752037 -0.01660811
v -0.01533603 -0.06117869 -0.04176366
v -0.01533603 -0.0521719 -0.0113592
v 5.543492E-05 0.0709699 -0.02379607
v -0.01533603 0.05969223 -0.02194026
v -0.01533603 0.05794117 -0.04817456
v 3.203749E-09 0.06963758 -0.04772099
v -0.01926124 0.06252775 -0.04817456
v -0.01926124 -0.004813175 -0.04739751
v -0.01926124 0.06253015 -0.05481084
v -0.01926124 -0.004815578 -0.04076123
v -0.01926124 -0.06579076 -0.04839978
v -0.01926124 -0.06579318 -0.04176366
v -0.01926124 -0.06579318 -0.04176366
v 3.203749E-09 -0.07408994 -0.04315358
v 3.203749E-09 -0.07408753 -0.0497897
v -0.01926124 -0.06579076 -0.04839978
v 3.203749E-09 0.0740875 -0.04864247
v -0.01926124 0.06252775 -0.04817456
v -0.01926124 0.06253015 -0.05481084
v 3.203749E-09 0.07408994 -0.0552786
v -0.01533603 0.05794117 -0.04817456
v -0.01533603 -0.004085426 -0.04076123
v -0.01926124 -0.004815578 -0.04076123
v -0.01926124 0.06252775 -0.04817456
v 3.203749E-09 -0.004083214 -0.04739751
v -0.01926124 0.06253015 -0.05481084
v -0.01926124 -0.004813175 -0.04739751
v 3.203749E-09 0.0579434 -0.05481084
v 3.203749E-09 0.07408994 -0.0552786
v 3.203749E-09 0.06963758 -0.04772099
v -0.01533603 0.05794117 -0.04817456
v -0.01926124 0.06252775 -0.04817456
v 3.203749E-09 0.0740875 -0.04864247
v -0.01533603 -0.004085426 -0.04076123
v -0.01533603 -0.06117869 -0.04176366
v -0.01926124 -0.06579318 -0.04176366
v -0.01926124 -0.004815578 -0.04076123
v 3.203749E-09 -0.06117648 -0.04840001
v 3.203749E-09 -0.004083214 -0.04739751
v -0.01926124 -0.004813175 -0.04739751
v -0.01926124 -0.06579076 -0.04839978
v 3.203749E-09 -0.07408753 -0.0497897
v 0.01926124 -0.06579076 -0.04839978
v -0.01533603 -0.06117869 -0.04176366
v -0.01533603 -0.0521719 -0.0113592
v 3.203749E-09 -0.05909074 -0.0113592
v 3.203749E-09 -0.06809747 -0.04176366
v -0.01926124 -0.06579318 -0.04176366
v -0.01533603 -0.06117869 -0.04176366
v 3.203749E-09 -0.06809747 -0.04176366
v 3.203749E-09 -0.07408994 -0.04315358
v 0.01926124 -0.06579318 -0.04176366
v 0.01533603 -0.06117869 -0.04176366
v -0.01533603 -0.002752037 -0.01660811
v -0.01533603 0.05969223 -0.02194026
v 8.306384E-05 0.003329487 -0.01701262
v -0.01533603 -0.0521719 -0.0113592
v 0.01533603 0.05969223 -0.02194026
v 0.01533603 0.05794117 -0.04817456
v 0.01533603 -0.004085426 -0.04076123
v 0.01533603 -0.002752037 -0.01660811
v 0.01533603 -0.06117869 -0.04176366
v 0.01533603 -0.0521719 -0.0113592
v -5.542852E-05 0.0709699 -0.02379607
v 3.203749E-09 0.06963758 -0.04772099
v 0.01533603 0.05794117 -0.04817456
v 0.01533603 0.05969223 -0.02194026
v 0.01926124 0.06252775 -0.04817456
v 0.01926124 0.06253015 -0.05481084
v 0.01926124 -0.004813175 -0.04739751
v 0.01926124 -0.004815578 -0.04076123
v 0.01926124 -0.06579076 -0.04839978
v 0.01926124 -0.06579318 -0.04176366
v 0.01926124 -0.06579318 -0.04176366
v 0.01926124 -0.06579076 -0.04839978
v 3.203749E-09 -0.07408753 -0.0497897
v 3.203749E-09 -0.07408994 -0.04315358
v 3.203749E-09 0.0740875 -0.04864247
v 3.203749E-09 0.07408994 -0.0552786
v 0.01926124 0.06253015 -0.05481084
v 0.01926124 0.06252775 -0.04817456
v 0.01533603 0.05794117 -0.04817456
v 0.01926124 0.06252775 -0.04817456
v 0.01926124 -0.004815578 -0.04076123
v 0.01533603 -0.004085426 -0.04076123
v 3.203749E-09 -0.004083214 -0.04739751
v 0.01926124 -0.004813175 -0.04739751
v 0.01926124 0.06253015 -0.05481084
v 3.203749E-09 0.0579434 -0.05481084
v 3.203749E-09 0.07408994 -0.0552786
v 3.203749E-09 0.06963758 -0.04772099
v 3.203749E-09 0.0740875 -0.04864247
v 0.01926124 0.06252775 -0.04817456
v 0.01533603 0.05794117 -0.04817456
v 0.01533603 -0.004085426 -0.04076123
v 0.01926124 -0.004815578 -0.04076123
v 0.01926124 -0.06579318 -0.04176366
v 0.01533603 -0.06117869 -0.04176366
v 3.203749E-09 -0.06117648 -0.04840001
v 0.01926124 -0.06579076 -0.04839978
v 0.01926124 -0.004813175 -0.04739751
v 3.203749E-09 -0.004083214 -0.04739751
v 0.01533603 -0.06117869 -0.04176366
v 3.203749E-09 -0.06809747 -0.04176366
v 3.203749E-09 -0.05909074 -0.0113592
v 0.01533603 -0.0521719 -0.0113592
v 0.01533603 -0.002752037 -0.01660811
v -8.305751E-05 0.003329487 -0.01701262
v 0.01533603 0.05969223 -0.02194026
v 0.01533603 -0.0521719 -0.0113592
v 0.005667032 0.03561235 0.05503407
v 0.005667032 0.03525103 -0.02323836
v -0.00580107 0.03562265 -0.02324916
v -0.005801071 0.03598398 0.05503426
v -0.005801071 0.03598398 0.05503426
v -0.00580107 0.03562265 -0.02324916
v -0.008991404 0.04664244 -0.02357131
v -0.008991403 0.04700376 0.05501782
v -0.008991403 0.04700376 0.05501782
v -0.008991404 0.04664244 -0.02357131
v 0.000504964 0.05308142 -0.02375941
v 0.0005049639 0.05344274 0.05501782
v 0.0005049639 0.05344274 0.05501782
v 0.000504964 0.05308142 -0.02375941
v 0.009564375 0.04604112 -0.02355376
v 0.009564375 0.04640245 0.05501782
v 0.009564375 0.04640245 0.05501782
v 0.009564375 0.04604112 -0.02355376
v 0.005667032 0.03525103 -0.02323836
v 0.005667032 0.03561235 0.05503407
v 0.005667032 -0.002223396 0.05503407
v 0.005667032 -0.002584705 -0.02323836
v -0.00580107 -0.002213077 -0.02324916
v -0.005801071 -0.001851768 0.05503426
v -0.005801071 -0.001851768 0.05503426
v -0.00580107 -0.002213077 -0.02324916
v -0.008991404 0.008806705 -0.02357131
v -0.008991403 0.009168014 0.05501782
v -0.008991403 0.009168014 0.05501782
v -0.008991404 0.008806705 -0.02357131
v 0.000504964 0.01524567 -0.02375941
v 0.0005049639 0.01560699 0.05501782
v 0.0005049639 0.01560699 0.05501782
v 0.000504964 0.01524567 -0.02375941
v 0.009564375 0.008205376 -0.02355376
v 0.009564375 0.008566722 0.05501782
v 0.009564375 0.008566722 0.05501782
v 0.009564375 0.008205376 -0.02355376
v 0.005667032 -0.002584705 -0.02323836
v 0.005667032 -0.002223396 0.05503407
v 0.005667032 -0.03863001 0.0552786
v 0.005667032 -0.03899132 -0.01600966
v -0.00580107 -0.03861971 -0.0160205
v -0.005801071 -0.03825838 0.0552786
v -0.005801071 -0.03825838 0.0552786
v -0.00580107 -0.03861971 -0.0160205
v -0.008991404 -0.02759989 -0.01634265
v -0.008991403 -0.02723858 0.05526216
v -0.008991403 -0.02723858 0.05526216
v -0.008991404 -0.02759989 -0.01634265
v 0.000504964 -0.02116095 -0.01653071
v 0.0005049639 -0.02079958 0.05526219
v 0.0005049639 -0.02079958 0.05526219
v 0.000504964 -0.02116095 -0.01653071
v 0.009564375 -0.0282012 -0.0163251
v 0.009564375 -0.02783987 0.0552786
v 0.009564375 -0.02783987 0.0552786
v 0.009564375 -0.0282012 -0.0163251
v 0.005667032 -0.03899132 -0.01600966
v 0.005667032 -0.03863001 0.0552786
v -0.005801071 0.03598398 0.05503426
v 0.0001887787 0.04368906 0.05503426
v 0.005667032 0.03561235 0.05503407
v -0.008991403 0.04700376 0.05501782
v 0.009564375 0.04640245 0.05501782
v 0.0005049639 0.05344274 0.05501782
v -0.005801071 -0.001851768 0.05503426
v 0.0001887787 0.00585329 0.05503426
v 0.005667032 -0.002223396 0.05503407
v -0.008991403 0.009168014 0.05501782
v 0.009564375 0.008566722 0.05501782
v 0.0005049639 0.01560699 0.05501782
v -0.005801071 -0.03825838 0.0552786
v 0.0001887787 -0.0305533 0.0552786
v 0.005667032 -0.03863001 0.0552786
v -0.008991403 -0.02723858 0.05526216
v 0.009564375 -0.02783987 0.0552786
v 0.0005049639 -0.02079958 0.05526219
vt 1.604041 0.7393515
vt 1.610664 0.7795932
vt 1.586458 0.5382348
vt 1.566286 0.3155037
vt 1.566286 0.3401918
vt 1.604041 0.7393515
vt 1.586458 0.5382348
vt 1.610664 0.7795932
vt 1.566286 0.3155037
vt 1.566286 0.3401918
vt 1.604041 0.7393515
vt 1.6712 0.5117766
vt 1.697652 0.7331035
vt 1.585016 0.5165344
vt 1.674777 0.3080533
vt 1.566286 0.3401918
vt 1.610664 0.7795932
vt 1.604041 0.7393515
vt 1.697652 0.7331035
vt 1.696034 0.7748392
vt 0.1405063 0.1338725
vt 0.1405063 0.1338725
vt 0.1405063 0.1338725
vt 0.1405063 0.1338725
vt 0.1405063 0.133873
vt 0.1405063 0.133873
vt 0.1405063 0.133873
vt 0.1405063 0.133873
vt 0.1405063 0.133873
vt 0.1405063 0.133873
vt 0.1405063 0.1338727
vt 0.1405063 0.1338725
vt 0.1405063 0.1338725
vt 0.1405063 0.1338727
vt 0.1405063 0.1338726
vt 0.1405063 0.1338725
vt 0.1405063 0.1338725
vt 0.1405063 0.1338725
vt 0.1405063 0.1338725
vt 0.1405063 0.1338725
vt 0.1405063 0.1338725
vt 0.1405063 0.1338726
vt 0.1405063 0.1338727
vt 0.1405063 0.1338725
vt 0.1405063 0.1338726
vt 0.1405063 0.1338725
vt 0.1405063 0.1338727
vt 0.1405063 0.1338725
vt 0.1405063 0.133873
vt 0.1405063 0.133873
vt 0.1405063 0.1338725
vt 0.1405063 0.133873
vt 0.1405063 0.1338725
vt 0.1405063 0.1338725
vt 0.1405063 0.133873
vt 0.1405063 0.133873
vt 0.1405063 0.133873
vt 1.674777 0.3080533
vt 1.566286 0.3401918
vt 1.566286 0.3155037
vt 1.674777 0.2833652
vt 0.1405063 0.133873
vt 0.1405063 0.133873
vt 0.1405063 0.133873
vt 0.1405063 0.133873
vt 0.1405063 0.133873
vt 0.1405063 0.133873
vt 1.585016 0.5165344
vt 1.604041 0.7393515
vt 1.586458 0.5382348
vt 1.566286 0.3401918
vt 1.604041 0.7393515
vt 1.697652 0.7331035
vt 1.6712 0.5117766
vt 1.585016 0.5165344
vt 1.674777 0.3080533
vt 1.566286 0.3401918
vt 1.610664 0.7795932
vt 1.696034 0.7748392
vt 1.697652 0.7331035
vt 1.604041 0.7393515
vt 0.1405063 0.1338725
vt 0.1405063 0.1338725
vt 0.1405063 0.1338725
vt 0.1405063 0.1338725
vt 0.1405063 0.133873
vt 0.1405063 0.133873
vt 0.1405063 0.133873
vt 0.1405063 0.133873
vt 0.1405063 0.133873
vt 0.1405063 0.133873
vt 0.1405063 0.1338727
vt 0.1405063 0.1338727
vt 0.1405063 0.1338725
vt 0.1405063 0.1338725
vt 0.1405063 0.1338726
vt 0.1405063 0.1338725
vt 0.1405063 0.1338725
vt 0.1405063 0.1338725
vt 0.1405063 0.1338725
vt 0.1405063 0.1338725
vt 0.1405063 0.1338725
vt 0.1405063 0.1338726
vt 0.1405063 0.1338727
vt 0.1405063 0.1338725
vt 0.1405063 0.1338727
vt 0.1405063 0.1338725
vt 0.1405063 0.1338726
vt 0.1405063 0.1338725
vt 0.1405063 0.1338725
vt 0.1405063 0.133873
vt 0.1405063 0.133873
vt 0.1405063 0.133873
vt 0.1405063 0.133873
vt 0.1405063 0.1338725
vt 0.1405063 0.1338725
vt 1.674777 0.3080533
vt 1.674777 0.2833652
vt 1.566286 0.3155037
vt 1.566286 0.3401918
vt 1.585016 0.5165344
vt 1.586458 0.5382348
vt 1.604041 0.7393515
vt 1.566286 0.3401918
vt 0.05842295 0.1256642
vt 0.05842295 0.1256642
vt 0.05842295 0.1256642
vt 0.05842295 0.1256642
vt 0.05842295 0.1256642
vt 0.05842295 0.1256642
vt 0.05842295 0.1256642
vt 0.05842295 0.1256642
vt 0.05842295 0.1256642
vt 0.05842295 0.1256642
vt 0.05842295 0.1256642
vt 0.05842295 0.1256642
vt 0.05842295 0.1256642
vt 0.05842295 0.1256642
vt 0.05842292 0.1256642
vt 0.05842292 0.1256642
vt 0.05842292 0.1256642
vt 0.05842292 0.1256642
vt 0.05842298 0.1256642
vt 0.05842298 0.1256642
vt 0.05842295 0.1256642
vt 0.05842295 0.1256642
vt 0.05842295 0.1256642
vt 0.05842295 0.1256642
vt 0.05842295 0.1256642
vt 0.05842295 0.1256642
vt 0.05842295 0.1256642
vt 0.05842295 0.1256642
vt 0.05842295 0.1256642
vt 0.05842295 0.1256642
vt 0.05842295 0.1256642
vt 0.05842295 0.1256642
vt 0.05842295 0.1256642
vt 0.05842295 0.1256642
vt 0.05842292 0.1256642
vt 0.05842292 0.1256642
vt 0.05842292 0.1256642
vt 0.05842292 0.1256642
vt 0.05842298 0.1256642
vt 0.05842298 0.1256642
vt 0.05842295 0.1256642
vt 0.05842295 0.1256642
vt 0.05842295 0.1256642
vt 0.05842295 0.1256642
vt 0.05842295 0.1256642
vt 0.05842295 0.1256642
vt 0.05842295 0.1256642
vt 0.05842295 0.1256642
vt 0.05842295 0.1256642
vt 0.05842295 0.1256642
vt 0.05842295 0.1256642
vt 0.05842295 0.1256642
vt 0.05842295 0.1256642
vt 0.05842295 0.1256642
vt 0.05842292 0.1256642
vt 0.05842292 0.1256642
vt 0.05842292 0.1256642
vt 0.05842292 0.1256642
vt 0.05842298 0.1256642
vt 0.05842298 0.1256642
vt 0.05842295 0.1256643
vt 0.05842295 0.1256643
vt 0.05842295 0.1256643
vt 0.05842295 0.1256643
vt 0.05842292 0.1256642
vt 0.05842295 0.1256642
vt 0.05842295 0.1256643
vt 0.05842295 0.1256643
vt 0.05842295 0.1256643
vt 0.05842295 0.1256643
vt 0.05842292 0.1256642
vt 0.05842295 0.1256642
vt 0.05842295 0.1256643
vt 0.05842295 0.1256643
vt 0.05842295 0.1256643
vt 0.05842295 0.1256643
vt 0.05842292 0.1256642
vt 0.05842295 0.1256642
vn 0.01969451 0.09242373 0.9955249
vn 0.04679119 0.09969597 0.9939172
vn 0.01611742 0.09515276 0.9953322
vn 0 0.09014744 0.9959285
vn 0.01253989 0.09787993 0.9951192
vn -0.01969452 0.09242373 0.9955249
vn -0.01611742 0.09515276 0.9953322
vn -0.0467912 0.09969597 0.9939172
vn 0 0.09014744 0.9959285
vn -0.01253989 0.09787993 0.9951192
vn -1 0 0
vn -1 0 0
vn -1 0 0
vn -1 0 0
vn -1 0 0
vn -1 0 0
vn -0.5995201 0.798892 -0.04844685
vn -0.5995201 0.798892 -0.04844685
vn -0.5995201 0.798892 -0.04844685
vn -0.5995201 0.798892 -0.04844685
vn -1 0 0
vn -1 0 0
vn -1 0 0
vn -1 0 0
vn -1 0 0
vn -1 0 0
vn -0.3956288 -0.9184105 -0.0003339226
vn -0.3956288 -0.9184105 -0.0003339226
vn -0.3956288 -0.9184105 -0.0003339226
vn -0.3956288 -0.9184105 -0.0003339226
vn -0.5145893 0.8574368 0.0003129892
vn -0.5145893 0.8574368 0.0003129892
vn -0.5145893 0.8574368 0.0003129892
vn -0.5145893 0.8574368 0.0003129892
vn 0.05584588 0.1136837 0.9919462
vn 0.05584588 0.1136837 0.9919462
vn 0.05584588 0.1136837 0.9919462
vn 0.05584588 0.1136837 0.9919462
vn 0 -0.1138614 -0.9934967
vn -0.00915552 -0.07147029 -0.9974008
vn -0.01139883 -0.113854 -0.9934321
vn 0 -0.07147327 -0.9974425
vn 0 -0.0289574 -0.9995807
vn -0.05249728 0.07871208 0.9955142
vn -0.05249728 0.07871208 0.9955142
vn -0.05249728 0.07871208 0.9955142
vn -0.05249728 0.07871208 0.9955142
vn 0.01155776 -0.01697649 0.9997891
vn 0.01155776 -0.01697649 0.9997891
vn 0.01155776 -0.01697649 0.9997891
vn 0.01155776 -0.01697649 0.9997891
vn 0 0.06205324 -0.9980729
vn 0 0.01697698 -0.9998559
vn -0.002361161 0.01697694 -0.9998531
vn -0.01401626 0.06204716 -0.9979748
vn 0 0.1070179 -0.9942572
vn 0.01401627 0.06204716 -0.9979748
vn -0.397015 -0.880012 0.2606874
vn -0.397015 -0.880012 0.2606874
vn -0.397015 -0.880012 0.2606874
vn -0.397015 -0.880012 0.2606874
vn -0.01489361 -0.1244932 0.9921086
vn -0.01489361 -0.1244932 0.9921086
vn 0 -0.124507 0.9922187
vn 0 -0.124507 0.9922187
vn 0.01489361 -0.1244932 0.9921086
vn 0.01489361 -0.1244932 0.9921086
vn -0.01149316 0.09534695 0.9953778
vn 0.01969451 0.09242373 0.9955249
vn 0.01611742 0.09515276 0.9953322
vn 0.01253989 0.09787993 0.9951192
vn 1 0 0
vn 1 0 0
vn 1 0 0
vn 1 0 0
vn 1 0 0
vn 1 0 0
vn 0.5995203 0.7988919 -0.04844683
vn 0.5995203 0.7988919 -0.04844683
vn 0.5995203 0.7988919 -0.04844683
vn 0.5995203 0.7988919 -0.04844683
vn 1 0 0
vn 1 0 0
vn 1 0 0
vn 1 0 0
vn 1 0 0
vn 1 0 0
vn 0.395629 -0.9184104 -0.0003339227
vn 0.395629 -0.9184104 -0.0003339227
vn 0.395629 -0.9184104 -0.0003339227
vn 0.395629 -0.9184104 -0.0003339227
vn 0.5145894 0.8574367 0.0003129893
vn 0.5145894 0.8574367 0.0003129893
vn 0.5145894 0.8574367 0.0003129893
vn 0.5145894 0.8574367 0.0003129893
vn -0.05584588 0.1136837 0.9919462
vn -0.05584588 0.1136837 0.9919462
vn -0.05584588 0.1136837 0.9919462
vn -0.05584588 0.1136837 0.9919462
vn 0 -0.1138614 -0.9934967
vn 0.01139883 -0.113854 -0.9934321
vn 0.009155523 -0.07147029 -0.9974008
vn 0 -0.07147327 -0.9974425
vn 0 -0.0289574 -0.9995807
vn 0.0524973 0.07871208 0.9955142
vn 0.0524973 0.07871208 0.9955142
vn 0.0524973 0.07871208 0.9955142
vn 0.0524973 0.07871208 0.9955142
vn -0.01155776 -0.01697649 0.9997891
vn -0.01155776 -0.01697649 0.9997891
vn -0.01155776 -0.01697649 0.9997891
vn -0.01155776 -0.01697649 0.9997891
vn 0 0.06205324 -0.9980729
vn 0.01401627 0.06204716 -0.9979748
vn 0.002361162 0.01697694 -0.9998531
vn 0 0.01697698 -0.9998559
vn 0.3970152 -0.880012 0.2606874
vn 0.3970152 -0.880012 0.2606874
vn 0.3970152 -0.880012 0.2606874
vn 0.3970152 -0.880012 0.2606874
vn 0.01149316 0.09534695 0.9953778
vn -0.01611742 0.09515276 0.9953322
vn -0.01969452 0.09242373 0.9955249
vn -0.01253989 0.09787993 0.9951192
vn -0.03239013 -0.9994647 0.004613494
vn -0.03239013 -0.9994647 0.004613494
vn -0.03239013 -0.9994647 0.004613494
vn -0.03239013 -0.9994647 0.004613494
vn -0.9605595 -0.2780716 0.00128098
vn -0.9605595 -0.2780716 0.00128098
vn -0.9605595 -0.2780716 0.00128098
vn -0.9605595 -0.2780716 0.00128098
vn -0.5612257 0.8276541 -0.003800739
vn -0.5612257 0.8276541 -0.003800739
vn -0.5612257 0.8276541 -0.003800739
vn -0.5612257 0.8276541 -0.003800739
vn 0.6136409 0.789577 -0.003626294
vn 0.6136409 0.789577 -0.003626294
vn 0.6136409 0.789577 -0.003626294
vn 0.6136409 0.789577 -0.003626294
vn 0.9405349 -0.3396935 0.001565134
vn 0.9405349 -0.3396935 0.001565134
vn 0.9405349 -0.3396935 0.001565134
vn 0.9405349 -0.3396935 0.001565134
vn -0.03239013 -0.9994647 0.00461325
vn -0.03239013 -0.9994647 0.00461325
vn -0.03239013 -0.9994647 0.00461325
vn -0.03239013 -0.9994647 0.00461325
vn -0.9605595 -0.2780716 0.001280914
vn -0.9605595 -0.2780716 0.001280914
vn -0.9605595 -0.2780716 0.001280914
vn -0.9605595 -0.2780716 0.001280914
vn -0.5612251 0.8276544 -0.003800638
vn -0.5612251 0.8276544 -0.003800638
vn -0.5612251 0.8276544 -0.003800638
vn -0.5612251 0.8276544 -0.003800638
vn 0.6136403 0.7895774 -0.003626392
vn 0.6136403 0.7895774 -0.003626392
vn 0.6136403 0.7895774 -0.003626392
vn 0.6136403 0.7895774 -0.003626392
vn 0.9405349 -0.3396935 0.001565134
vn 0.9405349 -0.3396935 0.001565134
vn 0.9405349 -0.3396935 0.001565134
vn 0.9405349 -0.3396935 0.001565134
vn -0.03238991 -0.9994625 0.005065375
vn -0.03238991 -0.9994625 0.005065375
vn -0.03238991 -0.9994625 0.005065375
vn -0.03238991 -0.9994625 0.005065375
vn -0.9605601 -0.278069 0.001406145
vn -0.9605601 -0.278069 0.001406145
vn -0.9605601 -0.278069 0.001406145
vn -0.9605601 -0.278069 0.001406145
vn -0.5612268 0.8276516 -0.004171072
vn -0.5612268 0.8276516 -0.004171072
vn -0.5612268 0.8276516 -0.004171072
vn -0.5612268 0.8276516 -0.004171072
vn 0.6136438 0.7895731 -0.003979316
vn 0.6136438 0.7895731 -0.003979316
vn 0.6136438 0.7895731 -0.003979316
vn 0.6136438 0.7895731 -0.003979316
vn 0.9405353 -0.3396916 0.001717921
vn 0.9405353 -0.3396916 0.001717921
vn 0.9405353 -0.3396916 0.001717921
vn 0.9405353 -0.3396916 0.001717921
vn -0.0006911029 0.0005372564 0.9999996
vn 3.97038E-05 0.001083363 0.9999994
vn 0.0007439067 0.0004809603 0.9999996
vn -0.001283532 0.001405329 0.9999982
vn 0.001374681 0.001309381 0.9999982
vn 5.456711E-05 0.001683883 0.9999986
vn -0.0006911015 0.0005372568 0.9999996
vn 3.970282E-05 0.001083361 0.9999994
vn 0.0007439047 0.0004809602 0.9999996
vn -0.00128353 0.001405328 0.9999982
vn 0.001374676 0.001309379 0.9999982
vn 5.45653E-05 0.00168388 0.9999986
vn -0.0006992135 0.0005435616 0.9999996
vn -0.0006119575 0.0009008898 0.9999994
vn 0 0 1
vn -0.001284229 0.001403392 0.9999982
vn -0.000245664 0.0008488313 0.9999996
vn -0.0008306797 0.001708662 0.9999982
g SM_Wep_Sniper_Mil_Stock_01_0
f 3/3/3 2/2/2 1/1/1
f 3/3/3 5/5/5 4/4/4
f 8/8/8 7/7/7 6/6/6
f 10/10/10 7/7/7 9/9/9
f 13/13/13 12/12/12 11/11/11
f 12/12/12 14/14/14 11/11/11
f 12/12/12 15/15/15 14/14/14
f 15/15/15 16/16/16 14/14/14
f 19/19/19 18/18/18 17/17/17
f 20/20/20 19/19/19 17/17/17
f 23/23/23 22/22/22 21/21/21
f 22/22/22 24/24/24 21/21/21
f 22/22/22 25/25/25 24/24/24
f 25/25/25 26/26/26 24/24/24
f 29/29/29 28/28/28 27/27/27
f 30/30/30 29/29/29 27/27/27
f 33/33/33 32/32/32 31/31/31
f 34/34/34 33/33/33 31/31/31
f 37/37/37 36/36/36 35/35/35
f 38/38/38 37/37/37 35/35/35
f 41/41/41 40/40/40 39/39/39
f 40/40/40 42/42/42 39/39/39
f 40/40/40 43/43/43 42/42/42
f 46/46/46 45/45/45 44/44/44
f 47/47/47 46/46/46 44/44/44
f 50/50/50 49/49/49 48/48/48
f 51/51/51 50/50/50 48/48/48
f 54/54/54 53/53/53 52/52/52
f 55/55/55 54/54/54 52/52/52
f 56/56/56 55/55/55 52/52/52
f 57/57/57 56/56/56 52/52/52
f 60/60/60 59/59/59 58/58/58
f 61/61/61 60/60/60 58/58/58
f 64/64/64 63/63/63 62/62/62
f 65/65/65 64/64/64 62/62/62
f 64/64/64 65/65/65 66/66/66
f 67/67/67 64/64/64 66/66/66
f 70/70/70 69/69/69 68/68/68
f 70/70/70 68/68/68 71/71/71
f 74/74/74 73/73/73 72/72/72
f 75/75/75 74/74/74 72/72/72
f 76/76/76 74/74/74 75/75/75
f 77/77/77 76/76/76 75/75/75
f 80/80/80 79/79/79 78/78/78
f 81/81/81 80/80/80 78/78/78
f 84/84/84 83/83/83 82/82/82
f 85/85/85 84/84/84 82/82/82
f 86/86/86 84/84/84 85/85/85
f 87/87/87 86/86/86 85/85/85
f 90/90/90 89/89/89 88/88/88
f 91/91/91 90/90/90 88/88/88
f 94/94/94 93/93/93 92/92/92
f 95/95/95 94/94/94 92/92/92
f 98/98/98 97/97/97 96/96/96
f 99/99/99 98/98/98 96/96/96
f 102/102/102 101/101/101 100/100/100
f 103/103/103 102/102/102 100/100/100
f 104/104/104 102/102/102 103/103/103
f 107/107/107 106/106/106 105/105/105
f 108/108/108 107/107/107 105/105/105
f 111/111/111 110/110/110 109/109/109
f 112/112/112 111/111/111 109/109/109
f 115/115/115 114/114/114 113/113/113
f 116/116/116 115/115/115 113/113/113
f 119/119/119 118/118/118 117/117/117
f 120/120/120 119/119/119 117/117/117
f 123/123/123 122/122/122 121/121/121
f 121/121/121 122/122/122 124/124/124
f 127/127/127 126/126/126 125/125/125
f 128/128/128 127/127/127 125/125/125
f 131/131/131 130/130/130 129/129/129
f 132/132/132 131/131/131 129/129/129
f 135/135/135 134/134/134 133/133/133
f 136/136/136 135/135/135 133/133/133
f 139/139/139 138/138/138 137/137/137
f 140/140/140 139/139/139 137/137/137
f 143/143/143 142/142/142 141/141/141
f 144/144/144 143/143/143 141/141/141
f 147/147/147 146/146/146 145/145/145
f 148/148/148 147/147/147 145/145/145
f 151/151/151 150/150/150 149/149/149
f 152/152/152 151/151/151 149/149/149
f 155/155/155 154/154/154 153/153/153
f 156/156/156 155/155/155 153/153/153
f 159/159/159 158/158/158 157/157/157
f 160/160/160 159/159/159 157/157/157
f 163/163/163 162/162/162 161/161/161
f 164/164/164 163/163/163 161/161/161
f 167/167/167 166/166/166 165/165/165
f 168/168/168 167/167/167 165/165/165
f 171/171/171 170/170/170 169/169/169
f 172/172/172 171/171/171 169/169/169
f 175/175/175 174/174/174 173/173/173
f 176/176/176 175/175/175 173/173/173
f 179/179/179 178/178/178 177/177/177
f 180/180/180 179/179/179 177/177/177
f 183/183/183 182/182/182 181/181/181
f 184/184/184 183/183/183 181/181/181
f 187/187/187 186/186/186 185/185/185
f 185/185/185 186/186/186 188/188/188
f 189/189/189 186/186/186 187/187/187
f 188/188/188 186/186/186 190/190/190
f 190/190/190 186/186/186 189/189/189
f 193/193/193 192/192/192 191/191/191
f 191/191/191 192/192/192 194/194/194
f 195/195/195 192/192/192 193/193/193
f 194/194/194 192/192/192 196/196/196
f 196/196/196 192/192/192 195/195/195
f 199/199/199 198/198/198 197/197/197
f 197/197/197 198/198/198 200/200/200
f 201/201/201 198/198/198 199/199/199
f 200/200/200 198/198/198 202/202/202
f 202/202/202 198/198/198 201/201/201
