g Spaceship_03_Exhaust
v 3.877746 3.72819 -6.289886
v 3.877746 3.227788 -6.289886
v 4.231584 3.581626 -6.289886
v 3.523909 3.581626 -6.289886
v 4.378148 3.227788 -6.289886
v 3.377345 3.227788 -6.289886
v 4.231584 2.873951 -6.289886
v 3.523909 2.873951 -6.289886
v 3.877746 2.727387 -6.289886
v 1.30823E-08 3.113563 -5.345217
v 1.30823E-08 2.613162 -5.345217
v 0.3538373 2.966999 -5.345217
v -0.3538372 2.966999 -5.345217
v 0.5004014 2.613162 -5.345217
v -0.5004014 2.613162 -5.345217
v 0.3538373 2.259325 -5.345217
v -0.3538372 2.259325 -5.345217
v 1.30823E-08 2.112761 -5.345217
v -3.877746 3.72819 -6.289886
v -4.231584 3.581626 -6.289886
v -3.877746 3.227788 -6.289886
v -3.523909 3.581626 -6.289886
v -4.378148 3.227788 -6.289886
v -3.377345 3.227788 -6.289886
v -4.231584 2.873951 -6.289886
v -3.523909 2.873951 -6.289886
v -3.877746 2.727387 -6.289886
vt 0.3876965 0.03620524
vt 0.3876965 0.1103078
vt 0.4422782 0.05881371
vt 0.3331148 0.05881371
vt 0.4648866 0.1133954
vt 0.3105063 0.1133954
vt 0.4422782 0.1679771
vt 0.3331148 0.1679771
vt 0.3876965 0.1905856
vt 0.3876965 0.03620524
vt 0.3876965 0.1103078
vt 0.4422782 0.05881371
vt 0.3331148 0.05881371
vt 0.4648866 0.1133954
vt 0.3105064 0.1133954
vt 0.4422782 0.1679771
vt 0.3331148 0.1679771
vt 0.3876965 0.1905856
vt 0.3876965 0.03620524
vt 0.4422782 0.05881371
vt 0.3876965 0.1103078
vt 0.3331148 0.05881371
vt 0.4648866 0.1133954
vt 0.3105063 0.1133954
vt 0.4422782 0.1679771
vt 0.3331148 0.1679771
vt 0.3876965 0.1905856
vn 0 0 -1
vn 0 0 -1
vn 0 0 -1
vn 0 0 -1
vn 0 0 -1
vn 0 0 -1
vn 0 0 -1
vn 0 0 -1
vn 0 0 -1
vn 0 0 -1
vn 0 0 -1
vn 0 0 -1
vn 0 0 -1
vn 0 0 -1
vn 0 0 -1
vn 0 0 -1
vn 0 0 -1
vn 0 0 -1
vn 0 0 -1
vn 0 0 -1
vn 0 0 -1
vn 0 0 -1
vn 0 0 -1
vn 0 0 -1
vn 0 0 -1
vn 0 0 -1
vn 0 0 -1
g Spaceship_03_Exhaust_0
f 3/3/3 2/2/2 1/1/1
f 1/1/1 2/2/2 4/4/4
f 5/5/5 2/2/2 3/3/3
f 4/4/4 2/2/2 6/6/6
f 7/7/7 2/2/2 5/5/5
f 6/6/6 2/2/2 8/8/8
f 9/9/9 2/2/2 7/7/7
f 8/8/8 2/2/2 9/9/9
f 12/12/12 11/11/11 10/10/10
f 10/10/10 11/11/11 13/13/13
f 14/14/14 11/11/11 12/12/12
f 13/13/13 11/11/11 15/15/15
f 16/16/16 11/11/11 14/14/14
f 15/15/15 11/11/11 17/17/17
f 18/18/18 11/11/11 16/16/16
f 17/17/17 11/11/11 18/18/18
f 21/21/21 20/20/20 19/19/19
f 21/21/21 19/19/19 22/22/22
f 21/21/21 23/23/23 20/20/20
f 21/21/21 22/22/22 24/24/24
f 21/21/21 25/25/25 23/23/23
f 21/21/21 24/24/24 26/26/26
f 21/21/21 27/27/27 25/25/25
f 21/21/21 26/26/26 27/27/27
