g Spiky wall
v -1.19727 0.9910058 1.084705
v -1.406492 -0.1385677 1.084705
v -1.301881 -0.1385677 0.9035127
v -1.092658 -0.1385677 0.9035127
v -1.301881 -0.1385677 1.265897
v -0.9880469 -0.1385677 1.084705
v -1.092658 -0.1385677 1.265897
v -0.485913 0.9910058 1.084705
v -0.6951351 -0.1385677 1.084705
v -0.5905236 -0.1385677 0.9035127
v -0.3813006 -0.1385677 0.9035127
v -0.5905236 -0.1385677 1.265897
v -0.2766896 -0.1385677 1.084705
v -0.3813009 -0.1385677 1.265897
v 0.2254443 0.9910058 1.084705
v 0.01622227 -0.1385677 1.084705
v 0.1208338 -0.1385677 0.9035127
v 0.3300567 -0.1385677 0.9035127
v 0.1208338 -0.1385677 1.265897
v 0.4346678 -0.1385677 1.084705
v 0.3300564 -0.1385677 1.265897
v 0.9368016 0.9910058 1.084705
v 0.7275796 -0.1385677 1.084705
v 0.8321911 -0.1385677 0.9035127
v 1.041414 -0.1385677 0.9035127
v 0.8321911 -0.1385677 1.265897
v 1.146025 -0.1385677 1.084705
v 1.041414 -0.1385677 1.265897
v -1.19727 0.9910058 0.3599357
v -1.406492 -0.1385677 0.3599358
v -1.301881 -0.1385677 0.1787435
v -1.092658 -0.1385677 0.1787436
v -1.301881 -0.1385677 0.5411281
v -0.9880469 -0.1385677 0.3599359
v -1.092658 -0.1385677 0.5411281
v -0.485913 0.9910058 0.3599357
v -0.6951351 -0.1385677 0.3599358
v -0.5905236 -0.1385677 0.1787435
v -0.3813006 -0.1385677 0.1787436
v -0.5905236 -0.1385677 0.5411281
v -0.2766896 -0.1385677 0.3599359
v -0.3813009 -0.1385677 0.5411281
v 0.2254443 0.9910058 0.3599357
v 0.01622227 -0.1385677 0.3599358
v 0.1208338 -0.1385677 0.1787435
v 0.3300567 -0.1385677 0.1787436
v 0.1208338 -0.1385677 0.5411281
v 0.4346678 -0.1385677 0.3599359
v 0.3300564 -0.1385677 0.5411281
v 0.9368016 0.9910058 0.3599357
v 0.7275796 -0.1385677 0.3599358
v 0.8321911 -0.1385677 0.1787435
v 1.041414 -0.1385677 0.1787436
v 0.8321911 -0.1385677 0.5411281
v 1.146025 -0.1385677 0.3599359
v 1.041414 -0.1385677 0.5411281
v -1.19727 0.9910058 -0.3648334
v -1.406492 -0.1385677 -0.3648333
v -1.301881 -0.1385677 -0.5460256
v -1.092658 -0.1385677 -0.5460255
v -1.301881 -0.1385677 -0.183641
v -0.9880469 -0.1385677 -0.3648332
v -1.092658 -0.1385677 -0.183641
v -0.485913 0.9910058 -0.3648334
v -0.6951351 -0.1385677 -0.3648333
v -0.5905236 -0.1385677 -0.5460256
v -0.3813006 -0.1385677 -0.5460255
v -0.5905236 -0.1385677 -0.183641
v -0.2766896 -0.1385677 -0.3648332
v -0.3813009 -0.1385677 -0.183641
v 0.2254443 0.9910058 -0.3648334
v 0.01622227 -0.1385677 -0.3648333
v 0.1208338 -0.1385677 -0.5460256
v 0.3300567 -0.1385677 -0.5460255
v 0.1208338 -0.1385677 -0.183641
v 0.4346678 -0.1385677 -0.3648332
v 0.3300564 -0.1385677 -0.183641
v 0.9368016 0.9910058 -0.3648334
v 0.7275796 -0.1385677 -0.3648333
v 0.8321911 -0.1385677 -0.5460256
v 1.041414 -0.1385677 -0.5460255
v 0.8321911 -0.1385677 -0.183641
v 1.146025 -0.1385677 -0.3648332
v 1.041414 -0.1385677 -0.183641
v -1.19727 0.9910058 -1.089602
v -1.406492 -0.1385677 -1.089602
v -1.301881 -0.1385677 -1.270795
v -1.092658 -0.1385677 -1.270795
v -1.301881 -0.1385677 -0.9084101
v -0.9880469 -0.1385677 -1.089602
v -1.092658 -0.1385677 -0.9084101
v -0.485913 0.9910058 -1.089602
v -0.6951351 -0.1385677 -1.089602
v -0.5905236 -0.1385677 -1.270795
v -0.3813006 -0.1385677 -1.270795
v -0.5905236 -0.1385677 -0.9084101
v -0.2766896 -0.1385677 -1.089602
v -0.3813009 -0.1385677 -0.9084101
v 0.2254443 0.9910058 -1.089602
v 0.01622227 -0.1385677 -1.089602
v 0.1208338 -0.1385677 -1.270795
v 0.3300567 -0.1385677 -1.270795
v 0.1208338 -0.1385677 -0.9084101
v 0.4346678 -0.1385677 -1.089602
v 0.3300564 -0.1385677 -0.9084101
v 0.9368016 0.9910058 -1.089602
v 0.7275796 -0.1385677 -1.089602
v 0.8321911 -0.1385677 -1.270795
v 1.041414 -0.1385677 -1.270795
v 0.8321911 -0.1385677 -0.9084101
v 1.146025 -0.1385677 -1.089602
v 1.041414 -0.1385677 -0.9084101
v -1.643267 -0.5592043 1.509223
v -1.643267 -0.5592043 -1.490777
v -1.643267 -0.117788 -1.490778
v -1.643267 -0.117788 1.509222
v -1.643267 -0.5592043 -1.490777
v 1.356733 -0.5592043 -1.490777
v 1.356733 -0.117788 -1.490778
v -1.643267 -0.117788 -1.490778
v 1.356733 -0.5592043 -1.490777
v 1.356733 -0.5592043 1.509223
v 1.356733 -0.117788 1.509222
v 1.356733 -0.117788 -1.490778
v 1.356733 -0.5592043 1.509223
v -1.643267 -0.5592043 1.509223
v -1.643267 -0.117788 1.509222
v 1.356733 -0.117788 1.509222
v -1.643267 -0.5592043 -1.490777
v -1.643267 -0.5592043 1.509223
v 1.356733 -0.5592043 1.509223
v 1.356733 -0.5592043 -1.490777
v 1.356733 -0.117788 -1.490778
v 1.356733 -0.117788 1.509222
v -1.643267 -0.117788 1.509222
v -1.643267 -0.117788 -1.490778
vt 0.25 0.25
vt 0.49 0.25
vt 0.37 0.4578461
vt 0.1299999 0.457846
vt 0.37 0.04215391
vt 0.01000001 0.2499999
vt 0.1300001 0.04215388
vt 0.25 0.25
vt 0.49 0.25
vt 0.37 0.4578461
vt 0.1299999 0.457846
vt 0.37 0.04215391
vt 0.01000001 0.2499999
vt 0.1300001 0.04215388
vt 0.25 0.25
vt 0.49 0.25
vt 0.37 0.4578461
vt 0.1299999 0.457846
vt 0.37 0.04215391
vt 0.01000001 0.2499999
vt 0.1300001 0.04215388
vt 0.25 0.25
vt 0.49 0.25
vt 0.37 0.4578461
vt 0.1299999 0.457846
vt 0.37 0.04215391
vt 0.01000001 0.2499999
vt 0.1300001 0.04215388
vt 0.25 0.25
vt 0.49 0.25
vt 0.37 0.4578461
vt 0.1299999 0.457846
vt 0.37 0.04215391
vt 0.01000001 0.2499999
vt 0.1300001 0.04215388
vt 0.25 0.25
vt 0.49 0.25
vt 0.37 0.4578461
vt 0.1299999 0.457846
vt 0.37 0.04215391
vt 0.01000001 0.2499999
vt 0.1300001 0.04215388
vt 0.25 0.25
vt 0.49 0.25
vt 0.37 0.4578461
vt 0.1299999 0.457846
vt 0.37 0.04215391
vt 0.01000001 0.2499999
vt 0.1300001 0.04215388
vt 0.25 0.25
vt 0.49 0.25
vt 0.37 0.4578461
vt 0.1299999 0.457846
vt 0.37 0.04215391
vt 0.01000001 0.2499999
vt 0.1300001 0.04215388
vt 0.25 0.25
vt 0.49 0.25
vt 0.37 0.4578461
vt 0.1299999 0.457846
vt 0.37 0.04215391
vt 0.01000001 0.2499999
vt 0.1300001 0.04215388
vt 0.25 0.25
vt 0.49 0.25
vt 0.37 0.4578461
vt 0.1299999 0.457846
vt 0.37 0.04215391
vt 0.01000001 0.2499999
vt 0.1300001 0.04215388
vt 0.25 0.25
vt 0.49 0.25
vt 0.37 0.4578461
vt 0.1299999 0.457846
vt 0.37 0.04215391
vt 0.01000001 0.2499999
vt 0.1300001 0.04215388
vt 0.25 0.25
vt 0.49 0.25
vt 0.37 0.4578461
vt 0.1299999 0.457846
vt 0.37 0.04215391
vt 0.01000001 0.2499999
vt 0.1300001 0.04215388
vt 0.25 0.25
vt 0.49 0.25
vt 0.37 0.4578461
vt 0.1299999 0.457846
vt 0.37 0.04215391
vt 0.01000001 0.2499999
vt 0.1300001 0.04215388
vt 0.25 0.25
vt 0.49 0.25
vt 0.37 0.4578461
vt 0.1299999 0.457846
vt 0.37 0.04215391
vt 0.01000001 0.2499999
vt 0.1300001 0.04215388
vt 0.25 0.25
vt 0.49 0.25
vt 0.37 0.4578461
vt 0.1299999 0.457846
vt 0.37 0.04215391
vt 0.01000001 0.2499999
vt 0.1300001 0.04215388
vt 0.25 0.25
vt 0.49 0.25
vt 0.37 0.4578461
vt 0.1299999 0.457846
vt 0.37 0.04215391
vt 0.01000001 0.2499999
vt 0.1300001 0.04215388
vt 0.375 0
vt 0.375 0.25
vt 0.625 0.25
vt 0.625 0
vt 0.375 0.25
vt 0.375 0.5
vt 0.625 0.5
vt 0.625 0.25
vt 0.375 0.5
vt 0.375 0.75
vt 0.625 0.75
vt 0.625 0.5
vt 0.375 0.75
vt 0.375 1
vt 0.625 1
vt 0.625 0.75
vt 0.125 0.5
vt 0.125 0.75
vt 0.375 0.75
vt 0.375 0.5
vt 0.625 0.5
vt 0.625 0.75
vt 0.875 0.75
vt 0.875 0.5
vn 0 1 0
vn -0.9832755 0.1821244 0
vn -0.4916371 0.1821245 -0.8515419
vn 0.4916387 0.1821254 -0.8515409
vn -0.4916376 0.1821248 0.8515416
vn 0.9832752 0.1821256 0
vn 0.4916379 0.1821255 0.8515412
vn 0 1 0
vn -0.9832755 0.1821244 0
vn -0.4916372 0.1821246 -0.8515418
vn 0.4916386 0.1821253 -0.8515409
vn -0.4916375 0.1821249 0.8515416
vn 0.9832752 0.1821256 0
vn 0.4916378 0.1821255 0.8515413
vn 0 1 0
vn -0.9832755 0.1821244 0
vn -0.4916372 0.1821246 -0.8515418
vn 0.4916385 0.1821253 -0.8515409
vn -0.4916375 0.1821249 0.8515416
vn 0.9832752 0.1821256 0
vn 0.4916378 0.1821255 0.8515413
vn 0 1 0
vn -0.9832755 0.1821244 0
vn -0.4916372 0.1821246 -0.8515418
vn 0.4916387 0.1821253 -0.8515409
vn -0.4916375 0.1821249 0.8515416
vn 0.9832752 0.1821256 0
vn 0.4916378 0.1821255 0.8515413
vn 0 1 0
vn -0.9832755 0.1821244 0
vn -0.4916371 0.1821246 -0.8515419
vn 0.4916384 0.1821254 -0.851541
vn -0.4916376 0.1821248 0.8515416
vn 0.9832752 0.1821256 0
vn 0.4916379 0.1821255 0.8515412
vn 0 1 0
vn -0.9832755 0.1821244 0
vn -0.4916373 0.1821246 -0.8515418
vn 0.4916383 0.1821253 -0.851541
vn -0.4916375 0.1821248 0.8515416
vn 0.9832752 0.1821256 0
vn 0.4916378 0.1821254 0.8515413
vn 0 1 0
vn -0.9832755 0.1821244 0
vn -0.4916372 0.1821246 -0.8515419
vn 0.4916383 0.1821253 -0.851541
vn -0.4916375 0.1821248 0.8515416
vn 0.9832752 0.1821256 0
vn 0.4916378 0.1821254 0.8515413
vn 0 1 0
vn -0.9832755 0.1821244 0
vn -0.4916372 0.1821246 -0.8515419
vn 0.4916385 0.1821254 -0.8515409
vn -0.4916375 0.1821248 0.8515416
vn 0.9832752 0.1821256 0
vn 0.4916379 0.1821255 0.8515413
vn 0 1 0
vn -0.9832755 0.1821244 0
vn -0.4916372 0.1821246 -0.8515419
vn 0.4916385 0.1821254 -0.8515409
vn -0.4916376 0.1821248 0.8515416
vn 0.9832752 0.1821257 0
vn 0.4916379 0.1821255 0.8515412
vn 0 1 0
vn -0.9832755 0.1821244 0
vn -0.4916373 0.1821246 -0.8515418
vn 0.4916385 0.1821254 -0.8515409
vn -0.4916375 0.1821248 0.8515416
vn 0.9832752 0.1821256 0
vn 0.4916378 0.1821254 0.8515413
vn 0 1 0
vn -0.9832755 0.1821244 0
vn -0.4916372 0.1821246 -0.8515418
vn 0.4916384 0.1821254 -0.851541
vn -0.4916375 0.1821248 0.8515416
vn 0.9832752 0.1821256 0
vn 0.4916378 0.1821254 0.8515413
vn 0 1 0
vn -0.9832755 0.1821244 0
vn -0.4916372 0.1821246 -0.8515419
vn 0.4916385 0.1821254 -0.8515409
vn -0.4916375 0.1821248 0.8515416
vn 0.9832752 0.1821256 0
vn 0.4916379 0.1821255 0.8515413
vn 0 1 0
vn -0.9832755 0.1821244 0
vn -0.4916371 0.1821246 -0.8515419
vn 0.4916384 0.1821254 -0.851541
vn -0.4916376 0.1821248 0.8515416
vn 0.9832752 0.1821257 0
vn 0.491638 0.1821255 0.8515412
vn 0 1 0
vn -0.9832755 0.1821244 0
vn -0.4916372 0.1821246 -0.8515419
vn 0.4916383 0.1821254 -0.851541
vn -0.4916377 0.1821248 0.8515415
vn 0.9832752 0.1821256 0
vn 0.4916378 0.1821254 0.8515413
vn 0 1 0
vn -0.9832755 0.1821244 0
vn -0.4916372 0.1821246 -0.8515419
vn 0.4916382 0.1821254 -0.8515411
vn -0.4916376 0.1821248 0.8515416
vn 0.9832752 0.1821256 0
vn 0.4916378 0.1821255 0.8515413
vn 0 1 0
vn -0.9832755 0.1821244 0
vn -0.4916372 0.1821246 -0.8515419
vn 0.4916384 0.1821254 -0.851541
vn -0.4916376 0.1821248 0.8515415
vn 0.9832752 0.1821256 0
vn 0.4916379 0.1821254 0.8515412
vn -1 0 0
vn -1 0 0
vn -1 0 0
vn -1 0 0
vn 0 0 -1
vn 0 0 -1
vn 0 0 -1
vn 0 0 -1
vn 1 0 0
vn 1 0 0
vn 1 0 0
vn 1 0 0
vn 0 0 1
vn 0 0 1
vn 0 0 1
vn 0 0 1
vn 0 -1 0
vn 0 -1 0
vn 0 -1 0
vn 0 -1 0
vn 0 1 0
vn 0 1 0
vn 0 1 0
vn 0 1 0
g Spiky wall_0
f 3/3/3 2/2/2 1/1/1
f 3/3/3 1/1/1 4/4/4
f 2/2/2 5/5/5 1/1/1
f 6/6/6 4/4/4 1/1/1
f 5/5/5 7/7/7 1/1/1
f 7/7/7 6/6/6 1/1/1
f 10/10/10 9/9/9 8/8/8
f 10/10/10 8/8/8 11/11/11
f 9/9/9 12/12/12 8/8/8
f 13/13/13 11/11/11 8/8/8
f 12/12/12 14/14/14 8/8/8
f 14/14/14 13/13/13 8/8/8
f 17/17/17 16/16/16 15/15/15
f 17/17/17 15/15/15 18/18/18
f 16/16/16 19/19/19 15/15/15
f 20/20/20 18/18/18 15/15/15
f 19/19/19 21/21/21 15/15/15
f 21/21/21 20/20/20 15/15/15
f 24/24/24 23/23/23 22/22/22
f 24/24/24 22/22/22 25/25/25
f 23/23/23 26/26/26 22/22/22
f 27/27/27 25/25/25 22/22/22
f 26/26/26 28/28/28 22/22/22
f 28/28/28 27/27/27 22/22/22
f 31/31/31 30/30/30 29/29/29
f 31/31/31 29/29/29 32/32/32
f 30/30/30 33/33/33 29/29/29
f 34/34/34 32/32/32 29/29/29
f 33/33/33 35/35/35 29/29/29
f 35/35/35 34/34/34 29/29/29
f 38/38/38 37/37/37 36/36/36
f 38/38/38 36/36/36 39/39/39
f 37/37/37 40/40/40 36/36/36
f 41/41/41 39/39/39 36/36/36
f 40/40/40 42/42/42 36/36/36
f 42/42/42 41/41/41 36/36/36
f 45/45/45 44/44/44 43/43/43
f 45/45/45 43/43/43 46/46/46
f 44/44/44 47/47/47 43/43/43
f 48/48/48 46/46/46 43/43/43
f 47/47/47 49/49/49 43/43/43
f 49/49/49 48/48/48 43/43/43
f 52/52/52 51/51/51 50/50/50
f 52/52/52 50/50/50 53/53/53
f 51/51/51 54/54/54 50/50/50
f 55/55/55 53/53/53 50/50/50
f 54/54/54 56/56/56 50/50/50
f 56/56/56 55/55/55 50/50/50
f 59/59/59 58/58/58 57/57/57
f 59/59/59 57/57/57 60/60/60
f 58/58/58 61/61/61 57/57/57
f 62/62/62 60/60/60 57/57/57
f 61/61/61 63/63/63 57/57/57
f 63/63/63 62/62/62 57/57/57
f 66/66/66 65/65/65 64/64/64
f 66/66/66 64/64/64 67/67/67
f 65/65/65 68/68/68 64/64/64
f 69/69/69 67/67/67 64/64/64
f 68/68/68 70/70/70 64/64/64
f 70/70/70 69/69/69 64/64/64
f 73/73/73 72/72/72 71/71/71
f 73/73/73 71/71/71 74/74/74
f 72/72/72 75/75/75 71/71/71
f 76/76/76 74/74/74 71/71/71
f 75/75/75 77/77/77 71/71/71
f 77/77/77 76/76/76 71/71/71
f 80/80/80 79/79/79 78/78/78
f 80/80/80 78/78/78 81/81/81
f 79/79/79 82/82/82 78/78/78
f 83/83/83 81/81/81 78/78/78
f 82/82/82 84/84/84 78/78/78
f 84/84/84 83/83/83 78/78/78
f 87/87/87 86/86/86 85/85/85
f 87/87/87 85/85/85 88/88/88
f 86/86/86 89/89/89 85/85/85
f 90/90/90 88/88/88 85/85/85
f 89/89/89 91/91/91 85/85/85
f 91/91/91 90/90/90 85/85/85
f 94/94/94 93/93/93 92/92/92
f 94/94/94 92/92/92 95/95/95
f 93/93/93 96/96/96 92/92/92
f 97/97/97 95/95/95 92/92/92
f 96/96/96 98/98/98 92/92/92
f 98/98/98 97/97/97 92/92/92
f 101/101/101 100/100/100 99/99/99
f 101/101/101 99/99/99 102/102/102
f 100/100/100 103/103/103 99/99/99
f 104/104/104 102/102/102 99/99/99
f 103/103/103 105/105/105 99/99/99
f 105/105/105 104/104/104 99/99/99
f 108/108/108 107/107/107 106/106/106
f 108/108/108 106/106/106 109/109/109
f 107/107/107 110/110/110 106/106/106
f 111/111/111 109/109/109 106/106/106
f 110/110/110 112/112/112 106/106/106
f 112/112/112 111/111/111 106/106/106
g Spiky wall_1
f 115/115/115 114/114/114 113/113/113
f 116/116/116 115/115/115 113/113/113
f 119/119/119 118/118/118 117/117/117
f 120/120/120 119/119/119 117/117/117
f 123/123/123 122/122/122 121/121/121
f 124/124/124 123/123/123 121/121/121
f 127/127/127 126/126/126 125/125/125
f 128/128/128 127/127/127 125/125/125
f 131/131/131 130/130/130 129/129/129
f 132/132/132 131/131/131 129/129/129
f 135/135/135 134/134/134 133/133/133
f 136/136/136 135/135/135 133/133/133
