g Sword 01
v -0.05707457 -0.172236 -0.04326047
v 0.05707457 -0.172236 0.04326042
v 0.05707457 -0.172236 -0.04326047
v -0.05707457 -0.172236 0.04326042
v -0.05707457 -0.08627691 -0.04326046
v 0.05707457 -0.172236 -0.04326047
v 0.05707457 -0.08627691 -0.04326046
v -0.05707457 -0.172236 -0.04326047
v 0.05707457 -0.08627691 -0.04326046
v 0.05707457 -0.172236 0.04326042
v 0.05707457 -0.0862769 0.04326043
v 0.05707457 -0.172236 -0.04326047
v 0.05707457 -0.0862769 0.04326043
v -0.05707457 -0.172236 0.04326042
v -0.05707457 -0.0862769 0.04326043
v 0.05707457 -0.172236 0.04326042
v -0.05707457 -0.0862769 0.04326043
v -0.05707457 -0.172236 -0.04326047
v -0.05707457 -0.08627691 -0.04326046
v -0.05707457 -0.172236 0.04326042
v 0.05707457 -0.0862769 0.04326043
v -0.05707457 -0.08627691 -0.04326046
v 0.05707457 -0.08627691 -0.04326046
v -0.05707457 -0.0862769 0.04326043
v -0.03456063 0.1211067 -0.032091
v 0.03456063 -0.09408522 -0.03209101
v 0.03456064 0.1211067 -0.032091
v -0.03456064 -0.09408522 -0.03209101
v 0.03456064 0.1211067 -0.032091
v 0.03456063 -0.09408523 0.03209098
v 0.03456064 0.1211068 0.03209101
v 0.03456063 -0.09408522 -0.03209101
v 0.03456064 0.1211068 0.03209101
v -0.03456064 -0.09408523 0.03209098
v -0.03456063 0.1211068 0.03209101
v 0.03456063 -0.09408523 0.03209098
v -0.03456063 0.1211068 0.03209101
v -0.03456064 -0.09408522 -0.03209101
v -0.03456063 0.1211067 -0.032091
v -0.03456064 -0.09408523 0.03209098
v -0.03759063 -1.200737 -0.0189403
v 0.03759062 -1.200737 0.01894
v 0.03759062 -1.200737 -0.0189403
v -0.03759063 -1.200737 0.01894
v -0.03759064 -0.1569931 -0.01894018
v 0.03759062 -1.200737 -0.0189403
v 0.03759061 -0.1569931 -0.01894018
v -0.03759063 -1.200737 -0.0189403
v 0.03759061 -0.1569931 -0.01894018
v 0.03759062 -1.200737 0.01894
v 0.03759061 -0.1569931 0.01894013
v 0.03759062 -1.200737 -0.0189403
v 0.03759061 -0.1569931 0.01894013
v -0.03759063 -1.200737 0.01894
v -0.03759064 -0.1569931 0.01894013
v 0.03759062 -1.200737 0.01894
v -0.03759064 -0.1569931 0.01894013
v -0.03759063 -1.200737 -0.0189403
v -0.03759064 -0.1569931 -0.01894018
v -0.03759063 -1.200737 0.01894
v -0.05707457 -0.2129614 -0.04326047
v 0.05707457 -0.2129614 0.04326041
v 0.05707457 -0.2129614 -0.04326047
v -0.05707457 -0.2129614 0.04326041
v -0.05707457 -0.1871266 -0.04326046
v 0.05707457 -0.2129614 -0.04326047
v 0.05707457 -0.1871266 -0.04326046
v -0.05707457 -0.2129614 -0.04326047
v 0.05707457 -0.1871266 -0.04326046
v 0.05707457 -0.2129614 0.04326041
v 0.05707457 -0.1871266 0.04326041
v 0.05707457 -0.2129614 -0.04326047
v 0.05707457 -0.1871266 0.04326041
v -0.05707457 -0.2129614 0.04326041
v -0.05707457 -0.1871266 0.04326041
v 0.05707457 -0.2129614 0.04326041
v -0.05707457 -0.1871266 0.04326041
v -0.05707457 -0.2129614 -0.04326047
v -0.05707457 -0.1871266 -0.04326046
v -0.05707457 -0.2129614 0.04326041
v 0.05707457 -0.1871266 0.04326041
v -0.05707457 -0.1871266 -0.04326046
v 0.05707457 -0.1871266 -0.04326046
v -0.05707457 -0.1871266 0.04326041
v -0.05707457 -0.2539502 -0.04326047
v 0.05707457 -0.2539502 0.0432604
v 0.05707457 -0.2539502 -0.04326047
v -0.05707457 -0.2539502 0.0432604
v -0.05707457 -0.2281154 -0.04326046
v 0.05707457 -0.2539502 -0.04326047
v 0.05707457 -0.2281154 -0.04326046
v -0.05707457 -0.2539502 -0.04326047
v 0.05707457 -0.2281154 -0.04326046
v 0.05707457 -0.2539502 0.0432604
v 0.05707457 -0.2281154 0.04326041
v 0.05707457 -0.2539502 -0.04326047
v 0.05707457 -0.2281154 0.04326041
v -0.05707457 -0.2539502 0.0432604
v -0.05707457 -0.2281154 0.04326041
v 0.05707457 -0.2539502 0.0432604
v -0.05707457 -0.2281154 0.04326041
v -0.05707457 -0.2539502 -0.04326047
v -0.05707457 -0.2281154 -0.04326046
v -0.05707457 -0.2539502 0.0432604
v 0.05707457 -0.2281154 0.04326041
v -0.05707457 -0.2281154 -0.04326046
v 0.05707457 -0.2281154 -0.04326046
v -0.05707457 -0.2281154 0.04326041
v -0.04423527 0.1056271 -0.03845732
v 0.04423527 0.1056271 0.03845733
v 0.04423527 0.1056271 -0.03845732
v -0.04423527 0.1056271 0.03845733
v -0.04423527 0.1592899 -0.03845731
v 0.04423527 0.1056271 -0.03845732
v 0.04423527 0.1592899 -0.03845731
v -0.04423527 0.1056271 -0.03845732
v 0.04423527 0.1592899 -0.03845731
v 0.04423527 0.1056271 0.03845733
v 0.04423527 0.1592899 0.03845734
v 0.04423527 0.1056271 -0.03845732
v 0.04423527 0.1592899 0.03845734
v -0.04423527 0.1056271 0.03845733
v -0.04423527 0.1592899 0.03845734
v 0.04423527 0.1056271 0.03845733
v -0.04423527 0.1592899 0.03845734
v -0.04423527 0.1056271 -0.03845732
v -0.04423527 0.1592899 -0.03845731
v -0.04423527 0.1056271 0.03845733
v 0.04423527 0.1592899 0.03845734
v -0.04423527 0.1592899 -0.03845731
v 0.04423527 0.1592899 -0.03845731
v -0.04423527 0.1592899 0.03845734
vt 0.9303014 0.5964967
vt 0.9466323 0.6580898
vt 0.9466323 0.5964967
vt 0.9303014 0.6580898
vt 0.9303014 0.5964967
vt 0.9466323 0.5964967
vt 0.9466323 0.5964967
vt 0.9303014 0.5964967
vt 0.9466323 0.5964967
vt 0.9466323 0.6580898
vt 0.9466323 0.6580898
vt 0.9466323 0.5964967
vt 0.9466323 0.6580898
vt 0.9303014 0.6580898
vt 0.9303014 0.6580898
vt 0.9466323 0.6580898
vt 0.9303014 0.6580898
vt 0.9303014 0.5964967
vt 0.9303014 0.5964967
vt 0.9303014 0.6580898
vt 0.9466323 0.6580898
vt 0.9303014 0.5964967
vt 0.9466323 0.5964967
vt 0.9303014 0.6580898
vt 0.6021516 0.8318525
vt 0.6184824 0.8318525
vt 0.6184824 0.8318525
vt 0.6021516 0.8318525
vt 0.6184824 0.8318525
vt 0.6184824 0.8934456
vt 0.6184824 0.8934456
vt 0.6184824 0.8318525
vt 0.6184824 0.8934456
vt 0.6021516 0.8934456
vt 0.6021516 0.8934456
vt 0.6184824 0.8934456
vt 0.6021516 0.8934456
vt 0.6021516 0.8318525
vt 0.6021516 0.8318525
vt 0.6021516 0.8934456
vt 0.9135582 0.06625736
vt 0.9298891 0.1278504
vt 0.9298891 0.06625736
vt 0.9135582 0.1278504
vt 0.9135582 0.06625736
vt 0.9298891 0.06625736
vt 0.9298891 0.06625736
vt 0.9135582 0.06625736
vt 0.9298891 0.06625736
vt 0.9298891 0.1278504
vt 0.9298891 0.1278504
vt 0.9298891 0.06625736
vt 0.9298891 0.1278504
vt 0.9135582 0.1278504
vt 0.9135582 0.1278504
vt 0.9298891 0.1278504
vt 0.9135582 0.1278504
vt 0.9135582 0.06625736
vt 0.9135582 0.06625736
vt 0.9135582 0.1278504
vt 0.9303014 0.5964967
vt 0.9466323 0.6580898
vt 0.9466323 0.5964967
vt 0.9303014 0.6580898
vt 0.9303014 0.5964967
vt 0.9466323 0.5964967
vt 0.9466323 0.5964967
vt 0.9303014 0.5964967
vt 0.9466323 0.5964967
vt 0.9466323 0.6580898
vt 0.9466323 0.6580898
vt 0.9466323 0.5964967
vt 0.9466323 0.6580898
vt 0.9303014 0.6580898
vt 0.9303014 0.6580898
vt 0.9466323 0.6580898
vt 0.9303014 0.6580898
vt 0.9303014 0.5964967
vt 0.9303014 0.5964967
vt 0.9303014 0.6580898
vt 0.9466323 0.6580898
vt 0.9303014 0.5964967
vt 0.9466323 0.5964967
vt 0.9303014 0.6580898
vt 0.9303014 0.5964967
vt 0.9466323 0.6580898
vt 0.9466323 0.5964967
vt 0.9303014 0.6580898
vt 0.9303014 0.5964967
vt 0.9466323 0.5964967
vt 0.9466323 0.5964967
vt 0.9303014 0.5964967
vt 0.9466323 0.5964967
vt 0.9466323 0.6580898
vt 0.9466323 0.6580898
vt 0.9466323 0.5964967
vt 0.9466323 0.6580898
vt 0.9303014 0.6580898
vt 0.9303014 0.6580898
vt 0.9466323 0.6580898
vt 0.9303014 0.6580898
vt 0.9303014 0.5964967
vt 0.9303014 0.5964967
vt 0.9303014 0.6580898
vt 0.9466323 0.6580898
vt 0.9303014 0.5964967
vt 0.9466323 0.5964967
vt 0.9303014 0.6580898
vt 0.9303014 0.5964967
vt 0.9466323 0.6580898
vt 0.9466323 0.5964967
vt 0.9303014 0.6580898
vt 0.9303014 0.5964967
vt 0.9466323 0.5964967
vt 0.9466323 0.5964967
vt 0.9303014 0.5964967
vt 0.9466323 0.5964967
vt 0.9466323 0.6580898
vt 0.9466323 0.6580898
vt 0.9466323 0.5964967
vt 0.9466323 0.6580898
vt 0.9303014 0.6580898
vt 0.9303014 0.6580898
vt 0.9466323 0.6580898
vt 0.9303014 0.6580898
vt 0.9303014 0.5964967
vt 0.9303014 0.5964967
vt 0.9303014 0.6580898
vt 0.9466323 0.6580898
vt 0.9303014 0.5964967
vt 0.9466323 0.5964967
vt 0.9303014 0.6580898
vn 0 -1 0
vn 0 -1 0
vn 0 -1 0
vn 0 -1 0
vn 0 0 -1
vn 0 0 -1
vn 0 0 -1
vn 0 0 -1
vn 1 0 0
vn 1 0 0
vn 1 0 0
vn 1 0 0
vn 0 0 1
vn 0 0 1
vn 0 0 1
vn 0 0 1
vn -1 0 0
vn -1 0 0
vn -1 0 0
vn -1 0 0
vn 0 1 -1.653371E-07
vn 0 1 -1.653371E-07
vn 0 1 -1.653371E-07
vn 0 1 -1.653371E-07
vn 0 0 -1
vn 0 0 -1
vn 0 0 -1
vn 0 0 -1
vn 1 0 0
vn 1 0 0
vn 1 0 0
vn 1 0 0
vn 0 0 1
vn 0 0 1
vn 0 0 1
vn 0 0 1
vn -1 0 0
vn -1 0 0
vn -1 0 0
vn -1 0 0
vn 0 -1 0
vn 0 -1 0
vn 0 -1 0
vn 0 -1 0
vn 0 0 -1
vn 0 0 -1
vn 0 0 -1
vn 0 0 -1
vn 1 0 0
vn 1 0 0
vn 1 0 0
vn 1 0 0
vn 0 0 1
vn 0 0 1
vn 0 0 1
vn 0 0 1
vn -1 0 0
vn -1 0 0
vn -1 0 0
vn -1 0 0
vn 0 -1 0
vn 0 -1 0
vn 0 -1 0
vn 0 -1 0
vn 0 0 -1
vn 0 0 -1
vn 0 0 -1
vn 0 0 -1
vn 1 0 0
vn 1 0 0
vn 1 0 0
vn 1 0 0
vn 0 0 1
vn 0 0 1
vn 0 0 1
vn 0 0 1
vn -1 0 0
vn -1 0 0
vn -1 0 0
vn -1 0 0
vn 0 1 -1.653372E-07
vn 0 1 -1.653372E-07
vn 0 1 -1.653372E-07
vn 0 1 -1.653372E-07
vn 0 -1 0
vn 0 -1 0
vn 0 -1 0
vn 0 -1 0
vn 0 0 -1
vn 0 0 -1
vn 0 0 -1
vn 0 0 -1
vn 1 0 0
vn 1 0 0
vn 1 0 0
vn 1 0 0
vn 0 -2.768572E-07 1
vn 0 -2.768572E-07 1
vn 0 -2.768572E-07 1
vn 0 -2.768572E-07 1
vn -1 0 0
vn -1 0 0
vn -1 0 0
vn -1 0 0
vn 0 1 0
vn 0 1 0
vn 0 1 0
vn 0 1 0
vn 0 -1 0
vn 0 -1 0
vn 0 -1 0
vn 0 -1 0
vn 0 0 -1
vn 0 0 -1
vn 0 0 -1
vn 0 0 -1
vn 1 0 0
vn 1 0 0
vn 1 0 0
vn 1 0 0
vn 0 -1.999307E-07 1
vn 0 -1.999307E-07 1
vn 0 -1.999307E-07 1
vn 0 -1.999307E-07 1
vn -1 0 0
vn -1 0 0
vn -1 0 0
vn -1 0 0
vn 0 1 -3.719738E-07
vn 0 1 -3.719738E-07
vn 0 1 -3.719738E-07
vn 0 1 -3.719738E-07
g Sword 01_0
f 3/3/3 2/2/2 1/1/1
f 4/4/4 1/1/1 2/2/2
f 7/7/7 6/6/6 5/5/5
f 8/8/8 5/5/5 6/6/6
f 11/11/11 10/10/10 9/9/9
f 12/12/12 9/9/9 10/10/10
f 15/15/15 14/14/14 13/13/13
f 16/16/16 13/13/13 14/14/14
f 19/19/19 18/18/18 17/17/17
f 20/20/20 17/17/17 18/18/18
f 23/23/23 22/22/22 21/21/21
f 24/24/24 21/21/21 22/22/22
f 27/27/27 26/26/26 25/25/25
f 28/28/28 25/25/25 26/26/26
f 31/31/31 30/30/30 29/29/29
f 32/32/32 29/29/29 30/30/30
f 35/35/35 34/34/34 33/33/33
f 36/36/36 33/33/33 34/34/34
f 39/39/39 38/38/38 37/37/37
f 40/40/40 37/37/37 38/38/38
f 43/43/43 42/42/42 41/41/41
f 44/44/44 41/41/41 42/42/42
f 47/47/47 46/46/46 45/45/45
f 48/48/48 45/45/45 46/46/46
f 51/51/51 50/50/50 49/49/49
f 52/52/52 49/49/49 50/50/50
f 55/55/55 54/54/54 53/53/53
f 56/56/56 53/53/53 54/54/54
f 59/59/59 58/58/58 57/57/57
f 60/60/60 57/57/57 58/58/58
f 63/63/63 62/62/62 61/61/61
f 64/64/64 61/61/61 62/62/62
f 67/67/67 66/66/66 65/65/65
f 68/68/68 65/65/65 66/66/66
f 71/71/71 70/70/70 69/69/69
f 72/72/72 69/69/69 70/70/70
f 75/75/75 74/74/74 73/73/73
f 76/76/76 73/73/73 74/74/74
f 79/79/79 78/78/78 77/77/77
f 80/80/80 77/77/77 78/78/78
f 83/83/83 82/82/82 81/81/81
f 84/84/84 81/81/81 82/82/82
f 87/87/87 86/86/86 85/85/85
f 88/88/88 85/85/85 86/86/86
f 91/91/91 90/90/90 89/89/89
f 92/92/92 89/89/89 90/90/90
f 95/95/95 94/94/94 93/93/93
f 96/96/96 93/93/93 94/94/94
f 99/99/99 98/98/98 97/97/97
f 100/100/100 97/97/97 98/98/98
f 103/103/103 102/102/102 101/101/101
f 104/104/104 101/101/101 102/102/102
f 107/107/107 106/106/106 105/105/105
f 108/108/108 105/105/105 106/106/106
f 111/111/111 110/110/110 109/109/109
f 112/112/112 109/109/109 110/110/110
f 115/115/115 114/114/114 113/113/113
f 116/116/116 113/113/113 114/114/114
f 119/119/119 118/118/118 117/117/117
f 120/120/120 117/117/117 118/118/118
f 123/123/123 122/122/122 121/121/121
f 124/124/124 121/121/121 122/122/122
f 127/127/127 126/126/126 125/125/125
f 128/128/128 125/125/125 126/126/126
f 131/131/131 130/130/130 129/129/129
f 132/132/132 129/129/129 130/130/130
